<svg width="112" height="113" viewBox="0 0 112 113" fill="white" style="fill:white" xmlns="http://www.w3.org/2000/svg">
<path fill-rule="evenodd" clip-rule="evenodd" d="M15.6903 2.23453C2.76676 4.42736 -2.89395 20.9382 5.85598 30.9195C7.07491 32.3113 6.97955 33.2888 4.90077 40.7209C-0.116628 58.6618 -1.12528 68.5433 1.16289 77.3298C6.00654 95.9247 20.9429 106.56 45.882 109.171C72.3893 111.946 94.9404 104.818 104.681 90.5839C109.446 83.6196 111.24 77.8795 111.847 67.6443C112.379 58.6743 111.661 54.2218 107.522 40.8215L104.728 31.7749L106.825 28.8309C110.918 23.082 110.103 12.9403 105.087 7.22698C98.5892 -0.17749 84.2231 0.535335 78.2942 8.55462L76.4061 11.1083H55.514H34.622L33.1732 8.89677C30.0154 4.07808 22.2554 1.12074 15.6903 2.23453ZM37.2541 29.6275C37.2541 30.858 32.161 33.3841 29.6804 33.3841C27.1997 33.3841 22.1066 30.858 22.1066 29.6275C22.1066 29.2435 25.5148 28.9289 29.6804 28.9289C33.8459 28.9289 37.2541 29.2435 37.2541 29.6275ZM87.1519 29.7968C87.1519 31.1414 82.1969 33.3841 79.2262 33.3841C77.6597 33.3841 75.5275 32.477 74.0591 31.185L71.5588 28.9851L79.3554 28.9575C83.8417 28.9405 87.1519 29.2978 87.1519 29.7968ZM66.529 33.1293C71.6167 36.2746 75.7324 41.5941 78.2505 48.2804C81.0795 55.7918 80.5494 68.3384 77.1064 75.3757C72.3332 85.1325 64.9474 90.3709 55.9658 90.3709C46.9904 90.3709 39.5984 85.1317 34.835 75.3954C31.6967 68.9826 30.8913 56.5082 33.1705 49.6445C38.776 32.7702 53.8647 25.2998 66.529 33.1293ZM45.7394 43.1623C44.3539 44.6931 44.295 45.2776 45.2814 47.6602C46.7472 51.1976 50.3069 52.9868 55.8794 52.9868C61.4341 52.9868 64.6391 51.5736 66.2795 48.4024C67.8905 45.2865 67.8727 44.5273 66.1494 42.8032C65.0668 41.7215 62.7688 41.4034 56.0406 41.4034C48.5007 41.4034 47.1179 41.6395 45.7394 43.1623Z" />
</svg>
