<svg width="112" height="113" viewBox="0 0 112 113" fill="white" style="fill:white" xmlns="http://www.w3.org/2000/svg">
<path fill-rule="evenodd" clip-rule="evenodd" d="M50.201 0.335528C21.7094 5.81552 6 21.473 6 44.3887C6 50.4705 8.78556 61.435 11.9148 67.6685C19.6852 83.148 37.2853 102.124 50.3327 109.09L55.7847 112L59.5102 110.32C72.3105 104.55 91.7688 84.2449 99.9577 68.1113C112.176 44.039 105.431 19.0091 83.6358 7.53678C73.7177 2.317 57.7638 -1.11918 50.201 0.335528ZM32.7281 51.2304C42.7247 54.7497 47.5237 60.3869 49.9132 71.4164C50.7404 75.2348 51.2275 78.5481 50.9966 78.7803C50.2731 79.5041 40.1277 76.5187 35.7355 74.2897C27.9643 70.3448 22.2939 61.7033 22.2569 53.7503C22.238 49.5714 22.3093 49.4585 24.9658 49.4585C26.4669 49.4585 29.9596 50.2554 32.7281 51.2304ZM89.8718 53.7503C89.8348 61.7033 84.1645 70.3448 76.3932 74.2897C72.0011 76.5187 61.8556 79.5041 61.1321 78.7803C60.9012 78.5481 61.3883 75.2348 62.2155 71.4164C63.878 63.7435 66.5815 58.9511 71.2668 55.3713C75.0139 52.5089 82.9485 49.5353 86.9599 49.491C89.8637 49.4585 89.8916 49.5001 89.8718 53.7503Z" />
</svg>
