<svg width="112" height="113" viewBox="0 0 112 113" fill="white" style="fill:white" xmlns="http://www.w3.org/2000/svg">
<path fill-rule="evenodd" clip-rule="evenodd" d="M45.8989 17.5344C40.3218 27.7081 35.3186 35.7353 33.9791 36.6543C32.7104 37.5264 24.5464 42.1267 15.8361 46.8775C7.12576 51.6292 0 55.7338 0 56C0 56.2662 7.12576 60.3708 15.8361 65.1225C24.5464 69.8733 32.7618 74.5103 34.093 75.4265C35.5839 76.4519 40.1538 83.7953 45.9916 94.5454C51.2042 104.145 55.6989 112 55.9789 112C56.2598 112 60.7967 104.122 66.0607 94.494C71.7342 84.1184 76.5896 76.3298 77.9804 75.3742C79.2712 74.4864 87.4536 69.8733 96.1639 65.1225C104.874 60.3708 112 56.2653 112 55.9982C112 55.7301 104.109 51.1858 94.4656 45.8989C84.2919 40.3218 76.2646 35.3186 75.3457 33.9791C74.4736 32.7104 69.8733 24.5464 65.1225 15.8361C60.3707 7.12577 56.2653 0 55.9982 0C55.7301 0 51.1858 7.8905 45.8989 17.5344Z" />
</svg>
