<svg width="112" height="113" viewBox="0 0 112 113" fill="white" style="fill:white" xmlns="http://www.w3.org/2000/svg">
<path fill-rule="evenodd" clip-rule="evenodd" d="M43.7192 1.67962C36.9364 3.84682 32.3989 6.85866 25.764 13.5983C15.0898 24.4389 13.8536 28.8082 11.4484 64.2076C10.0918 84.1674 10.0753 84.24 3.21982 99.3892C0.118828 106.242 0.184994 107.133 3.93577 108.922C7.79409 110.762 10.3216 110.184 15.4832 106.281C23.6079 100.139 22.7072 100.34 24.3413 104.305C26.4267 109.366 29.1499 112 32.2959 112C34.9319 112 36.9438 110.337 41.9399 104.033L44.0023 101.431L46.3239 104.188C52.5139 111.539 53.0571 112 55.5019 112C57.9467 112 58.4899 111.539 64.6799 104.188L67.0015 101.431L69.0639 104.033C74.06 110.337 76.0719 112 78.7079 112C81.8539 112 84.5771 109.366 86.6625 104.305C88.2966 100.34 87.396 100.139 95.5206 106.281C97.7127 107.939 100.506 109.546 101.727 109.852C104.479 110.543 110.187 107.958 110.187 106.02C110.187 105.243 108.913 101.824 107.354 98.4233C101.126 84.83 100.979 84.1848 99.5839 64.2959C97.6134 36.2243 96.7568 30.6666 93.4408 24.4444C90.3195 18.5889 83.454 10.9964 77.1785 6.4607C68.5593 0.232071 54.5268 -1.77338 43.7192 1.67962ZM41.7248 37.0395C50.7613 40.8151 50.6464 54.5619 41.5465 58.3632C36.9566 60.2813 32.4687 59.2804 28.6839 55.4956C26.0462 52.8579 25.6317 51.823 25.6317 47.8801C25.6317 42.6184 27.9018 39.0009 32.4467 37.0221C36.1212 35.4229 37.8629 35.4256 41.7248 37.0395ZM78.354 36.9835C83.0662 38.9521 85.3721 42.5329 85.3721 47.8801C85.3721 51.823 84.9576 52.8579 82.3199 55.4956C78.5351 59.2804 74.0472 60.2813 69.4573 58.3632C60.4714 54.6087 60.2269 40.9263 69.0768 37.0791C72.8625 35.433 74.6005 35.4146 78.354 36.9835Z" />
</svg>
