<svg width="112" height="113" viewBox="0 0 112 113" fill="white" style="fill:white" xmlns="http://www.w3.org/2000/svg">
<path fill-rule="evenodd" clip-rule="evenodd" d="M53.5244 2.22662C48.3964 14.3112 37.778 37.9696 37.2581 38.4682C36.9115 38.8009 29.3293 40.1837 20.4089 41.5406C-4.55726 45.3377 -3.58966 43.1995 12.8295 58.2851C20.5665 65.3936 26.8965 71.5874 26.8965 72.0499C26.8965 72.8877 18.8481 108.712 17.9769 111.751C17.6831 112.777 24.231 109.363 36.2581 102.22L54.998 91.0901L73.4571 102.272C85.4573 109.542 91.7401 112.876 91.4148 111.803C91.1395 110.896 88.9754 101.414 86.6065 90.7314L82.2988 71.3094L84.5972 69.415C85.8614 68.3733 92.4083 62.528 99.147 56.4259C109.238 47.2867 111.098 45.2135 109.695 44.6657C108.758 44.2996 100.067 42.903 90.3823 41.561C80.6972 40.2199 72.4636 38.8204 72.0845 38.4525C71.7054 38.0845 68.0826 29.7822 64.0334 20.0036C54.5985 -2.77903 55.2093 -1.74565 53.5244 2.22662Z" />
</svg>
