<svg width="112" height="113" viewBox="0 0 112 113" fill="white" style="fill:white" xmlns="http://www.w3.org/2000/svg">
<path fill-rule="evenodd" clip-rule="evenodd" d="M88.5556 8.78218C97.467 26.7903 89.5325 48.7169 70.7692 57.9312C66.0863 60.2307 64.6397 60.4806 56 60.4806C47.4716 60.4806 45.8398 60.2079 41.0995 57.9868C30.8901 53.2036 24.3 45.8729 20.905 35.5248C18.715 28.848 19.2924 16.6639 22.0953 10.4003C23.1972 7.94029 23.9342 5.76396 23.7344 5.5642C23.5347 5.36445 20.8832 7.5043 17.8421 10.32C11.0231 16.6338 5.69715 24.9131 2.46275 34.2314C0.341146 40.3427 0 42.7789 0 51.8154C0 60.8846 0.337529 63.279 2.49471 69.4951C8.52842 86.8848 20.9461 99.2897 38.3704 105.338C44.5318 107.476 46.9481 107.815 56 107.815C65.0519 107.815 67.4682 107.476 73.6296 105.338C91.0539 99.2897 103.472 86.8848 109.505 69.4951C111.663 63.279 112 60.8846 112 51.8154C112 42.7789 111.659 40.3427 109.537 34.2314C108.183 30.3284 105.435 24.541 103.432 21.3695C99.8723 15.7317 92.0033 7.47967 88.2965 5.4958C86.5014 4.53533 86.5106 4.64934 88.5556 8.78218Z" />
</svg>
