<svg width="112" height="113" viewBox="0 0 112 113" fill="white" style="fill:white" xmlns="http://www.w3.org/2000/svg">
<path fill-rule="evenodd" clip-rule="evenodd" d="M44.8005 1.91055C24.4583 6.60546 9.39235 20.0642 2.93567 39.3087C-6.92578 68.701 8.82852 100.092 38.6366 110.445C44.7295 112.561 47.1585 112.901 56.1679 112.901C65.1927 112.901 67.6016 112.563 73.7446 110.43C91.1167 104.397 103.497 92.0227 109.513 74.6761C111.663 68.4754 112 66.087 112 57.0402C112 48.0107 111.662 45.6005 109.53 39.4543C103.49 22.0441 90.9603 9.5134 73.8392 3.76305C65.0872 0.824185 52.8822 0.0453305 44.8005 1.91055ZM60.713 24.9483C69.2722 44.3985 72.2659 56.9929 70.6772 66.864C69.5123 74.1011 66.103 83.5609 60.9513 93.8488C56.0997 103.539 56.5989 103.815 49.7794 87.659C40.9646 66.7776 39.9861 59.0028 44.3758 44.757C46.9757 36.3208 55.2748 16.0963 56.1369 16.0963C56.5116 16.0963 58.5705 20.0797 60.713 24.9483Z" />
</svg>
