<svg width="112" height="113" viewBox="0 0 112 113" fill="white" style="fill:white" xmlns="http://www.w3.org/2000/svg">
<path fill-rule="evenodd" clip-rule="evenodd" d="M45.492 13.273C41.1754 14.4358 32.4349 18.535 28.9148 21.0492C27.7556 21.8764 26.6387 21.5074 23.2513 19.1764C17.4093 15.1566 13.7981 14.6938 10.4901 17.5391C8.48919 19.2603 7.8965 20.5449 7.8965 23.161C7.8965 26.6341 8.68311 27.6319 15.0583 32.2462L17.6393 34.1144L15.6511 38.7368C14.5577 41.2799 13.3425 44.9046 12.9528 46.7918C12.2907 49.9916 11.9398 50.2992 7.76931 51.3285C-3.1381 54.0195 -2.36224 64.8773 8.84828 66.4199C13.3264 67.0351 13.3426 67.0496 14.9898 71.8957L16.6415 76.7545L12.2691 80.7129C8.50727 84.1193 7.8965 85.1486 7.8965 88.0877C7.8965 90.6975 8.48376 92.0091 10.3827 93.6429C11.7494 94.8183 13.6781 95.7809 14.6668 95.7809C17.0268 95.7809 20.9113 93.7358 23.0583 91.3623C25.0997 89.1079 27.4335 88.9248 29.0672 90.8932C30.8336 93.0213 40.0153 97.4209 45.8781 98.9482C55.8689 101.551 66.2703 100.203 76.6527 94.9626C79.5313 93.5084 82.4198 91.6772 83.0712 90.8932C84.7202 88.9059 85.5366 89.0746 89.5122 92.2239C94.1392 95.8882 98.1841 96.5224 101.299 94.0723C106.299 90.14 105.307 84.5135 98.9375 80.666C96.6948 79.311 94.8617 77.9967 94.8644 77.745C94.8662 77.4933 95.8585 74.8519 97.0683 71.875L99.2676 66.4623L103.938 65.9761C109.249 65.4231 112 62.9729 112 58.7944C112 55.1183 109.424 52.577 104.428 51.3285C100.093 50.2442 99.9911 50.1386 98.8039 45.4702C98.1381 42.8559 96.979 39.5271 96.2266 38.0729C94.1842 34.1225 94.4828 33.2989 98.9375 30.6079C105.307 26.7604 106.299 21.134 101.299 17.2017C98.0434 14.6406 93.9659 15.4317 88.8618 19.6139L84.8267 22.921L82.8519 21.1105C79.9688 18.4673 72.1971 14.7741 66.2694 13.2306C59.9113 11.5743 51.7364 11.5914 45.492 13.273ZM39.4208 34.8478C44.2859 39.712 40.8542 47.969 33.9675 47.969C29.5679 47.969 26.2996 44.7007 26.2996 40.3011C26.2996 35.9015 29.5679 32.6332 33.9675 32.6332C36.2038 32.6332 37.8926 33.3188 39.4208 34.8478ZM83.6242 34.8478C88.4893 39.712 85.0576 47.969 78.1709 47.969C73.7713 47.969 70.503 44.7007 70.503 40.3011C70.503 35.9015 73.7713 32.6332 78.1709 32.6332C80.4072 32.6332 82.096 33.3188 83.6242 34.8478Z" />
</svg>
