<svg width="112" height="113" viewBox="0 0 112 113" fill="white" style="fill:white" xmlns="http://www.w3.org/2000/svg">
<path fill-rule="evenodd" clip-rule="evenodd" d="M2.42936 8.16844C2.42936 10.4614 1.78288 25.1938 0.992598 40.9061C0.201401 56.6192 -0.19976 71.1263 0.0987701 73.1446C1.69856 83.932 10.9293 94.821 23.7139 101.002C34.7073 106.317 41.8638 107.832 56 107.832C70.1362 107.832 77.2927 106.317 88.2861 101.002C101.071 94.821 110.301 83.932 111.901 73.1446C112.2 71.1263 111.799 56.6192 111.007 40.9061C110.217 25.1938 109.571 10.4614 109.571 8.16844C109.571 5.87635 109.171 4 108.684 4C108.196 4 102.124 7.5027 95.1899 11.7838L82.583 19.5675H56H29.417L16.8101 11.7838C9.87612 7.5027 3.8039 4 3.31581 4C2.82864 4 2.42936 5.87635 2.42936 8.16844ZM35.9453 46.4902C38.4975 49.0424 39.0589 50.2969 39.0589 53.4498C39.0589 56.6027 38.4975 57.8573 35.9453 60.4094C33.3932 62.9616 32.1386 63.5229 28.9857 63.5229C25.8329 63.5229 24.5783 62.9616 22.0262 60.4094C19.474 57.8573 18.9126 56.6027 18.9126 53.4498C18.9126 50.2969 19.474 49.0424 22.0262 46.4902C24.5783 43.938 25.8329 43.3767 28.9857 43.3767C32.1386 43.3767 33.3932 43.938 35.9453 46.4902ZM90.8896 46.4902C93.4417 49.0424 94.0031 50.2969 94.0031 53.4498C94.0031 56.6027 93.4417 57.8573 90.8896 60.4094C88.3374 62.9616 87.0829 63.5229 83.93 63.5229C80.7771 63.5229 79.5226 62.9616 76.9704 60.4094C74.4183 57.8573 73.8569 56.6027 73.8569 53.4498C73.8569 50.2969 74.4183 49.0424 76.9704 46.4902C79.5226 43.938 80.7771 43.3767 83.93 43.3767C87.0829 43.3767 88.3374 43.938 90.8896 46.4902ZM62.0128 66.3022C64.3735 67.5659 64.2453 68.8937 61.4835 71.7756C59.4258 73.9239 59.2912 74.4852 60.206 77.1107C61.401 80.5383 63.423 81.8377 67.5603 81.8377C70.0071 81.8377 71.3917 80.9174 75.2772 76.7095C80.4603 71.0952 83.2587 70.4056 83.7496 74.6217C84.1177 77.7846 76.0372 86.7726 71.4695 88.2799C67.2699 89.6663 62.6941 88.7533 59.2317 85.8404L56.4579 83.5061L53.6841 85.8404C50.2216 88.7533 45.6458 89.6663 41.4462 88.2799C36.8785 86.7726 28.798 77.7846 29.1662 74.6217C29.657 70.4056 32.4555 71.0952 37.6385 76.7095C41.524 80.9174 42.9086 81.8377 45.3554 81.8377C49.4927 81.8377 51.5147 80.5383 52.7097 77.1107C53.6246 74.4852 53.4899 73.9239 51.4323 71.7756C48.7199 68.945 48.5496 67.6163 50.7345 66.3434C52.8325 65.1218 59.7591 65.0962 62.0128 66.3022Z" />
</svg>
