<svg width="112" height="113" viewBox="0 0 112 113" fill="white" style="fill:white" xmlns="http://www.w3.org/2000/svg">
<path fill-rule="evenodd" clip-rule="evenodd" d="M27.8915 41.9172L0 75.8354L8.3953 84.8622C13.0132 89.8277 19.049 96.3397 21.8091 99.3335L26.8276 104.778L41.3828 86.9553C49.3877 77.1539 56.2209 69.1335 56.5658 69.1335C56.9117 69.1335 63.7066 76.861 71.6658 86.3056C79.6241 95.7503 86.4947 103.597 86.9318 103.742C87.3698 103.887 93.3828 97.7066 100.293 90.0065C110.761 78.341 112.684 75.7642 111.815 74.5561C108.176 69.4985 57.0485 8 56.4819 8C56.0977 8 43.2323 23.2633 27.8915 41.9172Z" />
</svg>
