<svg width="112" height="117" viewBox="0 0 112 117" fill="white" style="fill:white" xmlns="http://www.w3.org/2000/svg">
<path fill-rule="evenodd" clip-rule="evenodd" d="M50.7331 9.02549C41.5898 14.4802 31.0264 24.1413 29.0908 28.8202C28.1495 31.0937 26.6908 32.1438 22.1918 33.7859C19.0533 34.9313 15.386 36.8179 14.0427 37.9788C11.5687 40.1156 9.84177 45.3239 9.80042 50.7758L9.77734 53.7625L14.5312 53.3053C17.1456 53.0541 20.811 53.1349 22.6773 53.4853C25.6697 54.0474 26.1985 54.599 27.1562 58.1585C29.7447 67.782 36.86 77.5055 45.3389 83.0045L50.0322 86.0491L45.4581 89.6682C35.0043 97.9403 29.6322 108.659 32.8879 114.749C34.4062 117.588 37.2245 117.028 46.237 112.094C57.6898 105.825 61.8648 105.825 73.3177 112.094C82.3302 117.028 85.1485 117.588 86.6668 114.749C89.9225 108.659 84.5504 97.9403 74.0966 89.6682L69.5225 86.0491L74.2158 83.0045C82.6947 77.5055 89.81 67.782 92.3985 58.1585C93.3562 54.599 93.885 54.0474 96.8773 53.4853C98.7437 53.1349 102.409 53.0541 105.023 53.3053L109.777 53.7625L109.754 50.7758C109.713 45.3239 107.986 40.1156 105.512 37.9788C104.169 36.8179 100.501 34.9313 97.3629 33.7859C92.8639 32.1438 91.4052 31.0937 90.4639 28.8202C88.6139 24.3472 78.0966 14.5765 69.7408 9.56739C65.5831 7.07537 61.5196 4.79128 60.71 4.49289C59.8822 4.18777 55.5216 6.16866 50.7331 9.02549ZM52.1043 25.6602C60.8264 30.1754 57.2245 43.4576 47.2773 43.4576C39.7389 43.4576 35.3129 35.7909 39.0043 29.1253C41.56 24.5089 47.0668 23.0526 52.1043 25.6602Z" />
</svg>
