<svg width="112" height="113" viewBox="0 0 112 113" fill="white" style="fill:white" xmlns="http://www.w3.org/2000/svg">
<path fill-rule="evenodd" clip-rule="evenodd" d="M7.83294 3.93977C6.26989 5.5571 3.84931 9.32182 2.4545 12.3068C0.129815 17.2809 -0.0736869 18.5654 0.0167677 27.6841C0.125313 38.6988 2.37852 46.8062 6.04555 49.3751C7.91524 50.684 8.04189 50.5555 9.8953 45.4367C12.3475 38.6653 15.7459 32.9151 19.2854 29.5502C20.8222 28.0893 22.0795 26.4603 22.0795 25.9302C22.0795 25.401 20.2053 23.9727 17.915 22.7579C11.6212 19.4193 10.855 17.7196 11.5524 8.64883C11.8754 4.44179 11.8102 1 11.4077 1C11.0052 1 9.396 2.32245 7.83294 3.93977ZM100.448 8.64883C101.145 17.7196 100.379 19.4193 94.085 22.7579C91.7947 23.9727 89.9205 25.401 89.9205 25.9302C89.9205 26.4603 91.1778 28.0893 92.7146 29.5502C96.2541 32.9151 99.6525 38.6653 102.105 45.4367C103.958 50.5555 104.085 50.684 105.954 49.3751C109.621 46.8062 111.875 38.6988 111.983 27.6841C112.074 18.5654 111.87 17.2809 109.546 12.3068C107.17 7.22508 102.241 1 100.592 1C100.19 1 100.125 4.44179 100.448 8.64883ZM46.6 19.1651C35.5401 21.3369 23.0465 30.6365 17.6925 40.6833C14.6261 46.4362 12.1295 54.8955 12.1295 59.5331V62.5091H55.5477H98.9659V59.5331C98.9659 57.8968 98.3427 54.1647 97.5811 51.2403C91.697 28.6501 69.4795 14.6713 46.6 19.1651ZM13.4258 71.3284C14.9771 80.2084 22.862 91.6156 31.1711 96.9994L35.6477 99.9003V105.627V111.355H40.6227H45.5977V107.736C45.5977 104.319 45.7488 104.118 48.3114 104.118C50.8739 104.118 51.025 104.319 51.025 107.736V111.355H55.5477H60.0705V107.736C60.0705 104.319 60.2215 104.118 62.7841 104.118C65.3467 104.118 65.4977 104.319 65.4977 107.736V111.355H70.4727H75.4477V105.627V99.9003L79.9243 96.9994C88.2335 91.6156 96.1184 80.2084 97.6697 71.3284L98.2631 67.9364H91.4482H84.6334L83.5471 71.3284C82.9492 73.1945 81.4856 76.0266 80.2934 77.6223C74.8326 84.9364 61.0148 81.1012 58.1293 71.4705C57.3966 69.0237 56.5581 67.9364 55.4048 67.9364C54.4885 67.9364 53.7386 68.4185 53.7386 69.0074C53.7386 69.5971 52.9001 71.8115 51.8753 73.9281C50.5221 76.7231 48.9572 78.288 46.1622 79.6412C38.0493 83.5687 31.779 81.2287 28.3679 72.9991L26.2694 67.9364H19.5513H12.8324L13.4258 71.3284ZM63.6886 90.9417C63.6886 91.2239 60.0252 91.4546 55.5477 91.4546C51.0702 91.4546 47.4068 91.1932 47.4068 90.8739C47.4068 90.5546 49.2693 88.1123 51.546 85.4475L55.6852 80.6027L59.6869 85.5153C61.8877 88.2172 63.6886 90.6586 63.6886 90.9417Z" />
</svg>
