<svg width="112" height="113" viewBox="0 0 112 113" fill="white" style="fill:white" xmlns="http://www.w3.org/2000/svg">
<path fill-rule="evenodd" clip-rule="evenodd" d="M29.278 9.07722C20.4671 12.3532 11.4131 19.5998 8.08294 26.0416C4.70036 32.5855 0 55.3107 0 65.1215V67.2106L4.21717 65.0754C9.17768 62.5645 11.7175 62.4154 15.8823 64.3917C19.3335 66.0292 29.3431 76.317 30.2427 79.1495C30.8614 81.0987 32.9208 81.6388 33.871 80.1015C34.1781 79.6047 35.8265 79.1983 37.5345 79.1983C39.8314 79.1983 41.5773 80.0446 44.2373 82.4481C48.2693 86.0908 53.6932 96.1455 54.6352 101.723C54.9767 103.741 55.5908 105.392 56 105.392C56.4092 105.392 57.0233 103.741 57.3648 101.723C58.3068 96.1455 63.7307 86.0908 67.7627 82.4481C70.4227 80.0446 72.1686 79.1983 74.4655 79.1983C76.1735 79.1983 77.8219 79.6047 78.129 80.1015C79.0792 81.6388 81.1386 81.0987 81.7573 79.1495C82.6569 76.317 92.6665 66.0292 96.1177 64.3917C100.282 62.4154 102.822 62.5645 107.783 65.0754L112 67.2106V65.1215C112 55.3495 107.316 32.6613 103.928 26.019C101.859 21.9635 94.8703 15.3005 89.4058 12.1726C85.4199 9.89013 76.0236 6.45246 75.4717 7.07388C75.3164 7.24911 75.9703 11.0499 76.9232 15.5208C79.1488 25.9567 78.699 32.3669 75.3056 38.6028C72.3032 44.1179 69.5773 46.2088 66.4196 45.4158C63.1743 44.602 62.0435 41.9628 63.1815 37.8621C64.232 34.0812 64.4244 29.2146 63.5582 28.3485C63.2448 28.0341 61.8628 28.9825 60.4863 30.4557C59.1107 31.9288 57.092 33.1337 56 33.1337C54.908 33.1337 52.8893 31.9288 51.5137 30.4557C50.1372 28.9825 48.7552 28.0341 48.4418 28.3485C47.5756 29.2146 47.768 34.0812 48.8185 37.8621C50.447 43.7277 46.0085 47.7254 41.2955 44.6372C38.3464 42.7052 34.3289 34.811 33.7346 29.7792C33.2857 25.9874 35.1861 12.2557 36.7071 8.29142C37.4071 6.46781 35.8553 6.63219 29.278 9.07722Z" />
</svg>
