<svg width="112" height="113" viewBox="0 0 112 113" fill="white" style="fill:white" xmlns="http://www.w3.org/2000/svg">
<path fill-rule="evenodd" clip-rule="evenodd" d="M14.5733 5.21245C10.0411 6.65703 4.61356 12.3207 3.1815 17.0997C2.34405 19.8944 2 31.0838 2 55.5126C2 79.9413 2.34405 91.1308 3.1815 93.9255C4.69354 98.9734 10.097 104.377 15.1448 105.889C20.7102 107.556 91.2238 107.556 96.7892 105.889C101.837 104.377 107.24 98.9734 108.752 93.9255C110.416 88.3756 110.416 22.6496 108.752 17.0997C107.24 12.0518 101.837 6.64837 96.7892 5.13633C91.5814 3.57611 19.4969 3.64259 14.5733 5.21245ZM35.8681 20.9525C44.7091 29.4234 34.9517 42.6434 23.6562 37.4963C20.607 36.1076 18.3828 32.115 18.3828 28.0318C18.3828 24.0229 19.8053 21.5914 23.5039 19.2766C27.4628 16.799 32.2032 17.4408 35.8681 20.9525ZM62.3274 47.7066C66.665 52.0442 66.903 57.4014 62.9538 61.8209C54.8433 70.897 40.624 61.4682 45.9648 50.5553C49.3705 43.5955 56.9047 42.2839 62.3274 47.7066ZM90.2746 75.6538C92.9151 78.2944 93.5512 79.6831 93.5512 82.8074C93.5512 93.8831 78.6669 97.444 73.9467 87.4977C71.9778 83.349 71.9509 81.7261 73.7896 78.17C75.8066 74.269 78.9001 72.3773 83.2618 72.3773C86.2261 72.3773 87.6745 73.0538 90.2746 75.6538Z"/>
</svg>
