<svg width="112" height="113" viewBox="0 0 112 113" fill="white" style="fill:white" xmlns="http://www.w3.org/2000/svg">
<path fill-rule="evenodd" clip-rule="evenodd" d="M47.2807 1.25704C39.2134 3.00612 32.0507 6.69803 27.0986 11.6602C22.4317 16.3344 17.7501 24.0399 16.2359 29.5348C15.6821 31.5453 14.6028 45.1157 13.8361 59.6914L12.4443 86.1927L17.5207 90.9712C20.3134 93.5994 25.0416 97.4091 28.028 99.4379C33.1884 102.942 51.8033 112.535 52.3608 111.977C52.5061 111.832 52.0391 109.673 51.3235 107.178C50.608 104.683 49.0252 95.6592 47.8071 87.1239C45.2191 69.0007 45.9264 70.058 31.2968 62.4329C23.3482 58.2896 22.4317 57.5412 21.474 54.4049C19.9926 49.5561 22.2617 44.6113 25.9655 44.6177C29.3787 44.6232 50.6418 55.0172 54.1373 58.3892L56.9363 61.0878L59.1634 58.6652C61.9688 55.613 84.2884 44.615 87.6787 44.614C91.3834 44.6131 93.6516 49.557 92.1702 54.4049C91.2125 57.5412 90.296 58.2896 82.3474 62.4329C67.7178 70.058 68.4251 69.0007 65.8371 87.1239C64.6189 95.6592 63.0362 104.683 62.3207 107.178C61.6051 109.673 61.1381 111.832 61.2834 111.977C61.8409 112.535 80.4557 102.942 85.6162 99.4379C88.6026 97.4091 93.3308 93.5994 96.1235 90.9712L101.2 86.1927L99.8081 59.6914C99.0414 45.1157 97.9621 31.5453 97.4084 29.5348C95.8941 24.0399 91.2125 16.3344 86.5456 11.6602C81.482 6.58654 74.4427 3.01892 65.9449 1.21866C58.2294 -0.41619 54.9633 -0.408886 47.2807 1.25704Z" />
</svg>
