<svg width="112" height="113" viewBox="0 0 112 113" fill="white" style="fill:white" xmlns="http://www.w3.org/2000/svg">
<path fill-rule="evenodd" clip-rule="evenodd" d="M20.8671 3.35074C19.4611 5.19272 17.5404 9.17844 16.5972 12.208C14.9283 17.571 6.23676 85.7661 7.05408 87.0888C7.52244 87.8469 46.9187 112 47.687 112C47.9656 112 48.1942 101.182 48.1942 87.9617V63.9233L36.3925 63.6641L24.5909 63.405V56V48.595L35.9297 48.3349L47.2685 48.0748L47.2704 41.8556C47.2713 37.7894 47.8313 34.5145 48.8902 32.3967C50.4452 29.2829 50.7062 29.157 55.5991 29.157C60.4919 29.157 60.753 29.2829 62.308 32.3967C63.3669 34.5145 63.9269 37.7894 63.9278 41.8556L63.9296 48.0748L75.2685 48.3349L86.6073 48.595V56V63.405L74.8057 63.6641L63.004 63.9233V87.9617C63.004 101.182 63.2326 112 63.5112 112C64.2795 112 103.676 87.8469 104.144 87.0888C104.961 85.7661 96.2699 17.571 94.601 12.208C93.6578 9.17844 91.7371 5.19272 90.3311 3.35074L87.7763 0H55.5991H23.4218L20.8671 3.35074Z"/>
</svg>
