<svg width="112" height="113" viewBox="0 0 112 113" fill="white" style="fill:white" xmlns="http://www.w3.org/2000/svg">
<path fill-rule="evenodd" clip-rule="evenodd" d="M47.5576 0.434609C46.4786 1.51274 46.8208 5.20158 48.8124 13.9977C51.7294 26.8792 52.0403 27.4504 56.1109 27.4504C59.0316 27.4504 59.7187 27.0586 60.5439 24.9207C62.2522 20.4932 65.4856 4.81063 65.1618 2.51914C64.8619 0.399673 64.5244 0.30307 56.5267 0.0510156C51.9483 -0.0934098 47.9118 0.0795255 47.5576 0.434609ZM35.8122 13.1661C30.3507 16.0123 21.3504 25.7054 18.2494 32.0812C15.1153 38.5261 13.1347 46.2957 12.3353 55.2776C11.7456 61.9092 11.8248 62.4069 13.464 62.4069C14.4327 62.4069 16.1455 63.0518 17.2696 63.8392C20.2897 65.9541 19.8877 70.3025 15.9707 77.9174L12.6269 84.4184L15.1401 89.5543C19.8988 99.2813 28.7409 107.212 38.7734 110.752L42.3123 112V92.3397V72.6786L34.9871 67.5464C30.9579 64.7232 27.2322 61.6112 26.7079 60.6306C25.4927 58.3593 25.4816 55.3245 26.6858 54.5803C27.8587 53.8554 36.9234 56.4551 41.8247 58.9223C46.921 61.4888 53.3512 66.8372 53.3512 68.5123C53.3512 69.2722 52.1093 71.6998 50.5914 73.9057C49.0736 76.1117 47.8317 78.485 47.8317 79.1796C47.8317 80.4536 54.9371 88.1643 56.1109 88.1643C57.2847 88.1643 64.39 80.4536 64.39 79.1796C64.39 78.485 63.1482 76.1117 61.6303 73.9057C60.1125 71.6998 58.8706 69.2722 58.8706 68.5123C58.8706 66.8372 65.3008 61.4888 70.3971 58.9223C75.2983 56.4551 84.3631 53.8554 85.536 54.5803C86.7402 55.3245 86.7291 58.3593 85.5139 60.6306C84.9895 61.6112 81.2639 64.7232 77.2347 67.5464L69.9095 72.6786V92.3397V112L73.4484 110.752C83.4809 107.212 92.323 99.2813 97.0817 89.5543L99.5949 84.4184L96.251 77.9174C92.3341 70.3025 91.9321 65.9541 94.9521 63.8392C96.0762 63.0518 97.7928 62.4069 98.7661 62.4069C100.409 62.4069 100.494 61.9065 99.9463 55.4303C98.686 40.5149 94.5326 30.2745 86.0649 21.2006C81.0965 15.8762 73.6287 10.8921 70.6215 10.8921C69.8479 10.8921 68.8875 13.8478 67.8765 19.3387C66.5914 26.3107 65.8491 28.2554 63.622 30.4834C61.324 32.7804 60.2063 33.1824 56.1109 33.1824C52.0155 33.1824 50.8977 32.7804 48.5998 30.4834C46.3727 28.2554 45.6304 26.3107 44.3452 19.3387C42.5928 9.82044 42.442 9.71187 35.8122 13.1661Z" />
</svg>
