<svg width="112" height="113" viewBox="0 0 112 113" fill="white" style="fill:white" xmlns="http://www.w3.org/2000/svg">
<path fill-rule="evenodd" clip-rule="evenodd" d="M4.18583 3.49141C2.90661 4.86124 1.35018 7.57823 0.725967 9.52788C-0.671943 13.8983 0.0509924 24.2272 2.02238 28.0395C3.59877 31.0872 7.43644 34.124 10.7568 34.9503C12.8007 35.4594 13.0833 35.0998 14.522 30.1677C15.4189 27.0955 17.8188 22.4706 20.1843 19.2571C22.4429 16.1886 24.2911 13.5277 24.2911 13.3429C24.2911 13.159 22.1938 12.8066 19.629 12.5602C14.243 12.0429 11.9699 9.88212 11.044 4.39738C10.5856 1.6831 10.0719 1 8.49012 1C7.40115 1 5.46416 2.12159 4.18583 3.49141ZM100.956 4.39738C100.03 9.88212 97.757 12.0429 92.371 12.5602C89.8062 12.8066 87.7089 13.159 87.7089 13.3429C87.7089 13.5277 89.5571 16.1886 91.8157 19.2571C94.1812 22.4706 96.5811 27.0955 97.478 30.1677C98.9167 35.0998 99.1993 35.4594 101.243 34.9503C104.564 34.124 108.401 31.0872 109.978 28.0395C111.949 24.2272 112.672 13.8983 111.274 9.52788C109.859 5.10584 106.121 1 103.51 1C101.928 1 101.414 1.6831 100.956 4.39738ZM50.8767 7.56827C51.1603 9.18814 51.6387 14.9972 51.9403 20.4783L52.4885 30.444L47.0155 20.1196C44.005 14.441 41.3677 9.62029 41.1539 9.40739C40.3621 8.61557 34.736 12.1978 30.3964 16.2574C23.6325 22.5847 17.9493 35.2873 17.9493 44.0788V47.873L27.2355 48.3097C41.076 48.9611 46.7736 52.0468 51.1232 61.2469C52.8626 64.9269 53.2658 67.2644 53.273 73.704L53.2821 81.6312H56H58.7179L58.727 73.704C58.7342 67.2644 59.1374 64.9269 60.8768 61.2469C65.2264 52.0468 70.924 48.9611 84.7645 48.3097L94.0507 47.873V44.0788C94.0507 35.2873 88.3675 22.5847 81.6036 16.2574C77.264 12.1978 71.6379 8.61557 70.8461 9.40739C70.6323 9.62029 67.995 14.441 64.9845 20.1196L59.5115 30.444L60.0597 20.4783C60.3614 14.9972 60.8397 9.18814 61.1233 7.56827L61.6379 4.62387H56H50.3621L50.8767 7.56827ZM17.9493 72.846V91.239L22.5969 95.9854C27.5607 101.055 31.5986 104.023 39.9191 108.721L45.1284 111.661V90.757V69.8536L42.637 69.8337C37.9314 69.7965 32.636 66.5939 29.7478 62.0396C28.252 59.6814 26.7925 57.0088 26.5044 56.1019C26.1021 54.8336 25.0539 54.4521 21.9655 54.4521H17.9493V72.846ZM85.4956 56.1019C85.2075 57.0088 83.748 59.6814 82.2522 62.0396C79.364 66.5939 74.0686 69.7965 69.363 69.8337L66.8716 69.8536V90.757V111.661L72.0809 108.721C80.4014 104.023 84.4393 101.055 89.4031 95.9854L94.0507 91.239V72.846V54.4521H90.0345C86.9461 54.4521 85.8979 54.8336 85.4956 56.1019Z" />
</svg>
