<svg width="112" height="113" viewBox="0 0 112 113" fill="white" style="fill:white" xmlns="http://www.w3.org/2000/svg">
<path fill-rule="evenodd" clip-rule="evenodd" d="M12.4434 12.3154C3.777 22.4229 -0.632881 36.0404 0.0734138 50.5177C0.806462 65.5585 5.86736 77.216 16.1844 87.6302C27.008 98.5546 40.2627 104.006 56 104.006C71.7373 104.006 84.992 98.5546 95.8156 87.6302C106.133 77.216 111.194 65.5585 111.927 50.5177C112.633 36.0404 108.223 22.4229 99.5566 12.3154L95.8566 8L75.9287 27.9136L56 47.8272L36.0713 27.9136L16.1434 8L12.4434 12.3154ZM31.186 40.8498C37.1949 46.287 36.5805 55.9603 29.9581 60.206C25.9762 62.7592 19.5242 62.374 15.9544 59.3696C8.55877 53.1476 11.3188 40.4851 20.4935 38.5437C24.2488 37.7482 28.8585 38.7425 31.186 40.8498ZM95.0584 39.9518C100.267 43.2532 102.041 50.8004 98.8414 56.0476C92.6328 66.2309 76.5111 61.583 76.5111 49.6098C76.5111 40.6581 87.3044 35.0381 95.0584 39.9518Z" />
</svg>
