<svg width="112" height="113" viewBox="0 0 112 113" fill="white" style="fill:white" xmlns="http://www.w3.org/2000/svg">
<path fill-rule="evenodd" clip-rule="evenodd" d="M51.7578 2.09743C42.9795 8.25125 34.4528 18.5591 29.5608 28.9313C24.8685 38.8787 23.4787 45.1479 23.7973 54.9201L24.0705 63.3088L19.4445 66.4243C12.8195 70.8861 10 74.5399 10 78.6657C10 84.7596 12.6344 90.4178 18.229 96.3365L23.4923 101.906L28.3199 97.3577C30.976 94.8568 34.8522 91.2312 36.9337 89.3012L40.7192 85.7927L43.4289 87.7217C45.7846 89.3993 47.4022 89.6507 55.8427 89.6507C64.2206 89.6507 65.9109 89.392 68.2021 87.7607L70.8565 85.8707L76.059 90.3987C78.9194 92.8888 82.4606 96.1904 83.9267 97.7354C85.3927 99.2804 87.2818 100.544 88.1233 100.544C90.3537 100.544 96.9288 93.0204 99.4723 87.5583C102.581 80.8807 102.414 76.0186 98.9367 72.0589C97.4253 70.3378 94.2036 67.6553 91.7771 66.0975C87.4298 63.3079 87.3771 63.2181 88.1496 59.892C92.2973 42.0351 79.3632 13.8105 61.8976 2.60306C56.6597 -0.758438 55.8854 -0.796565 51.7578 2.09743ZM63.5861 19.071C75.4989 25.0887 75.4989 41.6484 63.5861 47.666C58.4626 50.2541 54.1307 50.2541 49.0072 47.666C42.4784 44.3681 38.999 37.3982 40.3316 30.293C41.656 23.2314 49.1225 17.0285 56.2966 17.0285C58.0822 17.0285 61.3621 17.9472 63.5861 19.071ZM43.2746 94.9422C39.9866 98.5751 42.4303 104.379 49.1452 108.89C55.0593 112.862 56.5608 112.948 61.756 109.614C64.2642 108.004 67.1255 105.658 68.115 104.401C71.3748 100.257 69.7508 92.6591 65.7684 93.4189C64.7807 93.6077 63.8866 94.6399 63.7241 95.78C63.3428 98.4507 58.4617 103.267 56.136 103.267C53.7231 103.267 48.1266 97.6219 48.1266 95.1882C48.1266 92.7798 45.3589 92.6391 43.2746 94.9422Z" />
</svg>
