<svg width="112" height="113" viewBox="0 0 112 113" fill="white" style="fill:white" xmlns="http://www.w3.org/2000/svg">
<path fill-rule="evenodd" clip-rule="evenodd" d="M45.2462 0.904382C24.4587 5.65549 8.83912 20.3302 2.53867 41.0271C0.338672 48.2564 0.338672 63.0315 2.53867 70.2608C5.76089 80.8457 9.34931 86.7951 17.32 94.7657C29.0293 106.475 40.2009 111.155 56.4418 111.155C72.6827 111.155 83.8542 106.475 95.5636 94.7657C107.273 83.0564 111.953 71.8848 111.953 55.6439C111.953 39.403 107.273 28.2315 95.5636 16.5222C87.6774 8.63594 81.6933 4.99505 71.5529 1.91327C64.7947 -0.140952 51.9698 -0.632507 45.2462 0.904382ZM43.1084 33.4217C46.9556 37.2688 44.1147 44.0884 38.664 44.0884C35.2427 44.0884 32.4418 41.2875 32.4418 37.8662C32.4418 34.4448 35.2427 31.6439 38.664 31.6439C40.1458 31.6439 42.1209 32.4342 43.1084 33.4217ZM78.664 33.4217C80.7911 35.5488 80.9644 39.3906 79.0578 42.1124C78.0622 43.5346 76.7742 44.0884 74.4613 44.0884C70.3146 44.0884 67.9973 41.9684 67.9973 38.1728C67.9973 34.4342 70.6569 31.6439 74.2196 31.6439C75.7013 31.6439 77.6764 32.4342 78.664 33.4217ZM32.4418 63.3444C45.7342 66.3631 70.9565 65.8279 85.1173 62.2262C91.9644 60.4848 94.2071 61.5257 93.4649 66.0999C91.56 77.8404 79.4196 89.9177 65.9085 93.5151C46.5707 98.6644 24.8347 86.5222 19.8427 67.7835C18.7787 63.7906 18.8231 63.3844 20.4578 62.1879C21.5351 61.3986 23.0827 61.1177 24.4418 61.4653C25.664 61.7773 29.264 62.6226 32.4418 63.3444Z" />
</svg>
