<svg width="112" height="113" viewBox="0 0 112 113" fill="white" style="fill:white" xmlns="http://www.w3.org/2000/svg">
<path fill-rule="evenodd" clip-rule="evenodd" d="M46.933 0.562502C31.1854 3.3709 16.5424 14.3908 9.25339 28.9196C1.77486 43.8255 2.31738 62.8071 10.6478 77.661C14.1288 83.8677 21.8145 92.3338 26.4577 95.0771C28.9354 96.5403 29.0487 96.9203 29.0487 103.74C29.0487 112.061 28.9799 112 38.3685 112H44.749L45.0277 106.658C45.2367 102.653 45.6548 101.316 46.6999 101.316C47.7134 101.316 48.2197 102.71 48.5579 106.426L49.0224 111.535H55.99H62.9576L63.4221 106.426C63.7602 102.71 64.2665 101.316 65.2801 101.316C66.3252 101.316 66.7433 102.653 66.9523 106.658L67.231 112H73.6115C83 112 82.9313 112.061 82.9313 103.74C82.9313 96.9203 83.0446 96.5403 85.5223 95.0771C90.1655 92.3338 97.8512 83.8677 101.332 77.661C117.238 49.3002 103.646 13.4739 72.9286 2.7912C65.6665 0.266148 54.1375 -0.722318 46.933 0.562502ZM44.8586 42.6894C57.4383 51.0142 52.7914 71.1217 37.7378 73.5074C28.1532 75.0263 17.9415 66.3689 17.9415 56.7239C17.9415 53.1677 20.7666 46.9201 23.601 44.2092C29.2345 38.82 38.0592 38.1893 44.8586 42.6894ZM86.1391 42.3958C89.9472 44.9719 94.0896 52.4403 94.059 56.6738C94.0302 60.7177 91.1122 66.6123 87.7324 69.456C73.9886 81.0203 54.2165 66.551 61.1349 49.9923C63.0505 45.4086 65.0237 43.3322 69.4606 41.2327C74.4773 38.8591 81.6502 39.3589 86.1391 42.3958ZM61.0698 79.1316C66.5798 85.8958 65.9137 86.9167 55.99 86.9167C46.0663 86.9167 45.4002 85.8958 50.9101 79.1316C53.2494 76.2601 55.5348 73.9106 55.99 73.9106C56.4452 73.9106 58.7306 76.2601 61.0698 79.1316Z" />
</svg>
