<svg width="112" height="113" viewBox="0 0 112 113" fill="white" style="fill:white" xmlns="http://www.w3.org/2000/svg">
<path fill-rule="evenodd" clip-rule="evenodd" d="M51.9994 1.47653C43.2434 4.2126 39 10.4393 39 20.5515V26.7197L43.9583 25.0065C47.0306 23.9449 51.6112 23.2933 56 23.2933C60.3888 23.2933 64.9694 23.9449 68.0417 25.0065L73 26.7197V20.5515C73 12.3962 70.4529 7.02516 65.1177 3.92737C60.5202 1.25931 55.6232 0.343197 51.9994 1.47653ZM45.8945 29.6551C31.8571 34.6691 22.9944 46.9252 22.1954 62.4264C20.996 85.6976 38.6212 111.047 56 111.047C73.3948 111.047 91.0002 85.7042 89.8046 62.3839C89.0981 48.6158 81.1648 36.389 69.4593 31.0302C62.3429 27.7728 52.7351 27.2118 45.8945 29.6551ZM17.629 31.9321C12.1738 33.6888 5.67322 39.4858 2.75299 45.1969C0.508034 49.5857 0 51.7665 0 57.0138C0 63.2585 1.29004 67.6209 3.13644 67.6209C3.63227 67.6209 5.91412 66.1901 8.20535 64.4409C10.4966 62.6918 13.4375 60.9928 14.7408 60.666C16.6534 60.1862 17.2361 59.2956 17.7621 56.0542C18.7387 50.0381 23.3429 41.0432 28.2257 35.6126L32.5636 30.7875L26.5739 30.8838C23.2787 30.9367 19.2534 31.4089 17.629 31.9321ZM83.6733 35.5002C88.6458 41.0309 93.2538 49.9966 94.2379 56.0542C94.7639 59.2956 95.3466 60.1862 97.2591 60.666C98.5625 60.9928 101.503 62.6918 103.795 64.4409C106.086 66.1901 108.368 67.6209 108.864 67.6209C110.69 67.6209 112 63.2868 112 57.249C112 49.6632 109.628 43.8038 104.467 38.6434C99.2207 33.397 94.508 31.4051 86.2696 30.9499L79.2334 30.5617L83.6733 35.5002ZM14.994 82.0747C10.1103 88.4781 8.34884 96.9403 10.6429 102.976C11.5562 105.378 14.7069 106.322 15.8166 104.526C16.2709 103.792 18.7983 102.841 27.389 100.177C28.1398 99.9437 27.4881 98.0963 25.4755 94.7539C23.7963 91.965 21.6023 87.2701 20.5993 84.3187C19.5963 81.3683 18.4601 78.9543 18.0748 78.9543C17.6894 78.9543 16.303 80.3587 14.994 82.0747ZM91.3969 84.331C90.3958 87.2748 88.2037 91.965 86.5245 94.7539C84.5119 98.0963 83.8602 99.9437 84.611 100.177C93.2017 102.841 95.7291 103.792 96.1834 104.526C96.4799 105.006 97.5585 105.399 98.5794 105.399C100.93 105.399 102.278 101.975 102.278 96.0006C102.278 90.9062 98.4425 82.4345 95.1502 80.2567C93.3236 79.0487 93.1158 79.2744 91.3969 84.331Z" />
</svg>
