<svg width="112" height="113" viewBox="0 0 112 113" fill="white" style="fill:white" xmlns="http://www.w3.org/2000/svg">
<path fill-rule="evenodd" clip-rule="evenodd" d="M47.2967 0.482934C44.9704 0.841239 44.9089 1.03125 44.2882 9.78347L43.6548 18.7176L40.7821 19.7074C39.2023 20.2521 35.8608 22.1015 33.3563 23.818L28.8042 26.9387L20.9161 22.8435L13.0279 18.7483L8.53733 25.7579C4.5996 31.9033 2.2553 37.4073 3.2144 38.2524C3.38631 38.4035 6.47892 40.4076 10.0864 42.7059L16.6463 46.8843V55.9143V64.9443L9.86196 69.2665C6.13053 71.6435 3.0768 74.0702 3.07589 74.6601C3.07227 76.7412 4.94523 80.6047 8.98521 86.8506L13.0713 93.1662L20.8744 89.0149L28.6784 84.8636L33.2939 88.0269C35.8328 89.7668 39.2023 91.6361 40.7821 92.1808L43.6548 93.1707L44.2846 102.053L44.9143 110.937L48.1978 111.48C52.3952 112.174 58.7109 112.174 62.9083 111.48L66.1919 110.937L66.8215 102.053L67.4513 93.1707L70.324 92.1808C71.9038 91.6361 75.2733 89.7668 77.8122 88.0269L82.4277 84.8636L90.2416 89.0194L98.0547 93.1761L102.557 86.1485C106.505 79.9885 108.852 74.481 107.892 73.6359C107.72 73.4848 104.627 71.4806 101.02 69.1824L94.4599 65.004V55.9441V46.8843L101.02 42.7059C104.627 40.4076 107.72 38.4035 107.892 38.2524C108.851 37.4073 106.507 31.9033 102.569 25.7579L98.0782 18.7483L90.1901 22.8435L82.3019 26.9387L77.7498 23.818C75.2453 22.1015 71.9038 20.2521 70.324 19.7074L67.4513 18.7176L66.8215 9.83504L66.1919 0.951625L62.9083 0.40874C59.4284 -0.166719 51.2615 -0.127812 47.2967 0.482934ZM63.2141 48.2831C66.0091 51.079 66.4108 52.0408 66.4108 55.9441C66.4108 59.8475 66.0091 60.8093 63.2141 63.6051C60.4183 66.4001 59.4564 66.8018 55.5531 66.8018C51.6497 66.8018 50.6879 66.4001 47.892 63.6051C45.097 60.8093 44.6953 59.8475 44.6953 55.9441C44.6953 52.0408 45.097 51.079 47.892 48.2831C50.6879 45.4882 51.6497 45.0864 55.5531 45.0864C59.4564 45.0864 60.4183 45.4882 63.2141 48.2831Z" />
</svg>
