<svg width="112" height="113" viewBox="0 0 112 113" fill="white" style="fill:white" xmlns="http://www.w3.org/2000/svg">
<path fill-rule="evenodd" clip-rule="evenodd" d="M49.0812 0.263585C42.3159 1.17636 34.8414 3.71418 29.0667 7.05909C19.5894 12.5485 11.4913 21.3186 6.99008 30.9659C3.35368 38.7609 2 45.0168 2 54.03C2 65.437 4.7182 74.6225 10.8858 84.0587C13.7639 88.4616 21.3325 96.1006 25.5828 98.8924C35.1972 105.207 44.5165 108 55.97 108C67.4235 108 76.7429 105.207 86.3572 98.8924C90.6076 96.1006 98.1761 88.4616 101.054 84.0587C107.222 74.6225 109.94 65.437 109.94 54.03C109.94 42.623 107.222 33.4375 101.054 24.0012C98.274 19.7482 90.6637 12.0395 86.5508 9.31085C80.2744 5.14683 73.1541 2.19637 66.0346 0.809395C62.0509 0.0336504 52.9576 -0.259384 49.0812 0.263585Z" />
</svg>
