<svg width="112" height="113" viewBox="0 0 112 113" fill="white" style="fill:white" xmlns="http://www.w3.org/2000/svg">
<path fill-rule="evenodd" clip-rule="evenodd" d="M22.6791 3.50956C12.8368 5.15392 5.50226 12.8412 1.92476 25.262C-0.806426 34.7451 -0.649425 41.9118 2.51361 52.1807C8.10384 70.3287 22.1264 86.0682 48.4797 103.777L55.9482 108.795L61.7129 105.022C76.0433 95.6435 89.8261 84.0725 96.6171 75.7193C107.264 62.6235 113.24 46.029 111.783 33.6091C110.454 22.2808 105.649 12.4768 99.0431 7.61372C90.4364 1.27807 75.9345 1.51814 66.1562 8.15822C63.024 10.2858 59.1134 14.4308 57.4573 17.3786C56.7841 18.5776 56.1352 19.5587 56.0156 19.5587C55.896 19.5587 55.2472 18.5776 54.574 17.3786C51.8671 12.5594 46.0543 7.52891 40.6606 5.33701C35.5453 3.25862 28.4794 2.54059 22.6791 3.50956Z" />
</svg>
