<svg width="113" height="113" viewBox="0 0 113 113" fill="white" style="fill:white" xmlns="http://www.w3.org/2000/svg">
<path fill-rule="evenodd" clip-rule="evenodd" d="M47.0965 16.5365C42.3104 25.6306 37.9927 33.7215 37.5016 34.5165C36.7302 35.7648 34.1107 37.3153 18.3042 45.879C8.237 51.3335 0 55.8874 0 55.999C0 56.1106 8.31135 60.6759 18.4699 66.1441L36.9397 76.0863L46.3673 94.0432C51.5527 103.919 55.8895 112 56.0048 112C56.12 112 60.6491 103.903 66.0695 94.0058L75.9249 76.012L93.963 66.1068C103.884 60.6592 112.001 56.1102 112.001 55.9978C112.002 55.8854 103.902 51.3391 94.0022 45.8953L76.0023 35.9973L66.1043 17.9974C60.6605 8.09783 56.1142 -0.00121728 56.0018 1.37229e-07C55.8894 0.000811746 51.8822 7.44246 47.0965 16.5365Z"/>
</svg>
