<svg width="112" height="113" viewBox="0 0 112 113" fill="white" style="fill:white" xmlns="http://www.w3.org/2000/svg">
<path fill-rule="evenodd" clip-rule="evenodd" d="M48.6727 0.287202C30.2652 2.815 14.0839 14.3857 5.72308 30.9986C1.68252 39.0277 0 46.3843 0 56.0219C0 63.584 0.545544 67.1406 2.72126 73.7622C5.4921 82.1937 9.63214 88.7883 16.4107 95.5668C24.8409 103.997 33.7332 108.78 45.5515 111.241C50.4601 112.263 61.4511 112.263 66.3598 111.241C78.1781 108.78 87.0703 103.997 95.5006 95.5668C102.279 88.7883 106.419 82.1937 109.19 73.7622C111.366 67.1406 111.911 63.584 111.911 56.0219C111.911 51.0624 111.707 48.1726 111.175 45.6177C109.576 37.9394 106.612 30.7984 102.365 24.3932C99.703 20.3781 91.5994 12.2745 87.5843 9.61225C81.2223 5.39398 73.9765 2.37802 66.5679 0.863177C62.5781 0.0479072 52.7266 -0.269213 48.6727 0.287202ZM59.0706 20.9499C66.3943 36.867 70.2913 49.0107 70.8024 57.5093C71.2302 64.619 69.7857 71.3443 65.4713 82.329C63.3821 87.6476 57.6228 99.4605 56.6281 100.467C56.1928 100.908 55.5715 99.8717 53.2576 94.849C47.0434 81.3606 42.806 69.5377 41.8031 62.8886C40.9254 57.0702 42.0049 50.4011 45.5319 39.8501C48.3564 31.4011 55.2506 14.8214 55.9398 14.8214C56.1109 14.8214 57.52 17.5793 59.0706 20.9499Z" />
</svg>
