<svg width="114" height="114" viewBox="0 0 114 114" fill="white" style="fill:white" xmlns="http://www.w3.org/2000/svg">
<path fill-rule="evenodd" clip-rule="evenodd" d="M53.4184 2.55205C44.6278 4.68424 38.0867 12.9297 38.0867 21.8788C38.0867 28.8484 42.7776 36.6149 48.6405 39.353L50.7788 40.3517L50.7956 45.5857L50.8125 50.8197L45.5785 50.8029L40.3445 50.786L39.3457 48.6477C37.2037 44.0611 31.3777 39.6994 25.8539 38.5475C15.2788 36.3423 4.63718 43.3682 2.4155 54.0213C-0.461347 67.8177 12.0575 80.3365 25.8539 77.4597C31.613 76.2586 37.2312 71.9453 39.5637 66.9342L40.755 64.3751L45.7837 64.3706L50.8125 64.3665L50.7956 70.011L50.7788 75.6555L48.6405 76.6543C44.0539 78.7963 39.6922 84.6223 38.5403 90.1461C35.6635 103.942 48.1823 116.461 61.9787 113.585C71.0333 111.696 77.9061 103.301 77.9061 94.1284C77.9061 86.9244 73.2136 79.3624 66.927 76.4363L64.3679 75.245L64.3634 69.8058L64.3593 64.3665L69.7985 64.3706L75.2378 64.3751L76.4291 66.9342C78.7616 71.9453 84.3798 76.2586 90.1388 77.4597C100.714 79.665 111.356 72.6391 113.577 61.986C116.454 48.1896 103.935 35.6707 90.1388 38.5475C84.615 39.6994 78.7891 44.0611 76.647 48.6477L75.6483 50.786L70.0038 50.8029L64.3593 50.8197L64.3634 45.791L64.3679 40.7622L66.927 39.5709C71.9381 37.2384 76.2513 31.6202 77.4525 25.8612C80.3798 11.8238 67.3379 -0.824387 53.4184 2.55205Z" />
</svg>
