<svg width="112" height="113" viewBox="0 0 112 113" fill="white" style="fill:white" xmlns="http://www.w3.org/2000/svg">
<path fill-rule="evenodd" clip-rule="evenodd" d="M14.0985 12.2009L14.1062 24.3978L19.805 30.3372L25.5043 36.2766L25.5247 56.0082L25.5455 75.7393L17.2727 84.0039L9 92.2686V102.136V112.004H55.6667H102.333V102.136V92.2686L94.0606 84.0039L85.7879 75.7393L85.8087 56.0082L85.829 36.2766L91.5283 30.3372L97.2271 24.3978L97.2348 12.2009L97.2424 0.00390625H85.5758H73.9091V6.36754V12.7312H71.1515H68.3939V6.36754V0.00390625H55.6667H42.9394V6.36754V12.7312H40.1818H37.4242V6.36754V0.00390625H25.7576H14.0909L14.0985 12.2009ZM81.0372 39.3524L81.1658 41.5797H56.113H31.0606V39.5293C31.0606 38.4012 31.1896 37.35 31.347 37.1926C31.5044 37.0352 42.7201 36.9554 56.2712 37.0157L80.9091 37.1251L81.0372 39.3524ZM80.9091 71.4888V73.61H56.0909H31.2727L31.1382 71.9745C30.8871 68.9166 28.8528 69.1372 56.1851 69.2581L80.9091 69.3675V71.4888Z" />
</svg>
