<svg width="112" height="113" viewBox="0 0 112 113" fill="white" style="fill:white" xmlns="http://www.w3.org/2000/svg">
<path fill-rule="evenodd" clip-rule="evenodd" d="M37.4427 1.60408C31.4146 5.56738 25.1579 7.04475 17.9436 6.20919C15.6137 5.93911 13.212 5.61094 12.6067 5.47942C11.6085 5.26244 11.3065 5.53502 9.37112 8.40346L7.23617 11.5669L8.03432 12.6966C9.51252 14.7896 11.7346 19.6105 12.8477 23.1398C14.2139 27.4711 14.6226 32.1687 13.9389 35.6836C12.9714 40.6571 9.35112 47.2142 4.39171 52.9764L2 55.7556L4.63814 58.1598L7.27679 60.564V65.1343C7.27679 80.8933 14.9379 94.0656 27.8131 100.443C32.804 102.915 40.3498 104.876 44.9724 104.902C46.7725 104.912 47.1923 105.153 51.4456 108.614C54.1028 110.776 56.1726 112.178 56.4241 111.986C56.6605 111.806 58.8146 110.163 61.2105 108.336L65.5667 105.012L68.967 104.737C73.2303 104.391 79.2285 102.872 82.9101 101.205C96.4587 95.0729 104.772 81.3555 104.772 65.1343V60.564L107.411 58.1598L110.049 55.7556L107.657 52.9764C102.698 47.2142 99.0778 40.6571 98.1103 35.6836C97.4266 32.1687 97.8353 27.4711 99.2014 23.1398C100.311 19.6225 102.535 14.7913 104.002 12.7144L104.788 11.6021L102.809 8.45989C100.959 5.52174 100.75 5.33007 99.5864 5.50847C93.3239 6.46849 89.6593 6.67011 86.5274 6.22703C82.7251 5.68935 78.1386 3.91535 74.5437 1.59205L72.0869 0.00390625L69.6565 1.84387C64.7112 5.58771 59.4257 7.32147 54.3908 6.85142C49.8288 6.42534 47.1575 5.20229 40.5087 0.495117C39.9752 0.117166 39.3719 0.335392 37.4427 1.60408Z" />
</svg>
