<svg width="112" height="113" viewBox="0 0 112 113" fill="white" style="fill:white" xmlns="http://www.w3.org/2000/svg">
<path fill-rule="evenodd" clip-rule="evenodd" d="M52.0127 0.279779C19.9065 4.6127 -2.01558 34.7619 3.99264 66.3212C10.6302 101.187 47.4782 121.211 80.3438 107.811C91.2416 103.368 101.319 94.7408 107.082 84.9205L108.04 83.288L106.614 84.234C103.759 86.1281 97.7648 88.813 94.5771 89.6252C79.85 93.3786 64.2005 87.3022 55.6428 74.5083C51.4278 68.2067 49.7268 62.4694 49.7154 54.5162C49.7068 48.2423 50.5178 44.3913 52.9624 39.1006C61.3013 21.0522 83.4417 13.1488 101.413 21.8056C103.153 22.6435 104.576 23.2524 104.576 23.1581C104.576 23.0642 103.285 21.4546 101.708 19.5814C93.6437 10.0055 82.1207 3.31531 69.448 0.851952C65.2494 0.035729 56.0554 -0.265866 52.0127 0.279779Z" />
</svg>
