<svg width="112" height="113" viewBox="0 0 112 113" fill="white" style="fill:white" xmlns="http://www.w3.org/2000/svg">
<path fill-rule="evenodd" clip-rule="evenodd" d="M47.2598 23.7196C42.3956 27.5272 38.7656 30.6426 38.822 30.9611C38.8768 31.2684 41.0658 38.1989 43.6861 46.3624C46.3068 54.5259 48.451 61.3496 48.451 61.5263C48.451 61.7034 46.6761 61.8479 44.5068 61.8479C41.094 61.8479 40.5354 61.7542 40.3571 61.153C40.244 60.771 39.5057 56.7058 38.7167 52.1196C37.9277 47.5334 37.1598 43.6782 37.0097 43.5531C36.86 43.4276 35.3079 43.0111 33.5607 42.6279C31.8136 42.2447 30.0907 41.85 29.7317 41.7508C29.2715 41.6237 28.4178 42.5143 26.8363 44.7717C25.6026 46.5319 24.5031 48.2068 24.3935 48.4931C24.2835 48.7794 25.9886 51.9171 28.1824 55.4657C30.3762 59.0144 32.171 62.0806 32.171 62.2799C32.171 62.4789 29.9493 62.6421 27.2341 62.6421C22.8786 62.6421 22.2728 62.5603 22.0846 61.9472C21.9674 61.5652 21.0565 57.4106 20.0602 52.7152C19.0639 48.0198 18.1626 43.8954 18.057 43.5499C17.9295 43.133 15.8361 42.3015 11.8368 41.0797C8.52124 40.0668 5.79048 39.2774 5.76824 39.3254C5.74601 39.3739 4.43925 42.1566 2.86405 45.5099L0 51.6062L7.64775 65.2576L15.2953 78.9086L55.9954 78.907L96.6956 78.9058L104.348 65.2655L112 51.6248L109.131 45.519C107.554 42.161 106.245 39.3739 106.223 39.3254C106.2 39.2774 103.47 40.0668 100.154 41.0797C96.1547 42.3015 94.0613 43.133 93.9339 43.5499C93.8283 43.8954 92.9269 48.0198 91.9307 52.7152C90.9344 57.4106 90.0235 61.5652 89.9063 61.9472C89.7181 62.5603 89.1123 62.6421 84.7568 62.6421C82.0416 62.6421 79.8199 62.4789 79.8199 62.2799C79.8199 62.0806 81.6147 59.0144 83.8085 55.4657C86.0023 51.9171 87.7074 48.7794 87.5974 48.4931C87.4878 48.2068 86.3883 46.5319 85.1546 44.7717C83.5731 42.5143 82.7194 41.6237 82.2592 41.7508C81.9002 41.85 80.1773 42.2447 78.4302 42.6279C76.683 43.0111 75.1308 43.4276 74.9811 43.5531C74.8311 43.6782 74.0632 47.5334 73.2742 52.1196C72.4852 56.7058 71.7469 60.771 71.6337 61.153C71.4555 61.7542 70.8969 61.8479 67.484 61.8479C65.3148 61.8479 63.5399 61.7018 63.5399 61.5235C63.5399 61.261 71.716 35.5243 73.0522 31.5797C73.41 30.5247 73.1911 30.3194 64.7076 23.7375C59.9161 20.0201 55.9514 16.9916 55.8966 17.0079C55.8418 17.0238 51.9552 20.0439 47.2598 23.7196ZM16.288 89.246V95.9963H55.5984H94.9087V89.246V82.4958H55.5984H16.288V89.246Z" />
</svg>
