<svg width="112" height="113" viewBox="0 0 112 113" fill="white" style="fill: white" xmlns="http://www.w3.org/2000/svg">
<path fill-rule="evenodd" clip-rule="evenodd" d="M2.0621 12.8372C3.25128 17.7577 7.25556 34.34 10.9604 49.6866L17.6965 77.5894L21.8168 80.7434C24.0836 82.4782 25.9898 83.8332 26.0532 83.7545C26.1171 83.6758 25.211 77.7399 24.0402 70.5635C22.8695 63.387 21.9032 57.189 21.8932 56.7899C21.8755 56.1078 21.9393 56.1034 22.9783 56.7193C25.5679 58.2545 25.3667 57.6222 27.9723 72.4215C29.3281 80.1219 30.616 86.654 30.8336 86.9378C31.3793 87.648 41.5732 95.568 41.7186 95.3942C41.7828 95.3175 41.0549 89.3828 40.1006 82.2064C39.1463 75.0299 38.3586 69.0182 38.3502 68.8467C38.3337 68.5123 40.0998 69.3594 41.2372 70.2319C41.7908 70.6562 42.3413 73.5673 43.9512 84.5855C45.0617 92.1871 46.014 98.4338 46.067 98.4667C46.1204 98.4996 48.3847 100.461 51.0995 102.826L56.0349 107.125L60.9358 102.818C63.6309 100.449 65.8796 98.4876 65.933 98.4587C65.986 98.4301 66.9383 92.1871 68.0488 84.5855C69.6587 73.5673 70.2092 70.6562 70.7628 70.2319C71.8982 69.361 73.6663 68.5119 73.6471 68.8467C73.637 69.0182 72.8525 75.0299 71.9042 82.2064C70.9559 89.3828 70.2293 95.3175 70.2891 95.3942C70.4264 95.57 80.628 87.6388 81.1664 86.9378C81.384 86.654 82.6719 80.1219 84.0277 72.4215C86.6333 57.6222 86.4321 58.2545 89.0217 56.7193C90.0607 56.1034 90.1245 56.1078 90.1068 56.7899C90.0968 57.189 89.1305 63.387 87.9597 70.5635C86.789 77.7399 85.8829 83.6758 85.9468 83.7545C86.0102 83.8332 87.9164 82.4782 90.1832 80.7434L94.3035 77.5894L101.04 49.6866C104.744 34.34 108.749 17.7577 109.938 12.8372C111.127 7.91665 112.054 3.94201 111.998 4.00464C111.941 4.06727 110.542 5.94217 108.888 8.17038C96.7951 24.4668 86.844 32.5129 72.1394 37.8843C65.4653 40.3224 65.0907 40.0197 64.3066 31.5553C63.6413 24.3725 63.9445 22.4916 65.7989 22.2972C66.5111 22.2226 67.8485 22.5562 68.9345 23.0793C69.9759 23.5812 70.8969 23.9919 70.9812 23.9919C71.2417 23.9919 70.4621 19.4375 70.0068 18.2997C69.4479 16.9022 68.9726 16.7448 64.4744 16.4698C61.177 16.2678 60.6013 16.1209 59.8855 15.2978C59.3535 14.686 58.6353 14.3596 57.8348 14.366C56.5673 14.3756 50.1099 15.6961 49.7968 16.0097C49.7004 16.106 48.2342 21.2385 46.5384 27.4153C44.8429 33.592 43.3767 38.7318 43.2804 38.837C42.7942 39.3673 33.0113 35.3296 28.5356 32.7514C20.2728 27.9918 11.594 19.6009 3.11197 8.17038C1.45827 5.94217 0.0586688 4.06727 0.00246174 4.00464C-0.0541468 3.94201 0.872518 7.91665 2.0621 12.8372Z" />
</svg>
