<svg width="112" height="113" viewBox="0 0 112 113" fill="white" style="fill:white" xmlns="http://www.w3.org/2000/svg">
<path fill-rule="evenodd" clip-rule="evenodd" d="M18.8182 4.84721C12.6555 6.59672 6.7159 10.2806 3.64919 14.2558C0.216816 18.7051 -0.694119 22.6904 0.497135 28.0466C1.82206 34.0004 4.44593 38.2308 12.1728 46.8686L15.9103 51.0469L21.2242 50.843C26.1473 50.654 26.7913 50.5334 29.9913 49.2019C31.8907 48.4117 33.5028 47.7137 33.574 47.6503C33.6451 47.5873 33.8815 46.1921 34.0989 44.5499C34.3162 42.908 34.8818 40.2293 35.3556 38.5973C36.4139 34.9516 36.3002 34.7878 31.9471 33.6742C26.7112 32.335 22.3598 29.6856 18.3407 25.389C15.3342 22.1753 14.383 19.7765 14.6228 16.0122C14.8409 12.5887 16.4174 9.49928 19.5105 6.4346C20.872 5.08571 21.9133 3.99522 21.8244 4.01106C21.735 4.02691 20.3824 4.40313 18.8182 4.84721ZM92.4903 6.4476C95.5704 9.49887 97.1476 12.5936 97.3654 16.0122C97.6051 19.7765 96.654 22.1753 93.6474 25.389C89.6283 29.6856 85.2769 32.335 80.041 33.6742C75.688 34.7878 75.5742 34.9516 76.6326 38.5973C77.1063 40.2293 77.6719 42.908 77.8893 44.5499C78.1066 46.1921 78.3431 47.5873 78.4142 47.6503C78.4853 47.7137 80.0975 48.4117 81.9969 49.2019C85.1969 50.5334 85.8408 50.654 90.7639 50.843L96.0778 51.0469L99.8153 46.8686C105.23 40.8152 107.801 37.3735 109.402 34.0325C111.215 30.2487 112.232 25.7283 111.955 22.6774C111.257 14.9863 103.57 7.74124 93.0209 4.83299L90.0277 4.00781L92.4903 6.4476ZM42.0748 35.0349C40.329 35.6581 39.4847 36.2282 38.2919 37.59L37.4508 38.5501L40.381 41.5283C45.276 46.5029 48.2745 53.8918 48.2745 60.978C48.2745 67.3812 45.6897 76.8056 41.4325 85.9212C38.4162 92.3804 37.5617 95.4987 37.8148 99.1261C38.0533 102.541 39.4063 104.987 42.0099 106.712C45.4955 109.021 50.0805 108.798 53.9577 106.13L55.9941 104.73L58.0304 106.13C65.1097 111 73.6016 107.316 74.1733 99.1261C74.4264 95.4987 73.572 92.3804 70.5556 85.9212C66.2985 76.8056 63.7137 67.3812 63.7137 60.978C63.7137 53.8759 66.7109 46.5045 71.6319 41.5031L74.5869 38.4997L73.5127 37.3499C71.8343 35.5529 69.8816 34.7476 66.7044 34.5412C64.224 34.3803 63.4821 34.5006 61.5769 35.3729C60.3524 35.9336 58.5948 37.0745 57.6721 37.9086L55.9941 39.4245L54.3242 37.9155C50.8175 34.7476 46.0329 33.6226 42.0748 35.0349ZM37.4191 44.9728C37.1656 46.9815 36.6041 49.4258 36.171 50.4042C35.5083 51.903 35.0419 52.3308 33.2107 53.1182C30.9395 54.0953 30.7669 54.0986 23.3423 53.2937C21.932 53.141 20.0399 53.2413 18.7068 53.5395C16.8574 53.9535 16.1131 54.3992 14.55 56.0297C13.5026 57.1222 12.3093 58.762 11.8982 59.6738C11.1697 61.2888 11.1701 61.3688 11.9201 62.7612C13.6164 65.9112 17.7634 68.583 20.9557 68.583C22.8092 68.583 26.0339 67.2296 27.7782 65.7202C30.1148 63.6981 31.6469 62.8949 33.1681 62.8949H34.3537L33.8039 65.231C32.5619 70.5104 33.2522 74.6534 35.9654 78.1983C36.5903 79.0146 37.6645 80.6723 38.3528 81.8826L39.6042 84.0827L40.663 81.716C43.2482 75.9377 44.9294 69.1164 45.3 62.9042C45.7599 55.1923 43.5407 48.3162 38.6364 42.2551C37.8807 41.3215 37.8799 41.3231 37.4191 44.9728ZM72.2889 43.6572C68.3141 48.9691 66.7698 53.9093 66.7824 61.2697C66.7946 68.1645 68.306 74.9683 71.3252 81.716L72.384 84.0827L73.6354 81.8826C74.3236 80.6723 75.3979 79.0146 76.0228 78.1983C78.736 74.6534 79.4263 70.5104 78.1842 65.231L77.6345 62.8949H78.8201C80.3413 62.8949 81.8734 63.6981 84.21 65.7202C85.9542 67.2296 89.179 68.583 91.0325 68.583C94.2247 68.583 98.3718 65.9112 100.068 62.7612C100.818 61.3688 100.818 61.2888 100.09 59.6738C99.6788 58.762 98.4855 57.1222 97.4381 56.0297C95.8751 54.3992 95.1308 53.9535 93.2813 53.5395C91.9483 53.2413 90.0561 53.141 88.6459 53.2937C81.0506 54.1169 80.9954 54.1156 78.6413 53.0378C76.6988 52.1484 76.3202 51.7782 75.7054 50.1693C75.3174 49.1532 74.79 46.7378 74.5337 44.8014L74.0669 41.2812L72.2889 43.6572ZM49.4934 85.6433C49.4934 85.8647 48.6706 87.2473 47.665 88.7161C46.213 90.8373 45.8371 91.7369 45.8384 93.0878C45.84 95.1542 46.9751 97.145 48.7787 98.2445C50.5542 99.3272 51.1433 99.2696 52.9469 97.8361C54.0313 96.9744 54.9243 96.6173 55.9941 96.6173C57.0638 96.6173 57.9569 96.9744 59.0413 97.8361C60.8448 99.2696 61.434 99.3272 63.2095 98.2445C65.013 97.145 66.1482 95.1542 66.1498 93.0878C66.151 91.7369 65.7752 90.8373 64.3231 88.7161C61.6863 84.8648 61.8215 84.513 65.1954 86.4481C67.803 87.9437 68.835 89.2369 69.6455 92.0237C70.4667 94.8499 70.1059 96.9764 68.4316 99.1716C66.5187 101.679 64.7773 102.712 62.4594 102.712C60.7721 102.712 60.2626 102.495 58.635 101.086C57.6022 100.193 56.4138 99.4613 55.9941 99.4613C55.5744 99.4613 54.386 100.193 53.3532 101.086C51.7255 102.495 51.2161 102.712 49.5287 102.712C47.2108 102.712 45.4694 101.679 43.5566 99.1716C41.8822 96.9764 41.5215 94.8499 42.3426 92.0237C43.1532 89.2369 44.1851 87.9437 46.7927 86.4481C49.0501 85.1533 49.4934 85.0212 49.4934 85.6433Z" />
</svg>
