<svg width="112" height="113" viewBox="0 0 112 113" fill="white" style="fill:white" xmlns="http://www.w3.org/2000/svg">
<path fill-rule="evenodd"  clip-rule="evenodd" d="M28.5858 7.68885V14.3625L27.4078 14.1016C26.7601 13.9581 23.8204 13.0955 20.8755 12.1844C17.9306 11.2733 15.453 10.5918 15.3699 10.6702C15.2868 10.749 11.6909 22.3426 7.37868 36.434C1.94552 54.189 -0.309286 62.1387 0.0338202 62.3276C0.306249 62.4775 3.22758 63.4152 6.52586 64.4119C9.82413 65.4087 12.5866 66.2817 12.6649 66.3519C12.7429 66.4226 10.7772 69.3855 8.29624 72.9365L3.78531 79.393L5.15559 80.4111C6.62096 81.5 47.0681 109.968 47.738 110.382C47.9573 110.518 49.8575 108.133 51.9611 105.082C54.0647 102.032 55.8822 99.5364 56 99.5364C56.1178 99.5364 57.9353 102.032 60.0389 105.082C62.1425 108.133 64.0427 110.518 64.262 110.382C64.9319 109.968 105.379 81.5 106.844 80.4111L108.215 79.393L103.704 72.9365C101.223 69.3855 99.2571 66.4226 99.3351 66.3519C99.4134 66.2817 102.176 65.4087 105.474 64.4119C108.772 63.4152 111.694 62.4775 111.966 62.3276C112.309 62.1387 110.054 54.189 104.621 36.434C100.309 22.3426 96.7132 10.7515 96.6301 10.677C96.547 10.602 93.4911 11.4493 89.8395 12.5596L83.2001 14.5784L83.0823 7.79722L82.9645 1.01562H55.7752H28.5858V7.68885Z"  />
</svg>
