<svg width="112" height="113" viewBox="0 0 112 113" fill="white" style="fill:white" xmlns="http://www.w3.org/2000/svg">
<path fill-rule="evenodd" clip-rule="evenodd" d="M22.0574 2.44807C21.2421 3.79031 20.13 5.89458 19.5866 7.12401C17.2182 12.4793 14.5842 27.0064 13.9453 38.2356L13.5457 45.2547L11.3476 47.5338C8.14696 50.853 6.7138 52.8561 5.08229 56.2914C3.50325 59.6169 1.97712 64.4912 2.00026 66.1355C2.00935 66.7649 3.29621 68.8989 5.28643 71.5846L8.55732 75.9998L11.8005 74.0505C19.3481 69.5142 24.6382 69.5493 34.0429 74.198C38.6036 76.4523 40.5236 77.9247 43.4312 81.3981L44.9639 83.2288L44.9577 81.6047C44.9495 79.3984 43.9366 75.2609 42.8179 72.8632C41.5422 70.13 38.2416 66.9533 35.0459 65.3838C33.5685 64.6581 30.4072 63.5783 28.0206 62.9836C25.6341 62.3894 23.5955 61.8244 23.4906 61.7282C23.3856 61.6319 23.529 61.186 23.8096 60.7364C24.0902 60.2872 24.7101 58.8767 25.187 57.6018C25.6639 56.327 26.692 54.5781 27.4718 53.7148C29.0777 51.937 31.2952 51.2597 35.5075 51.2597C37.8994 51.2597 37.9829 51.2241 37.6961 50.3299C36.7229 47.2958 36.4022 44.0534 37.037 43.6608C37.7982 43.1905 41.8542 45.606 44.0602 47.8433C46.9591 50.7832 49.2109 54.5901 50.5528 58.8201C52.1409 63.8287 52.5236 67.3042 52.2892 74.6084C52.0359 82.511 51.2292 86.0959 48.4766 91.5517C47.4447 93.5973 46.6037 95.7916 46.6087 96.428C46.6273 99.0319 48.7907 101.341 52.6091 102.833C54.4683 103.559 54.6878 103.78 54.7977 105.04C54.9051 106.269 54.7663 106.498 53.6563 106.917C52.7777 107.248 52.145 107.94 51.5801 109.184C50.2647 112.082 50.1445 112.008 56.1217 112.008C62.099 112.008 61.9787 112.082 60.6634 109.184C60.0984 107.94 59.4658 107.248 58.5872 106.917C57.4772 106.498 57.3384 106.269 57.4458 105.04C57.5557 103.78 57.7752 103.559 59.6344 102.833C63.4528 101.341 65.6162 99.0319 65.6348 96.428C65.6397 95.7916 64.7988 93.5973 63.7669 91.5517C60.6034 85.2818 60.0972 82.6635 60.0927 72.5421C60.089 64.2283 60.1369 63.7076 61.232 60.1446C62.8044 55.0298 64.9579 51.163 67.9473 48.0876C70.3277 45.6386 74.3941 43.1587 75.2065 43.6608C75.8413 44.0534 75.5206 47.2958 74.5474 50.3299C74.2606 51.2241 74.3441 51.2597 76.736 51.2597C80.9482 51.2597 83.1657 51.937 84.7716 53.7148C85.5514 54.5781 86.5796 56.327 87.0565 57.6018C87.5334 58.8767 88.1533 60.2872 88.4339 60.7364C88.7145 61.186 88.8579 61.6319 88.7529 61.7282C88.6479 61.8244 86.6094 62.3894 84.2228 62.9836C76.6041 64.8813 72.2828 67.6633 69.8425 72.2413C68.4246 74.9014 67.2952 79.0376 67.2857 81.6047L67.2795 83.2288L68.8123 81.3981C71.7199 77.9247 73.6399 76.4523 78.2005 74.198C87.6053 69.5493 92.8953 69.5142 100.443 74.0505L103.686 75.9998L106.957 71.5846C108.947 68.8989 110.234 66.7649 110.243 66.1355C110.266 64.4912 108.74 59.6169 107.161 56.2914C105.53 52.8561 104.097 50.853 100.896 47.5338L98.6978 45.2547L98.2982 38.2356C97.8622 30.5686 96.3952 20.4497 94.7347 13.6538C93.7351 9.56219 90.9729 3.1291 89.2777 0.943414L88.5541 0.0107068L83.5988 4.22215C77.5311 9.37953 74.5209 12.4025 70.9108 16.966L68.1362 20.4724L56.1329 20.4584L44.1292 20.4439L42.8117 18.8054C38.0325 12.8608 35.5406 10.2213 30.9436 6.23428C28.0859 3.75601 25.251 1.34096 24.644 0.867789L23.5402 0.0078125L22.0574 2.44807ZM26.9966 8.24722C28.0739 9.13737 29.7551 10.8404 30.732 12.0314C33.8037 15.7758 38.7317 25.3389 38.7553 27.601C38.7677 28.7792 37.3866 30.1838 36.2158 30.1838C35.0922 30.1838 31.3419 28.0969 28.6897 25.996C27.5805 25.1174 26.4222 24.3983 26.1155 24.3983C24.8845 24.3983 23.2373 29.3826 22.2235 36.176C21.8169 38.9006 21.5384 39.6452 20.6396 40.4098C18.508 42.2231 18.3766 41.9032 18.6869 35.6594C19.1828 25.6794 20.4267 17.6884 22.5294 10.9677C23.5484 7.71123 24.0952 6.62852 24.7204 6.62852C24.8948 6.62852 25.9193 7.35708 26.9966 8.24722ZM89.1145 9.30556C91.282 14.7117 93.0433 25.086 93.5536 35.4528C93.8723 41.9214 93.7491 42.2347 91.6039 40.4098C90.7051 39.6452 90.4266 38.9006 90.0199 36.176C89.0062 29.3826 87.359 24.3983 86.1279 24.3983C85.8213 24.3983 84.663 25.1174 83.5538 25.996C80.9015 28.0969 77.1513 30.1838 76.0276 30.1838C74.8569 30.1838 73.4758 28.7792 73.4882 27.601C73.5118 25.3389 78.4398 15.7758 81.5115 12.0314C83.6046 9.47995 87.047 6.53843 87.6937 6.74877C87.9442 6.82977 88.5835 7.98067 89.1145 9.30556ZM32.8379 56.8179C29.8852 58.032 29.9154 58.0027 30.8076 58.8044C31.9374 59.8202 47.5724 70.2783 47.7278 70.1225C48.0555 69.7948 46.8971 63.332 46.1553 61.3496C44.5449 57.0452 42.7208 55.7988 38.0552 55.8154C36.0592 55.8224 34.5574 56.1108 32.8379 56.8179ZM69.9305 56.3724C68.2817 57.1167 67.0985 58.6498 66.0881 61.3496C65.3463 63.332 64.188 69.7948 64.5157 70.1225C64.6963 70.3031 80.4808 59.6962 81.4619 58.735C82.1863 58.025 82.1334 57.9626 80.0155 57.0237C77.31 55.8244 71.9158 55.4757 69.9305 56.3724ZM13.9052 76.0444C12.4394 76.487 10.2161 77.8193 10.35 78.1747C10.5215 78.6277 18.2538 84.9202 21.0929 86.9167C22.5165 87.9176 25.8201 90.014 28.4339 91.5752C34.5157 95.2073 36.0807 96.6826 38.3284 100.901C39.3363 102.792 40.6372 104.789 41.2191 105.337C42.6997 106.731 45.3086 107.855 47.091 107.866L48.5977 107.875L45.8181 105.086C42.2096 101.464 40.6492 98.2955 39.7843 92.8336C39.428 90.5838 38.8858 88.2593 38.5792 87.6679C37.7804 86.1269 33.1392 81.782 30.4882 80.0935C24.7663 76.4494 18.0187 74.8018 13.9052 76.0444ZM89.8017 76.4172C86.4259 77.4598 84.47 78.3508 81.7764 80.0736C79.1006 81.7853 74.4631 86.1269 73.6643 87.6679C73.3576 88.2593 72.8154 90.5838 72.4592 92.8336C71.5943 98.2955 70.0339 101.464 66.4253 105.086L63.6458 107.875L65.1525 107.866C66.9349 107.855 69.5437 106.731 71.0244 105.337C71.6063 104.789 72.9072 102.792 73.9151 100.901C76.1628 96.6826 77.7278 95.2073 83.8096 91.5752C86.4234 90.014 89.7269 87.9176 91.1506 86.9167C94.0268 84.8942 101.724 78.6252 101.897 78.1636C101.958 78.0012 101.223 77.4276 100.264 76.8887C97.8907 75.5547 93.2701 75.3464 89.8017 76.4172Z" />
</svg>
