<svg width="112" height="113" viewBox="0 0 112 113" fill="white" style="fill:white" xmlns="http://www.w3.org/2000/svg">
<path fill-rule="evenodd" clip-rule="evenodd" d="M33.8159 1.98793C31.7986 3.02706 28.6927 5.04936 26.9139 6.48268L23.6799 9.0882L23.7865 11.357C24.0346 16.6375 27.305 28.3909 30.7993 36.559L32.0682 39.5254L31.1624 40.4894C30.664 41.0197 30.0585 41.4537 29.8162 41.4537C29.3073 41.4537 23.887 35.9271 21.9617 33.4451C21.2443 32.5202 19.0751 29.3725 17.1418 26.4499L13.6267 21.1361L11.8015 25.0641C10.7976 27.2244 9.36854 30.8261 8.62581 33.0681L7.27457 37.1446L8.38344 38.5994C10.0656 40.8065 16.9715 46.8983 21.2722 49.9689C25.0944 52.6979 25.101 52.7052 24.8743 54.076C24.7493 54.8314 24.645 55.8575 24.6427 56.356C24.6389 57.2191 24.5526 57.249 22.8172 56.9894C20.2553 56.6056 18.3285 55.9012 12.2858 53.1377L7 50.7205L7.01339 52.1266C7.03486 54.3862 8.00888 59.1367 8.84402 61.057L9.6155 62.8305L12.8134 63.0636C14.5719 63.1921 18.1199 63.4083 20.6978 63.5441C24.9096 63.7657 25.4089 63.8677 25.6248 64.5479C25.757 64.964 25.7183 65.4463 25.5393 65.6193C24.6489 66.4793 19.9375 67.6224 16.4903 67.8145C14.4339 67.9292 12.7517 68.0898 12.7517 68.1719C12.7517 68.5603 14.866 72.5225 15.9473 74.1598L17.1613 75.9984L19.9559 75.743C22.3271 75.5264 22.864 75.5908 23.5028 76.1686C24.5691 77.1338 24.4364 78.1073 23.1047 79.092C22.472 79.5598 21.9544 80.069 21.9544 80.224C21.9544 80.6569 26.4737 82.8157 27.9657 83.0956C29.0773 83.3042 29.4681 83.1742 30.3926 82.2884C31.9114 80.8333 32.6909 81.211 32.6909 83.4016V85.1114L34.8305 85.3786C36.0073 85.5259 37.6738 85.4952 38.5339 85.3104C39.9955 84.9967 40.1431 84.8403 40.7969 82.9134C41.1815 81.78 41.7003 80.6066 41.9496 80.306C42.4599 79.691 45.1824 79.7493 45.1057 80.3735C45.08 80.5844 44.9531 81.7125 44.8243 82.8809L44.59 85.0044L47.4597 86.4243L50.3294 87.8446V89.4251C50.3294 91.7549 47.4635 94.9445 43.399 97.1389C41.728 98.0408 40.3606 98.8982 40.3602 99.0443C40.3598 99.19 41.3986 100.109 42.6685 101.086C44.1448 102.222 45.3089 103.509 45.8971 104.655C47.7741 108.313 47.6717 108.288 50.2903 105.709L52.5975 103.437L53.032 104.559C53.2705 105.176 53.9844 107.104 54.6183 108.844C55.2517 110.584 55.8211 112.008 55.8832 112.008C55.9449 112.008 56.639 110.239 57.425 108.077C58.2111 105.916 58.9711 104.019 59.1134 103.863C59.256 103.706 60.3086 104.526 61.4524 105.684C62.5963 106.842 63.6591 107.79 63.8141 107.79C63.969 107.79 64.7243 106.666 65.4928 105.292C66.4794 103.528 67.5542 102.283 69.1543 101.052C70.3997 100.093 71.4189 99.19 71.4186 99.0443C71.4182 98.8982 70.047 98.0385 68.3709 97.1339C64.4402 95.0119 60.6824 91.1062 60.6824 89.1422C60.6824 87.9374 60.8466 87.7775 63.4134 86.4853L66.1442 85.1098L65.8824 82.4541L65.6208 79.7983H67.1308C68.9127 79.7983 69.2859 80.1749 70.215 82.9134C70.8687 84.8403 71.0163 84.9967 72.478 85.3104C73.3381 85.4952 75.0045 85.5259 76.1813 85.3786L78.321 85.1114V83.4016C78.321 81.211 79.1005 80.8333 80.6193 82.2884C81.9085 83.5239 83.0427 83.4507 86.1816 81.9303C89.3573 80.3919 89.3466 80.4122 87.7721 79.0299C87.0029 78.3543 86.3733 77.6794 86.3733 77.5303C86.3733 77.3811 86.7437 76.8611 87.1966 76.3749C87.9635 75.5517 88.22 75.5083 90.9352 75.7403L93.8505 75.9896L95.0645 74.1555C96.1443 72.524 98.2602 68.5622 98.2602 68.1719C98.2602 68.0898 96.578 67.9292 94.5216 67.8145C91.0744 67.6224 86.3629 66.4793 85.4726 65.6193C85.2935 65.4463 85.2548 64.964 85.3871 64.5479C85.603 63.8677 86.1023 63.7657 90.314 63.5441C92.892 63.4083 96.44 63.1921 98.1985 63.0636L101.396 62.8305L102.168 61.057C103.003 59.1367 103.977 54.3862 103.998 52.1266L104.012 50.7205L98.7261 53.1377C92.6834 55.9012 90.7565 56.6056 88.1947 56.9894C86.4592 57.249 86.373 57.2191 86.3691 56.356C86.3668 55.8575 86.2625 54.8314 86.1375 54.076C85.9109 52.7052 85.9174 52.6979 89.7396 49.9689C94.0404 46.8983 100.946 40.8065 102.628 38.5994L103.737 37.1446L102.345 32.9385C101.58 30.6252 100.15 27.0243 99.1678 24.9368L97.3821 21.1411L93.8686 26.4522C91.936 29.3733 89.7676 32.5202 89.0502 33.4451C87.1249 35.9271 81.7045 41.4537 81.1957 41.4537C80.9534 41.4537 80.3479 41.0197 79.8494 40.4894L78.9437 39.5254L80.2175 36.559C83.6263 28.6209 87.8197 13.2624 87.4496 10.0702C87.284 8.64187 81.8747 4.39367 77.0962 1.93923L73.3362 0.0078125L73.3323 3.57156C73.3212 13.4062 71.7464 23.3348 67.9028 37.8014C66.9859 41.2524 66.5331 43.5957 66.7685 43.6743C68.0312 44.0949 71.8472 46.947 73.1928 48.4754C75.1529 50.7024 75.8221 52.928 75.5165 56.203C75.2576 58.9726 74.4623 61.1491 73.2219 62.4812C71.9327 63.8662 64.0851 67.6074 63.5633 67.0856C63.3573 66.88 60.299 55.2781 60.299 54.7029C60.299 54.0538 62.3984 53.1814 63.2105 53.4928C63.7289 53.6918 63.7899 53.5522 63.5698 52.6745C63.2262 51.3052 63.3187 51.3647 61.1806 51.1392C60.1687 51.0322 58.9953 50.6327 58.5735 50.2515C57.871 49.6165 57.603 49.6008 55.3894 50.064C54.06 50.3424 52.9126 50.6327 52.8394 50.709C52.7665 50.7857 51.7697 54.4717 50.6239 58.9005L48.5406 66.9529L47.1587 66.9115C45.4485 66.8597 39.206 63.9405 37.9077 62.5851C36.5645 61.1828 35.7623 59.0608 35.4954 56.203C35.1898 52.928 35.8589 50.7024 37.8191 48.4754C39.1646 46.947 42.9806 44.0949 44.2433 43.6743C44.4788 43.5957 44.0259 41.2524 43.1091 37.8014C39.6071 24.6212 38.209 16.4105 37.7646 6.41366L37.484 0.0994555L33.8159 1.98793Z" />
</svg>
