<svg width="112" height="113" viewBox="0 0 112 113" fill="white" style="fill:white" xmlns="http://www.w3.org/2000/svg">
<path fill-rule="evenodd" clip-rule="evenodd" d="M42.2606 1.44634C35.7718 3.2807 33.6983 8.09064 36.3339 15.1942C37.57 18.525 41.1724 24.6727 45.298 30.4916L48.1683 34.5397L50.2843 33.9767C51.448 33.6669 52.8979 33.4109 53.5054 33.4085C54.113 33.4057 54.6105 33.3571 54.6105 33.3C54.6105 33.0609 59.0503 20.7934 59.1857 20.6576C59.2673 20.576 59.7463 23.1847 60.2498 26.454C61.3094 33.3354 61.5666 34.2074 62.5367 34.2078C62.9288 34.2078 64.4084 34.7559 65.824 35.4257C67.2397 36.0956 68.5259 36.5926 68.6823 36.5304C69.3521 36.2639 77.0709 27.2392 80.3141 22.9307C84.267 17.6796 84.8444 16.366 84.8231 12.6675C84.7969 8.19511 82.6082 5.54503 77.314 3.57605C75.1385 2.76676 74.0985 2.67273 66.6654 2.61004C60.7091 2.56022 57.5933 2.35689 55.4141 1.8771C51.0498 0.915515 44.8556 0.71259 42.2606 1.44634ZM17.7299 15.9553C13.8108 17.9082 11.0128 22.4324 8.42904 30.9943C7.3899 34.4376 6.20847 37.3437 5.02788 39.358C-0.725157 49.176 -1.5304 55.8248 2.55704 59.7619C6.32141 63.388 12.7532 63.2064 27.3863 59.0619L33.3133 57.3835L33.3189 54.7362C33.3217 53.2803 33.4194 51.7273 33.5359 51.2852C33.7067 50.6359 32.7761 49.7185 28.6934 46.5115C25.914 44.3283 23.6914 42.4952 23.7549 42.4381C23.8184 42.381 26.659 42.7993 30.0674 43.3675L36.2648 44.4002L36.8932 43.4226C37.2388 42.8849 38.4568 41.4504 39.6 40.2348L41.6787 38.0248L38.7264 32.8725C35.0046 26.3768 30.7332 19.9893 28.8389 18.0862C27.191 16.4311 23.6034 14.9194 21.3222 14.9194C20.4896 14.9194 18.8735 15.3855 17.7299 15.9553ZM94.8528 21.814C93.8904 21.9848 92.2771 22.6089 91.2673 23.2008C88.4436 24.8555 83.0843 30.2256 78.2845 36.2101L73.9387 41.6284L74.7431 42.8403C75.1859 43.507 75.9241 44.7965 76.3842 45.7058L77.2204 47.3589L80.2409 47.6145C81.9025 47.7547 84.7414 47.8697 86.5497 47.8697C88.3583 47.8697 89.9465 47.9782 90.0791 48.1112C90.2121 48.2438 87.7267 49.6289 84.5562 51.1888L78.7916 54.0253L78.6497 58.0802C78.5637 60.5302 78.6686 62.2513 78.9154 62.4289C79.8323 63.0899 89.6913 67.3943 94.191 69.0981C98.317 70.66 99.4482 70.926 102.027 70.9393C104.549 70.9521 105.384 70.7753 107.148 69.8539C112.73 66.939 113.469 60.2329 109.501 48.503C108.301 44.9532 107.636 42.2058 107.452 40.0339C106.363 27.1636 101.809 20.5792 94.8528 21.814ZM52.1473 43.2506C46.1186 45.185 42.1163 51.0887 42.6728 57.2259C42.9445 60.2208 44.8576 64.215 46.8652 65.9775C49.5245 68.3125 52.3719 69.3669 56.0169 69.3669C61.4931 69.3669 65.5797 66.8498 67.963 62.0082C70.4013 57.056 69.59 51.1727 65.8871 46.9555C65.1722 46.1414 63.4291 44.9049 62.0135 44.2082C58.9145 42.6824 55.0778 42.3099 52.1473 43.2506ZM25.4776 66.1374C17.2963 68.2321 11.929 70.0914 10.1525 71.4464C9.43365 71.9945 8.25105 73.37 7.52413 74.5027C6.40583 76.2451 6.20173 76.9362 6.1961 78.9924C6.18244 84.1351 10.421 89.2448 19.2854 94.7716C20.7416 95.6797 23.9965 98.4837 26.5184 101.003C30.1453 104.626 31.7137 105.888 34.0234 107.041C39.0548 109.553 42.304 109.459 45.3455 106.711C48.5766 103.792 49.7419 98.9241 50.0645 86.9961L50.2944 78.5058L48.7356 78.0007C47.8781 77.723 46.336 77.0745 45.3085 76.5597L43.4403 75.6239L38.587 79.0254C35.918 80.8963 33.638 82.4273 33.5202 82.4273C33.4029 82.4273 34.2713 80.4836 35.4507 78.1076C38.943 71.0715 38.8438 71.6493 37.0078 69.0282C36.1379 67.7865 35.2 66.2246 34.9239 65.5575C34.2641 63.9651 33.8687 63.9896 25.4776 66.1374ZM73.9475 70.5873C72.8155 71.9997 71.8893 73.3402 71.8893 73.5661C71.8893 73.7919 72.6138 76.5396 73.4991 79.6727C74.3847 82.8058 75.0537 85.4246 74.9858 85.4921C74.9183 85.56 72.9059 83.6521 70.5138 81.2527L66.1647 76.8904L64.5064 77.6165C63.5942 78.0156 61.7414 78.5572 60.3884 78.8196L57.9292 79.2966L57.4313 83.3736C57.1573 85.6158 56.8403 90.9835 56.727 95.302C56.5224 103.091 56.5288 103.17 57.533 105.147C61.6256 113.206 69.4952 112.822 80.804 104.011C83.4299 101.964 86.0945 100.303 88.3255 99.3199C96.864 95.5584 101.196 91.8274 102.455 87.1492C103.294 84.035 101.559 80.4129 97.9666 77.7753C95.1711 75.7235 89.0467 72.7769 83.1406 70.6423C80.378 69.6442 77.6427 68.6452 77.0617 68.423C76.0752 68.0453 75.8711 68.1871 73.9475 70.5873Z" />
</svg>
