<svg width="116" height="113" viewBox="0 0 116 113" fill="white" style="fill:white" xmlns="http://www.w3.org/2000/svg">
<path fill-rule="evenodd" clip-rule="evenodd" d="M54.7132 3.0069C44.6465 13.766 39.9383 24.6231 40.6974 35.3274C41.1209 41.2997 42.7194 43.7974 50.7803 51.0814L53.5871 53.6172L53.8233 59.7514L54.0595 65.8855L52.2907 67.4861C51.3184 68.3662 50.4009 69.0943 50.2527 69.104C50.1044 69.1138 49.8466 68.0226 49.6796 66.679C49.1771 62.6394 47.5175 56.7334 46.0032 53.5969C44.0799 49.6129 38.6279 44.0696 33.9563 41.3473C29.8432 38.9507 23.7257 36.9143 19.5905 36.5656C11.697 35.9 4.62531 39.7128 1.24709 46.456C0.14481 48.6563 0.000424772 49.3878 0 52.7677C0 55.8354 0.190264 57.0103 0.963775 58.7145C3.66235 64.6596 10.4485 68.0727 14.9766 65.7628C16.5708 64.9493 19.3016 61.9339 19.3016 60.9871C19.3016 60.7883 18.93 60.626 18.4759 60.626C18.0214 60.626 17.1162 60.1672 16.4641 59.6061C14.0824 57.5574 15.3636 53.1224 18.7728 51.614C21.383 50.4595 27.0231 50.7033 29.9787 52.0987C34.2519 54.1159 38.1156 58.8122 39.6869 63.8989C40.8711 67.7341 40.8066 68.5374 39.2473 69.3436C37.651 70.1689 36.2955 72.3102 36.2955 74.0063C36.2955 75.7024 37.651 77.8437 39.2473 78.669C40.7225 79.4319 40.8588 80.1095 39.7969 81.3986C36.9594 84.8431 30.9935 81.8672 29.8746 76.4483L29.3568 73.943L27.2869 74.2701C24.5913 74.6962 21.908 76.2024 20.731 77.9503C19.4036 79.9213 19.0149 84.0598 19.8789 87.0307C22.2479 95.1804 33.1709 97.9342 42.7899 92.8076C46.7657 90.6884 49.0412 86.8429 50.0887 80.4731L50.3525 78.8691L52.2287 80.4731L54.1049 82.077L54.119 85.0665L54.133 88.0557L51.9615 90.1638C48.9596 93.0773 48.4822 94.3296 49.0412 97.8271C49.9111 103.274 52.292 107.501 56.208 110.552L58.0706 112.004L59.7612 110.665C63.6508 107.585 65.9867 103.362 66.874 97.808C67.4292 94.3317 66.9479 93.0731 63.9503 90.1638L61.7789 88.0557L61.815 84.8542C61.8506 81.6696 61.86 81.6441 63.5251 80.2122C64.446 79.42 65.2785 78.8513 65.375 78.9477C65.4714 79.0437 65.8435 80.5287 66.2016 82.2473C67.735 89.601 71.2024 93.1139 78.6597 94.869C86.8205 96.7898 94.1584 93.4796 96.0329 87.0307C96.8969 84.0598 96.5083 79.9213 95.1808 77.9503C94.0038 76.2024 91.3205 74.6962 88.6249 74.2701L86.555 73.943L86.0372 76.4483C84.9183 81.8672 78.9524 84.8431 76.1149 81.3986C75.053 80.1095 75.1893 79.4319 76.6646 78.669C78.2609 77.8437 79.6163 75.7024 79.6163 74.0063C79.6163 72.3102 78.2609 70.1689 76.6646 69.3436C75.1052 68.5374 75.0407 67.7341 76.225 63.8989C77.7962 58.8122 81.6599 54.1159 85.9331 52.0987C88.8887 50.7033 94.5288 50.4595 97.139 51.614C99.3874 52.6084 100.522 54.3585 100.59 56.9339C100.624 58.246 100.389 58.7961 99.4477 59.6061C98.7957 60.1672 97.8904 60.626 97.4359 60.626C96.3167 60.626 96.3923 61.0469 97.879 63.0994C101.327 67.859 107.462 67.5918 112.412 62.4661C114.985 59.8015 115.912 57.2333 115.912 52.7677C115.911 49.3878 115.767 48.6563 114.665 46.456C111.287 39.7128 104.215 35.9 96.3213 36.5656C92.1785 36.9152 86.0623 38.9533 81.9556 41.3528C77.2181 44.1215 72.1463 49.2527 70.0743 53.3751C68.4321 56.6416 66.7606 62.4296 66.2322 66.679C66.0555 68.1033 65.7195 69.1214 65.4268 69.1214C65.1507 69.1214 64.2302 68.4048 63.3815 67.5285L61.8379 65.9356L62.0813 59.7764L62.3247 53.6172L65.1316 51.0814C69.9672 46.7117 72.8123 43.5064 74.0008 41.089C75.0619 38.9303 75.1477 38.3573 75.146 33.4431C75.1431 23.277 71.6892 15.1431 62.9695 4.76843C57.8314 -1.34447 58.6258 -1.17499 54.7132 3.0069Z" />
</svg>
