<svg width="112" height="113" viewBox="0 0 112 113" fill="white" style="fill:white" xmlns="http://www.w3.org/2000/svg">
<path fill-rule="evenodd" clip-rule="evenodd" d="M52.1218 10.0237L52.3891 12.0395H49.7544H47.1201V15.8696V19.6997H50.1439C52.8858 19.6997 53.1677 19.7739 53.1677 20.4956C53.1677 20.9556 52.6992 21.5354 52.0589 21.8684C50.3761 22.7441 49.194 24.202 48.8453 25.832L48.5312 27.3007L46.3138 25.9324C45.0942 25.1796 43.015 24.2858 41.6934 23.9459C37.2811 22.8118 31.0409 23.2916 27.6071 25.0293C25.4723 26.1097 22.5021 29.2916 21.1693 31.9259L20.0706 34.0974L16.859 34.3449C10.7425 34.8166 4.81667 37.6993 2.36943 41.3939C-0.041129 45.0334 -0.558797 48.7224 0.572902 54.201C2.04125 61.3089 6.12296 68.214 12.9321 75.109C17.2553 79.4863 17.2855 79.5306 17.2855 81.459V83.4006H55.9899H94.6942V81.459C94.6942 79.5306 94.7244 79.4863 99.0476 75.109C105.857 68.214 109.938 61.3089 111.407 54.201C112.189 50.4141 112.197 47.8225 111.435 45.2551C109.599 39.0741 103.46 34.992 95.0151 34.3381L91.9091 34.0974L90.8105 31.9259C89.4776 29.2916 86.5074 26.1097 84.3726 25.0293C80.9388 23.2916 74.6986 22.8118 70.2863 23.9459C68.9647 24.2858 66.8855 25.1796 65.6659 25.9324L63.4485 27.3007L63.1344 25.832C62.7857 24.202 61.6036 22.7441 59.9208 21.8684C59.2805 21.5354 58.812 20.9556 58.812 20.4956C58.812 19.7739 59.0939 19.6997 61.8358 19.6997H64.8596V15.8696V12.0395H62.2253H59.5906L59.8579 10.0237L60.1256 8.00781H55.9899H51.8541L52.1218 10.0237ZM45.6203 36.2124C46.6803 36.7204 48.4494 37.9468 49.5512 38.9378L51.555 40.7392V51.9251V63.1107L50.0004 64.7451C49.1452 65.6442 47.9845 67.3053 47.4205 68.4362L46.3956 70.4931L44.8567 68.4749C42.9832 66.018 40.8746 64.4996 38.889 64.1775C37.6178 63.9711 37.2634 63.6646 36.4615 62.077C34.1114 57.426 32.3141 49.1009 32.712 44.7108C33.0825 40.6263 35.285 36.8538 38.0488 35.5693C39.7292 34.7888 43.2795 35.09 45.6203 36.2124ZM73.843 35.5754C76.6499 36.7764 78.8903 40.5493 79.2677 44.7108C79.668 49.1251 77.8675 57.428 75.49 62.1334C74.7832 63.5312 74.2861 64.0485 73.6483 64.0485C71.8707 64.0485 69.2965 65.7265 67.4306 68.1015L65.5716 70.4682L64.5528 68.4237C63.9924 67.2996 62.8345 65.6442 61.9794 64.7451L60.4247 63.1107V51.9695V40.8283L61.9366 39.3986C66.0058 35.5504 70.45 34.1236 73.843 35.5754ZM22.2586 52.5698C23.2528 54.6264 25.3509 58.4263 26.9209 61.0134C29.7447 65.6676 29.7685 65.7309 29.1532 66.9207C28.8109 67.5823 28.4247 69.0208 28.2949 70.1178C28.1651 71.2144 27.9675 72.1119 27.8562 72.1119C27.7446 72.1119 26.5318 71.4035 25.161 70.5379C22.5945 68.9168 20.3141 68.0862 18.4192 68.0826C17.469 68.0806 17.1376 67.6847 15.7285 64.8697C13.7739 60.9642 12.662 56.3157 12.97 53.3342C13.3078 50.0577 15.0576 46.5743 17.4423 44.4306L19.4864 42.5926L19.9686 45.7115C20.3025 47.8705 21.0072 49.9815 22.2586 52.5698ZM95.5783 45.3652C97.1144 46.9855 98.7444 50.764 99.0077 53.3145C99.3177 56.3169 98.2119 60.9517 96.2512 64.8697C94.8422 67.6847 94.5107 68.0806 93.5605 68.0826C91.6656 68.0862 89.3853 68.9168 86.8187 70.5379C85.4479 71.4035 84.2352 72.1119 84.1235 72.1119C84.0122 72.1119 83.8146 71.2144 83.6848 70.1178C83.555 69.0208 83.1688 67.5823 82.8265 66.9207C82.2112 65.7309 82.235 65.6676 85.0588 61.0134C89.4232 53.8208 91.4846 49.284 91.9934 45.7518L92.428 42.7345L93.4605 43.4767C94.0282 43.8851 94.9812 44.735 95.5783 45.3652ZM25.1473 88.7693C22.8827 89.6631 22.1498 90.2678 21.0419 92.1583C18.8998 95.8134 20.0626 100.599 23.6318 102.819L25.1473 103.761H55.9899H86.8324L88.3479 102.819C90.5649 101.44 92.053 98.6788 92.0143 96.0142C91.9744 93.2509 90.3424 90.4856 88.0419 89.2833C86.4518 88.452 86.0071 88.4391 56.393 88.3661C34.0598 88.3113 26.0468 88.4145 25.1473 88.7693Z" />
</svg>
