<svg width="112" height="113" viewBox="0 0 112 113" fill="white" style="fill:white" xmlns="http://www.w3.org/2000/svg">
<path fill-rule="evenodd" clip-rule="evenodd" d="M60.7485 0.673661C58.0178 1.94928 54.7659 4.98727 52.1819 8.67661C51.5856 9.52789 51.545 9.52527 48.5874 8.42908C44.7243 6.99718 41.3165 6.57503 38.8905 7.22855C36.0346 7.99733 32.8001 11.3038 30.5362 15.7693L28.6656 19.4582H26.8608C22.4293 19.4582 17.9904 21.9942 16.1678 25.5665C15.0593 27.7388 14.0627 31.7678 13.7192 35.4602C13.4612 38.2384 13.3101 38.6183 12.2052 39.2709C10.0922 40.519 5.95453 44.978 4.83083 47.2175C2.81831 51.2286 3.22868 57.164 5.92659 63.0597L7.0005 65.4066L5.42236 67.1537C2.87069 69.9778 1.98279 72.3846 2.00025 76.4288C2.01335 79.4533 2.20408 80.3128 3.42556 82.8427C6.09947 88.3813 11.6494 91.49 18.8639 91.49H21.0825L20.835 90.0712C20.6993 89.2906 20.1855 86.3421 19.6935 83.5185C16.7384 66.5609 17.8189 50.2442 22.4857 41.3637C27.8562 31.1435 38.6675 22.6355 52.4347 17.7963C56.4502 16.3844 64.6268 14.4706 68.5637 14.0205C70.873 13.7564 71.0193 13.6625 71.9967 11.8198C72.5586 10.7607 73.6845 9.11579 74.4992 8.16453L75.9799 6.43446L73.9037 4.65636C69.0173 0.473282 64.2597 -0.967354 60.7485 0.673661ZM83.9475 4.62668C80.689 6.25503 77.5585 9.58377 75.5337 13.5722L74.1228 16.3526L71.665 16.6534C67.7416 17.1331 59.2804 19.3172 55.1178 20.9251C37.4146 27.762 27.3144 38.3218 23.7425 53.7279C22.6406 58.4807 22.6384 71.938 23.739 77.8585C26.3945 92.1492 33.1363 101.766 44.3239 107.222C52.584 111.25 63.322 112.89 72.7001 111.556C76.3868 111.032 77.5974 110.237 79.0301 107.402C80.0499 105.383 80.1215 104.811 80.1215 98.6932C80.1215 89.4028 79.2807 87.0559 72.6359 77.8022C68.7527 72.3942 67.6994 68.3381 68.5105 61.9138C69.2107 56.3634 71.1525 52.6365 73.3436 52.6365C73.7108 52.6365 74.4856 53.5301 75.0649 54.6228C77.4323 59.0857 81.081 61.5606 87.3989 62.9881C90.4941 63.6879 90.7656 63.839 90.9965 64.9924C91.805 69.0362 93.8945 70.7702 97.5367 70.4201C99.0594 70.2738 100.053 70.4096 100.735 70.8562C102.066 71.7284 103.555 71.2932 105.619 69.4291C108.122 67.1673 109.314 64.0957 109.34 59.8397C109.363 56.0342 108.639 54.0771 106.151 51.2299C105.224 50.1695 104.595 48.5761 103.722 45.0775C100.921 33.855 96.9704 26.7382 89.8362 20.062L87.0912 17.4937L88.0774 12.4733C88.62 9.71212 89.0159 6.56892 88.9578 5.48844C88.8649 3.75051 88.7265 3.5091 87.7591 3.39603C87.158 3.32574 85.4427 3.87973 83.9475 4.62668ZM90.7853 36.7611C92.0103 38.3179 91.9443 40.1986 90.6185 41.524C87.9673 44.1756 83.4433 41.3869 84.7372 37.8988C85.3484 36.2512 86.3315 35.6108 88.2497 35.6108C89.4917 35.6108 90.0964 35.885 90.7853 36.7611Z" />
</svg>
