<svg width="112" height="113" viewBox="0 0 112 113" fill="white" style="fill:white" xmlns="http://www.w3.org/2000/svg">
<path fill-rule="evenodd" clip-rule="evenodd" d="M39.9314 2.03328C25.5636 6.16385 12.6755 16.993 5.7956 30.716C1.61429 39.0563 0.0140546 46.0017 0.000102837 55.8682C-0.0104667 63.4465 0.792378 68.4294 3.02636 74.6477C9.03704 91.3801 23.2903 104.919 39.9314 109.703L43.525 110.736L43.635 90.9121L43.7449 71.0883H55.9971H68.2493L68.3592 90.9121L68.4691 110.736L72.0628 109.703C88.7039 104.919 102.957 91.3801 108.968 74.6477C111.19 68.4628 112 63.4453 112 55.8682C112 48.2911 111.19 43.2735 108.968 37.0886C102.95 20.3376 88.7221 6.82254 72.0628 2.03328L68.4691 1L68.3592 21.247L68.2497 41.4936H55.9971H43.7445L43.635 21.247L43.525 1L39.9314 2.03328Z" />
</svg>
