<svg width="113" height="113" viewBox="0 0 113 113" fill="white" style="fill:white" xmlns="http://www.w3.org/2000/svg">
<path fill-rule="evenodd" clip-rule="evenodd" d="M47.8781 8.01524L39.8707 16.0305H28.0497H16.2282V27.8441V39.6578L8.11398 47.7795L0 55.9011L8.11398 64.0228L16.2282 72.1445V83.9582V95.7718H28.0419H39.8554L47.9772 103.886L56.0988 112L64.2207 103.886L72.3423 95.7718H84.156H95.9695V83.9582V72.1445L104.084 64.0228L112.198 55.9011L104.084 47.7795L95.9695 39.6578V27.8441V16.0305H84.1482H72.327L64.3196 8.01524C59.9157 3.60686 56.2164 0 56.0988 0C55.9813 0 52.2819 3.60686 47.8781 8.01524ZM67.6087 44.5984L78.9078 55.9032L67.5031 67.3074L56.0988 78.7117L44.6945 67.3074L33.2901 55.9032L44.589 44.5984C50.803 38.3811 55.9825 33.2941 56.0988 33.2941C56.2152 33.2941 61.3946 38.3811 67.6087 44.5984Z" />
</svg>
