<svg width="112" height="113" viewBox="0 0 112 113" fill="white" style="fill:white" xmlns="http://www.w3.org/2000/svg">
<path fill-rule="evenodd" clip-rule="evenodd" d="M50.3722 0.116068C44.1851 0.788563 36.1871 3.10429 30.9905 5.72735C27.9019 7.28673 23.3154 10.1605 23.3154 10.5368C23.3154 10.6901 25.6312 13.126 28.4616 15.9494L33.6077 21.0832L37.6526 19.1694C42.7695 16.7488 46.0426 15.7685 51.1574 15.1245C65.6082 13.3057 80.307 19.5788 89.2493 31.3813C91.6894 34.6017 95.312 42.1367 96.2241 45.8878C98.696 56.055 97.4827 66.2911 92.7319 75.3578L91.0644 78.5402L96.1164 83.6046C98.8952 86.39 101.294 88.6689 101.448 88.6689C101.824 88.6689 104.698 84.0825 106.257 80.9939C108.008 77.5244 110.213 70.9953 111.129 66.5691C111.697 63.8205 111.898 61.0747 111.898 56.0356C111.898 48.299 111.273 44.4206 108.94 37.6808C104.124 23.7703 94.1203 12.3643 80.9129 5.72487C77.3629 3.94036 70.6124 1.65975 66.5985 0.888529C63.1935 0.234623 53.5203 -0.225962 50.3722 0.116068ZM8.33018 26.3322C6.12599 29.7839 4.51007 33.198 2.95812 37.6808C0.625046 44.4206 0 48.299 0 56.0356C0 63.7722 0.625046 67.6506 2.95812 74.3904C7.78249 88.3265 17.7764 99.7225 30.9847 106.349C34.5462 108.136 41.2982 110.415 45.5223 111.256C50.4995 112.248 61.3982 112.248 66.3754 111.256C73.1198 109.913 83.1387 105.829 86.6829 102.979L87.7828 102.094L82.6298 96.9603L77.4766 91.8265L73.425 93.7143C65.0209 97.6299 56.6865 98.5688 47.2741 96.66C35.79 94.3306 25.1044 86.1586 19.4019 75.3442C13.1838 63.552 13.1153 49.4705 19.2173 37.3825L20.4999 34.8417L15.1283 29.47L9.7566 24.0987L8.33018 26.3322ZM49.9591 27.7825C48.3688 28.1097 45.3016 29.2374 43.1433 30.2883C39.8655 31.884 38.6337 32.7841 35.6653 35.7521C32.6948 38.723 31.799 39.9494 30.2037 43.2301C26.0022 51.8709 26.0022 60.2003 30.2037 68.8411C31.799 72.1217 32.6948 73.3482 35.6653 76.3191C38.6362 79.2895 39.8626 80.1855 43.1433 81.7808C51.7841 85.9822 60.1135 85.9822 68.7543 81.7808C72.0349 80.1855 73.2614 79.2895 76.2323 76.3191C79.2027 73.3482 80.0988 72.1217 81.6941 68.8411C85.8955 60.2003 85.8955 51.8709 81.6941 43.2301C80.0988 39.9494 79.2027 38.723 76.2323 35.7521C73.2614 32.7816 72.0349 31.8857 68.7543 30.2903C62.5188 27.2588 56.4436 26.4479 49.9591 27.7825Z" />
</svg>
