<svg width="112" height="113" viewBox="0 0 112 113" fill="white" style="fill:white" xmlns="http://www.w3.org/2000/svg">
<path fill-rule="evenodd" clip-rule="evenodd" d="M50.5777 3.59128C41.4323 5.56265 33.6107 13.4432 31.7124 22.5993C31.3882 24.1631 31.0636 25.5014 30.9914 25.5728C30.9191 25.6442 30.0192 25.5404 28.9918 25.342C16.4508 22.9181 3.23894 31.8958 0.558132 44.6626C-0.626188 50.3036 0.0732802 55.7213 2.66608 60.9899C4.5424 64.8027 8.48224 69.0518 12.1058 71.171L14.8023 72.748L13.7878 74.9635C9.52044 84.2848 11.5732 95.1907 18.9913 102.609C28.5555 112.173 43.5008 112.484 53.295 103.322L55.9742 100.816L58.6533 103.322C68.4475 112.484 83.3928 112.173 92.9571 102.609C100.375 95.1907 102.428 84.2848 98.1605 74.9635L97.146 72.748L99.8426 71.171C107.019 66.9742 112 58.2389 112 49.8516C112 38.4156 103.481 27.9174 92.2966 25.5691C89.0363 24.885 85.7374 24.8044 82.9566 25.342C81.9292 25.5404 81.0292 25.6442 80.957 25.5728C80.8847 25.5014 80.5601 24.1631 80.2359 22.5993C78.3169 13.3423 70.482 5.52488 61.1631 3.56803C57.5931 2.81875 54.1269 2.82622 50.5777 3.59128Z"/>
</svg>
