<svg width="112" height="113" viewBox="0 0 112 113" fill="white" style="fill:white" xmlns="http://www.w3.org/2000/svg">
<path fill-rule="evenodd" clip-rule="evenodd" d="M49.273 11.4024C45.8198 17.7114 42.9943 23.0608 42.9943 23.2903C42.9943 23.5197 44.0717 25.0292 45.3885 26.6445L47.7826 29.5821V42.6615V55.7409H40.4006H33.0186V42.9288V30.1164L35.6625 26.9206C38.2227 23.8262 38.2889 23.6901 37.7574 22.6275C35.1095 17.334 25.5787 0.385208 25.3708 0.599886C25.1429 0.835313 14.8356 19.5877 13.269 22.6167C12.7423 23.6354 12.8165 23.7978 15.0882 26.5775L17.4565 29.4764V53.3395C17.4565 74.7318 17.5219 77.2282 18.0877 77.4452C18.4349 77.5785 25.4378 77.6874 33.6498 77.6874H48.5807V80.6853V83.6836L47.161 83.0903L45.7412 82.4973L45.9778 85.18C46.2991 88.8267 47.7826 110.221 47.7826 111.21C47.7826 111.978 48.0651 112.004 56.3438 112.004H64.9046L65.1169 110.707C65.2334 109.994 65.6946 106.178 66.1416 102.228C66.5885 98.2773 67.0486 94.4147 67.1639 93.6438C67.3634 92.3075 67.2796 92.1878 65.359 91.0661L63.3448 89.8897V83.7886V77.6874H78.3083H93.2719V53.8363V29.9848L95.8385 26.8292L98.405 23.6737L97.7717 22.4495C96.2506 19.5063 85.9813 0.848482 85.7486 0.603877C85.5443 0.389599 75.7091 17.8758 73.3723 22.6075C72.8444 23.6769 72.9091 23.8158 75.2677 26.69L77.7098 29.6651V42.703V55.7409H70.5273H63.3448L63.3475 42.6727L63.3504 29.6045L65.7389 26.6118C67.0525 24.9658 68.1287 23.457 68.1303 23.2587C68.1323 23.0038 56.1088 0.678895 55.606 0.00413751C55.5764 -0.0357654 52.7266 5.09335 49.273 11.4024Z" />
</svg>
