<svg width="112" height="113" viewBox="0 0 112 113" fill="white" style="fill:white" xmlns="http://www.w3.org/2000/svg">
<path fill-rule="evenodd" clip-rule="evenodd" d="M50.9501 0.258018C38.605 1.99891 24.1898 8.91657 15.4792 17.279C11.0072 21.5723 8.39532 25.021 5.81604 30.0381C-2.40656 46.0312 -1.87675 65.672 7.19128 81.0228C8.90404 83.9218 12.6704 88.3722 12.1732 86.9097C12.0189 86.4547 11.4398 84.7796 10.8868 83.1872C7.94149 74.7052 6.48733 66.3093 6.44514 57.5433C6.40047 48.2498 7.7141 41.8674 11.0424 35.2082C15.3022 26.6849 23.1232 19.6076 34.1075 14.3353C42.2225 10.4403 48.5863 8.90913 56.6493 8.91037C67.0165 8.91243 75.7507 11.7142 85.0069 18.0069C87.0403 19.3896 89.3556 21.102 90.1518 21.8126L91.5995 23.1043L89.5314 22.8375C81.2919 21.7745 76.5577 21.3522 72.8861 21.3522C70.5529 21.3522 68.644 21.2104 68.644 21.0366C68.644 20.8629 70.0292 19.6113 71.7221 18.2555C73.4154 16.8993 74.7572 15.7465 74.7047 15.694C74.586 15.5753 61.5812 18.1575 57.8625 19.0377C52.7374 20.2512 47.9139 21.777 45.7685 22.864C38.8872 26.3503 21.0787 40.5351 21.0787 42.53C21.0787 42.9825 21.465 43.8953 21.9373 44.5583L22.7955 45.764L21.0663 47.7245C20.1154 48.8024 18.7579 50.8014 18.0502 52.1663C16.9703 54.2488 16.7627 55.1137 16.7602 57.5433C16.7573 60.7078 17.2896 62.0802 19.4933 64.5904C20.2055 65.401 21.2864 66.3222 21.8956 66.6373L23.0036 67.2102L22.8233 65.0342C22.4076 60.0245 27.028 55.9165 34.971 54.2339C41.1479 52.9253 46.6527 53.7186 52.6095 56.7756C55.7521 58.3887 57.1551 59.4546 60.3974 62.6927C63.8846 66.1753 64.6043 67.1564 66.4792 70.9856C69.0209 76.1752 69.8849 79.3514 69.8849 83.5015C69.8849 86.2053 69.7042 86.9531 68.4398 89.4799C66.0127 94.3324 61.5465 97.8687 56.2787 99.1104C48.0627 101.047 29.1975 96.3256 20.5617 90.1723C19.4809 89.4021 18.597 88.9939 18.597 89.2644C18.597 90.1797 21.8273 95.1666 23.9586 97.5424C26.8076 100.718 32.139 104.681 36.1771 106.623C39.9637 108.445 47.4837 110.463 53.0509 111.151C66.5255 112.815 80.4754 108.346 90.1179 99.2746L93.4607 96.1299L93.4582 93.1743C93.4537 87.4093 91.959 80.272 89.9306 76.3266C88.3477 73.2477 84.3365 68.4258 78.5529 62.6497L72.484 56.5886L74.5959 57.2161C86.8156 60.8447 96.126 68.377 103.595 80.6753L104.33 81.8864L105.29 80.0549C109.704 71.64 112.493 59.3284 111.927 50.7642C111.172 39.3402 108.123 30.8703 102.233 23.8339C91.4133 10.9065 80.3943 3.65005 67.3361 0.852794C63.7133 0.0764445 54.5841 -0.25486 50.9501 0.258018ZM48.3547 34.4459C47.9122 35.7327 47.5457 37.3611 47.5407 38.065C47.518 41.2825 44.676 44.6886 40.0762 47.0106C37.4209 48.3507 34.7535 48.7027 33.7236 47.8482C33.4014 47.5806 32.9448 46.8084 32.7086 46.1317C32.2879 44.9248 32.3504 44.8462 36.0435 41.929C43.6383 35.9296 48.5909 32.145 48.8718 32.126C49.0302 32.1148 48.7977 33.1588 48.3547 34.4459Z" />
</svg>
