<svg width="112" height="113" viewBox="0 0 112 113" fill="white" style="fill:white" xmlns="http://www.w3.org/2000/svg">
<path fill-rule="evenodd" clip-rule="evenodd" d="M50.0853 0.163353C30.798 2.5463 14.36 13.98 5.85996 30.9252C3.60437 35.4219 2.2232 39.3611 1.04094 44.6705C-0.35075 50.9222 -0.346559 61.0499 1.05104 67.3894C5.96461 89.6816 22.2802 105.99 44.6305 110.951C50.9323 112.35 61.0609 112.35 67.3628 110.951C89.7122 105.99 105.987 89.7254 110.95 67.3894C112.35 61.0912 112.35 50.9686 110.95 44.6705C106.056 22.6433 90.0314 6.38088 68.2415 1.32719C63.8929 0.318642 53.9754 -0.316866 50.0853 0.163353ZM55.9966 56.2409V102.87L54.6243 102.869C52.1555 102.866 45.5801 101.635 41.9902 100.503C28.2819 96.1835 16.8401 85.003 12.3024 71.4936C9.14361 62.0892 8.82945 53.7293 11.2826 44.3595C14.6322 31.567 23.2413 20.8229 34.8549 14.9421C40.8777 11.892 48.4415 9.82807 54.2021 9.66308L55.9966 9.6116V56.2409ZM32.9138 27.6683C21.7587 31.6531 20.8384 46.9113 31.4391 52.1139C33.4481 53.1001 34.368 53.287 37.2071 53.287C40.0462 53.287 40.9663 53.1001 42.9753 52.1139C45.7317 50.761 48.1042 48.3262 49.3878 45.5318C50.0638 44.0603 50.2838 42.7522 50.2838 40.2055C50.2838 36.2794 49.4165 33.9517 46.9282 31.1991C43.6014 27.5189 37.5799 26.0015 32.9138 27.6683ZM80.8114 60.6705C83.5986 61.8685 86.8917 65.3617 87.8307 68.1169C89.5175 73.0642 88.2835 78.6205 84.7025 82.1993C76.4799 90.4171 62.1234 84.3899 62.1491 72.7308C62.1702 63.1269 71.8997 56.8389 80.8114 60.6705Z" />
</svg>
