<svg width="112" height="113" viewBox="0 0 112 113" fill="white" style="fill:white" xmlns="http://www.w3.org/2000/svg">
<path fill-rule="evenodd" clip-rule="evenodd" d="M85.3919 9.35089L75.7678 18.9801L73.2547 16.6091C68.8531 12.4568 61.9227 9.7189 55.8139 9.7189C49.6479 9.7189 42.7796 12.4523 38.2806 16.6965L35.674 19.1554L26.0909 9.57787L16.5078 0L13.9281 2.72117C9.54509 7.34341 5.92048 12.9551 3.36489 19.0746C1.79947 22.8228 0.00148847 28.9584 7.13953e-08 30.5573C-0.00074413 31.2951 5.81627 37.3057 28.0002 59.4881L56.0019 87.4879L84.0013 59.4866C106.154 37.3329 112.001 31.2907 112 30.5558C111.999 28.9584 110.2 22.8209 108.635 19.0746C106.213 13.2747 102.947 8.09989 98.6401 3.23765C94.924 -0.958157 96.3551 -1.61864 85.3919 9.35089ZM61.4963 23.6146C66.0456 25.8405 68.98 30.6049 68.98 35.7659C68.98 41.071 66.2729 45.3926 61.4699 47.7546C59.2201 48.8613 58.6731 48.9755 55.6249 48.9755C52.5744 48.9755 52.0304 48.8617 49.7781 47.7524C41.7742 43.8108 39.7623 33.7346 45.6143 26.8977C48.3057 23.7534 51.7584 22.3134 56.2162 22.4767C58.7882 22.5709 59.8151 22.7919 61.4963 23.6146Z" />
</svg>
