<svg width="112" height="113" viewBox="0 0 112 113" fill="white" style="fill:white" xmlns="http://www.w3.org/2000/svg">
<path fill-rule="evenodd" clip-rule="evenodd" d="M80.0717 3.96596C71.3806 9.76792 72.411 9.41136 67.694 8.25036C64.3259 7.42144 62.5343 7.2672 56.4758 7.28511C50.1272 7.3039 48.7495 7.44329 44.9414 8.45267L40.6168 9.59881L33.6382 5.01991C29.8003 2.50127 26.4894 0.440563 26.2806 0.440563C26.0721 0.440563 24.8665 1.0676 23.6011 1.83403C15.2451 6.89534 6.50546 15.7503 1.89378 23.8276L0.641039 26.022L3.55649 30.1635C5.16013 32.4414 7.31645 35.5149 8.34855 36.9936L10.2254 39.6827L9.00751 44.4219C7.91991 48.6539 7.7902 49.9106 7.7985 56.153C7.80593 61.8418 7.98417 63.8571 8.75628 66.9695L9.70541 70.7942L4.85286 77.6711L0 84.548L1.47389 87.2834C5.788 95.2881 14.7365 104.616 22.8495 109.565L25.7095 111.31L32.2066 106.744C36.8568 103.475 38.9625 102.238 39.6153 102.391C40.1165 102.508 42.459 103.112 44.8208 103.734C52.7625 105.822 62.0833 105.695 70.0412 103.39L73.6209 102.353L80.0826 106.891C83.6364 109.387 86.6575 111.428 86.7961 111.428C87.2907 111.428 93.0022 107.788 95.1468 106.106C100.619 101.814 106.731 94.987 110.586 88.8634L112 86.617L107.809 80.2046C105.504 76.6779 103.516 73.527 103.392 73.2028C103.267 72.8785 103.714 70.4831 104.385 67.8788C105.458 63.712 105.606 62.3321 105.619 56.3715C105.634 49.3718 105.104 45.8683 103.186 40.2944L102.351 37.8667L106.77 31.0719L111.189 24.2776L110.378 22.7688C107.788 17.9522 100.263 9.66305 94.7099 5.50887C91.964 3.45472 86.5443 -0.0156237 86.1319 0.0158374C86.0432 0.0228288 83.3161 1.80038 80.0717 3.96596ZM63.0469 41.6459C66.1139 43.1106 69.2683 46.2515 70.7986 49.3635C71.8451 51.4928 71.9862 52.282 71.9723 55.9345C71.9587 59.5285 71.7991 60.4103 70.7828 62.5055C69.2884 65.5857 66.1454 68.7344 63.0469 70.255C60.9298 71.2946 60.1079 71.4431 56.4758 71.4431C52.8438 71.4431 52.0219 71.2946 49.9048 70.255C44.5992 67.6512 41.2587 62.6943 40.8685 56.8473C40.508 51.4404 42.6841 46.7348 47.1201 43.3291C51.5055 39.9628 58.0695 39.2693 63.0469 41.6459Z" />
</svg>
