<svg width="112" height="113" viewBox="0 0 112 113" fill="white" style="fill:white" xmlns="http://www.w3.org/2000/svg">
<path fill-rule="evenodd" clip-rule="evenodd" d="M50.2344 0.299516C37.2823 1.68757 25.5615 7.30976 16.3058 16.5735C8.13864 24.7478 2.99754 34.4107 0.721566 45.8646C0.216392 48.4064 0 51.4843 0 56.1218C0 60.7593 0.216392 63.8373 0.721566 66.379C2.99754 77.8329 8.13864 87.4958 16.3058 95.6701C24.473 103.844 34.1276 108.99 45.5715 111.268C50.5542 112.26 61.0855 112.26 66.0681 111.268C77.5121 108.99 87.1666 103.844 95.3338 95.6701C105.179 85.8171 110.651 73.7988 111.715 59.6959L112 55.9148H83.8063H55.613V27.9632V0.0117188L53.6477 0.0779757C52.567 0.114416 51.0308 0.214212 50.2344 0.299516Z" />
</svg>
