<svg width="112" height="113" viewBox="0 0 112 113" fill="white" style="fill:white" xmlns="http://www.w3.org/2000/svg">
<path fill-rule="evenodd" clip-rule="evenodd" d="M48.6204 10.3533L41.3248 20.6915L33.8091 23.2582C29.676 24.6701 26.0912 26.0245 25.8431 26.2682C25.5954 26.5119 24.1736 29.8723 22.6835 33.7361C21.1933 37.5999 19.7385 41.1409 19.4502 41.6054C19.162 42.0694 14.668 45.4872 9.463 49.2001C4.25841 52.9125 0 56.0758 0 56.2292C0 56.3825 4.24679 59.6177 9.43693 63.4189C14.6271 67.22 19.1147 70.5712 19.409 70.8655C19.7032 71.1597 21.1756 74.7132 22.6806 78.7617C24.186 82.8105 25.5461 86.2713 25.7034 86.4527C25.8604 86.6338 28.9482 87.6916 32.5647 88.8031C36.1809 89.9147 39.3714 91.013 39.6548 91.2439C39.9382 91.4743 43.7069 96.2425 48.0295 101.839C52.3522 107.436 56.0217 112.016 56.1843 112.016C56.3464 112.016 60.3455 107.146 65.0712 101.195C71.5122 93.0828 73.9646 90.2744 74.8674 89.9781C75.5298 89.7605 78.1744 88.936 80.7443 88.1456L85.4167 86.7085L87.7502 79.9644L90.0834 73.2207L101.042 64.862C107.069 60.2648 112 56.3789 112 56.2272C112 56.0754 107.168 52.5003 101.262 48.282L90.5233 40.6126L88.1758 33.785C86.8847 30.03 85.6202 26.7033 85.3657 26.393C85.1112 26.0827 81.9226 24.8022 78.2796 23.5473C74.6366 22.2928 71.4604 21.1363 71.2215 20.9777C70.9827 20.8191 67.5613 16.0376 63.6184 10.3525C59.6755 4.66744 56.3296 0.015625 56.1831 0.015625C56.0366 0.015625 52.6332 4.66784 48.6204 10.3533Z" />
</svg>
