<svg version="1.1" xmlns="http://www.w3.org/2000/svg" xmlns:xlink="http://www.w3.org/1999/xlink" width="202.28062" height="229.89107" viewBox="0,0,202.28062,229.89107"><g transform="translate(-139.98996,-65.48313)"><g data-paper-data="{&quot;isPaintingLayer&quot;:true}" fill="#c42997" fill-rule="nonzero" stroke="#ffffff" stroke-width="3.5" stroke-linecap="butt" stroke-linejoin="miter" stroke-miterlimit="10" stroke-dasharray="" stroke-dashoffset="0" style="mix-blend-mode: normal"><path d="M243.82231,213.60908c0,0 33.14386,33.1556 41.49452,41.7094c2.05327,2.10322 1.92191,6.89419 1.08626,9.46424c-3.77301,12.45699 -15.63576,23.30226 -24.88745,28.84148c-3.47523,2.01804 -8.51404,1.8859 -10.5447,-0.06937c-23.5507,-22.67633 -88.876,-87.40901 -109.23098,-107.62262c-3.20432,-3.55096 -2.79345,-7.88461 -0.31448,-10.82512c8.03633,-9.58891 78.92332,-77.84931 109.30705,-107.87396c3.10139,-3.322 8.66078,-2.75007 12.01907,-0.28173c5.26706,3.2691 20.22422,17.24008 23.85147,28.24535c0.7197,2.1836 1.50087,7.41894 -0.63948,9.56616c-11.52351,11.56051 -43.06665,42.33678 -43.06665,42.33678c0,0 70.15203,-0.25757 86.92749,-0.33784c5.4771,0.32468 11.08861,12.79981 10.67455,33.08942c0.51177,15.09802 -2.91776,34.21028 -10.87982,34.19229c-20.36531,-0.04601 -85.79684,-0.43447 -85.79684,-0.43447z"/></g></g></svg>