<svg version="1.1" xmlns="http://www.w3.org/2000/svg" xmlns:xlink="http://www.w3.org/1999/xlink" width="250.41786" height="247.73824" viewBox="0,0,250.41786,247.73824"><defs><linearGradient x1="313.82527" y1="372.67731" x2="116.93221" y2="-99.26963" gradientUnits="userSpaceOnUse" id="color-1"><stop offset="0" stop-color="#ffffff"/><stop offset="1" stop-color="#ffffff" stop-opacity="0"/></linearGradient></defs><g transform="translate(-114.79107,-56.13088)"><g data-paper-data="{&quot;isPaintingLayer&quot;:true}" fill-rule="nonzero" stroke-linecap="butt" stroke-linejoin="miter" stroke-miterlimit="10" stroke-dasharray="" stroke-dashoffset="0" style="mix-blend-mode: normal"><path d="M116.06757,180c0,-67.70603 55.48644,-122.59262 123.93243,-122.59262c68.446,0 123.93243,54.88658 123.93243,122.59262c0,67.70603 -55.48644,122.59262 -123.93243,122.59262c-68.446,0 -123.93243,-54.88658 -123.93243,-122.59262z" fill="#ffffff" stroke="url(#color-1)" stroke-width="2.553"/><g stroke="none" stroke-width="1"><path d="M232.01815,291.19031c-7.57192,-0.64958 -13.08382,-1.49564 -19.0742,-2.9278c-32.35743,-7.73605 -59.69339,-29.41523 -74.41111,-59.01732c-6.43586,-12.94284 -10.15583,-26.51297 -11.26748,-41.09995c-0.35958,-4.7186 -0.15562,-15.65233 0.37613,-20.1623c1.55625,-13.19876 5.14965,-25.37524 10.88824,-36.89912c14.58117,-29.27804 41.58261,-50.89952 73.40442,-58.77605c9.47386,-2.34558 17.54336,-3.31405 27.59422,-3.31194c20.67007,0.00444 40.58788,5.47077 57.94785,15.90376c31.43683,18.89188 51.34578,50.97521 54.12195,87.22386c0.36507,4.76378 0.15863,16.04402 -0.37224,20.34183c-1.66027,13.44074 -5.15873,25.23333 -10.92291,36.81634c-15.67202,31.49435 -45.63327,53.95316 -80.42492,60.28514c-6.66135,1.21243 -10.6637,1.55783 -19.00988,1.64059c-4.27424,0.04238 -8.25555,0.03553 -8.84736,-0.01513zM184.07501,205.2532c8.13096,-2.18149 13.37673,-7.82521 15.5001,-16.67675c0.45098,-1.8799 0.51247,-2.81048 0.50124,-7.58301c-0.01253,-5.32838 -0.02829,-5.4982 -0.76517,-8.25028c-2.01125,-7.51206 -6.31415,-12.58828 -12.7524,-15.0442c-4.83616,-1.84486 -11.15175,-2.15165 -16.59168,-0.806c-3.66066,0.90554 -8.23762,3.80038 -10.53482,6.6629c-4.10063,5.11006 -6.12931,12.90665 -5.37419,20.65286c1.15833,11.88034 7.43107,19.4728 17.66627,21.38305c2.82302,0.52693 9.84209,0.33455 12.35068,-0.33848zM173.68078,195.54399c-4.29217,-1.56942 -6.23356,-6.02544 -6.24313,-14.33057c-0.00725,-6.21348 1.02502,-10.08079 3.33139,-12.48112c2.96817,-3.08911 8.9925,-3.26723 12.32629,-0.36431c1.33787,1.16489 2.54063,3.53192 3.16999,6.23903c0.66755,2.87079 0.60379,11.08346 -0.10594,13.64725c-1.06205,3.8361 -2.34063,5.67442 -4.7692,6.8571c-1.42921,0.69597 -1.83721,0.78205 -3.99661,0.84302c-1.94322,0.05486 -2.65612,-0.02392 -3.71279,-0.4103zM228.22119,205.60043c8.21394,-1.42298 14.04076,-6.20685 15.42239,-12.66208c0.50763,-2.37172 0.32998,-6.1754 -0.3867,-8.27983c-0.72616,-2.13227 -1.46185,-3.27526 -3.10758,-4.82811c-1.86742,-1.76193 -4.60851,-3.0255 -10.01593,-4.61688c-4.46504,-1.31407 -6.75125,-2.30215 -7.28879,-3.15038c-0.50963,-0.80404 -0.67946,-2.1894 -0.39603,-3.23057c0.54567,-2.00452 2.76109,-2.95382 6.8206,-2.92237c3.33211,0.02584 6.56091,0.69669 9.98437,2.07456c0.3378,0.13596 0.53361,-0.07853 1.00302,-1.09868c0.89134,-1.9371 1.81276,-5.34376 1.87186,-6.92071l0.05302,-1.41466l-2.15206,-0.66671c-6.41888,-1.98853 -13.82173,-2.36699 -19.36855,-0.99031c-0.78908,0.19586 -2.43901,0.83546 -3.66664,1.42132c-1.75058,0.83546 -2.60687,1.43187 -3.96984,2.76507c-2.94067,2.87671 -4.11403,6.13851 -3.88686,10.80648c0.348,7.15252 3.39165,10.06803 13.55584,12.98542c4.54515,1.30447 7.00999,2.38212 7.7412,3.38478c0.58315,0.79948 0.79887,2.99237 0.39032,3.96808c-0.43766,1.04519 -1.90184,2.23925 -3.49733,2.85211c-1.14053,0.43808 -2.01627,0.55997 -4.63507,0.64515c-3.68576,0.11986 -6.00688,-0.2153 -9.43965,-1.36314c-1.16976,-0.39113 -2.24567,-0.71113 -2.39091,-0.71113c-0.56415,0 -2.3832,5.77329 -2.66784,8.46716l-0.14879,1.40815l1.52543,0.49124c2.12043,0.68282 4.31871,1.22346 6.42725,1.5807c2.5502,0.43208 9.74167,0.4351 12.22347,0.00515zM283.91414,205.60674c2.76827,-0.3646 7.38062,-1.34 9.72827,-2.05727l1.50558,-0.46002l-0.06096,-22.99004l-0.06096,-22.99004l-1.19558,-0.19859c-1.54004,-0.25581 -8.69122,-0.25798 -10.40163,-0.00317l-1.31515,0.19594l-0.06122,18.72039c-0.0542,16.57907 -0.10322,18.73648 -0.42843,18.85994c-0.88512,0.33597 -4.91937,0.65846 -6.49038,0.51884c-4.13171,-0.36721 -6.65107,-1.91477 -7.72996,-4.74793c-1.04327,-2.73953 -1.03906,-2.67424 -1.17775,-18.3313l-0.13303,-15.01984l-1.31515,-0.18908c-1.73332,-0.24921 -8.88133,-0.2498 -10.40163,-0.00094l-1.19558,0.19576l-0.06568,14.78046c-0.05509,12.39904 -0.00552,15.19061 0.30758,17.32603c1.44854,9.87927 6.60276,15.06075 16.27723,16.36381c3.19032,0.42963 11.04485,0.44468 14.2146,0.02722zM320.72874,205.05873c0.77407,-0.18003 0.85046,-0.28031 1.0416,-1.36758c0.26761,-1.52216 0.26728,-9.57792 -0.00048,-11.10143c-0.2039,-1.16029 -0.22151,-1.17937 -1.28072,-1.38861c-1.39243,-0.27503 -8.97888,-0.32987 -11.03242,-0.07972c-1.93645,0.2359 -1.8336,-0.04166 -2.03145,5.48307c-0.12337,3.44535 0.13351,7.98298 0.47082,8.31649c0.49665,0.49128 10.8354,0.60216 12.83251,0.13765zM319.16159,183.9399c0.91265,-0.13047 1.69654,-0.27402 1.74197,-0.31897c0.06361,-0.06292 1.00046,-40.81375 1.01848,-44.30025c0.00263,-0.51164 -0.13016,-0.79475 -0.41456,-0.88373c-1.13804,-0.35608 -7.11328,-0.56737 -10.10273,-0.35721c-3.86941,0.27199 -4.01886,0.30988 -3.92201,0.99368c0.04106,0.28984 0.25671,10.42589 0.47924,22.52455c0.22253,12.09866 0.41965,22.01932 0.43806,22.04581c0.01841,0.0265 0.7289,0.14642 1.57888,0.26647c2.12695,0.30041 7.17592,0.31695 9.18261,0.03007z" fill="#f06ea8"/><path d="M254.02417,288.90778c-0.39308,-0.683 -3.23407,-5.5526 -6.31343,-10.82139l-5.5987,-9.57957l-17.94844,-0.23653l4.40551,-7.5331c2.42298,-4.14311 4.40551,-7.61305 4.40551,-7.71097c0,-0.19452 -6.63313,-11.62322 -6.89354,-11.87726c-0.08822,-0.08609 -5.80961,9.53015 -12.71413,21.36932c-6.90452,11.83917 -12.61921,21.63093 -12.69931,21.75913c-0.21687,0.34763 -5.60684,-1.8639 -11.09292,-4.5516c-7.45665,-3.653 -5.89617,-1.91494 -13.62972,-15.18068c-3.68242,-6.31661 -6.76369,-11.44346 -6.84714,-11.39284c-0.0835,0.05069 -1.31972,2.10598 -2.74723,4.56721c-2.07873,3.58442 -2.66879,4.43617 -2.96458,4.27959c-0.67637,-0.35806 -7.49443,-7.41861 -9.82344,-10.1728c-4.59202,-5.43033 -8.87798,-11.53901 -12.11132,-17.26241c-1.67906,-2.97204 -3.40671,-6.26765 -3.40671,-6.49874c0,-0.06829 5.33783,-0.12417 11.86193,-0.12417c10.0353,0 11.84232,-0.05069 11.73423,-0.32918c-0.07024,-0.18104 -3.46314,-6.04365 -7.5401,-13.02775c-7.14579,-12.24199 -7.42509,-12.67887 -7.76488,-12.14785c-0.62468,0.97572 -9.29642,15.86923 -10.2309,17.57155l-0.90374,1.64616l-0.51199,-1.17308c-0.28162,-0.64519 -1.08794,-2.876 -1.79183,-4.9575c-6.62022,-19.5764 -7.6061,-40.33121 -2.87898,-60.60682c6.48775,-27.82809 23.96201,-52.46535 48.24204,-68.02212c14.95635,-9.58218 31.32923,-15.29777 49.70784,-17.35276c5.1848,-0.57973 17.738,-0.57973 22.92281,0c14.10771,1.57741 26.28624,5.07836 38.39517,11.03662c11.30645,5.56395 20.32455,11.96809 29.31346,20.81749c9.28829,9.14317 15.98647,18.3436 21.6122,29.68488c8.17161,16.47451 11.99368,33.61132 11.52596,51.68243c-0.12513,4.83473 -0.83928,12.94875 -1.25324,14.2388c-0.07573,0.23603 -0.75727,1.41305 -1.51452,2.61558c-0.75727,1.20255 -3.18673,5.29976 -5.39856,9.10509c-2.21199,3.80535 -4.10255,6.91859 -4.2013,6.91859c-0.09876,0 -2.14181,-3.37958 -4.54038,-7.50992c-2.39857,-4.13034 -4.49374,-7.65207 -4.65634,-7.82569c-0.23969,-0.256 -0.81563,0.5712 -3.04661,4.37586c-4.78619,8.16205 -12.13619,20.88444 -12.13619,21.00696c0,0.06491 4.18911,0.14586 9.3091,0.17989l9.3091,0.06188l-2.01251,3.42972c-1.10688,1.88635 -2.01412,3.50707 -2.01607,3.60169c-0.00191,0.09463 1.93656,0.20108 4.30795,0.23653l4.3113,0.06447l-1.52419,2.62575c-2.94618,5.07528 -7.08746,10.89754 -11.42386,16.06034c-2.57792,3.06948 -10.19288,10.59691 -13.24953,13.0973c-2.32653,1.90314 -2.39955,1.94228 -2.7238,1.45918c-0.18328,-0.27305 -4.13052,-7.01273 -8.77132,-14.97726c-4.64104,-7.9643 -8.50685,-14.48078 -8.59055,-14.48078c-0.08379,0 -2.38845,3.83183 -5.12142,8.51518c-2.73312,4.68335 -7.18525,12.29381 -9.8935,16.91211l-4.92439,8.39691l32.10158,0.23653l-1.77698,1.20513c-10.37198,7.03401 -23.94288,12.94355 -36.56831,15.9241c-3.58437,0.84617 -9.32273,1.91161 -10.29594,1.91161c-0.59355,0 -0.80755,-0.18794 -1.41409,-1.24179zM180.24911,205.93678c10.04176,-1.11573 16.67059,-6.82066 19.14713,-16.47854c1.69477,-6.60873 1.17096,-14.78282 -1.32781,-20.72028c-2.51551,-5.97695 -7.52982,-10.25109 -14.11322,-12.02935c-1.82778,-0.49371 -2.52581,-0.54774 -6.93442,-0.53648c-5.70512,0.01455 -7.22232,0.30752 -10.92243,2.10919c-7.50424,3.65396 -11.75958,11.07706 -12.20387,21.28842c-0.35605,8.18569 1.88381,15.26134 6.33734,20.01968c4.59752,4.91208 11.94992,7.24357 20.01703,6.34736zM174.90053,195.76941c-3.46244,-0.72397 -5.62239,-3.18869 -6.78688,-7.74504c-0.46513,-1.81993 -0.52692,-2.66383 -0.51504,-7.0352c0.01181,-4.34227 0.07893,-5.20255 0.53344,-6.83816c1.06872,-3.84602 2.39979,-5.77565 4.77757,-6.92638c1.11876,-0.54145 1.73726,-0.66677 3.66926,-0.74354c4.28092,-0.17008 6.54777,1.05281 8.26989,4.46124c1.43839,2.84668 1.83781,5.04478 1.84723,10.16524c0.00849,4.60222 -0.25856,6.43818 -1.34858,9.27256c-1.35114,3.51322 -3.80054,5.30354 -7.53341,5.50626c-1.02802,0.05583 -2.33915,0.00321 -2.91365,-0.1169zM228.6088,205.58623c7.87152,-1.47708 13.38869,-5.92893 14.98911,-12.09512c0.22642,-0.87241 0.37581,-2.4325 0.37367,-3.90279c-0.00627,-4.33494 -1.02845,-7.16718 -3.45645,-9.57721c-1.95512,-1.94057 -4.28451,-3.06688 -9.7254,-4.70273c-7.16325,-2.15361 -8.09678,-2.71255 -8.28519,-4.96034c-0.1282,-1.52926 0.23191,-2.55289 1.1173,-3.17593c2.44641,-1.72161 8.52431,-1.58328 14.11823,0.32134c0.97651,0.3325 1.85641,0.60453 1.95534,0.60453c0.50743,0 2.49472,-6.38 2.64895,-8.50383c0.07525,-1.03672 0.06128,-1.05881 -0.89823,-1.4192l-0.97467,-0.36609l15.19307,-26.01862l9.33923,-0.06188c5.13649,-0.03404 9.33923,0.01944 9.33923,0.11883c0,0.09938 -1.28617,2.38898 -2.85817,5.08829l-2.85817,4.90759h8.62259c7.96956,0 8.61087,0.03004 8.46883,0.39653c-0.0846,0.21808 -4.18504,7.3039 -9.11206,15.74647c-4.92703,8.44257 -8.95831,15.44866 -8.95831,15.56954c0,0.12959 2.68553,0.21945 6.5578,0.21945h6.5578l0.0778,-7.44463c0.07686,-7.35569 0.08422,-7.45079 0.6158,-7.97637l0.53801,-0.53189v36.7241l-1.70979,0.28529c-2.27956,0.38035 -7.12979,0.1838 -8.61877,-0.34926c-1.51873,-0.54367 -3.14464,-2.0134 -3.88638,-3.51299c-1.35907,-2.7478 -1.3982,-3.25469 -1.48227,-19.20577l-0.07728,-14.66504l-0.90034,-0.20954c-1.17673,-0.27385 -8.80743,-0.31963 -10.90162,-0.06535l-1.63224,0.19815l0.09815,15.29469c0.08378,13.05449 0.15758,15.62109 0.50389,17.52212c0.86366,4.74107 2.55808,8.30585 5.17906,10.89588c3.91341,3.86731 8.81054,5.27208 18.40634,5.27942c6.01884,0.00464 10.54534,-0.64301 16.73825,-2.3949l1.55427,-0.43966l0.06099,-22.67735c0.05821,-21.64677 0.07995,-22.65086 0.47824,-22.0943c0.36841,0.51488 0.43126,1.44129 0.53679,7.91557l0.11956,7.33252l5.12429,0.06396c2.81824,0.03518 5.21804,-0.0288 5.33257,-0.14218c0.27466,-0.27167 0.51484,0.157 -10.19933,-18.20451l-9.28805,-15.91748l-0.46221,0.75181c-0.25591,0.41625 -0.54982,0.65855 -0.65851,0.54285c-0.10796,-0.11494 -1.3404,-2.17811 -2.73886,-4.58495l-2.54255,-4.37586l8.58601,-0.23653l-3.09275,-5.27729c-1.70097,-2.9025 -3.09275,-5.32388 -3.09275,-5.38112c0,-0.05716 6.21826,-0.10391 13.81814,-0.10391h13.81814l5.06308,8.6817c2.78477,4.77489 5.04013,8.70394 5.01239,8.73114c-0.02794,0.0272 -0.85781,-0.04308 -1.84418,-0.15619c-2.50309,-0.28703 -6.76345,-0.27374 -9.51427,0.02968c-1.27701,0.14086 -2.34264,0.27667 -2.36806,0.30184c-0.02543,0.02515 0.16905,10.20545 0.43219,22.62295c0.3408,16.08257 0.55623,22.62484 0.74893,22.74263c0.87347,0.534 11.04031,0.54379 12.04557,0.01161c0.45906,-0.24304 0.48285,-0.82756 0.90858,-22.32374c0.24044,-12.14076 0.50838,-22.2646 0.59543,-22.4976c0.14517,-0.38857 0.20233,-0.37722 0.69079,0.13709c0.38436,0.40471 0.54371,0.88454 0.57276,1.72456c0.03678,1.06407 0.64512,2.20298 7.09654,13.28606l7.05636,12.12231h11.3899l-0.14567,-1.36007c-0.32969,-3.07824 -2.72714,-13.59709 -3.39165,-14.88005c-0.12402,-0.2395 -0.29636,-0.80798 -0.38297,-1.2633c-0.15879,-0.83472 -0.93528,-3.01106 -1.954,-5.47668c-0.59594,-1.44233 -0.56418,-1.61937 0.29059,-1.61937c0.30685,0 0.55793,-0.06644 0.55793,-0.14763c0,-0.0812 -0.38235,-1.01256 -0.84968,-2.06966c-0.46733,-1.05711 -1.13138,-2.56071 -1.47569,-3.34126c-0.98024,-2.22232 -3.24291,-6.67708 -3.68791,-7.26061l-0.4027,-0.52811l-0.88586,1.08219l-1.0201,-1.85042c-0.56107,-1.01773 -1.1509,-2.05897 -1.31075,-2.31386c-0.68899,-1.09865 -1.85972,-2.86796 -2.05086,-3.09953c-0.11418,-0.13828 -0.33352,-0.4842 -0.48746,-0.76873c-0.24397,-0.45092 -0.21925,-0.5173 0.19266,-0.5173c0.2599,0 0.53355,-0.09765 0.6081,-0.21699c0.1186,-0.18981 -0.86034,-1.75442 -2.37896,-3.80227c-0.26303,-0.3547 -0.69096,-0.95257 -0.95095,-1.32861c-0.25998,-0.37604 -0.53319,-0.73694 -0.6071,-0.80199c-0.07391,-0.06504 -0.66821,-0.80462 -1.32068,-1.64348c-0.65245,-0.83886 -1.34769,-1.7027 -1.54496,-1.91965c-0.19727,-0.21695 -0.84289,-0.96077 -1.43471,-1.65297c-0.59182,-0.69219 -1.23744,-1.42811 -1.43471,-1.63538c-0.19727,-0.20726 -1.1657,-1.26524 -2.15206,-2.35104c-1.66488,-1.83275 -5.11735,-5.06961 -8.09654,-7.59129c-0.69169,-0.58542 -1.5656,-1.3305 -1.94202,-1.65573c-0.37642,-0.32524 -0.83096,-0.69777 -1.01006,-0.82786c-0.17909,-0.13009 -0.86001,-0.66377 -1.51311,-1.18597c-0.6531,-0.52219 -1.67167,-1.26171 -2.26349,-1.64338c-0.59182,-0.38167 -1.18364,-0.8151 -1.31515,-0.96316c-0.13151,-0.14808 -0.66952,-0.55256 -1.19558,-0.89885c-0.52606,-0.34629 -1.37983,-0.90992 -1.89729,-1.25249l-0.9408,-0.62288l-0.80815,0.98722l-1.07928,-0.67705c-0.59361,-0.37237 -1.4298,-1.19255 -1.85821,-1.82262c-0.91654,-1.34795 -1.41017,-1.78594 -2.86152,-2.53894c-0.59182,-0.30705 -1.64606,-0.85535 -2.34277,-1.2185c-1.54533,-0.80542 -1.44575,-0.87901 -3.39404,2.5082l-1.42,2.46893l5.56284,0.23653l4.04038,6.95406l-6.90238,11.82545c-3.79623,6.50395 -6.97411,11.75142 -7.06187,11.66108c-0.08769,-0.09047 -2.31265,-3.85974 -4.94424,-8.3761l-4.78499,-8.21172l5.97723,-10.23785c3.2874,-5.6309 5.9966,-10.32963 6.02027,-10.44151c0.04221,-0.19885 -0.95641,-0.6446 -5.576,-2.4888c-2.76827,-1.1052 -3.70705,-1.3577 -3.43613,-0.92418c0.10494,0.16783 1.24556,2.11462 2.53465,4.32618l2.34393,4.02106l-24.54067,0.23653l4.84334,8.27864c2.66377,4.55326 4.84788,8.38508 4.85338,8.51518c0.00552,0.13009 -2.38458,4.33446 -5.31129,9.34304l-5.32133,9.10651l-51.96272,0.23653l9.78924,16.76805c5.38422,9.22241 9.73114,16.82554 9.66013,16.89578c-0.07102,0.07026 -0.90774,0.32282 -1.85938,0.56122c-5.20344,1.30362 -9.12379,4.49695 -10.86911,8.85296c-0.6094,1.521 -0.6522,1.86503 -0.65832,5.29288c-0.00577,3.21638 0.06019,3.85501 0.53754,5.20373c0.72496,2.04854 1.88069,3.54965 3.8266,4.97003c2.04174,1.49038 4.4232,2.47673 9.37845,3.88387c2.17,0.61626 4.64487,1.45737 5.49971,1.86918c1.29678,0.62469 1.64338,0.92357 2.09228,1.80411c1.04305,2.04611 0.42981,4.21691 -1.54123,5.45587c-1.95249,1.2272 -3.37348,1.53151 -7.12691,1.52611c-3.62838,-0.00523 -5.43443,-0.31152 -9.13765,-1.54971c-1.13502,-0.37952 -2.0842,-0.66398 -2.10929,-0.63213c-0.02509,0.03183 -0.3404,0.79513 -0.70071,1.69621c-0.76474,1.91252 -1.67803,5.39933 -1.87777,7.16931l-0.13977,1.23848l2.31972,0.70821c3.04469,0.92953 5.39688,1.4071 8.17807,1.66051c2.94427,0.26826 7.80003,0.10011 10.21942,-0.35385zM321.01592,205.10406c0.57095,-0.13901 0.66532,-0.30728 0.83692,-1.49183c0.2484,-1.71491 0.24717,-9.7442 -0.00168,-11.20219c-0.17834,-1.04474 -0.24627,-1.12705 -1.07366,-1.30093c-1.39803,-0.2938 -11.7799,-0.20407 -12.51758,0.10819c-0.59444,0.25163 -0.64699,0.40149 -0.82461,2.35279c-0.33343,3.6627 -0.10828,10.40343 0.37322,11.17405c0.10641,0.1703 0.82476,0.39582 1.59635,0.50117c1.56412,0.21353 10.6056,0.10346 11.61109,-0.14135zM147.12698,174.07095c-0.0029,-0.09757 -1.5588,-2.83839 -3.45764,-6.09071l-3.45238,-5.91332l10.90975,-0.23653l-2.11681,-3.62155c-1.16424,-1.99192 -2.11681,-3.72161 -2.11681,-3.84366c0,-0.13575 5.3878,-0.22199 13.86884,-0.22199c7.62786,0 13.86884,-0.03778 13.86884,-0.08394c0,-0.04617 -2.51002,-4.38365 -5.57766,-9.63872c-3.06764,-5.25505 -8.06067,-13.81518 -11.09555,-19.02221c-3.03488,-5.20703 -5.75605,-9.86697 -6.0473,-10.35518l-0.52951,-0.88771l-1.22766,1.68703c-0.67519,0.92788 -1.33526,1.85986 -1.46678,2.07108c-0.13151,0.21122 -0.36195,0.49295 -0.51207,0.62606c-0.15012,0.1331 -0.58053,0.71133 -0.95648,1.28499c-0.37595,0.57366 -0.84492,1.28066 -1.0422,1.57112c-0.36731,0.54083 -1.51147,2.37479 -2.70108,4.3295c-0.3677,0.60417 -0.83437,1.41783 -1.03708,1.8081c-0.2027,0.39028 -0.67553,1.24179 -1.05071,1.89226c-0.83038,1.43963 -3.57816,6.9297 -3.58557,7.1641c-0.00295,0.09263 -0.32334,0.80707 -0.712,1.58763c-0.38866,0.78056 -0.70906,1.55648 -0.712,1.72428c-0.00295,0.1678 -0.23215,0.74485 -0.50934,1.28232c-0.50559,0.98032 -0.79263,1.74379 -2.18296,5.80617c-0.61011,1.7827 -0.82493,2.16624 -1.15519,2.06256c-0.33463,-0.10505 -0.49662,0.21579 -0.92459,1.83112c-0.28539,1.07717 -0.61955,2.22459 -0.74257,2.54983c-0.12302,0.32524 -0.38759,1.38963 -0.58792,2.36534c-0.20032,0.9757 -0.52726,2.46585 -0.72654,3.31145c-0.64501,2.73716 -1.32175,7.1265 -1.69212,10.97559c-0.29811,3.0981 -0.30655,3.79612 -0.0478,3.95839c0.39051,0.24495 19.32598,0.27132 19.31882,0.0269zM136.79181,156.21105l-1.13452,-1.94984l1.1943,-0.07149c0.65686,-0.03932 1.73171,-0.03932 2.38857,0l1.1943,0.07149l-1.13452,1.94984c-0.62398,1.07242 -1.18831,1.94984 -1.25409,1.94984c-0.06576,0 -0.63007,-0.87744 -1.25409,-1.94984zM233.41221,170.19843c0.41692,-0.73136 0.75805,-1.44101 0.75805,-1.577c0,-0.136 -0.54333,-0.36253 -1.20735,-0.50342c-1.2799,-0.27152 -3.33594,-0.34689 -3.33594,-0.12232c0,0.1805 0.36418,0.86102 1.48995,2.78422c1.06615,1.82139 0.90154,1.8631 2.29522,-0.58156zM212.37867,94.56705c6.85647,-11.75686 12.46616,-21.42799 12.46616,-21.4909c0,-0.06314 -0.2421,-0.05654 -0.53801,0.01464c-0.2959,0.07118 -1.72165,0.29765 -3.16832,0.5033c-7.82514,1.11227 -16.84227,3.7242 -25.31303,7.33205c-1.08419,0.4618 -1.29014,0.35319 -0.9071,-0.47839c0.26324,-0.57151 0.2472,-0.59889 -0.26006,-0.44383c-1.77785,0.54344 -12.6161,6.1009 -12.6161,6.46918c0,0.22872 4.2453,7.5875 4.65228,8.06412c0.1666,0.19514 0.59162,0.85122 0.94454,1.45797l0.64163,1.10317l-2.28597,3.91344c-1.25729,2.15235 -2.34876,4.07524 -2.42561,4.27321c-0.12166,0.31359 0.49572,0.36795 4.81345,0.42374l4.95309,0.064l2.9017,4.9672c3.5081,6.00509 3.27448,5.64367 3.49471,5.4017c0.09909,-0.1089 5.79001,-9.8173 12.64622,-21.57417zM254.44908,105.35839c-0.18671,-0.29271 -3.61188,-6.14702 -7.61136,-13.00931c-3.99948,-6.86229 -7.33303,-12.47711 -7.40764,-12.47711c-0.07461,0 -3.40815,5.61482 -7.40764,12.47711c-3.99948,6.86229 -7.42462,12.71648 -7.61136,13.00931l-0.33947,0.5322h30.71709zM255.17824,77.94895c1.19154,-2.03333 2.19765,-3.83349 2.23583,-4.00025c0.09305,-0.40701 -3.63029,-1.08211 -7.20845,-1.30706l-2.73455,-0.17189l0.55014,0.92186c0.30258,0.50703 1.52519,2.59713 2.71686,4.64504c1.19174,2.04768 2.1908,3.69747 2.22017,3.66626c0.02935,-0.03124 1.02828,-1.72043 2.21982,-3.75378zM341.44961,225.86951c-0.06417,-0.10272 0.1426,-0.71651 0.45954,-1.36392c0.31694,-0.64741 0.5772,-1.35713 0.57839,-1.5771c0.00239,-0.43238 0.42332,-0.79976 0.65445,-0.57113c0.15732,0.15561 -1.11032,3.41435 -1.39612,3.58914c-0.09875,0.06037 -0.23207,0.02572 -0.29625,-0.07702zM349.92131,199.45825c-0.01029,-0.24935 0.04615,-0.38904 0.1256,-0.31045c0.07946,0.0786 0.08795,0.28261 0.01889,0.45336c-0.07632,0.18869 -0.13299,0.13265 -0.14448,-0.14291z" fill="#ea68a2"/><path d="M248.49577,279.27852l-6.31438,-10.87199l-8.90714,-0.00845c-4.89905,-0.00464 -8.90714,-0.07229 -8.90714,-0.15035c0,-0.07805 1.96375,-3.50659 4.36389,-7.6192c2.40015,-4.1126 4.32923,-7.58773 4.28667,-7.7228c-0.14918,-0.4746 -6.85885,-11.93545 -6.99276,-11.94467c-0.07461,-0.00513 -5.76585,9.65007 -12.64718,21.45613c-6.88134,11.80606 -12.63093,21.58789 -12.77679,21.73761c-0.36982,0.37959 -5.47174,-1.67491 -11.26461,-4.53622c-7.16876,-3.54066 -5.67116,-1.85098 -13.38702,-15.10687c-3.6805,-6.32323 -6.74719,-11.49502 -6.81486,-11.49313c-0.06775,0.00189 -1.29155,2.02422 -2.71948,4.49412c-1.42802,2.46987 -2.71828,4.49081 -2.86726,4.49081c-0.43077,0 -7.20701,-6.92781 -9.93751,-10.16003c-4.24817,-5.02845 -7.75771,-9.90151 -10.82487,-15.03073c-1.4436,-2.41406 -4.7398,-8.43216 -4.7398,-8.65403c-0.00003,-0.05368 5.39235,-0.06904 11.98316,-0.03414c10.17805,0.05391 11.96402,0.01372 11.85499,-0.26688c-0.26717,-0.68871 -15.01254,-25.81757 -15.18398,-25.8767c-0.16352,-0.05591 -10.80095,17.95805 -11.17542,18.92501c-0.08816,0.22766 -0.24247,0.41393 -0.34289,0.41393c-0.19641,0 -2.25627,-5.53274 -3.21422,-8.63345c-2.11585,-6.84857 -3.5014,-13.69123 -4.33497,-21.40623c-0.428,-3.96241 -0.71417,-12.99535 -0.48706,-15.37463l0.16933,-1.774l20.08256,0.12841l-0.59435,-1.01032c-0.3269,-0.55569 -1.89472,-3.24547 -3.48395,-5.97742l-2.88974,-4.9672l5.38398,-0.06358c2.96124,-0.03497 5.38398,-0.15149 5.38398,-0.25896c0,-0.10745 -0.95702,-1.83511 -2.12669,-3.83917l-2.12669,-3.64379l13.96305,-0.06102c7.67975,-0.03357 13.96305,-0.10408 13.96305,-0.15669c0,-0.09019 -5.50283,-9.56776 -17.65815,-30.41339c-2.92059,-5.00858 -5.45978,-9.30094 -5.64246,-9.5389c-0.31463,-0.40919 -0.37183,-0.39151 -1.0696,0.33074c-0.40545,0.41968 -0.7372,0.85372 -0.7372,0.96452c0,0.1108 -0.1883,0.40238 -0.41845,0.64798c-0.23015,0.2456 -0.79507,0.99622 -1.25537,1.66813c-0.46031,0.67189 -1.10592,1.57891 -1.43471,2.01561c-0.32879,0.43671 -1.13581,1.66159 -1.79339,2.72202c-0.65757,1.06043 -1.42782,2.28446 -1.71168,2.72013c-0.28385,0.43569 -1.0261,1.73316 -1.64945,2.88334c-0.62333,1.15012 -1.42376,2.62339 -1.77865,3.27385c-0.35491,0.65046 -1.26504,2.56639 -2.02244,4.25759c-0.75744,1.69121 -1.57749,3.50068 -1.82236,4.02106c-0.24489,0.52038 -0.67733,1.58477 -0.96099,2.36534c-0.90169,2.48122 -1.36422,3.74952 -1.85471,5.08545c-0.26269,0.71552 -0.61141,1.30093 -0.7749,1.30093c-0.29151,0 -0.59079,0.76478 -1.18279,3.02265c-0.16301,0.62167 -0.34558,1.08166 -0.40569,1.02217c-0.18471,-0.1827 1.591,-6.22366 2.85745,-9.72151c3.81034,-10.52263 9.00781,-20.1306 15.80259,-29.21181c6.00019,-8.01917 14.79303,-16.69757 23.10979,-22.80862c34.15321,-25.09614 79.82953,-28.90905 117.77754,-9.8315c11.01019,5.5351 19.7081,11.79588 28.57938,20.57174c11.57473,11.44961 19.71862,23.8709 25.73387,39.2479c3.36271,8.59702 5.65011,18.34809 6.82944,29.11483c0.45524,4.15589 0.37871,17.03438 -0.12647,21.28795c-0.66999,5.64131 -0.67083,5.64439 -2.13753,7.94632c-0.73818,1.15851 -3.22402,5.33499 -5.52435,9.28084l-4.18217,7.17452l-1.39186,-2.35436c-0.76552,-1.2949 -2.84455,-4.86525 -4.62,-7.93427c-1.77545,-3.06901 -3.32972,-5.55049 -3.45405,-5.51429c-0.21461,0.06216 -10.23234,17.01523 -10.64291,18.01127c-0.10728,0.26019 -1.17583,2.1502 -2.37459,4.20012c-1.19875,2.04983 -2.17953,3.77956 -2.17953,3.84366c0,0.06418 4.19652,0.11671 9.3256,0.11671c5.12908,0 9.3256,0.04109 9.3256,0.09131c0,0.05023 -0.90104,1.6202 -2.00232,3.48886l-2.00232,3.39756l8.79142,0.12873l-0.484,0.93847c-2.25402,4.37042 -7.58386,11.99837 -12.39348,17.73712c-4.197,5.00764 -15.33559,15.53666 -15.82793,14.96189c-0.08417,-0.09822 -2.28504,-3.85076 -4.89092,-8.33896c-10.13884,-17.46322 -12.1692,-20.94736 -12.43534,-21.33928c-0.23405,-0.34467 -0.91601,0.69363 -4.50523,6.85946c-2.32623,3.99599 -4.84716,8.30656 -5.6023,9.57887c-5.3804,9.06654 -10.10058,17.22716 -10.10058,17.46252c0,0.21397 3.75774,0.23867 16.0209,0.10534c8.81149,-0.09579 16.0209,-0.12356 16.0209,-0.06168c0,0.06188 -1.25209,0.93387 -2.78238,1.93777c-12.23208,8.02414 -27.544,14.07039 -41.92694,16.5547c-1.90364,0.32882 -3.68911,0.59785 -3.96769,0.59785c-0.4169,0 -1.62271,-1.92201 -6.82083,-10.87199zM183.22852,205.48736c4.13363,-0.89243 7.46813,-2.65153 10.30001,-5.43388c3.16639,-3.11089 5.11234,-6.89446 6.24576,-12.14335c0.69826,-3.23364 0.7593,-9.85963 0.12014,-13.03863c-1.80747,-8.9899 -6.17092,-14.58698 -13.57329,-17.41071c-2.9971,-1.14331 -5.66399,-1.49284 -10.37509,-1.35969c-3.49926,0.09889 -4.36199,0.20272 -6.19819,0.74588c-7.33876,2.1709 -12.00612,6.80481 -14.43938,14.33649c-2.00509,6.20638 -1.9584,13.94858 0.1217,20.16773c1.87248,5.5985 5.52076,9.95141 10.35334,12.3534c2.5258,1.25546 4.30365,1.73234 8.72781,2.34108c1.49659,0.20593 6.73046,-0.12914 8.71728,-0.55808zM174.95481,195.76539c-1.50744,-0.29512 -3.24148,-1.26167 -4.25559,-2.37196c-1.9561,-2.14178 -2.97415,-5.59187 -3.17812,-10.77147c-0.28835,-7.31856 1.2425,-12.58284 4.29528,-14.77029c1.49984,-1.07473 3.21087,-1.47732 5.80244,-1.36519c3.57099,0.1545 5.77517,1.47486 7.23524,4.33399c2.34178,4.58614 2.59754,14.01457 0.52981,19.52366c-1.57861,4.20579 -5.69866,6.34736 -10.42912,5.42134zM226.25995,205.9363c7.63503,-0.77504 13.84397,-4.48561 16.38054,-9.78987c0.98779,-2.06548 1.33358,-3.78712 1.33358,-6.63971c0,-4.45556 -1.09329,-7.36303 -3.66305,-9.74089c-2.00754,-1.85766 -4.06978,-2.81686 -9.84711,-4.58069c-7.08029,-2.16143 -7.7919,-2.60187 -7.96191,-4.92697c-0.14141,-1.93375 0.32697,-2.73645 2.06086,-3.53214c1.15073,-0.52804 1.76567,-0.63695 4.03033,-0.71378c3.0191,-0.10243 5.33878,0.26676 8.75913,1.39403c1.15823,0.38172 2.19011,0.69403 2.29301,0.69403c0.60607,0 2.89429,-7.3777 2.89429,-9.33169c0,-0.16018 -0.42302,-0.4166 -0.94004,-0.56983l-0.94002,-0.27858l2.79314,-4.7872c1.53626,-2.63284 4.9452,-8.48301 7.5755,-13.00031l4.78237,-8.21337l18.49171,-0.00854l-2.84933,4.86359c-1.56718,2.67495 -2.84933,4.96341 -2.84933,5.08545c0,0.13405 3.36129,0.22192 8.48869,0.22192c4.66877,0 8.48869,0.05578 8.48869,0.12396c0,0.06817 -3.95597,6.907 -8.79093,15.19724c-4.83497,8.29024 -8.92174,15.36589 -9.08146,15.72375l-0.29031,0.65046h13.83895l0.06957,-7.32093c0.05193,-5.46463 0.14536,-7.39591 0.36846,-7.61637c0.23912,-0.23628 0.29889,3.30413 0.29889,17.70094v17.99613l-0.65757,0.14928c-1.52391,0.34595 -6.4844,0.43839 -8.03125,0.14967c-1.95038,-0.36402 -3.82206,-1.4399 -4.86486,-2.79653c-1.95716,-2.54604 -2.30534,-6.24825 -2.18894,-23.27673l0.08037,-11.76018l-1.31515,-0.18695c-1.73489,-0.24663 -9.06974,-0.23997 -10.83922,0.00985l-1.39417,0.1968l0.10779,15.53265c0.09173,13.22006 0.16695,15.82925 0.50521,17.52423c0.92381,4.62943 2.61546,8.11994 5.16423,10.65532c3.84596,3.82568 8.75649,5.25575 18.17296,5.29288c2.57602,0.01012 5.67928,-0.11765 6.93442,-0.28554c2.43375,-0.32557 7.50257,-1.39398 10.04295,-2.11685l1.55427,-0.44226l0.11956,-22.21255c0.06576,-12.21693 0.1988,-21.94647 0.29565,-21.62123c0.09686,0.32524 0.17754,3.70458 0.17933,7.50992l0.00327,6.91859h5.73883c3.15636,0 5.73883,-0.05746 5.73883,-0.12768c0,-0.30762 -1.56058,-3.03637 -10.34305,-18.08529c-5.12478,-8.78128 -9.37485,-16.06034 -9.44492,-16.17554c-0.06992,-0.11521 -0.35437,0.16299 -0.63213,0.61823l-0.505,0.8277l-5.11378,-8.80541l8.62283,-0.12909l-0.70826,-1.23638c-0.38955,-0.68001 -1.84426,-3.179 -3.23265,-5.55308l-2.52437,-4.31673h27.35988l4.64774,7.98298c2.55618,4.39053 4.83832,8.3075 5.07121,8.70441l0.42349,0.72141l-1.60942,-0.17706c-2.40219,-0.26428 -7.30123,-0.2345 -9.73952,0.05921c-1.18364,0.14258 -2.17652,0.28178 -2.20641,0.30934c-0.02989,0.02757 0.16165,10.20426 0.42566,22.61514c0.34892,16.40308 0.55569,22.61136 0.75719,22.73436c0.78445,0.47957 10.53459,0.5506 12.03839,0.08768c0.48773,-0.15013 0.497,-0.32846 0.78574,-15.09647c0.52401,-26.80154 0.5894,-29.27568 0.76878,-29.08645c0.09743,0.10249 0.4835,0.88792 0.8579,1.7454c0.37441,0.85747 3.73789,6.79157 7.47435,13.1867l6.79358,11.62772h12.35737v-0.65046c0.00311,-1.88171 -2.43469,-12.4265 -3.86894,-16.7347c-0.25985,-0.78056 -0.6188,-1.89818 -0.79768,-2.48359c-0.17887,-0.58543 -0.60115,-1.78772 -0.93837,-2.67163c-0.71218,-1.86989 -0.73556,-2.0589 -0.25337,-2.0589c0.19727,0 0.35868,-0.03984 0.35868,-0.08852c0,-0.22751 -0.79348,-2.27387 -1.33812,-3.45102c-0.33323,-0.7202 -0.79612,-1.7352 -1.02864,-2.25558c-0.84743,-1.89657 -3.72928,-7.49502 -3.91723,-7.60997c-0.10625,-0.06496 -0.34517,0.00665 -0.53092,0.15914c-0.27594,0.22652 -0.44076,0.06596 -0.90098,-0.87772c-0.3098,-0.63523 -0.94373,-1.73539 -1.40874,-2.44481c-2.32042,-3.53995 -2.59371,-4.07499 -2.22038,-4.3451c0.30074,-0.21753 0.17222,-0.51276 -0.83247,-1.91249c-0.65347,-0.91039 -1.64236,-2.29389 -2.19754,-3.07445c-1.15381,-1.6222 -6.10971,-7.56147 -7.94612,-9.52282c-2.98539,-3.18846 -6.03749,-6.05904 -9.4815,-8.91801c-1.3809,-1.14623 -2.67214,-2.23161 -2.86942,-2.41192c-0.54653,-0.49958 -2.11447,-1.67981 -3.67717,-2.76791c-0.77309,-0.53831 -1.70358,-1.19163 -2.06772,-1.45182c-2.74077,-1.9584 -2.92298,-2.05282 -3.27903,-1.70075c-0.30034,0.29709 -0.56879,0.1914 -2.08128,-0.81937c-0.95506,-0.63824 -2.08188,-1.63622 -2.50405,-2.21769c-0.42216,-0.58149 -0.89538,-1.0603 -1.05159,-1.06407c-0.15622,-0.00374 -1.19868,-0.52505 -2.31655,-1.15846c-1.84522,-1.04554 -2.07024,-1.11857 -2.44212,-0.79236c-0.22525,0.19761 -0.56946,0.2986 -0.76491,0.2244c-0.27826,-0.10562 -0.31376,-0.02366 -0.16364,0.37776c0.14781,0.39525 -0.07504,0.9594 -0.97295,2.46326c-1.74499,2.92237 -1.85468,2.67684 1.1955,2.67684h2.64201l1.3172,2.21393c0.72445,1.21765 1.666,2.84643 2.09224,3.61966l0.77503,1.40586l-6.79191,11.63364c-3.7355,6.39844 -6.86795,11.5551 -6.96097,11.45932c-0.09292,-0.09588 -2.27062,-3.78334 -4.83927,-8.19445c-4.05305,-6.96022 -4.63578,-8.08564 -4.40886,-8.51518c0.14384,-0.27231 2.88257,-4.9899 6.08578,-10.48385c3.20346,-5.49371 5.82419,-10.13235 5.82419,-10.30787c0,-0.1755 -0.51111,-0.54274 -1.13581,-0.81605c-4.84358,-2.11885 -8.5401,-3.46757 -9.01236,-3.28828c-0.20176,0.07659 -1.14834,-0.11836 -2.10347,-0.4332c-3.85554,-1.27091 -9.44827,-2.65863 -12.91548,-3.20455c-1.15055,-0.18118 -1.85317,-0.40244 -1.85317,-0.58359c0,-0.18919 -0.60953,-0.35043 -1.7336,-0.45854c-0.95348,-0.09173 -3.18625,-0.36991 -4.96169,-0.61821c-4.11331,-0.5752 -4.39977,-0.57827 -4.20107,-0.04489c0.08479,0.22766 1.40156,2.57041 2.92608,5.20609l2.77209,4.79216l-2.88616,4.96246l5.81271,0.00379l9.9167,17.00671l-10.63406,18.22912l-26.12364,0.00189c-14.36812,0.00094 -26.12364,0.04493 -26.12364,0.09762c0,0.05268 4.37346,7.58325 9.71871,16.7347c5.34524,9.15145 9.76127,16.79856 9.81364,16.9937c0.07145,0.2671 -0.33608,0.45575 -1.64845,0.76315c-0.95886,0.2246 -2.73766,0.89398 -3.95286,1.48749c-3.90576,1.90749 -6.35672,4.84963 -7.37751,8.85532c-0.54928,2.15554 -0.36515,7.14424 0.3342,9.05448c1.52864,4.17551 4.85648,6.43204 12.83968,8.70654c6.74624,1.92205 8.0224,2.70593 8.394,5.1569c0.3395,2.2394 -1.34182,4.24956 -4.29145,5.13064c-3.27186,0.9774 -8.6465,0.60053 -13.39873,-0.93947c-1.43053,-0.46361 -2.63077,-0.84291 -2.66736,-0.84291c-0.03659,0 -0.40757,0.93135 -0.82441,2.06966c-0.79839,2.18026 -1.539,5.0987 -1.7695,6.97251l-0.13754,1.11828l2.32609,0.71126c5.42678,1.6594 10.67997,2.20094 16.05605,1.65521zM321.13476,205.11189c0.42304,-0.12937 0.56107,-0.41723 0.71736,-1.49634c0.25035,-1.72859 0.25093,-9.7558 0.00072,-11.20315c-0.18044,-1.0441 -0.24914,-1.12715 -1.07603,-1.30093c-1.14442,-0.2405 -11.13763,-0.24178 -12.27942,-0.00165l-0.87488,0.18406l-0.20115,2.29952c-0.34093,3.89759 -0.11856,10.34501 0.38458,11.15016c0.1074,0.1719 0.82656,0.39913 1.59818,0.50496c1.58662,0.21761 10.92793,0.10873 11.73065,-0.13673zM233.70369,169.7313c0.40486,-0.79333 0.67628,-1.50161 0.60318,-1.57392c-0.20938,-0.20712 -2.28688,-0.50064 -3.653,-0.51614l-1.24382,-0.01411l0.28735,0.65046c0.15804,0.35776 0.75685,1.48371 1.33069,2.50205l1.04334,1.85166l0.44805,-0.7288c0.24644,-0.40084 0.7793,-1.3779 1.18416,-2.17124zM204.21805,108.78861c15.8497,-27.12322 21.15501,-36.27705 21.07323,-36.35747c-0.05099,-0.05043 -1.0065,0.00949 -2.12337,0.13316c-6.62668,0.73382 -19.17343,4.06269 -25.105,6.66101c-0.59182,0.25922 -1.492,0.617 -2.00039,0.79504c-0.88301,0.30924 -0.91879,0.30262 -0.79952,-0.1485c0.12919,-0.48867 -0.16794,-0.65222 -0.42819,-0.23569c-0.08127,0.13009 -0.30916,0.23653 -0.5064,0.23653c-0.51026,0 -9.54248,4.48372 -11.7249,5.82061c-0.72492,0.44399 -0.74174,0.48995 -0.43992,1.2c0.17261,0.40607 1.46199,2.6785 2.86536,5.04998c1.40331,2.37147 2.66186,4.55138 2.79697,4.84443c0.21144,0.45906 -0.08768,1.1016 -2.16058,4.64102l-2.40601,4.10809l9.88681,0.23653l3.11595,5.37379c1.71383,2.95548 3.18673,5.37709 3.27306,5.38112c0.08631,0.00402 2.19393,-3.47846 4.68361,-7.73912zM253.85416,104.27722c-2.98779,-5.2702 -14.32531,-24.62071 -14.42503,-24.62071c-0.09971,0 -11.43724,19.3517 -14.42503,24.62071l-0.91496,1.61387h30.68121zM342.488,223.93447c0,-0.12242 0.10637,-0.2876 0.23639,-0.36708c0.13554,-0.08287 0.17563,0.01209 0.09398,0.22258c-0.15896,0.40977 -0.33036,0.48475 -0.33036,0.14452zM128.75482,161.00254c0,-0.32524 0.05427,-0.45828 0.12061,-0.29566c0.06633,0.16262 0.06633,0.42871 0,0.59133c-0.06633,0.16262 -0.12061,0.02957 -0.12061,-0.29566zM136.87503,156.23545c-0.54471,-0.93071 -0.9488,-1.73334 -0.89793,-1.78365c0.05085,-0.05031 1.01994,-0.06051 2.15352,-0.02269l2.06105,0.06877l-1.00009,1.71486c-0.55004,0.94317 -1.07345,1.71486 -1.16312,1.71486c-0.08967,0 -0.60872,-0.76148 -1.15344,-1.69219zM129.72134,156.39016c0,-0.26019 0.08615,-0.73917 0.19145,-1.0644c0.15159,-0.46823 0.19145,-0.49287 0.19145,-0.11827c0,0.26019 -0.08615,0.73917 -0.19145,1.0644c-0.15159,0.46823 -0.19145,0.49287 -0.19145,0.11827zM130.17079,154.28107c-0.01038,-0.24935 0.04613,-0.38904 0.12559,-0.31045c0.07946,0.0786 0.08795,0.28261 0.01887,0.45336c-0.07633,0.18869 -0.13299,0.13265 -0.14447,-0.14291z" fill="#e6649e"/><path d="M248.63685,279.45593c-3.41939,-5.87429 -6.25222,-10.76556 -6.2955,-10.86963c-0.04328,-0.10408 2.70419,-0.21748 6.10516,-0.2522l6.18334,-0.0631l-7.53987,-12.94545c-4.14678,-7.1201 -7.59367,-12.94591 -7.65943,-12.94663c-0.06576,-0.00047 -1.4646,2.33569 -3.10852,5.19166c-1.64393,2.85597 -3.04493,5.19616 -3.11332,5.20018c-0.06834,0.00404 -1.59615,-2.52049 -3.39524,-5.61032c-1.79907,-3.08983 -3.41102,-5.80168 -3.58198,-6.02663c-0.27302,-0.35872 -1.87466,2.27199 -13.05704,21.44619l-12.74569,21.85516l-3.41222,-1.37714c-3.70202,-1.49408 -8.5695,-3.78783 -11.9975,-5.65384l-2.16424,-1.17803l-6.76441,-11.60596c-3.72045,-6.38332 -6.83854,-11.60596 -6.92916,-11.60596c-0.09061,0 -1.34532,2.02146 -2.78812,4.49223c-1.44279,2.47077 -2.72833,4.49294 -2.85674,4.49412c-0.12825,0.00118 -1.98337,-1.76 -4.12239,-3.91344l-3.88924,-3.91557l0.45899,-0.63778c0.55564,-0.77208 25.93713,-44.28131 26.14515,-44.82062c0.09241,-0.23818 0.04046,-0.34101 -0.13955,-0.27624c-0.15769,0.05674 -1.33586,0.19631 -2.6181,0.31017c-4.62215,0.41038 -9.73616,-0.45117 -13.64838,-2.29934c-3.10972,-1.469 -4.70297,-2.69883 -7.38324,-5.69879c-0.94208,-1.05446 -2.77951,-4.44115 -3.72594,-6.86773c-1.78466,-4.57525 -2.26234,-12.29499 -1.10932,-17.9273c0.33844,-1.65322 0.92462,-3.80417 1.3026,-4.77985c0.64434,-1.66328 2.31136,-4.9672 2.5062,-4.9672c0.04843,0 -0.32492,0.87813 -0.82962,1.9514c-2.74604,5.83929 -3.43254,14.33863 -1.69957,21.04103c2.36794,9.15833 8.29835,14.85143 17.23442,16.5443c2.37124,0.4492 8.32011,0.37985 10.76031,-0.12545c8.72518,-1.80678 14.61274,-7.62393 16.73634,-16.53673c1.43741,-6.03253 1.12919,-13.35795 -0.79198,-18.82257c-0.32611,-0.92761 -0.55268,-1.68655 -0.50348,-1.68655c0.37869,0 1.8254,4.00497 2.24503,6.2149c0.37415,1.97044 0.4516,1.92693 2.29097,-1.28655l1.35835,-2.37314l0.53764,0.91036c3.11308,5.27138 3.98226,6.69625 4.1463,6.79629c0.10552,0.06451 -0.01707,-0.64804 -0.27243,-1.58343c-0.93039,-3.40821 -0.49603,-9.12544 0.87046,-11.45766c0.24773,-0.42281 0.47451,-0.76873 0.50397,-0.76873c0.02947,0 -0.14873,0.77168 -0.39601,1.71486c-0.28316,1.0801 -0.45686,2.59051 -0.46922,4.08019c-0.03609,4.34747 0.86507,6.89163 3.27329,9.24063c2.00644,1.95726 4.78164,3.26581 10.45256,4.9284c6.47029,1.89704 7.56259,2.49424 8.08745,4.42292c0.32914,1.20913 0.17979,2.38709 -0.4125,3.25304l-0.42773,0.62544l-0.12598,-1.22217c-0.06987,-0.67798 -0.31253,-1.42608 -0.54492,-1.68009c-0.93574,-1.02282 -4.05426,-2.22419 -8.65799,-3.33535c-2.46985,-0.59614 -5.433,-1.8787 -7.43275,-3.21731c-0.9871,-0.66071 -2.94163,-2.6979 -3.36439,-3.50684c-0.19635,-0.37558 -0.40631,-0.63407 -0.4666,-0.57442c-0.12189,0.12057 1.47089,2.964 5.96026,10.64044c2.7941,4.77772 2.96339,5.13584 2.36333,5.00102c-2.45742,-0.55235 -4.54612,-1.12313 -5.56858,-1.52185c-0.65609,-0.25581 -1.28636,-0.46511 -1.40056,-0.46511c-0.49454,0 -2.34702,6.07322 -2.75512,9.03223l-0.15286,1.10851l2.23511,0.70823c4.22903,1.34005 7.20199,1.76974 12.25622,1.77147c3.47343,0.00118 4.99374,-0.09714 6.45619,-0.41748c8.07118,-1.76804 13.24856,-5.98665 14.82005,-12.07547c0.41745,-1.61742 0.48175,-6.07629 0.11059,-7.66887c-0.13287,-0.57007 -0.18705,-1.0904 -0.1204,-1.15633c0.39615,-0.39186 1.32767,4.28149 1.32923,6.66858c0.00143,2.27978 -0.67665,5.26262 -1.60693,7.06831c-0.78385,1.52148 -2.75392,4.19585 -3.23145,4.38674c-0.11427,0.04567 -0.44412,0.32318 -0.73304,0.61665c-2.05813,2.09075 -6.93227,4.16321 -11.45446,4.87046l-1.84274,0.2882l0.38386,0.73704c0.21112,0.40537 1.50982,2.65296 2.88592,4.99463c8.08195,13.75202 41.89585,71.73095 42.0178,72.04791c0.12234,0.31575 -0.58694,0.55759 -4.3486,1.48273c-4.28714,1.05433 -10.61085,2.28718 -11.65604,2.27239c-0.39339,-0.00567 -1.72198,-2.1224 -6.70773,-10.6875zM292.19934,275.42942c-0.71042,-1.20511 -1.58583,-2.69671 -1.94536,-3.31453l-0.6537,-1.12354h7.24407c4.10159,0 7.14556,0.08892 7.01692,0.20499c-0.70636,0.6374 -7.77922,5.05258 -9.85046,6.14915c-0.48744,0.25806 -0.60014,0.13885 -1.81146,-1.91594zM304.76595,258.61595c-2.66473,-4.57667 -6.60563,-11.355 -8.75745,-15.06265c-2.1519,-3.70764 -4.00642,-6.7128 -4.12143,-6.67827c-0.18743,0.05638 -3.85554,6.24683 -9.04152,15.25921c-1.03139,1.79237 -1.95583,3.30815 -2.05435,3.36847c-0.09851,0.06032 -0.91733,-1.16561 -1.81962,-2.72416l-1.64051,-2.83366l-9.62449,-0.00261c-5.29359,-0.00142 -9.62449,-0.0678 -9.62449,-0.14748c0,-0.07968 2.1162,-3.77057 4.70273,-8.20202c2.58654,-4.43145 4.69891,-8.1715 4.69413,-8.31129c-0.0047,-0.1397 -1.9595,-3.57992 -4.34406,-7.64474c-2.38448,-4.06481 -4.33545,-7.49762 -4.33545,-7.62818c0,-0.15465 3.12002,-0.23743 8.94899,-0.23743h8.94899l1.90049,-3.25233c1.04528,-1.78878 2.23347,-3.84012 2.64034,-4.55869l0.73998,-1.3063l-4.83425,-0.01851c-8.51117,-0.0326 -13.96257,-1.21928 -17.17537,-3.73864c-0.34337,-0.26927 -0.86566,-0.64925 -1.16065,-0.8444c-0.83899,-0.55501 -3.22116,-3.53522 -3.9256,-4.91138c-1.12391,-2.19519 -2.03691,-5.0741 -2.41246,-7.60738c-0.52362,-3.53192 -0.52963,-31.99107 -0.00694,-32.89462c0.29936,-0.51801 0.34289,1.05115 0.35102,12.65452c0.00524,7.47254 0.12063,14.42164 0.26472,15.94327c1.04329,11.01746 6.19005,16.89649 16.05176,18.33579c7.64269,1.11559 16.26551,0.4589 24.22265,-1.84465l1.91295,-0.55386l0.12148,-21.38068c0.06681,-11.75923 0.14751,-18.37364 0.17933,-14.69863c0.03611,4.16959 0.14602,6.68205 0.29232,6.68205c0.14403,0 0.2593,1.98411 0.29889,5.14459l0.06445,5.14459l0.81882,-1.25126c0.65497,-1.0009 0.87638,-1.19018 1.10655,-0.94614c0.15825,0.16782 1.76636,2.85968 3.57362,5.98192c3.8749,6.69459 4.48442,7.68639 4.7233,7.68685c0.09863,0.00023 0.17933,-0.41355 0.17933,-0.9195c0,-0.57984 0.17815,-1.12637 0.4819,-1.47832l0.4819,-0.55841l-0.15384,0.66905c-0.23253,1.0112 -0.23903,7.09552 -0.01011,9.45705c0.18863,1.94595 0.24409,2.10186 0.83692,2.35279c0.73773,0.31227 11.1197,0.40202 12.51758,0.10819c0.8269,-0.17377 0.89559,-0.25683 1.07603,-1.30093c0.10601,-0.61343 0.19274,-3.37154 0.19274,-6.12927c0,-4.145 0.05162,-4.91658 0.29782,-4.45154c0.53885,1.01785 0.85422,6.17043 0.57797,9.44334c-0.41169,4.87731 -0.64882,5.09989 -5.63241,5.28439c-3.31417,0.12272 -3.49494,0.15412 -3.35722,0.58322c0.08004,0.24945 1.05946,2.01658 2.1765,3.92692c1.11705,1.9104 2.28554,3.9087 2.59658,4.44044l0.56571,0.96704l-2.2589,3.88197c-1.24239,2.13504 -2.25898,3.96051 -2.25906,4.05654c-0.00009,0.09606 4.19269,0.20249 9.31723,0.23653l9.31746,0.06188l-4.01647,6.85946l8.80982,0.23653l-1.22628,2.1288c-2.99592,5.20089 -8.01524,12.22261 -12.25837,17.14864c-2.74125,3.18231 -9.16682,9.52164 -12.09578,11.93309c-1.24938,1.02866 -2.43327,2.00355 -2.63077,2.16645c-0.30842,0.25432 -1.04401,-0.88001 -5.20416,-8.02533zM140.80996,233.45123c-0.12977,-0.3371 -0.1023,-0.36428 0.13385,-0.13242c0.16342,0.16045 0.23688,0.3513 0.16326,0.42413c-0.07363,0.07283 -0.20733,-0.05845 -0.29712,-0.29172zM138.41877,228.72057c-0.12977,-0.3371 -0.1023,-0.36428 0.13385,-0.13242c0.16342,0.16045 0.23688,0.3513 0.16326,0.42413c-0.07363,0.07283 -0.20733,-0.05845 -0.29712,-0.29172zM134.73564,220.55001c-1.18012,-2.97015 -3.32661,-9.70352 -4.23621,-13.28818c-2.03025,-8.00167 -3.09944,-15.75924 -3.37132,-24.4575c-0.18286,-5.85466 0.00504,-8.55516 0.59517,-8.55468c0.36337,0.00047 0.39897,0.70626 0.40842,8.10125c0.01118,8.75407 0.28474,11.91062 1.69623,19.57263c1.04576,5.67678 3.33785,14.07134 4.61785,16.91211c0.42295,0.93877 0.84686,2.48359 0.68151,2.48359c-0.04738,0 -0.22358,-0.34593 -0.39157,-0.76873zM349.66919,197.84758c-0.00239,-0.22506 0.21647,-2.32448 0.48596,-4.66537c0.39237,-3.40844 0.43232,-4.36261 0.20063,-4.79098c-0.15914,-0.29415 -3.0698,-5.2981 -6.4679,-11.11989c-3.39811,-5.82179 -6.17857,-10.63168 -6.17857,-10.68868c0,-0.057 2.73503,-0.13822 6.0779,-0.18061c3.34287,-0.04238 6.13338,-0.13211 6.20129,-0.19939c0.16336,-0.1621 -0.42884,-4.56391 -0.79136,-5.88233c-0.15692,-0.57063 -0.42752,-1.79469 -0.60133,-2.72013c-0.34364,-1.82958 -1.72932,-7.17309 -1.95295,-7.53098c-0.07608,-0.12177 -0.27742,-0.7716 -0.44742,-1.44408c-0.17001,-0.67247 -0.70808,-2.28706 -1.19575,-3.58796c-1.20061,-3.20289 -1.24331,-3.42972 -0.6456,-3.42972c0.56819,0 1.37012,2.01214 2.94474,7.38858c4.23741,14.46919 5.49661,29.91904 3.6487,44.76621c-0.25471,2.04646 -0.53182,3.31216 -0.82847,3.78452c-0.30844,0.49101 -0.44699,0.58355 -0.44978,0.30039zM281.03756,184.18308c0,-9.04761 0.04641,-10.40744 0.35516,-10.40744c0.30485,0 0.36466,-1.0138 0.4221,-7.15511c0.0368,-3.93543 0.09219,0.74803 0.12307,10.40744c0.0557,17.42349 0.05235,17.56257 -0.4221,17.56257c-0.471,0 -0.47824,-0.15768 -0.47824,-10.40744zM184.76151,190.62861l0.73691,-2.06966l-0.00024,-5.67678c-0.00024,-5.5888 -0.01072,-5.70801 -0.67281,-7.68732c-0.67077,-2.00535 -1.5187,-3.51938 -2.42465,-4.32903c-0.26303,-0.23513 -1.12386,-0.74088 -1.91295,-1.12394c-2.71015,-1.3156 -6.74505,-0.78922 -8.80886,1.14918c-1.01707,0.9552 -1.76691,2.35395 -2.44713,4.56461c-1.18821,3.86211 -1.06109,11.87135 0.24574,15.48533c0.34696,0.95952 0.44732,1.44872 0.24209,1.18007c-1.14853,-1.50359 -1.99156,-5.16966 -2.17886,-9.47552c-0.35671,-8.19941 1.50202,-13.5453 5.36126,-15.41957c1.2596,-0.61174 1.58796,-0.66468 4.12359,-0.66468c2.63077,0 2.82661,0.03498 4.35052,0.77699c1.76846,0.86122 2.72619,1.87831 3.6475,3.87418c1.76155,3.81551 2.27303,10.88216 1.17847,16.28197c-0.30616,1.5104 -1.78306,5.20373 -2.08088,5.20373c-0.05308,0 0.23512,-0.93135 0.64041,-2.06966zM267.31936,189.81511c-0.78588,-2.12889 -0.86984,-3.83396 -0.86984,-17.66759c0,-11.07258 0.05978,-13.78205 0.29889,-13.54577c0.22932,0.22661 0.3347,3.72019 0.4527,15.00801c0.08525,8.15564 0.26023,15.23981 0.39263,15.89524c0.3031,1.50087 0.20581,1.61084 -0.27439,0.31005zM310.20755,186.638c-1.01417,-0.1819 -2.35567,-0.83941 -2.50668,-1.2286c-0.20091,-0.51791 -0.32334,-4.12749 -0.72351,-21.33148c-0.52597,-22.61159 -0.53268,-23.7479 -0.14319,-24.21387c0.18313,-0.21892 0.3764,-0.35508 0.42948,-0.30257c0.05307,0.0525 0.30658,9.97412 0.56333,22.04817c0.34935,16.42816 0.53924,21.99709 0.75454,22.12859c1.03143,0.63057 11.33754,0.64095 12.30214,0.01239c0.19745,-0.12868 0.98641,-31.44232 1.06785,-42.38196l0.0132,-1.774l0.41672,0.94614c0.38365,0.87103 0.40172,1.65947 0.22768,9.93437c-0.10396,4.94354 -0.29234,14.62955 -0.41862,21.52448c-0.14226,7.76822 -0.3269,12.78792 -0.48543,13.19805c-0.46042,1.1912 -1.50761,1.43249 -6.47603,1.49216c-2.43302,0.02923 -4.69269,0.00489 -5.02147,-0.05408zM222.92712,171.82443c-0.63497,-1.0302 -0.63292,-2.82633 0.0044,-3.8465c0.30445,-0.48725 0.93855,-0.97334 1.7336,-1.32883c1.13954,-0.50956 1.56907,-0.55937 4.7209,-0.54748c3.64702,0.01379 4.67715,0.19198 8.44541,1.46104c1.59142,0.53594 1.90239,0.5787 2.08939,0.28737c0.73042,-1.13809 2.37754,-6.48124 2.37754,-7.71262c0,-0.74753 0.43105,-0.70354 0.62577,0.06386c0.27474,1.08287 -0.10992,3.92739 -0.82814,6.12383c-1.12261,3.43303 -1.58696,3.99836 -3.24578,3.95176c-0.73194,-0.02058 -4.68194,-1.19034 -4.68194,-1.3865c0,-0.06202 0.10866,-0.31365 0.24148,-0.55914c0.26514,-0.49003 0.39684,-0.4469 -2.87181,-0.94017c-2.35766,-0.35577 -2.42035,-0.34498 -2.14614,0.36862c0.32057,0.83406 0.33768,0.81247 -0.64389,0.81247c-0.48239,0 -1.55674,0.11708 -2.38737,0.26016c-1.26598,0.21808 -1.63048,0.39558 -2.25337,1.09734c-0.61314,0.69077 -0.72769,0.9969 -0.65507,1.75037c0.04842,0.50225 0.05672,0.91319 0.01844,0.91319c-0.03829,0 -0.28282,-0.34593 -0.54345,-0.76873zM197.73126,167.97154c-0.23074,-0.59481 -0.16267,-0.74829 0.1192,-0.26877c0.13957,0.23743 0.20339,0.4815 0.14182,0.54239c-0.06157,0.06088 -0.17903,-0.06222 -0.26105,-0.27363zM210.01618,164.565c0,-0.12242 0.10637,-0.28759 0.23639,-0.36707c0.13554,-0.08287 0.17563,0.01209 0.09398,0.22258c-0.15896,0.40977 -0.33036,0.48475 -0.33036,0.14451zM132.11635,148.26197c-0.2319,-0.14177 -0.08259,-0.84092 0.64311,-3.0113c5.5705,-16.66091 14.66916,-31.19632 27.38379,-43.74203c7.49396,-7.39567 14.14861,-12.46575 22.97278,-17.50273c32.54156,-18.57469 72.01754,-19.98655 105.45101,-3.77128c18.51227,8.97808 33.79931,22.36111 45.1622,39.53647c2.9005,4.38461 7.11926,12.07193 8.27467,15.07803c0.50999,1.32691 0.00004,0.43879 -1.89477,-3.29963c-1.63576,-3.22748 -2.03956,-3.86046 -2.31715,-3.63267c-0.40555,0.33292 -0.25748,0.49549 -1.64109,-1.80195c-0.62678,-1.04074 -1.61628,-2.61795 -2.19896,-3.50494c-0.85074,-1.29506 -1.00341,-1.67937 -0.7752,-1.9514c0.22097,-0.26338 0.21328,-0.42325 -0.03464,-0.71874c-0.17536,-0.20902 -0.43064,-0.56633 -0.56729,-0.79404c-0.45755,-0.76244 -1.50257,-2.2503 -1.9538,-2.78186c-0.24569,-0.28936 -0.7157,-0.91327 -1.04449,-1.38648c-0.60474,-0.87034 -5.19006,-6.44008 -6.0198,-7.31219c-0.24756,-0.26019 -0.78672,-0.8456 -1.19815,-1.30093c-2.43207,-2.69151 -5.55447,-5.70352 -8.70102,-8.3936c-0.91087,-0.77867 -1.70994,-1.47629 -1.77569,-1.55029c-0.11916,-0.13407 -3.75414,-2.99686 -4.6628,-3.6724c-0.26303,-0.19553 -0.90864,-0.68142 -1.43471,-1.0798c-2.40481,-1.82106 -4.93947,-3.33795 -5.18026,-3.09976c-0.36147,0.35756 -3.98968,-1.8812 -4.8089,-2.96731c-0.41755,-0.5536 -1.47887,-1.3355 -2.86368,-2.10969c-1.89912,-1.06175 -2.25012,-1.18543 -2.56478,-0.90372c-0.26353,0.23592 -0.48455,0.25995 -0.79741,0.08677c-0.23806,-0.13178 -0.59926,-0.17644 -0.80265,-0.09923c-0.41082,0.15595 -3.42704,-1.22225 -3.42704,-1.56591c0,-0.55861 -7.82202,-3.61682 -12.31457,-4.81463c-1.18364,-0.31559 -3.3357,-0.8967 -4.78237,-1.29135c-1.44667,-0.39465 -3.43923,-0.86567 -4.42798,-1.04668c-0.98868,-0.18101 -2.47152,-0.50185 -3.29528,-0.713c-2.53632,-0.65014 -8.158,-1.51144 -11.02526,-1.68922c-2.60615,-0.16159 -2.72212,-0.14908 -2.6083,0.28081c0.11532,0.43548 -0.08911,0.4474 -6.35911,0.37076c-5.66901,-0.06928 -10.21511,0.11718 -14.05296,0.57638c-1.04513,0.12504 -1.11011,0.10145 -0.98837,-0.35907c0.15792,-0.59736 0.03325,-0.60517 -2.46961,-0.15447c-1.03377,0.18616 -2.47128,0.40823 -3.19461,0.49348c-0.72333,0.08525 -2.12217,0.34794 -3.10852,0.58374c-0.98637,0.2358 -2.2238,0.50053 -2.74986,0.58834c-1.98181,0.33071 -7.729,1.99024 -11.71678,3.38336c-4.06621,1.42046 -4.83544,1.72206 -6.66063,2.61108c-0.11243,0.05478 -0.13208,-0.12589 -0.04366,-0.40148c0.08841,-0.27559 0.11315,-0.50104 0.05497,-0.50104c-0.38012,0 -7.00447,3.20123 -10.57787,5.11171c-3.20274,1.71245 -3.35842,1.84455 -3.02532,2.5678c0.19039,0.41336 0.1966,0.59911 0.02002,0.59911c-0.14077,0 -0.54198,0.22013 -0.89157,0.4892c-0.3496,0.26906 -1.73049,1.2004 -3.0686,2.06966c-7.52051,4.88512 -11.33012,7.93781 -17.50105,14.02333c-3.09681,3.05388 -4.31727,4.36853 -6.94303,7.47822c-1.28105,1.5171 -2.35335,2.58553 -2.5282,2.51907c-0.17081,-0.06484 -0.70942,0.43137 -1.23093,1.13406c-0.50999,0.68712 -1.16527,1.57143 -1.4562,1.96511c-0.56536,0.76502 -2.16421,3.06617 -2.57218,3.70173c-0.13559,0.2113 -0.63029,0.95638 -1.09935,1.65573c-2.38028,3.54894 -5.71037,9.62949 -7.49731,13.68958c-0.48668,1.10578 -1.08481,2.43628 -1.32918,2.95666c-0.6526,1.38955 -2.15713,5.27113 -2.15713,5.56514c0,0.13936 -0.1807,0.59401 -0.40154,1.01035c-0.22085,0.41635 -0.51781,1.25805 -0.65989,1.87047c-0.1854,0.79904 -0.34364,1.06134 -0.56035,0.92884zM344.07287,140.2972c-0.23074,-0.59481 -0.16267,-0.74829 0.1192,-0.26877c0.13957,0.23743 0.20339,0.4815 0.14182,0.54239c-0.06157,0.06088 -0.17903,-0.06222 -0.26105,-0.27363zM342.74411,137.09739c-0.2901,-0.66705 -0.48156,-1.25821 -0.42549,-1.3137c0.05606,-0.0555 0.33364,0.45053 0.61677,1.12447c0.28314,0.67393 0.4746,1.26509 0.42549,1.3137c-0.04913,0.04862 -0.32668,-0.45741 -0.61677,-1.12447z" fill="#e15e98"/><path d="M293.47146,277.23488c0,-0.19583 0.3497,-0.51477 0.77713,-0.70873c0.92371,-0.41918 1.87134,-0.97908 4.12477,-2.437c0.9206,-0.59564 1.84676,-1.19075 2.05809,-1.32248c0.21135,-0.13171 0.83801,-0.53849 1.39257,-0.90393c0.55455,-0.36545 1.18868,-0.62535 1.40913,-0.57754c0.44261,0.09598 -3.54755,2.76981 -7.43035,4.97925c-1.64148,0.93402 -2.3314,1.22125 -2.3314,0.97054zM309.49235,266.39056c0,-0.18777 0.19975,-0.48047 0.44388,-0.65046c1.31771,-0.91754 3.46745,-2.88713 7.44183,-6.81877c4.11283,-4.06836 5.07337,-5.09657 7.21275,-7.72114c0.71456,-0.87662 1.74647,-1.47194 2.04298,-1.17865c0.21036,0.20808 -4.36988,5.29242 -7.91862,8.7905c-3.31584,3.26841 -8.61877,7.91084 -9.04344,7.91722c-0.09863,0.00142 -0.17933,-0.1509 -0.17933,-0.33867zM332.80061,240.85682c0.00345,-0.61794 0.1642,-1.21753 0.39639,-1.47832c0.21483,-0.24131 0.62042,-0.8645 0.90128,-1.38487c0.2809,-0.52038 0.88933,-1.58477 1.35209,-2.36534c0.46276,-0.78056 0.90064,-1.59404 0.97305,-1.80775c0.11036,-0.32573 1.45661,-0.82134 1.66666,-0.61356c0.1353,0.13384 -5.03654,8.68951 -5.2527,8.68951c-0.02339,0 -0.03993,-0.46782 -0.03676,-1.03958zM219.22437,208.62687c-2.61523,-0.21191 -6.32156,-0.84648 -8.24957,-1.41243c-3.75559,-1.10249 -4.04468,-1.46832 -3.62504,-4.58708c0.28599,-2.12484 1.52268,-6.30644 1.99006,-6.72912c0.19313,-0.17463 0.23557,-0.14312 0.14827,0.11014c-0.59055,1.71316 -1.62191,6.38852 -1.62191,7.35239c0,0.30898 4.19055,1.55364 7.18454,2.1339c3.63458,0.70443 10.77466,0.76415 13.73828,0.1149c6.77468,-1.484 11.45423,-4.63085 13.75024,-9.2463c1.04391,-2.09842 1.43852,-3.93496 1.4739,-6.85946c0.03031,-2.50394 0.03972,-2.5484 0.2506,-1.18266c0.12051,0.78056 0.16777,2.60187 0.10502,4.04732c-0.09717,2.23824 -0.22614,2.90486 -0.86934,4.49412c-1.6342,4.03786 -4.17476,6.73598 -8.18381,8.6914c-2.56741,1.25242 -5.61497,2.19481 -7.84187,2.42493c-0.85485,0.08836 -1.62583,0.27004 -1.71333,0.40376c-0.16602,0.25378 -4.44497,0.41361 -6.53629,0.24413zM282.23196,208.28796c0,-0.21886 -0.64951,-0.25205 -2.69008,-0.13749c-4.13984,0.23242 -10.09938,-0.19534 -13.0917,-0.93973c-4.06262,-1.01059 -7.24838,-2.87104 -9.14339,-5.33925c-2.26031,-2.94413 -2.81728,-4.03289 -3.84741,-7.51891l-0.73383,-2.48359l-0.02844,-16.43903l-0.02844,-16.43903l0.15091,14.42849c0.1256,12.01043 0.21725,14.76722 0.54678,16.44991c1.87721,9.58525 6.6867,14.37552 15.7629,15.70034c7.64269,1.11556 16.26528,0.45892 24.22265,-1.84463l1.91295,-0.55384l0.12228,-14.75776c0.06725,-8.11662 0.14795,-12.22354 0.17933,-9.12615c0.03728,3.68022 0.13992,5.581 0.29617,5.48543c0.15795,-0.09656 0.23912,3.19461 0.23912,9.69572c0,11.36824 0.08018,10.90842 -2.03808,11.69229c-0.73012,0.27021 -1.46285,0.49132 -1.62825,0.49132c-0.1654,0 -1.3181,0.25748 -2.56143,0.57219c-1.24346,0.3147 -3.28309,0.69437 -4.53247,0.84366c-1.24938,0.1493 -2.46005,0.32474 -2.69008,0.38988c-0.23525,0.06657 -0.41845,-0.0079 -0.41845,-0.1701zM172.8355,208.04045c-2.97629,-0.28171 -7.13409,-1.75167 -9.55922,-3.37982c-5.06834,-3.40229 -8.48893,-9.25033 -9.55252,-16.33212c-0.44287,-2.94885 -0.46324,-7.97707 -0.04315,-10.65154c0.28939,-1.84233 0.29438,-1.7924 0.18994,1.89226c-0.11334,3.99836 0.13871,6.70854 0.89638,9.63896c2.365,9.14696 8.30004,14.84149 17.23179,16.53364c2.37124,0.4492 8.32011,0.37985 10.76031,-0.12545c11.66298,-2.41524 18.19855,-12.11829 17.62298,-26.16526c-0.07195,-1.75625 -0.06912,-3.03353 0.00627,-2.83839c0.07539,0.19515 0.25523,0.43062 0.39965,0.52328c0.17032,0.1093 0.29282,1.75087 0.34861,4.67224c0.07363,3.8536 0.01124,4.90475 -0.43221,7.28237c-0.99021,5.30922 -2.01663,7.71262 -4.96456,11.62418c-1.36333,1.80907 -4.2587,4.17575 -6.52242,5.33144c-2.51957,1.28634 -6.54873,2.50133 -6.74886,2.03523c-0.03757,-0.08751 -0.92914,-0.07987 -1.98126,0.01699c-2.40911,0.22178 -4.89595,0.20298 -7.65177,-0.05787zM309.15185,207.83471c-1.59687,-0.28298 -2.32196,-1.03466 -2.55402,-2.64775c-0.25196,-1.75183 -0.25992,-8.94212 -0.0099,-8.94212c0.11302,0 0.30749,-0.55881 0.43213,-1.24179c0.18822,-1.03123 0.22431,-0.66028 0.21298,2.18793c-0.00752,1.88635 0.07723,4.36758 0.18833,5.51382c0.18863,1.94595 0.24409,2.10186 0.83692,2.35279c0.73419,0.31076 11.11731,0.40268 12.50418,0.11067c1.11838,-0.23546 1.13776,-0.3232 1.34449,-6.08504c0.16214,-4.51944 0.16884,-4.56461 0.33247,-2.24706c0.18809,2.66431 0.02447,7.61447 -0.29329,8.87495c-0.28539,1.1319 -1.14193,1.57692 -3.58509,1.8626c-3.04445,0.35601 -8.08434,0.49579 -9.40928,0.26099zM128.76368,199.2015c-0.00488,-0.39028 0.04472,-0.57858 0.11023,-0.41843c0.06551,0.16016 0.06949,0.47946 0.00887,0.7096c-0.06062,0.23014 -0.11423,0.09911 -0.1191,-0.29117zM128.52456,197.7823c-0.00488,-0.39028 0.04472,-0.57858 0.11023,-0.41843c0.06551,0.16016 0.06949,0.47946 0.00887,0.7096c-0.06062,0.23014 -0.11423,0.09911 -0.1191,-0.29117zM350.15579,197.07271c0.00017,-0.13009 0.15622,-1.30093 0.34677,-2.60187c0.52546,-3.58749 0.46853,-5.11763 -0.24206,-6.50466c-0.59605,-1.1635 -0.5978,-1.18668 -0.5978,-7.90399c0,-6.14963 -0.26235,-10.1125 -0.85872,-12.97005c-0.11712,-0.56125 -0.05935,-0.65096 0.42126,-0.65408c1.15901,-0.00753 1.2476,-0.23895 0.91709,-2.39561c-0.16662,-1.08715 -0.45664,-2.72179 -0.64454,-3.63243c-0.95174,-4.6131 -1.28043,-6.0938 -1.39238,-6.27309c-0.06752,-0.10808 -0.32444,-0.9761 -0.57093,-1.92894c-0.68158,-2.63497 -1.58841,-5.51169 -2.52197,-8.00048c-0.96071,-2.56142 -0.96869,-2.60187 -0.51351,-2.60187c0.41148,0 1.4682,2.82136 2.88424,7.70033c1.76902,6.09522 3.08296,12.80328 3.87514,19.78479c0.63637,5.60819 0.57009,17.35205 -0.13048,23.11328c-0.29135,2.39583 -0.62936,4.52464 -0.75111,4.73065c-0.12176,0.20602 -0.22126,0.26801 -0.22109,0.13792zM128.27827,196.24484c0,-0.32524 0.05427,-0.45828 0.12061,-0.29566c0.06633,0.16262 0.06633,0.42871 0,0.59133c-0.06633,0.16262 -0.12061,0.02957 -0.12061,-0.29566zM128.03915,194.58911c0,-0.32524 0.05427,-0.45828 0.12061,-0.29566c0.06633,0.16262 0.06633,0.42871 0,0.59133c-0.06633,0.16262 -0.12061,0.02957 -0.12061,-0.29566zM281.5146,184.18167c0,-6.78069 0.08333,-10.40744 0.23912,-10.40744c0.15579,0 0.23912,3.62675 0.23912,10.40744c0,6.78069 -0.08333,10.40744 -0.23912,10.40744c-0.15579,0 -0.23912,-3.62675 -0.23912,-10.40744zM321.94466,193.78087c-0.01037,-0.24935 0.04613,-0.38905 0.12559,-0.31045c0.07946,0.0786 0.08795,0.28261 0.01886,0.45336c-0.07633,0.18869 -0.13299,0.13265 -0.14447,-0.14291zM127.67329,191.69773c-0.57624,-6.34334 -0.77751,-13.12876 -0.47448,-15.99672c0.31112,-2.94435 0.47474,-1.3153 0.37107,3.6937c-0.0586,2.83105 0.01855,7.10261 0.17147,9.49207c0.27582,4.30987 0.23211,6.11532 -0.06806,2.81096zM230.16642,191.07291c-0.67439,-1.45415 -1.82087,-2.22178 -4.67213,-3.12838c-1.19033,-0.37845 -2.29482,-0.68807 -2.45431,-0.68807c-0.15956,0 -1.35212,-0.32701 -2.65015,-0.72666c-6.04682,-1.8618 -8.99226,-3.98037 -10.82726,-7.78785c-0.84645,-1.75614 -0.85614,-1.81143 -0.93315,-5.32246c-0.04281,-1.9514 0.02105,-3.97376 0.14189,-4.49412c0.17759,-0.76472 0.21882,-0.44723 0.21504,1.65573c-0.00825,4.59584 0.86377,7.09812 3.30269,9.47717c2.00644,1.95726 4.78164,3.26581 10.45256,4.9284c4.78356,1.40248 6.27254,1.99142 7.21156,2.85211c0.88687,0.81303 1.35547,2.8566 0.91004,3.96902c-0.12814,0.32003 -0.28345,0.15624 -0.69667,-0.73477zM185.70004,188.54154c0.78863,-4.11071 0.77298,-7.44677 -0.05477,-11.67053c-0.97676,-4.98446 -3.03633,-7.45102 -6.73667,-8.06837c-3.34167,-0.55756 -6.51979,0.39969 -8.15823,2.45711c-0.96879,1.21663 -1.84766,3.27859 -2.21304,5.19214c-0.57202,2.99568 -0.82392,6.55338 -0.59753,8.43926c0.26466,2.20468 0.25236,2.97937 -0.03002,1.89226c-0.37719,-1.45214 -0.52807,-7.32613 -0.24611,-9.58029c0.68378,-5.46628 2.30455,-8.55349 5.23908,-9.97861c1.2596,-0.61174 1.58796,-0.66468 4.12359,-0.66468c2.63077,0 2.82661,0.03498 4.35052,0.77699c1.76846,0.86122 2.72619,1.87831 3.6475,3.87418c1.74266,3.77459 2.25055,10.55032 1.1985,15.98939c-0.18948,0.97962 -0.41595,1.84539 -0.50325,1.92389c-0.0873,0.07851 -0.09609,-0.18372 -0.01954,-0.58272zM168.21167,188.20261c0,-0.32524 0.05428,-0.45828 0.12061,-0.29566c0.06633,0.16262 0.06633,0.42871 0,0.59133c-0.06633,0.16262 -0.12061,0.02957 -0.12061,-0.29566zM266.60392,186.87507c-0.08412,-0.60709 -0.12923,-7.07612 -0.10023,-14.37576l0.05271,-13.27186l0.12662,14.31024c0.06964,7.87063 0.11474,14.33981 0.10023,14.37576c-0.01451,0.03595 -0.09522,-0.43117 -0.17933,-1.03829zM310.44858,186.1609c-1.33033,-0.16546 -2.06723,-0.54377 -2.38922,-1.22662c-0.22028,-0.46712 -0.35273,-4.15943 -0.50213,-13.99848c-0.11161,-7.35025 -0.31078,-17.13089 -0.4426,-21.73453c-0.13403,-4.68051 -0.14919,-8.53032 -0.0344,-8.73327c0.27891,-0.49298 0.43273,4.02838 0.85908,25.24989c0.26695,13.28843 0.43168,17.88946 0.64517,18.02002c1.03065,0.6301 11.32726,0.63997 12.30429,0.01178c0.20364,-0.13091 1.00594,-32.0029 1.05791,-42.02716c0.00797,-1.53799 0.05641,-1.78154 0.2587,-1.30093c0.27081,0.64341 0.1849,7.01746 -0.40861,30.31879c-0.19113,7.50354 -0.45346,13.91831 -0.58299,14.25536c-0.12953,0.33696 -0.53334,0.7303 -0.89737,0.87406c-0.66408,0.26225 -8.28974,0.48659 -9.86792,0.29032zM200.01435,175.42988c0,-0.32524 0.05428,-0.45828 0.12061,-0.29566c0.06633,0.16262 0.06633,0.42871 0,0.59133c-0.06633,0.16262 -0.12061,0.02957 -0.12061,-0.29566zM154.11328,175.07507c-0.00488,-0.39028 0.04472,-0.57858 0.11023,-0.41843c0.0655,0.16014 0.06948,0.47946 0.00888,0.7096c-0.06062,0.23014 -0.11423,0.09911 -0.1191,-0.29117zM222.60862,171.29458c-0.08481,-0.21864 -0.15422,-0.88184 -0.15422,-1.47379c0,-1.51603 0.6767,-2.4862 2.21361,-3.17332c1.13954,-0.50956 1.56907,-0.55937 4.7209,-0.54748c3.6432,0.01377 4.67787,0.19238 8.42771,1.45496c1.01862,0.34298 1.91386,0.56243 1.98938,0.48768c0.34797,-0.34419 1.56144,-3.68022 2.03826,-5.60347c0.52216,-2.10614 0.93519,-2.60091 0.93519,-1.12058c0,0.4193 -0.16054,1.34436 -0.35677,2.05571c-0.19622,0.71135 -0.47872,1.82554 -0.62776,2.47602c-0.14906,0.65046 -0.58092,1.79281 -0.9597,2.53848c-0.88904,1.75027 -1.33803,1.87286 -3.82206,1.04346c-1.03005,-0.34395 -2.03915,-0.62535 -2.24244,-0.62535c-0.26703,0 -0.33104,-0.15205 -0.23065,-0.54774c0.1296,-0.51076 0.03711,-0.56593 -1.37039,-0.81732c-0.83015,-0.14826 -2.09101,-0.34345 -2.80198,-0.43376c-1.23227,-0.15651 -1.28646,-0.14095 -1.16104,0.33349c0.1163,0.43994 0.00275,0.5146 -0.97902,0.64355c-1.70304,0.2237 -3.63698,0.85743 -4.26778,1.39846c-0.31274,0.26823 -0.71001,0.89736 -0.88285,1.39808c-0.23465,0.67984 -0.35327,0.80971 -0.46843,0.51285zM132.03791,148.12074c-0.32589,-0.32557 2.41509,-7.92764 4.69963,-13.03438c5.6561,-12.64338 13.28777,-23.59061 23.41013,-33.58058c7.49396,-7.39567 14.14861,-12.46575 22.97278,-17.50273c24.67458,-14.08505 53.19656,-18.40462 81.0275,-12.27203c26.7286,5.88966 50.92495,21.84381 66.86934,44.09209c3.26899,4.56154 7.97099,12.19635 7.2338,11.74575c-0.14686,-0.08979 -0.33643,-0.05214 -0.42129,0.08365c-0.15264,0.24428 -0.74997,-0.53097 -1.65061,-2.14228c-0.49168,-0.87964 -1.8503,-3.03259 -2.54828,-4.03809c-0.28585,-0.41178 -0.34993,-0.69825 -0.19128,-0.85516c0.22083,-0.21845 -0.09727,-0.7394 -3.00427,-4.92012c-0.27442,-0.39465 -0.63178,-0.87363 -0.79412,-1.0644c-0.35547,-0.4177 -1.58554,-1.93275 -2.57028,-3.16576c-0.39455,-0.49402 -0.93257,-1.14087 -1.19558,-1.43744c-0.26303,-0.29657 -0.96245,-1.10158 -1.55427,-1.78895c-1.14984,-1.33547 -1.40919,-1.61505 -3.84621,-4.14618c-1.84628,-1.9176 -4.85218,-4.74153 -6.65059,-6.24777c-0.69897,-0.58542 -1.50152,-1.28776 -1.78344,-1.56077c-0.51324,-0.497 -4.60159,-3.69323 -5.57097,-4.35552c-0.28331,-0.19353 -1.22997,-0.85743 -2.10373,-1.47538c-0.87376,-0.61794 -1.64866,-1.12354 -1.722,-1.12354c-0.07336,0 -0.46026,-0.2721 -0.85982,-0.60465c-0.48887,-0.40691 -0.80539,-0.52657 -0.96785,-0.36587c-0.28974,0.28661 -0.55596,0.15747 -3.15706,-1.53151c-1.05212,-0.68315 -2.11222,-1.54579 -2.35579,-1.91693c-0.63407,-0.96623 -4.13578,-2.76956 -4.97126,-2.56023c-0.39708,0.09947 -0.90789,0.01702 -1.37493,-0.22187c-0.4087,-0.20907 -0.7431,-0.28252 -0.7431,-0.1632c0,0.30553 -2.43781,-0.94495 -2.82015,-1.44659c-0.17352,-0.22766 -0.45963,-0.41393 -0.63579,-0.41393c-0.17616,0 -1.11158,-0.35794 -2.07872,-0.79547c-1.60889,-0.72781 -3.32757,-1.39047 -6.54083,-2.52192c-0.65757,-0.23156 -1.8412,-0.58234 -2.6303,-0.77954c-0.78908,-0.1972 -2.40313,-0.64134 -3.58676,-0.98695c-1.18364,-0.34565 -3.06669,-0.82918 -4.18456,-1.07455c-1.11788,-0.24535 -2.67812,-0.60465 -3.46721,-0.79842c-2.91867,-0.7167 -7.9741,-1.55929 -10.76031,-1.79349c-1.57819,-0.13266 -3.32661,-0.30574 -3.88567,-0.38465c-0.61183,-0.08637 -1.01625,-0.04982 -1.01625,0.09187c0,0.21027 -15.21723,0.62069 -20.56415,0.55462c-0.98637,-0.01219 -2.70801,0.14542 -3.82588,0.35023c-1.11788,0.20482 -2.89332,0.51664 -3.94544,0.69295c-2.12686,0.3564 -6.5009,1.33192 -8.35789,1.86401c-3.37826,0.96798 -6.91936,2.0845 -8.73904,2.75536c-1.11788,0.41218 -2.58893,0.94234 -3.26922,1.17813c-0.68019,0.23578 -1.47662,0.55572 -1.76985,0.71095c-0.45863,0.24281 -0.51243,0.2288 -0.38487,-0.10006c0.20314,-0.52363 -0.17382,-0.48009 -1.47813,0.17078c-0.60961,0.30421 -2.88377,1.42303 -5.05376,2.4862c-6.61687,3.24216 -7.29166,3.64852 -7.3029,4.39809c-0.00602,0.39577 -0.19261,0.74498 -0.47824,0.89516c-0.25758,0.13543 -1.22155,0.73618 -2.14215,1.335c-0.9206,0.59883 -1.85192,1.19653 -2.06959,1.32825c-0.73074,0.44218 -3.89069,2.60163 -4.26013,2.91124c-0.20109,0.16854 -1.57534,1.24132 -3.05377,2.38401c-3.67644,2.84123 -5.57313,4.52251 -9.63286,8.53836c-3.61236,3.5733 -5.52435,5.64557 -7.68597,8.33022c-0.70081,0.87039 -1.43887,1.58884 -1.64011,1.5966c-0.20125,0.00776 -0.79305,0.61133 -1.31515,1.34126c-0.52208,0.72994 -1.21254,1.64835 -1.53435,2.0409c-0.56049,0.68373 -3.92058,5.69335 -4.91148,7.32258c-2.87062,4.72025 -7.06211,13.17535 -8.82967,17.8114c-0.34721,0.91065 -0.83603,2.18793 -1.0863,2.83839c-0.25025,0.65046 -0.59715,1.69778 -0.77086,2.32737c-0.17372,0.62958 -0.38355,1.07707 -0.46629,0.99441z" fill="#d65a91"/><path d="M218.26886,207.68002c-2.12317,-0.2494 -6.42725,-1.15442 -7.87127,-1.65516c-1.73351,-0.60105 -2.27085,-1.04581 -2.2835,-1.89006c-0.00757,-0.50585 -0.00215,-0.50543 2.10606,0.16518c6.47245,2.0589 14.34254,2.42658 20.20284,0.94377c5.03033,-1.27276 9.60489,-4.35505 11.60081,-7.81599c0.94702,-1.64222 0.99423,-1.14466 0.05634,0.59389c-2.60447,4.82811 -7.49683,7.93378 -14.13665,8.97453c-1.37557,0.2156 -2.53681,0.49258 -2.5808,0.61555c-0.07447,0.20886 -5.4562,0.26075 -7.0939,0.06841zM174.51028,207.43834c-3.28477,-0.27742 -7.29907,-1.37501 -8.96693,-2.45166c-0.32879,-0.21224 -0.77471,-0.44878 -0.99095,-0.52563c-1.35709,-0.48232 -5.00545,-3.93804 -6.30172,-5.9689c-0.73271,-1.14791 -1.71696,-3.19319 -2.37548,-4.9362c-0.87513,-2.31642 -0.75357,-2.48975 0.21191,-0.302c1.22247,2.77003 2.21012,4.27321 4.16711,6.3424c2.98181,3.15274 6.49803,5.07364 11.03172,6.02662c2.46482,0.51813 8.89877,0.58724 11.11515,0.11941c5.98416,-1.26305 10.67566,-4.21218 13.72632,-8.62848c1.07819,-1.56085 2.52676,-4.67649 3.10041,-6.6688c0.66699,-2.31606 0.62044,-1.38801 -0.0596,1.18765c-0.68328,2.5879 -1.42275,4.51447 -2.06172,5.37167c-0.26281,0.35248 -0.47786,0.70098 -0.47786,0.77443c0,0.93151 -5.6726,6.74497 -6.58148,6.74497c-0.10762,0 -0.36554,0.15078 -0.57316,0.3351c-0.34634,0.30742 -1.58734,0.84717 -3.90742,1.69939c-0.49474,0.18173 -1.46316,0.37881 -2.15206,0.43794c-0.6889,0.05913 -2.22097,0.217 -3.40457,0.3508c-2.08525,0.23573 -3.51025,0.25944 -5.49971,0.09139zM274.82025,207.43822c-6.12619,-0.33966 -10.79665,-1.42217 -13.30356,-3.08368c-0.74301,-0.49242 -1.57768,-1.0436 -1.85482,-1.22484c-0.91714,-0.59975 -2.69821,-2.95382 -3.68791,-4.87423c-1.3206,-2.56284 -1.52009,-3.55272 -0.23831,-1.18266c0.68641,1.26921 1.61514,2.48477 2.82063,3.69156c3.18744,3.19105 6.84236,4.56177 13.87266,5.20255c5.88158,0.53598 12.35284,-0.06472 19.24899,-1.78685c1.8412,-0.4598 3.37443,-0.83669 3.40744,-0.83754c0.03289,-0.00094 0.05977,0.19276 0.05977,0.43027c0,1.14856 -2.69056,2.18609 -7.77134,2.99663c-1.18364,0.18885 -2.68936,0.44373 -3.34597,0.56638c-0.65663,0.12266 -1.24843,0.13733 -1.31515,0.0326c-0.06671,-0.10472 -1.35872,-0.10195 -2.87109,0.00615c-1.51242,0.10812 -2.96506,0.18302 -3.22809,0.16646c-0.26303,-0.01655 -1.07006,-0.06292 -1.79339,-0.10302zM309.76254,206.91369c-0.92728,-0.11655 -1.40898,-0.31398 -1.7336,-0.71054c-0.67434,-0.82377 -0.58948,-1.27386 0.20804,-1.10335c1.75837,0.37595 6.7393,0.5593 9.56329,0.35211c1.67756,-0.12309 3.17238,-0.26787 3.32183,-0.32176c0.47027,-0.16947 0.05872,0.82075 -0.48309,1.16232c-0.69897,0.44066 -8.68453,0.89677 -10.87676,0.62122zM230.82255,190.48719c0,-0.21801 -0.32081,-0.72842 -0.71291,-1.13429c-1.15982,-1.20052 -2.91365,-1.89708 -8.25412,-3.27812c-4.5992,-1.18943 -7.12117,-2.43723 -9.35047,-4.62682c-1.29076,-1.26769 -1.82313,-1.99554 -2.21239,-3.02478c-0.686,-1.81368 -0.64318,-1.92524 0.18845,-0.49099c0.95175,1.64139 2.94427,3.37887 5.21469,4.54735c1.15336,0.59357 3.80939,1.54556 6.77803,2.42943c5.15394,1.53458 6.68215,2.16453 7.592,3.12956c0.53577,0.56832 1.15007,2.45593 0.88469,2.71847c-0.07031,0.06957 -0.12786,-0.0519 -0.12786,-0.26991zM351.13714,189.14898c0,-0.32524 0.05428,-0.45828 0.12061,-0.29566c0.06633,0.16262 0.06633,0.42871 0,0.59133c-0.06633,0.16262 -0.12061,0.02957 -0.12061,-0.29566zM199.77548,188.20285c0,-0.32524 0.05428,-0.45828 0.12061,-0.29566c0.06633,0.16262 0.06633,0.42871 0,0.59133c-0.06633,0.16262 -0.12061,0.02957 -0.12061,-0.29566zM351.37385,182.36758c-0.03445,-6.00651 -0.33919,-12.14525 -0.72893,-14.68397c-0.18424,-1.20005 0.08494,-1.79022 0.32362,-0.7096c0.56721,2.5678 0.96899,13.9474 0.65349,18.5087c-0.20364,2.94435 -0.21418,2.81214 -0.24817,-3.11513zM200.02416,186.90192c-0.00488,-0.39028 0.04472,-0.57858 0.11023,-0.41843c0.0655,0.16014 0.06948,0.47946 0.00888,0.7096c-0.06062,0.23014 -0.11423,0.09911 -0.1191,-0.29117zM310.75968,185.36788c-1.30377,-0.27438 -1.98385,-0.64378 -1.98385,-1.07753c0,-0.29323 0.32852,-0.31979 2.09228,-0.16907c2.6963,0.23039 5.15203,0.22653 7.78712,-0.01224c2.09519,-0.18984 2.10642,-0.18796 1.83863,0.30699c-0.14819,0.27391 -0.5588,0.61251 -0.91247,0.75246c-0.8246,0.32632 -7.5016,0.47723 -8.82178,0.19938zM185.65317,173.75649c-0.33625,-1.11013 -1.61933,-3.17001 -2.44761,-3.92928c-0.31036,-0.28452 -1.29356,-0.85473 -2.18487,-1.26713c-1.57519,-0.7288 -1.69577,-0.74714 -4.30413,-0.6543c-2.31749,0.08248 -2.84671,0.17982 -3.87921,0.71354c-1.53563,0.79383 -2.49591,1.66917 -3.44951,3.14447c-0.81453,1.26003 -0.78787,0.6974 0.04486,-0.94614c0.87661,-1.73012 1.82056,-2.67589 3.47367,-3.48059c1.51577,-0.73775 1.7294,-0.77663 4.23096,-0.77008c2.23235,0.00586 2.8247,0.09098 3.88112,0.55764c2.19996,0.97183 4.02602,3.38314 4.84764,6.40152c0.35399,1.30041 0.17094,1.49829 -0.21308,0.23037zM222.56103,169.05492c0.17725,-1.03999 0.92146,-1.83904 2.28386,-2.45213c0.86025,-0.38711 1.62748,-0.4925 3.82588,-0.52558c1.51242,-0.02275 2.12002,0.00213 1.3502,0.0552c-1.24085,0.08561 -1.38602,0.14818 -1.2794,0.55145c0.09831,0.37185 -0.03904,0.48042 -0.75241,0.59479c-3.08964,0.49528 -4.61162,1.12954 -5.32252,2.21806c-0.18199,0.27863 -0.20904,0.1654 -0.10556,-0.44179zM236.70199,168.44407c-1.93366,-0.68048 -1.87019,-0.63627 -1.6667,-1.16081c0.1979,-0.51013 1.17675,-0.3632 3.37228,0.50621c1.23157,0.4877 1.46297,0.66071 1.23965,0.92683c-0.38479,0.45864 -1.04052,0.39804 -2.94521,-0.27225zM240.08431,167.60538c0.08456,-0.31984 0.19294,-0.42705 0.25265,-0.24992c0.0575,0.17065 -0.00913,0.42273 -0.14809,0.56018c-0.17744,0.17552 -0.20856,0.08316 -0.10456,-0.31026zM335.31781,122.68305c-0.14077,-0.26019 -0.20214,-0.47307 -0.13638,-0.47307c0.06576,0 0.23474,0.21288 0.37551,0.47307c0.14077,0.26019 0.20214,0.47307 0.13639,0.47307c-0.06575,0 -0.23474,-0.21288 -0.37551,-0.47307zM334.4836,121.353c-0.22603,-0.34124 -0.2928,-0.54821 -0.14835,-0.45988c0.27605,0.16876 0.83277,1.08034 0.6598,1.08034c-0.05525,0 -0.28541,-0.27921 -0.51145,-0.62045zM150.523,112.40923c0.16834,-0.73925 5.55805,-6.85118 9.40283,-10.66267c5.84572,-5.79529 11.55131,-10.39988 18.28128,-14.75374c2.55091,-1.65027 3.00834,-1.87055 3.19581,-1.53915c0.16508,0.29179 0.05051,0.52319 -0.46666,0.94246c-0.377,0.30564 -0.90066,0.62485 -1.16369,0.70932c-0.26303,0.08446 -0.66078,0.31199 -0.8839,0.50558c-0.22311,0.1936 -1.09687,0.79305 -1.94174,1.33208c-2.49521,1.59208 -5.03893,3.293 -5.42392,3.62699c-0.35198,0.30536 -1.5799,1.26732 -3.11259,2.43841c-0.42566,0.32524 -1.07042,0.85743 -1.4328,1.18266c-0.36238,0.32524 -1.22816,1.07031 -1.92392,1.65573c-1.87927,1.58123 -4.88112,4.39597 -6.66278,6.24777c-2.44881,2.54486 -2.69845,2.81427 -3.84526,4.14712c-0.59182,0.68795 -1.34504,1.5468 -1.67383,1.90853c-1.1455,1.26031 -1.91295,2.22819 -1.91295,2.41264c0,0.10209 -0.11549,0.1856 -0.25664,0.1856c-0.14116,0 -0.22187,-0.15278 -0.17933,-0.33952zM299.43368,86.99849c-1.79472,-1.15972 -2.59491,-1.63895 -3.46745,-2.07699c-0.68993,-0.34629 -1.4438,-1.20187 -1.23819,-1.40524c0.14543,-0.14385 6.3964,3.69016 6.3964,3.92314c0,0.48362 -0.43584,0.36993 -1.69073,-0.44094zM289.14037,81.36168c-0.60727,-0.31119 -1.40042,-0.61894 -1.76259,-0.68389c-0.36217,-0.06496 -0.99517,-0.36653 -1.40664,-0.67012c-0.4115,-0.3036 -1.12476,-0.71621 -1.58507,-0.91692c-2.50166,-1.09082 -3.33832,-1.43343 -4.42368,-1.81159c-4.57934,-1.59558 -6.17857,-2.11567 -7.65177,-2.48857c-0.9206,-0.23297 -2.80365,-0.7311 -4.18456,-1.10697c-1.3809,-0.37585 -3.31776,-0.83212 -4.30413,-1.01395c-0.98637,-0.18183 -2.70801,-0.54508 -3.82588,-0.80731c-2.30897,-0.54159 -6.09463,-1.13957 -9.08696,-1.43534c-2.64513,-0.26147 -20.67318,0.10323 -22.80659,0.46136c-1.3059,0.21921 -1.68356,0.2147 -1.83137,-0.02185c-0.14851,-0.23768 -0.68667,-0.21998 -2.65899,0.08747c-1.36003,0.21201 -3.01073,0.45248 -3.66831,0.5344c-0.65757,0.08191 -2.00261,0.34061 -2.98898,0.57489c-0.98637,0.23428 -2.2238,0.49466 -2.74986,0.57858c-3.03656,0.48454 -12.60413,3.43494 -17.09694,5.27232c-0.69066,0.28247 -0.77663,0.25399 -0.60016,-0.19873c0.25744,-0.66042 8.84425,-3.62936 14.90996,-5.15523c23.47014,-5.90411 47.7136,-4.33919 69.92764,4.51352c5.05327,2.01387 9.55516,4.1566 9.44158,4.49365c-0.14895,0.44203 -0.4592,0.40326 -1.64786,-0.20585z" fill="#bc5281"/><path d="M216.95372,206.7268c-1.08523,-0.11306 -5.90885,-1.20497 -6.73786,-1.52523c-0.59995,-0.23178 -1.64864,-1.15025 -1.31333,-1.15025c0.08415,0 1.09616,0.27054 2.2489,0.6012c3.10518,0.89069 5.97627,1.32055 9.96739,1.49233c2.52676,0.10875 3.59634,0.23979 3.66639,0.4492c0.07661,0.22875 -0.70365,0.2871 -3.44784,0.25782c-1.95079,-0.02083 -3.92344,-0.07708 -4.38375,-0.12504zM283.39741,206.23577c0.16803,-0.31056 0.88913,-0.52813 2.81801,-0.85022c1.42571,-0.23805 3.82971,-0.74181 5.34213,-1.11947c1.51242,-0.37765 2.77329,-0.68692 2.80223,-0.68725c0.02875,-0.00024 -0.00749,0.15342 -0.08054,0.34172c-0.18816,0.48506 -2.50835,1.18829 -6.65656,2.01763c-4.25894,0.85145 -4.53535,0.87092 -4.22522,0.2976zM310.17384,206.2458c-0.47924,-0.05021 -1.06893,-0.30728 -1.31043,-0.57128c-0.43859,-0.47938 -0.43695,-0.47976 1.34956,-0.31147c2.0117,0.18952 2.14736,0.23455 2.14736,0.7127c0,0.3443 -0.30021,0.36764 -2.18646,0.17002zM183.71393,205.99087c0,-0.3138 0.54945,-0.75662 0.94452,-0.76123c0.66405,-0.00776 4.17212,-1.54575 5.63648,-2.4713c0.78621,-0.49684 2.01485,-1.39376 2.73026,-1.99318c1.57863,-1.32253 1.38291,-0.89076 -0.31226,0.68888c-2.15595,2.00902 -4.62335,3.47372 -7.19577,4.27179c-1.63062,0.50581 -1.80331,0.53119 -1.80331,0.26499zM194.71335,198.96585c0.16372,-0.19515 0.35148,-0.3548 0.41725,-0.3548c0.06575,0 -0.01439,0.15966 -0.17812,0.3548c-0.16372,0.19514 -0.35148,0.3548 -0.41725,0.3548c-0.06575,0 0.01439,-0.15966 0.17812,-0.3548zM227.16883,69.78105c0.1619,-0.0648 0.4847,-0.06873 0.71736,-0.00876c0.23265,0.05997 0.10019,0.11299 -0.29435,0.1178c-0.39455,0.00482 -0.58491,-0.04425 -0.42299,-0.10904zM228.72487,69.53716c0.22862,-0.0592 0.65904,-0.06134 0.95648,-0.00477c0.29744,0.05657 0.11039,0.10502 -0.41566,0.10764c-0.52605,0.00263 -0.76943,-0.04366 -0.54081,-0.10288zM231.59429,69.30063c0.22862,-0.0592 0.65904,-0.06134 0.95648,-0.00477c0.29744,0.05657 0.11039,0.10502 -0.41566,0.10764c-0.52605,0.00263 -0.76943,-0.04366 -0.54081,-0.10288zM237.57511,69.0508c1.01924,-0.04434 2.68721,-0.04434 3.70633,0c1.01912,0.04434 0.18532,0.08061 -1.85317,0.08061c-2.03849,0 -2.87228,-0.03627 -1.85317,-0.08061z" fill="#b84d7d"/></g><g fill="#ffffff" stroke="none" stroke-width="1"><path d="M170.3569,205.08905c-8.79429,-2.27081 -14.16031,-8.4745 -15.95468,-18.44507c-2.26641,-12.59348 2.66497,-23.93476 12.33274,-28.36502c3.97749,-1.8223 12.99007,-2.32253 17.65815,-0.98015c6.17833,1.77669 11.0121,6.46043 13.63163,13.20895c1.4902,3.83893 2.05426,12.96484 1.0864,17.57652c-1.52045,7.24476 -6.77756,13.80004 -12.87818,16.05774c-3.87061,1.43249 -12.09554,1.92301 -15.87623,0.94682zM180.98808,195.28144c4.25798,-2.17802 5.75198,-6.51672 5.43181,-15.77201c-0.17389,-5.02538 -0.41621,-6.34807 -1.56866,-8.56202c-1.72969,-3.32282 -4.07194,-4.64053 -8.24957,-4.64053c-5.58794,0 -8.33518,3.09953 -9.39996,10.60519c-0.7043,4.96482 0.0331,11.60809 1.62777,14.6648c1.58457,3.03731 4.06883,4.49696 7.65392,4.49696c1.62553,0 3.65253,-0.35657 4.50451,-0.79238z"/><path d="M216.59035,205.49352c-0.75231,-0.13503 -3.03848,-0.65414 -5.08031,-1.15357c-3.7056,-0.9064 -3.71183,-0.91103 -3.38185,-2.55762c0.64039,-3.19532 1.91582,-7.28048 2.35725,-7.55037c0.24561,-0.15015 1.64486,0.08375 3.10949,0.51978c3.87466,1.15352 9.46931,1.54234 12.08837,0.84007c3.55736,-0.95394 5.13243,-2.46703 5.13243,-4.93052c0,-2.78352 -1.52,-3.9158 -7.9081,-5.89084c-9.96739,-3.08203 -12.9028,-5.61221 -13.73828,-11.84249c-0.47747,-3.56053 0.5054,-7.56125 2.52509,-10.27782c2.24159,-3.01508 7.25699,-5.54315 11.9021,-5.99942c4.37466,-0.42962 12.00612,0.16708 15.42645,1.2062c2.40122,0.72952 2.45885,0.79939 2.32691,2.83082c-0.07436,1.14551 -0.51329,3.20881 -0.97542,4.58495l-0.84019,2.50228l-3.67524,-1.03351c-2.50309,-0.70385 -4.92511,-0.97863 -7.59367,-0.86145c-4.79743,0.21067 -6.20368,1.18203 -6.20368,4.28503c0,2.47768 0.729,2.9394 8.97554,5.68648c6.33351,2.10985 8.45544,3.40583 10.37748,6.3379c2.63437,4.01892 2.60567,10.64445 -0.06499,14.91742c-3.35219,5.36362 -9.31173,8.17529 -17.92022,8.45487c-3.0093,0.0977 -6.08698,0.06717 -6.83925,-0.06788z"/><path d="M268.95956,205.26171c-6.70223,-1.04822 -11.25432,-4.28716 -13.85569,-9.85892l-1.58226,-5.59016l-0.17109,-15.25313l-0.1711,-17.45424h12.59196l0.16717,15.83067c0.15379,14.56239 0.25485,16.00287 1.26145,17.98052c1.6545,3.25044 4.00857,4.33871 9.39255,4.34203c2.45766,0.00142 4.58079,-0.11902 4.71828,-0.26785c0.4089,-0.44268 0.91516,-15.16838 0.92568,-26.92453l0.00981,-10.95974h11.87195l0.35325,5.27681c0.19429,2.90225 0.35454,13.23282 0.3561,22.95669l0.00282,17.67989l-5.06093,1.18018c-5.7087,1.33125 -15.79877,1.84661 -20.80971,1.0629z"/><path d="M308.30403,177.53769c-0.17228,-3.34882 -0.45863,-13.42348 -0.63635,-22.38831l-0.32309,-16.29972l1.26627,-0.33545c1.61567,-0.42801 10.18212,-0.43769 11.7823,-0.01331c1.18005,0.31293 1.20741,0.48705 0.95499,6.08126c-0.14291,3.16765 -0.41011,13.24821 -0.59376,22.40156l-0.33393,16.64245h-11.80334z"/><path d="M309.32984,204.83122l-1.6414,-0.3764l-0.15588,-5.87098c-0.10261,-3.86471 0.0605,-6.1288 0.47735,-6.62552c0.47078,-0.56111 2.16454,-0.75473 6.60182,-0.75473c5.16996,0 6.02122,0.12675 6.36172,0.94713c0.53024,1.27727 0.50313,11.84439 -0.03175,12.3728c-0.55939,0.55264 -9.50972,0.78981 -11.61205,0.3077z"/></g></g></g></svg>