<svg version="1.1" xmlns="http://www.w3.org/2000/svg" xmlns:xlink="http://www.w3.org/1999/xlink" width="230.09195" height="202.61568" viewBox="0,0,230.09195,202.61568"><g transform="translate(-125.20781,-79.68176)"><g data-paper-data="{&quot;isPaintingLayer&quot;:true}" fill="#1be22b" fill-rule="nonzero" stroke="#ffffff" stroke-width="3.5" stroke-linecap="butt" stroke-linejoin="miter" stroke-miterlimit="10" stroke-dasharray="" stroke-dashoffset="0" style="mix-blend-mode: normal"><path d="M273.59716,183.7914c0,0 0.45161,65.43112 0.51727,85.79638c0.02568,7.96204 -19.08326,11.41001 -34.18177,10.91281c-20.28921,0.43364 -32.76974,-5.16583 -33.09971,-10.64261c0.06408,-16.77553 0.25395,-86.92778 0.25395,-86.92778c0,0 -30.74582,31.57283 -42.2952,43.10749c-2.14516,2.14242 -7.38125,1.3663 -9.56554,0.64871c-11.00876,-3.61663 -24.99417,-18.5603 -28.26835,-23.8242c-2.47158,-3.35591 -3.04888,-8.91475 0.27013,-12.01934c29.99531,-30.41269 98.18727,-101.36552 107.76842,-109.4111c2.93812,-2.48181 7.27137,-2.89686 10.82542,0.30403c20.23324,20.33546 85.02893,85.59826 107.72798,109.12707c1.95723,2.02877 2.09424,7.06745 0.07955,10.54463c-5.53029,9.25703 -16.36411,21.13024 -28.81745,24.91527c-2.56924,0.83813 -7.36008,0.97411 -9.46528,-1.07713c-8.56185,-8.3424 -41.74942,-41.45425 -41.74942,-41.45425z" data-paper-data="{&quot;index&quot;:null}"/></g></g></svg>