<svg version="1.1" xmlns="http://www.w3.org/2000/svg" xmlns:xlink="http://www.w3.org/1999/xlink" width="229.90137" height="202.28847" viewBox="0,0,229.90137,202.28847"><g transform="translate(-125.47794,-77.72574)"><g data-paper-data="{&quot;isPaintingLayer&quot;:true}" fill="#1ae7f8" fill-rule="nonzero" stroke="#ffffff" stroke-width="3.5" stroke-linecap="butt" stroke-linejoin="miter" stroke-miterlimit="10" stroke-dasharray="" stroke-dashoffset="0" style="mix-blend-mode: normal"><path d="M273.59716,176.20862c0,0 33.18757,-33.11185 41.74942,-41.45425c2.1052,-2.05124 6.89604,-1.91526 9.46528,-1.07713c12.45334,3.78503 23.28716,15.65824 28.81745,24.91527c2.01469,3.47718 1.87768,8.51586 -0.07955,10.54463c-22.69905,23.52881 -87.49474,88.79161 -107.72798,109.12707c-3.55405,3.20089 -7.8873,2.78584 -10.82542,0.30403c-9.58115,-8.04558 -77.77311,-78.99841 -107.76842,-109.4111c-3.31901,-3.10459 -2.74171,-8.66343 -0.27013,-12.01934c3.27418,-5.2639 17.25959,-20.20757 28.26835,-23.8242c2.18429,-0.71759 7.42038,-1.49371 9.56554,0.64871c11.54938,11.53466 42.2952,43.10749 42.2952,43.10749c0,0 -0.18987,-70.15225 -0.25395,-86.92778c0.32997,-5.47678 12.8105,-11.07625 33.09971,-10.64261c15.09851,-0.4972 34.20745,2.95077 34.18177,10.91281c-0.06566,20.36526 -0.51727,85.79638 -0.51727,85.79638z"/></g></g></svg>