<svg version="1.1" xmlns="http://www.w3.org/2000/svg" xmlns:xlink="http://www.w3.org/1999/xlink" width="84.12489" height="95.32362" viewBox="0,0,84.12489,95.32362"><g transform="translate(-198.39599,-132.51206)"><g data-paper-data="{&quot;isPaintingLayer&quot;:true}" fill="#000000" fill-rule="nonzero" stroke="#ffffff" stroke-width="3.5" stroke-linecap="butt" stroke-linejoin="miter" stroke-miterlimit="10" stroke-dasharray="" stroke-dashoffset="0" style="mix-blend-mode: normal"><path d="M241.55032,193.63176c0,0 13.44306,13.44782 16.83007,16.91722c0.8328,0.85306 0.77952,2.79627 0.44058,3.83867c-1.53032,5.05252 -6.34182,9.45133 -10.09428,11.69803c-1.40954,0.81851 -3.45327,0.76492 -4.2769,-0.02814c-9.5521,-9.19746 -36.04787,-35.45286 -44.3038,-43.65145c-1.29966,-1.44026 -1.13302,-3.19798 -0.12755,-4.39064c3.25951,-3.88924 32.01109,-31.57547 44.33465,-43.75339c1.25792,-1.34739 3.51279,-1.11542 4.8749,-0.11427c2.13631,1.32594 8.20289,6.99253 9.67409,11.45624c0.29191,0.88566 0.60875,3.0091 -0.25937,3.88001c-4.67391,4.68891 -17.46772,17.17169 -17.46772,17.17169c0,0 28.45348,-0.10447 35.25756,-0.13703c2.2215,0.13169 4.49751,5.19157 4.32957,13.42098c0.20757,6.12372 -1.18344,13.8756 -4.41283,13.8683c-8.26012,-0.01866 -34.79897,-0.17622 -34.79897,-0.17622z"/></g></g></svg>