<svg xmlns="http://www.w3.org/2000/svg" xmlns:xlink="http://www.w3.org/1999/xlink" version="1.1" width="196.4054" height="137.73803" viewBox="0,0,196.4054,137.73803"><g><g data-paper-data="{&quot;isPaintingLayer&quot;:true}" fill-rule="nonzero" stroke-linecap="butt" stroke-linejoin="miter" stroke-miterlimit="10" stroke-dasharray="" stroke-dashoffset="0" style="mix-blend-mode: normal"><path d="M 86.5695 18.2357 C 86.5365 18.3005 85.4187 20.4535 83.2162 19.3523 C 82.2793 18.8839 81.9313 18.2192 81.843 17.605 C 73.7939 14.9469 64.0366 14.5372 55.7623 15.9289 C 52.7114 16.442 49.2169 16.7408 46.3522 17.9519 C 39.3033 20.932 33.6652 27.8315 30.3538 34.4584 C 28.6033 38.8457 25.2636 45.8821 28.2379 50.3648 C 28.9641 51.4593 30.4853 52.7244 31.5307 53.6373 L 34.0883 53.834 C 35.3898 53.9213 36.4185 55.0047 36.4185 56.3284 C 36.4185 57.7091 35.2992 58.8284 33.9185 58.8284 L 30.5088 58.8284 C 28.3737 59.4183 26.0605 58.8945 23.8788 59.2777 C 19.909 59.9749 16.2682 61.5092 12.819 63.5739 C 6.6953 67.2395 4.9885 73.6672 5.0001 80.4402 C 5.0158 89.6477 6.8344 97.6126 11.1236 105.7598 C 13.9047 110.0174 17.5627 114.0906 22.1634 116.46 C 27.0783 118.9913 32.5484 119.5972 37.9443 119.5879 C 47.2063 119.5719 57.6932 119.0297 64.1343 111.2479 C 65.7074 109.3474 66.1229 108.0661 67.1384 105.8554 L 68.0617 103.0855 C 68.3759 102.0639 69.327 101.3214 70.4516 101.3214 C 71.6283 101.3214 72.6151 102.1343 72.8811 103.2292 L 73.8414 106.8305 L 73.597 106.8957 C 75.1847 109.8896 76.8462 112.8714 79.0967 115.2653 C 86.6502 123.2997 96.8103 129.2854 107.6873 131.321 C 114.8615 132.6636 122.0353 132.7379 129.2957 132.7416 C 137.2984 132.1213 145.0686 130.7725 152.7168 128.2393 C 155.1423 127.4359 158.6851 126.3196 160.4035 124.3232 C 162.3809 122.0259 162.3604 118.2227 162.4518 115.4339 C 162.69 108.1581 159.6544 101.2087 156.9237 94.5832 L 155.5828 92.5717 C 155.3059 92.1694 155.1439 91.6819 155.1439 91.1566 C 155.1439 89.7758 156.2632 88.6566 157.6439 88.6566 C 158.0638 88.6566 158.4595 88.7601 158.8069 88.943 L 161.201 90.14 C 165.0569 90.4948 168.8589 90.5182 172.7626 89.4909 C 176.2083 88.584 179.0144 85.9834 181.4467 83.5461 C 191.6294 73.3425 193.5411 57.3786 189.4035 44.0646 C 188.2565 41.4391 187.2039 38.2421 184.9572 36.2692 C 180.2897 32.1706 172.7755 32.0306 166.9349 31.5417 C 165.2065 31.397 162.7804 31.1153 161.0565 31.2946 C 159.7879 31.4265 155.9545 32.3642 154.7038 32.8213 C 153.6239 33.216 152.7014 34.3178 151.5551 34.2294 C 147.7151 33.9332 147.3061 31.712 145.7391 29.0866 C 142.9541 24.4206 139.5493 20.1718 135.5113 16.5374 C 126.7662 8.6587 116.7646 2.6317 104.7131 5.8909 C 102.0062 6.6229 98.5818 7.3658 96.1878 8.971 C 92.4661 11.4664 90.0333 15.3716 86.5695 18.2357 Z M 84.6426 13.2841 C 87.628 10.494 89.9651 7.0997 93.4263 4.8028 C 96.3138 2.8866 100.1264 1.9442 103.4111 1.0634 C 117.1851 -2.6302 128.8042 3.7828 138.8595 12.8239 C 142.3002 15.9416 145.3266 19.4377 148.0077 23.2417 C 148.7604 24.3096 149.419 25.4424 150.0644 26.5784 C 150.5652 27.4599 150.5929 29.5489 151.5551 29.2294 C 152.0634 29.0606 152.2971 28.4107 152.7903 28.2019 C 154.2484 27.5848 159.0345 26.4764 160.5638 26.3189 C 162.7511 26.0936 165.1623 26.3774 167.3501 26.5589 C 174.3885 27.1429 182.7255 27.6161 188.2965 32.5478 C 191.2091 35.1262 192.5811 38.8694 194.0896 42.321 C 198.7808 57.5017 196.6337 75.4511 184.9875 87.0764 C 180.3239 91.7316 175.4711 94.622 168.8502 95.3493 C 168.3767 95.4013 165.0823 95.4086 162.6183 95.3071 C 165.283 101.7995 167.649 108.5163 167.4493 115.5899 C 167.3317 119.757 166.9766 124.2835 164.1394 127.6463 C 161.879 130.3255 157.5071 131.907 154.2902 132.9853 C 146.2115 135.6932 137.9499 137.0918 129.4876 137.738 C 116.6398 137.7443 103.3852 137.1841 91.708 131.1269 C 87.438 128.9119 83.6731 125.8666 80.0374 122.7761 C 76.2878 119.5889 73.3477 116.7294 70.9339 112.3213 C 70.7113 111.9147 70.4576 111.5125 70.2104 111.1065 C 69.6704 112.1587 69.0443 113.1529 68.001 114.4178 C 60.5688 123.4287 48.7577 124.6053 37.9443 124.5879 C 31.7376 124.5779 25.4968 123.8023 19.857 120.8963 C 14.3947 118.0818 10.1277 113.3461 6.8149 108.2965 C 2.1107 99.3563 -0.0157 90.5602 0.0001 80.4402 C 0.0096 74.3447 1.1848 68.0201 5.2481 63.2043 C 9.3634 58.3268 16.9633 55.4251 23.0127 54.3532 C 23.5912 54.2507 24.1726 54.1641 24.7558 54.0905 C 24.4942 53.7631 24.2455 53.4138 24.0118 53.0368 C 20.0857 46.7046 23.2976 38.6335 25.7927 32.4101 C 29.6746 24.6507 36.151 16.8582 44.379 13.3578 C 47.6312 11.9742 51.4695 11.5704 54.9403 10.9969 C 64.4681 9.4224 75.5633 10.0089 84.6426 13.2841 Z " fill="#bfbfbf" stroke-width="0.5" stroke="none"/><path d="M 96.186 8.9211 C 98.5801 7.3159 102.0113 6.5732 104.7182 5.8412 C 116.7697 2.582 126.7952 8.618 135.5403 16.4967 C 139.5783 20.1311 142.9925 24.3885 145.7774 29.0546 C 147.3444 31.6799 147.757 33.906 151.597 34.2022 C 152.7433 34.2906 153.666 33.1891 154.7459 32.7944 C 155.9967 32.3374 159.8308 31.4008 161.0994 31.2689 C 162.8233 31.0897 165.2504 31.3731 166.9788 31.5178 C 172.8194 32.0067 180.3365 32.1531 185.0039 36.2516 C 187.2507 38.2245 188.3047 41.426 189.4517 44.0515 C 193.5893 57.3654 191.6786 73.3512 181.4959 83.5548 C 179.0636 85.9921 176.2565 88.5974 172.8108 89.5042 C 168.9071 90.5315 165.1043 90.5108 161.2483 90.156 L 158.7595 88.9272 C 158.4121 88.7443 158.1113 88.6724 157.6914 88.6724 C 156.3106 88.6724 155.1905 89.7941 155.1905 91.1748 C 155.1905 91.7001 155.3522 92.1885 155.629 92.5908 L 156.9695 94.6033 C 159.7002 101.2288 162.7305 108.1875 162.4922 115.4633 C 162.4009 118.2521 162.4182 122.0592 160.4408 124.3565 C 158.7224 126.3529 155.1761 127.4728 152.7506 128.2761 C 145.1024 130.8094 137.3203 132.1662 129.3176 132.7866 C 122.0572 132.7829 114.869 132.713 107.6948 131.3704 C 96.8178 129.3349 86.6311 123.3459 79.0777 115.3115 C 76.8272 112.9177 75.1575 109.9315 73.5698 106.9377 L 73.8144 106.8726 L 72.8514 103.2694 C 72.5855 102.1745 71.5958 101.3593 70.4191 101.3593 C 69.2945 101.3593 68.4089 102.0264 68.0948 103.048 L 67.1706 105.8171 C 66.1551 108.0278 65.676 109.3864 64.103 111.2868 C 57.6619 119.0687 47.1681 119.6041 37.9061 119.6201 C 32.5102 119.6294 27.036 119.0178 22.121 116.4865 C 17.5204 114.1171 13.8587 110.0369 11.0776 105.7793 C 6.7883 97.6321 4.9662 89.6539 4.9505 80.4464 C 4.9389 73.6734 6.6454 67.2364 12.7691 63.5708 C 16.2183 61.5061 19.8595 59.9685 23.8292 59.2713 C 26.0109 58.8881 28.3243 59.411 30.4593 58.821 L 33.8691 58.8207 C 35.2498 58.8207 36.3695 57.6991 36.3695 56.3184 C 36.3695 54.9948 35.3412 53.9099 34.0396 53.8226 L 31.4819 53.6262 C 30.4366 52.7133 28.9157 51.4465 28.1895 50.3521 C 25.2153 45.8694 28.5587 38.8231 30.3092 34.4358 C 33.6205 27.8089 39.2676 20.897 46.3165 17.9169 C 49.1812 16.7058 52.6801 16.403 55.731 15.8899 C 64.0053 14.4982 73.7787 14.8993 81.8278 17.5573 C 81.916 18.1716 82.2649 18.836 83.2017 19.3044 C 85.4042 20.4057 86.5253 18.2518 86.5583 18.187 C 90.0221 15.3229 92.4644 11.4165 96.1861 8.9211 Z " data-paper-data="{&quot;noHover&quot;:false,&quot;origItem&quot;:[&quot;Path&quot;,{&quot;applyMatrix&quot;:true,&quot;segments&quot;:[[[223.83983,124.94701],[3.46381,-2.86411],[-0.033,0.06477]],[[220.48648,126.06356],[2.20256,1.10128],[-0.93681,-0.4684]],[[219.11335,124.31628],[0.08823,0.61424],[-8.04909,-2.6581]],[[193.0326,122.64017],[8.27429,-1.39166],[-3.05087,0.51313]],[[183.62251,124.66325],[2.86467,-1.2111],[-7.0489,2.98008]],[[167.62417,141.16974],[3.3113,-6.62695],[-1.75053,4.38724]],[[165.50821,157.07613],[-2.97426,-4.48267],[0.7262,1.09449]],[[168.80098,160.3486],[-1.04535,-0.91289],[0,0]],[[171.35863,160.54534],[0,0],[1.30154,0.08728]],[[173.68886,163.03967],[0,-1.32366],[0,1.38071]],[[171.18886,165.53967],[1.38071,0],[0,0]],[[167.77911,165.53967],[0,0],[-2.13505,0.58999]],[[161.1491,165.98898],[2.18168,-0.38318],[-3.96973,0.69722]],[[150.08935,170.28516],[3.44914,-2.06462],[-6.12377,3.66563]],[[142.27041,187.1515],[-0.01154,-6.77298],[0.01568,9.20752]],[[148.39392,212.47114],[-4.28922,-8.14726],[2.78115,4.25761]],[[159.43373,223.17134],[-4.60068,-2.36944],[4.91494,2.53129]],[[175.21465,226.29922],[-5.3959,0.00931],[9.262,-0.01598]],[[201.40462,217.9592],[-6.44111,7.78185],[1.57306,-1.90049]],[[204.4087,212.56671],[-1.01545,2.21066],[0,0]],[[205.33201,209.7968],[0,0],[0.31417,-1.02156]],[[207.72195,208.03268],[-1.1246,0],[1.17669,0]],[[210.1514,209.94052],[-0.26594,-1.09489],[0,0]],[211.11175,213.54183],[[210.8673,213.60701],[0,0],[1.58771,2.99388]],[[216.36707,221.97663],[-2.25055,-2.39386],[7.55341,8.0344]],[[244.95763,238.03231],[-10.87702,-2.03555],[7.17419,1.34259]],[[266.56605,239.45297],[-7.26038,-0.00376],[8.00268,-0.62037]],[[289.98714,234.9506],[-7.64824,2.53324],[2.4255,-0.80337]],[[297.67384,231.03449],[-1.71845,1.99645],[1.97736,-2.29726]],[[299.72207,222.14525],[-0.09133,2.78878],[0.23827,-7.2758]],[[294.19405,201.29453],[2.73064,6.62548],[0,0]],[[292.85307,199.28306],[0,0],[-0.27681,-0.40239]],[[292.41424,197.86787],[0,0.52532],[0,-1.38071]],[[294.91424,195.36787],[-1.38071,0],[0.41989,0]],[[296.07726,195.6543],[-0.34741,-0.18291],[0,0]],[[298.47127,196.8513],[0,0],[3.85593,0.35485]],[[310.03287,196.20218],[-3.90366,1.02733],[3.44574,-0.90682]],[[318.71702,190.25743],[-2.4323,2.43729],[10.18266,-10.20356]],[[326.6738,150.77597],[4.1376,13.3139],[-1.14703,-2.62558]],[[322.22747,142.98051],[2.24675,1.97289],[-4.66746,-4.09853]],[[304.20523,138.253],[5.8406,0.48891],[-1.72842,-0.14468]],[[298.32678,138.00591],[1.72394,-0.17927],[-1.26854,0.13192]],[[291.97409,139.53265],[1.25077,-0.45708],[-1.07988,0.39463]],[[288.82539,140.94072],[1.14633,0.08842],[-3.83996,-0.29617]],[[283.0094,135.79798],[1.56697,2.62537],[-2.78497,-4.66605]],[[272.78164,123.24869],[4.03793,3.63443],[-8.74514,-7.87863]],[[241.98336,112.60223],[12.05152,-3.25918],[-2.7069,0.73205]],[[233.45807,115.68235],[2.39401,-1.6052],[-3.72169,2.49541]]],&quot;closed&quot;:true}]}" fill="#ffffff" stroke-width="0.5" stroke="none"/></g></g></svg>