<svg version="1.1" xmlns="http://www.w3.org/2000/svg" xmlns:xlink="http://www.w3.org/1999/xlink" width="95.38594" height="84.24842" viewBox="0,0,95.38594,84.24842"><g transform="translate(-192.17156,-137.47695)"><g data-paper-data="{&quot;isPaintingLayer&quot;:true}" fill="#000000" fill-rule="nonzero" stroke="#ffffff" stroke-width="3.5" stroke-linecap="butt" stroke-linejoin="miter" stroke-miterlimit="10" stroke-dasharray="" stroke-dashoffset="0" style="mix-blend-mode: normal"><path d="M226.01876,143.72064c-0.02269,-3.22932 7.72248,-4.65725 13.84712,-4.47886c8.22852,-0.20715 13.29918,2.04473 13.44146,4.26557c-0.00014,6.80416 0.03097,35.25781 0.03097,35.25781c0,0 12.42168,-12.85314 17.08827,-17.54934c0.86676,-0.87226 2.99169,-0.56554 3.87873,-0.27785c4.47067,1.44991 10.1661,7.48943 11.5022,9.61939c1.00763,1.35732 1.25034,3.61106 -0.09104,4.87539c-12.11906,12.38144 -39.66798,41.26462 -43.54165,44.54262c-1.18786,1.01114 -2.94476,1.18615 -4.3912,-0.10663c-8.23783,-8.21677 -34.61918,-34.58714 -43.86205,-44.09531c-0.79698,-0.81984 -0.8603,-2.86329 -0.04852,-4.27672c2.22879,-3.76312 6.60463,-8.59553 11.6498,-10.1499c1.04077,-0.3439 2.98371,-0.40644 3.84073,0.42228c3.4855,3.37044 16.99722,16.74927 16.99722,16.74927c0,0 -0.28401,-26.5378 -0.34203,-34.79774z" data-paper-data="{&quot;index&quot;:null}"/></g></g></svg>