<svg version="1.1" xmlns="http://www.w3.org/2000/svg" xmlns:xlink="http://www.w3.org/1999/xlink" width="35.38202" height="62.04823" viewBox="0,0,35.38202,62.04823"><g transform="translate(-210.51512,-90.81066)"><g data-paper-data="{&quot;isPaintingLayer&quot;:true}" fill="#9966ff" fill-rule="nonzero" stroke="none" stroke-width="0.5" stroke-linecap="butt" stroke-linejoin="miter" stroke-miterlimit="10" stroke-dasharray="" stroke-dashoffset="0" style="mix-blend-mode: normal"><path d="M229.10634,90.90798c2.42535,0.60634 1.81902,3.0317 1.81902,3.0317l-0.46082,1.71179c-5.34897,12.47895 -16.08521,22.90588 -14.4802,37.40242c0.3906,3.52791 1.04169,6.8676 3.16115,9.75161c3.9258,4.76559 7.78369,5.5735 13.64239,4.72337c2.3801,-0.34536 4.64016,-0.67816 5.86147,-3.07881c3.69482,-7.26273 2.42008,-17.74192 -1.05207,-24.66535c0,0 -1.11803,-2.23606 1.11804,-3.3541c2.23607,-1.11804 3.3541,1.11804 3.3541,1.11804c4.09906,8.22079 5.62158,20.81914 0.94794,29.33464c-2.10269,3.83115 -5.46735,4.91448 -9.47187,5.58786c-7.68241,1.29185 -13.28692,-0.57786 -18.35762,-6.60997c-1.38204,-1.97419 -2.44227,-4.21316 -3.09846,-6.53197c-1.15302,-4.0745 -1.93289,-9.05954 -1.40667,-13.27876c1.51369,-12.13668 10.53545,-21.51534 15.18608,-32.36857l0.20584,-0.95488c0,0 0.60634,-2.42536 3.03169,-1.81902z"/></g></g></svg>