<svg version="1.1" xmlns="http://www.w3.org/2000/svg" xmlns:xlink="http://www.w3.org/1999/xlink" width="84.26383" height="95.40975" viewBox="0,0,84.26383,95.40975"><defs><radialGradient cx="240" cy="180" r="46.67633" gradientUnits="userSpaceOnUse" id="color-1"><stop offset="0" stop-color="#ffffff"/><stop offset="1" stop-color="#f7f7f7"/></radialGradient></defs><g transform="translate(-197.46773,-132.39779)"><g data-paper-data="{&quot;isPaintingLayer&quot;:true}" fill="url(#color-1)" fill-rule="nonzero" stroke="#ffffff" stroke-width="3.5" stroke-linecap="butt" stroke-linejoin="miter" stroke-miterlimit="10" stroke-dasharray="" stroke-dashoffset="0" style="mix-blend-mode: normal"><path d="M203.65071,193.80798c-3.22939,0.0073 -4.6204,-7.74458 -4.41283,-13.8683c-0.16794,-8.22941 2.10807,-13.28929 4.32957,-13.42098c6.80408,0.03256 35.25756,0.13703 35.25756,0.13703c0,0 -12.79381,-12.48278 -17.46772,-17.17169c-0.86812,-0.87091 -0.55128,-2.99435 -0.25937,-3.88001c1.4712,-4.46371 7.53778,-10.1303 9.67409,-11.45624c1.36211,-1.00115 3.61698,-1.23312 4.8749,0.11427c12.32356,12.17792 41.07514,39.86415 44.33465,43.75339c1.00547,1.19266 1.17211,2.95038 -0.12755,4.39064c-8.25593,8.19859 -34.7517,34.45399 -44.3038,43.65145c-0.82363,0.79306 -2.86736,0.84665 -4.2769,0.02814c-3.75246,-2.2467 -8.56396,-6.64551 -10.09428,-11.69803c-0.33894,-1.0424 -0.39222,-2.98561 0.44058,-3.83867c3.38701,-3.4694 16.83007,-16.91722 16.83007,-16.91722c0,0 -26.53885,0.15756 -34.79897,0.17622z" data-paper-data="{&quot;index&quot;:null}"/></g></g></svg>