<svg version="1.1" xmlns="http://www.w3.org/2000/svg" xmlns:xlink="http://www.w3.org/1999/xlink" width="202.62318" height="230.10343" viewBox="0,0,202.62318,230.10343"><g transform="translate(-137.70134,-65.2014)"><g data-paper-data="{&quot;isPaintingLayer&quot;:true}" fill="#ff180d" fill-rule="nonzero" stroke="#ffffff" stroke-width="3.5" stroke-linecap="butt" stroke-linejoin="miter" stroke-miterlimit="10" stroke-dasharray="" stroke-dashoffset="0" style="mix-blend-mode: normal"><path d="M150.38084,214.04356c-7.96206,0.01799 -11.39159,-19.09427 -10.87982,-34.19229c-0.41406,-20.28961 5.19745,-32.76474 10.67455,-33.08942c16.77546,0.08027 86.67324,0.33784 86.67324,0.33784c0,0 -31.28889,-30.77627 -42.8124,-42.33678c-2.14035,-2.14722 -1.35918,-7.38256 -0.63948,-9.56616c3.62725,-11.00527 18.58441,-24.97625 23.85147,-28.24535c3.35829,-2.46834 8.91768,-3.04027 12.01907,0.28173c30.38373,30.02465 101.27072,98.28505 109.30705,107.87396c2.47897,2.94051 2.88984,7.27416 -0.31448,10.82512c-20.35498,20.21361 -85.68028,84.94629 -109.23098,107.62262c-2.03066,1.95527 -7.06947,2.08741 -10.5447,0.06937c-9.25169,-5.53922 -21.11444,-16.38449 -24.88745,-28.84148c-0.83565,-2.57005 -0.96701,-7.36102 1.08626,-9.46424c8.35066,-8.5538 42.00304,-41.7094 42.00304,-41.7094c0,0 -65.94006,0.38847 -86.30537,0.43448z" data-paper-data="{&quot;index&quot;:null}"/></g></g></svg>