<svg xmlns="http://www.w3.org/2000/svg" xmlns:xlink="http://www.w3.org/1999/xlink" version="1.1" width="45.98628" height="51.49291" viewBox="0,0,45.98628,51.49291"><defs><radialGradient cx="217.50686" cy="179.95333" r="25.01313" gradientUnits="userSpaceOnUse" id="color-1"><stop offset="0" stop-color="#ffffff"/><stop offset="1" stop-color="#000000"/></radialGradient><radialGradient cx="262.49314" cy="180" r="25.24646" gradientUnits="userSpaceOnUse" id="color-2"><stop offset="0" stop-color="#ffffff"/><stop offset="1" stop-color="#000000"/></radialGradient><radialGradient cx="0.5" cy="25.6998" r="25.0131" gradientUnits="userSpaceOnUse" id="color-1-,0,0,1,-217.00686,-154.25355"><stop offset="0" stop-color="#ffffff"/><stop offset="1" stop-color="#000000"/></radialGradient><radialGradient cx="45.4863" cy="25.7465" r="25.2465" gradientUnits="userSpaceOnUse" id="color-2-,0,0,1,-217.00686,-154.25355"><stop offset="0" stop-color="#ffffff"/><stop offset="1" stop-color="#000000"/></radialGradient></defs><g><g data-paper-data="{&quot;isPaintingLayer&quot;:true}" fill-rule="nonzero" stroke-linejoin="miter" stroke-miterlimit="10" stroke-dasharray="" stroke-dashoffset="0" style="mix-blend-mode: normal"><path d="M217.43,205.40477v-50.66667h45.09524v50.66667z" fill="#000000" stroke="none" stroke-width="NaN" stroke-linecap="butt" transform="matrix(1,0,0,1,-217.00686,-154.25355)"/><path d="M 15.6199 16.1748 C 15.6199 12.9506 18.2336 10.3369 21.4578 10.3369 C 24.682 10.3369 27.2957 12.9506 27.2957 16.1748 C 27.2957 19.399 24.682 22.0127 21.4578 22.0127 C 18.2336 22.0127 15.6199 19.399 15.6199 16.1748 Z " fill="none" stroke="#ffffff" stroke-width="1.5" stroke-linecap="butt"/><path d="M 30.2447 24.327 L 26.3508 20.5954 " fill="none" stroke="#ffffff" stroke-width="2" stroke-linecap="round"/><text transform="matrix(0.16936,0,0,0.14954,10.206590000000006,36.247569999999996)" font-size="40" xml:space="preserve" fill="#ffffff" fill-rule="nonzero" stroke="none" stroke-width="1" stroke-linecap="butt" stroke-linejoin="miter" stroke-miterlimit="10" stroke-dasharray="" stroke-dashoffset="0" font-family="Sans Serif" font-weight="normal" text-anchor="start" style="mix-blend-mode: normal"><tspan x="0" dy="0">SEARCH</tspan></text><path d="M 0.5 0.6867 L 0.5 50.7129 " fill="none" stroke="url(#color-1-,0,0,1,-217.00686,-154.25355)" stroke-width="1" stroke-linecap="round"/><path d="M 45.4863 50.9929 L 45.4863 0.5 " fill="none" stroke="url(#color-2-,0,0,1,-217.00686,-154.25355)" stroke-width="1" stroke-linecap="round"/></g></g></svg>