<svg version="1.1" xmlns="http://www.w3.org/2000/svg" xmlns:xlink="http://www.w3.org/1999/xlink" width="95.34342" height="85.20862" viewBox="0,0,95.34342,85.20862"><g transform="translate(-192.15451,-138.38784)"><g data-paper-data="{&quot;isPaintingLayer&quot;:true}" fill="#000000" fill-rule="nonzero" stroke="#ffffff" stroke-width="3.5" stroke-linecap="butt" stroke-linejoin="miter" stroke-miterlimit="10" stroke-dasharray="" stroke-dashoffset="0" style="mix-blend-mode: normal"><path d="M226.05023,216.28596c0.05802,-8.25994 0.34203,-34.79774 0.34203,-34.79774c0,0 -13.51172,13.37883 -16.99722,16.74927c-0.85702,0.82872 -2.79996,0.76618 -3.84073,0.42228c-5.04517,-1.55437 -9.42101,-6.38678 -11.6498,-10.1499c-0.81178,-1.41343 -0.74846,-3.45688 0.04852,-4.27672c9.24287,-9.50817 35.62422,-35.87854 43.86205,-44.09531c1.44644,-1.29278 3.20334,-1.11777 4.3912,-0.10663c3.87367,3.278 31.42259,32.16118 43.54165,44.54262c1.34138,1.26433 1.09867,3.51807 0.09104,4.87539c-1.3361,2.12996 -7.03153,8.16948 -11.5022,9.61939c-0.88704,0.28769 -3.01197,0.59441 -3.87873,-0.27785c-4.66659,-4.6962 -17.08827,-17.54934 -17.08827,-17.54934c0,0 -0.03111,28.45365 -0.03097,35.25781c-0.14228,2.22084 -5.21294,4.47272 -13.44146,4.26557c-6.12464,0.17839 -13.86981,-1.24954 -13.84712,-4.47886z" data-paper-data="{&quot;index&quot;:null}"/></g></g></svg>