<svg xmlns="http://www.w3.org/2000/svg" xmlns:xlink="http://www.w3.org/1999/xlink" version="1.1" width="198.62299" height="126.75214" viewBox="0,0,198.62299,126.75214"><g><g data-paper-data="{&quot;isPaintingLayer&quot;:true}" fill-rule="nonzero" stroke-linecap="butt" stroke-linejoin="miter" stroke-miterlimit="10" stroke-dasharray="" stroke-dashoffset="0" style="mix-blend-mode: normal"><path d="M 71.605 15.5662 C 70.8317 14.7928 70.735 14.0195 70.8709 13.3941 C 70.4183 12.894 70.2476 12.3248 70.2476 12.3248 C 69.0757 7.547 62.4851 6.9472 58.3636 6.2811 C 53.8616 5.5536 47.2215 3.9794 42.6902 5.4713 C 35.254 7.9197 30.4875 12.5748 25.8028 18.5411 C 24.4424 21.2957 22.37 24.3769 23.3906 27.6523 C 23.9454 29.4329 25.464 30.758 26.6229 32.2191 C 26.6489 32.2519 31.4133 37.9627 31.4279 37.9842 C 32.3654 39.3638 34.3851 40.7139 33.9287 42.3182 C 33.4099 44.1423 30.9092 44.6313 29.2672 45.5802 C 26.6596 47.0869 23.4365 47.8107 20.7874 49.3361 C 13.7982 53.3606 5.4743 60.7197 4.9972 69.1684 C 4.9972 84.2433 14.1481 98.8718 28.6659 103.9934 C 33.7426 105.7844 39.2623 106.3337 44.5942 106.7799 C 49.5853 107.1976 55.2409 107.8163 60.1579 106.7533 C 60.7955 106.2849 61.4623 105.8538 62.0707 105.3482 C 63.2148 104.3976 63.9347 102.2024 65.4104 102.3887 C 67.8665 102.6987 68.8002 106.0073 70.6529 107.6494 C 74.7462 111.2774 78.8974 114.1986 83.9111 116.4966 C 95.6187 121.8627 109.5015 122.3005 122.1343 121.3922 C 127.8429 120.9195 133.1756 119.525 138.563 117.6238 C 141.6355 116.5395 145.5677 114.9928 147.5922 112.173 C 150.6595 107.9009 150.5161 101.7981 150.5149 96.8503 C 150.514 92.6221 150.5771 88.987 148.6432 85.1682 L 147.239 82.8279 C 146.9998 82.4445 146.8616 81.9916 146.8616 81.5064 C 146.8616 80.1257 147.9809 79.0064 149.3616 79.0064 C 149.6318 79.0064 149.8919 79.0492 150.1356 79.1285 L 152.5155 79.8425 L 152.4535 80.0492 C 165.843 80.7603 182.7153 84.4851 190.2789 70.5617 C 190.8532 69.5044 192.1588 65.8029 192.4581 64.1945 C 193.3248 59.5371 193.6267 54.8788 193.6249 50.1573 C 193.4018 45.9809 192.6853 42.4438 191.324 38.4787 C 187.9827 28.7472 182.4134 19.0253 170.6703 20.4123 C 166.525 20.9019 161.219 23.3913 157.8864 25.8122 C 156.365 26.9174 153.8186 29.3806 151.7765 29.1927 C 150.4494 29.0706 149.5841 27.677 148.4879 26.9191 C 144.9899 24.115 142.0279 20.6451 138.3893 18.0098 C 131.6315 13.1153 123.9114 10.7935 115.9145 8.9265 C 106.582 6.7478 96.497 4.9223 86.9922 6.9992 C 81.9511 7.8371 77.0186 8.3566 76.076 14.002 L 75.1406 15.5662 C 75.1406 15.5662 73.3728 17.3339 71.605 15.5662 Z M 73.1699 7.3461 C 73.2624 7.2354 73.3604 7.1234 73.4643 7.0099 C 76.5902 3.5957 81.7659 2.8046 86.0572 2.0875 C 96.2972 -0.0684 106.9913 1.7114 117.0492 4.057 C 124.1473 5.7124 130.9339 7.6128 137.2361 11.4015 C 142.6993 14.6857 146.7772 19.1576 151.6967 23.0846 C 151.8994 23.4633 151.8907 24.1067 152.3049 24.2208 C 152.6213 24.3079 152.6134 23.6266 152.8541 23.4034 C 153.7314 22.59 156.4005 20.6855 157.3958 20.1412 C 162.4099 17.3992 168.342 15.2353 174.0738 15.4414 C 190.7042 16.0395 197.8153 35.9504 198.623 50.0186 C 198.6191 61.0615 197.5708 73.7515 187.816 80.875 C 185.9062 82.2696 183.6785 83.1958 181.4793 84.0654 C 175.0132 86.622 166.3232 86.8337 159.5261 85.9358 C 157.9568 85.7284 156.4001 85.4344 154.8352 85.1964 C 154.5733 85.1566 154.3034 85.1398 154.0306 85.1311 C 155.3841 88.9189 155.5158 92.5859 155.5149 96.8503 C 155.5136 102.9454 155.3749 109.9306 151.6181 115.1381 C 148.3379 119.685 142.7302 121.424 137.727 123.0916 C 132.6853 124.772 127.8357 125.9318 122.52 126.3773 C 109.0045 127.3368 94.3531 126.7541 81.8317 121.0437 C 76.3867 118.5605 71.742 115.3655 67.3248 111.3808 C 66.9606 111.0523 65.7172 110.313 65.1146 109.4051 C 64.2655 110.153 63.1576 110.6335 62.2323 111.3027 C 56.3705 112.708 50.1892 112.2615 44.1856 111.7632 C 38.4146 111.2842 32.4824 110.6435 26.9905 108.7044 C 10.3953 102.8449 0 86.2385 0 69.002 C 0.7726 58.626 9.5819 50.037 18.3074 44.9945 C 20.6839 43.6211 24.5207 41.3996 27.3094 40.965 C 26.4824 40.1944 25.9046 39.1662 25.177 38.293 C 23.6292 36.4354 21.7356 34.265 20.3954 32.2422 C 16.5873 26.4944 18.7707 21.4226 21.5728 15.8753 C 27.2742 8.4845 34.7205 0.9902 44.6708 0.1035 C 49.3169 -0.3105 54.5954 0.6024 59.1556 1.3443 C 64.5474 2.2215 70.0146 3.3037 73.1699 7.3462 Z " fill="#bfbfbf" stroke-width="0.5" stroke="none"/><path d="M 71.5799 15.5229 C 73.3477 17.2907 75.118 15.5215 75.118 15.5215 L 76.0547 13.9568 C 76.9973 8.3114 81.9404 7.7882 86.9815 6.9504 C 96.4863 4.8735 106.5966 6.7 115.9291 8.8787 C 123.926 10.7456 131.6641 13.0775 138.4219 17.9719 C 142.0605 20.6073 145.0301 24.0853 148.5281 26.8894 C 149.6243 27.6473 150.4914 29.0434 151.8184 29.1655 C 153.8605 29.3534 156.4071 26.8905 157.9286 25.7852 C 161.2612 23.3643 166.5679 20.8761 170.7131 20.3865 C 182.4563 18.9996 188.031 28.7341 191.3723 38.4657 C 192.7336 42.4307 193.4513 45.974 193.6744 50.1504 C 193.6762 54.8719 193.3748 59.5375 192.5081 64.195 C 192.2088 65.8034 190.9031 69.5083 190.3287 70.5656 C 182.7651 84.4891 165.8907 80.7753 152.5012 80.0642 L 152.4678 79.8276 L 150.1834 79.1434 C 149.9397 79.0641 149.6795 79.0213 149.4093 79.0213 C 148.0286 79.0213 146.9083 80.1435 146.9083 81.5243 C 146.9083 82.0094 147.0461 82.4633 147.2853 82.8467 L 148.6889 85.1884 C 150.6228 89.0073 150.5558 92.6495 150.5568 96.8777 C 150.5579 101.8254 150.6946 107.9364 147.6274 112.2085 C 145.6028 115.0283 141.6648 116.58 138.5923 117.6643 C 133.2049 119.5656 127.8612 120.966 122.1526 121.4388 C 109.5198 122.347 95.6048 121.9108 83.8972 116.5446 C 78.8835 114.2466 74.7191 111.3193 70.6257 107.6914 C 68.7731 106.0493 67.8338 102.7365 65.3777 102.4265 C 63.9019 102.2402 63.1816 104.435 62.0376 105.3857 C 61.4291 105.8913 60.7621 106.3221 60.1245 106.7904 C 55.2074 107.8534 49.5462 107.2287 44.555 106.811 C 39.2231 106.3648 33.6993 105.8094 28.6226 104.0184 C 14.1048 98.8968 4.9473 84.2464 4.9473 69.1715 C 5.4244 60.7228 13.749 53.3518 20.7381 49.3274 C 23.3872 47.802 26.6112 47.0747 29.2187 45.5679 C 30.8608 44.619 33.3622 44.127 33.8811 42.3029 C 34.3375 40.6986 32.3185 39.3463 31.381 37.9668 C 31.3664 37.9453 26.6029 32.2322 26.577 32.1994 C 25.418 30.7383 23.9002 29.4116 23.3453 27.6311 C 22.3247 24.3557 24.3997 21.2697 25.7601 18.5151 C 30.4448 12.5488 35.219 7.884 42.6552 5.4356 C 47.1865 3.9437 53.8324 5.513 58.3344 6.2405 C 62.456 6.9066 69.051 7.5036 70.2228 12.2814 C 70.2228 12.2814 70.4431 12.9375 70.8956 13.4376 C 70.7597 14.063 70.8568 14.8361 71.6301 15.6094 Z " data-paper-data="{&quot;noHover&quot;:false,&quot;origItem&quot;:[&quot;Path&quot;,{&quot;applyMatrix&quot;:true,&quot;segments&quot;:[[[217.64477,129.00501],[0,0],[-0.77335,-0.77335]],[[216.91062,126.83297],[-0.13591,0.62535],[-0.45254,-0.50013]],[[216.28731,125.76362],[0,0],[-1.17185,-4.77782]],[[204.40329,119.71996],[4.12159,0.66608],[-4.50197,-0.72755]],[[188.72997,118.91011],[4.53126,-1.49192],[-7.43627,2.44839]],[[171.84256,131.97992],[4.68471,-5.96629],[-1.36041,2.75457]],[[169.43035,141.09117],[-1.02064,-3.27545],[0.55482,1.78053]],[[172.66268,145.65792],[-1.15897,-1.46114],[0.02598,0.03275]],[[177.46762,151.42306],[-0.01463,-0.02152],[0.93747,1.37952]],[[179.96848,155.75699],[0.45634,-1.60426],[-0.51889,1.82415]],[[175.30691,159.01897],[1.64206,-0.94888],[-2.60752,1.50677]],[[166.82711,162.77494],[2.64909,-1.52538],[-6.98915,4.02444]],[[151.03697,182.60717],[0.47709,-8.44866],[0,15.07497]],[[174.70563,217.43224],[-14.51775,-5.1216],[5.07673,1.79098]],[[190.63393,220.21873],[-5.33193,-0.44618],[4.99112,0.41766]],[[206.19767,220.19211],[-4.91705,1.06299],[0.6376,-0.46836]],[[208.11048,218.78704],[-0.60848,0.50562],[1.14402,-0.95063]],[[211.45016,215.82752],[-1.47573,-0.18626],[2.45613,0.31001]],[[216.69262,221.08819],[-1.85267,-1.64204],[4.09335,3.62798]],[[229.95081,229.9354],[-5.0137,-2.29802],[11.70759,5.36615]],[[268.17401,234.83105],[-12.63274,0.90825],[5.70863,-0.47274]],[[284.60277,231.06258],[-5.3874,1.90127],[3.07246,-1.0843]],[[293.63195,225.61178],[-2.02455,2.8198],[3.06727,-4.27211]],[[296.55467,210.28911],[0.00114,4.94776],[-0.00097,-4.22818]],[[294.68294,198.60697],[1.93389,3.81885],[0,0]],[[293.27877,196.26668],[0,0],[-0.2392,-0.38339]],[[292.90136,194.94521],[0,0.48518],[0,-1.38071]],[[295.40136,192.44521],[-1.38071,0],[0.27016,0]],[[296.17539,192.56734],[-0.24372,-0.07928],[0,0]],[298.55527,193.2813],[[298.49325,193.48803],[0,0],[13.38954,0.71105]],[[336.31863,184.00049],[-7.56363,13.92343],[0.57435,-1.05729]],[[338.49782,177.63333],[-0.29931,1.60842],[0.86669,-4.65744]],[[339.66467,163.59611],[0.00181,4.72154],[-0.22317,-4.17636]],[[337.36373,151.91756],[1.36136,3.96502],[-3.34124,-9.73156]],[[316.71002,133.85113],[11.74317,-1.38696],[-4.14525,0.48959]],[[303.92619,139.25103],[3.3326,-2.42093],[-1.52142,1.10522]],[[297.81627,142.63157],[2.04211,0.18789],[-1.32708,-0.1221]],[[294.52762,140.35796],[1.09622,0.75787],[-3.49795,-2.80413]],[[284.42902,131.44863],[3.63859,2.63533],[-6.75782,-4.89448]],[[261.9542,122.36536],[7.99697,1.86694],[-9.3325,-2.17873]],[[233.03198,120.43806],[9.5048,-2.07693],[-5.04115,0.83783]],[[222.11577,127.44087],[0.94256,-5.6454],[0,0]],[221.18031,129.00498],[[217.64478,129.00498],[1.76776,1.76777],[0,0]]],&quot;closed&quot;:true,&quot;fillColor&quot;:[0.74902,0.74902,0.74902],&quot;strokeWidth&quot;:0.5}]}" fill="#ffffff" stroke-width="0.25" stroke="none"/></g></g></svg>