<?xml version="1.0" ?>
<!DOCTYPE svg  PUBLIC '-//W3C//DTD SVG 1.1//EN'  'http://www.w3.org/Graphics/SVG/1.1/DTD/svg11.dtd'><svg enable-background="new 0 0 23.332 23.333" id="Capa_1" version="1.1" viewBox="0 0 23.332 23.333" xml:space="preserve" xmlns="http://www.w3.org/2000/svg" xmlns:xlink="http://www.w3.org/1999/xlink" fill="#888888"><path d="M16.043,11.667L22.609,5.1c0.963-0.963,0.963-2.539,0-3.502l-0.875-0.875c-0.963-0.964-2.539-0.964-3.502,0L11.666,7.29  L5.099,0.723c-0.962-0.963-2.538-0.963-3.501,0L0.722,1.598c-0.962,0.963-0.962,2.539,0,3.502l6.566,6.566l-6.566,6.567  c-0.962,0.963-0.962,2.539,0,3.501l0.876,0.875c0.963,0.963,2.539,0.963,3.501,0l6.567-6.565l6.566,6.565  c0.963,0.963,2.539,0.963,3.502,0l0.875-0.875c0.963-0.963,0.963-2.539,0-3.501L16.043,11.667z"/></svg>
