<svg version="1.1" id="Layer_1" xmlns="http://www.w3.org/2000/svg" x="0" y="0"
     viewBox="0 0 158.6 175.4" xml:space="preserve">
    <style>.finger-st0{fill:#fff;stroke:#000;stroke-width:4.9995;stroke-linecap:round;stroke-linejoin:round}</style>
    <path class="finger-st0" d="M122.2 152.7c4.6 7.5-.6 12.3-7.6 15.9-9.9 5-34.3 2.6-42.7-2.5-7.7-4.7-11.1-11.4-7.4-17.5"/>
    <path class="finger-st0" d="M8.1 102.2c-6.9 13.1 20.8 18.7 28.7 19.7 9.5 1.2 23.6 27.3 40.2 32.3 11.2 3.3 36.1 4.7 44.9-1.8 15.1-11.1 22.7-25.5 26.2-43.2 1.2-6.3 2.1-13.4 1.2-19.3-3.9-24.6-18.4-24.6-24-25.5-3.4-10.7-15.6-18.5-32.1-15.3-.1-13.2.3-21.4 1.4-33.9C96.3-5.8 60 .3 60.7 33.9c.4 16.9 7.7 45.3-2 67.6-19.2-16.3-38.1-23-50.6.7z"/>
    <path d="M90.6 48.2c0 12.6 1.5 22.4 8.9 32.1-3.1-8-4.1-24.2-3.9-34.3l-5 2.2zM127.1 62l-4.7 1.8c2.4 6.9 5 14.6 8.8 18.7-1.3-3.2-2.6-14.7-4.1-20.5z"/>
    <path d="M114.7 144.2c6.1-11.4 6.3-14.8 8.4-20.7m-20 20.5c3.4-13.9 3.8-20.8 5.2-30.3m-19 29.6c1.1-9.8.6-14.5.7-20.8" fill="none" stroke="#000" stroke-width="5" stroke-linecap="round" stroke-linejoin="round"/>
</svg>