<svg width="98" height="98" viewBox="0 0 98 98" fill="none" xmlns="http://www.w3.org/2000/svg">
<g clip-path="url(#clip0)">
<path d="M86.1725 45.6208V94.6208C86.1725 96.4871 84.6595 98.0001 82.7932 98.0001H15.2069C13.3406 98.0001 11.8276 96.4871 11.8276 94.6208V45.6208H86.1725Z" fill="#E64C3C"/>
<path d="M11.8276 47.3104H86.1725V52.3793H11.8276V47.3104Z" fill="#C03A2B"/>
<path d="M42.2412 45.6208H55.7584V98.0001H42.2412V45.6208Z" fill="#F29C1F"/>
<path d="M18.5861 60.8275C17.653 60.8275 16.8965 60.071 16.8965 59.1378V55.7585C16.8965 54.8253 17.653 54.0688 18.5861 54.0688C19.5193 54.0688 20.2758 54.8253 20.2758 55.7585V59.1378C20.2758 60.071 19.5193 60.8275 18.5861 60.8275Z" fill="#C03A2B"/>
<path d="M18.5861 92.931C17.653 92.931 16.8965 92.1746 16.8965 91.2414V65.8966C16.8965 64.9634 17.653 64.2069 18.5861 64.2069C19.5193 64.2069 20.2758 64.9634 20.2758 65.8966V91.2414C20.2758 92.1746 19.5193 92.931 18.5861 92.931Z" fill="#C03A2B"/>
<path d="M79.4138 60.8275C78.4806 60.8275 77.7241 60.071 77.7241 59.1378V55.7585C77.7241 54.8253 78.4806 54.0688 79.4138 54.0688C80.3469 54.0688 81.1034 54.8253 81.1034 55.7585V59.1378C81.1034 60.071 80.3469 60.8275 79.4138 60.8275Z" fill="#C03A2B"/>
<path d="M79.4138 92.931C78.4806 92.931 77.7241 92.1746 77.7241 91.2414V65.8966C77.7241 64.9634 78.4806 64.2069 79.4138 64.2069C80.3469 64.2069 81.1034 64.9634 81.1034 65.8966V91.2414C81.1034 92.1746 80.3469 92.931 79.4138 92.931Z" fill="#C03A2B"/>
<path d="M11.8276 30.4138H86.1724C88.0387 30.4138 89.5517 31.9268 89.5517 33.7931V45.6207C89.5517 46.5539 88.7952 47.3104 87.862 47.3104H10.1379C9.20473 47.3104 8.44824 46.5539 8.44824 45.6207V33.7931C8.44824 31.9268 9.96121 30.4138 11.8276 30.4138Z" fill="#E64C3C"/>
<path d="M38.8623 30.4138H59.1382V47.3104H38.8623V30.4138Z" fill="#F0C419"/>
<path d="M46.4741 21.2164L80.2672 49.9405V41.4922H88.7155C88.7155 41.4922 81.9569 26.2853 70.1293 26.2853L46.4741 21.2164Z" fill="#F29C1F"/>
<path d="M28.6892 26.2853C16.8616 26.2853 10.103 41.4922 10.103 41.4922H18.5513V49.9405L52.3444 21.2164L28.6892 26.2853Z" fill="#F29C1F"/>
<path d="M50.7113 30.4136L48.9997 20.2757C48.9997 20.2757 45.7539 1.03895 29.7731 0.0403607C28.8629 -0.00500647 27.958 0.205102 27.1609 0.646947C24.3966 2.1406 18.0114 6.27012 15.5614 13.6083C14.8987 15.5646 15.1696 17.7167 16.2964 19.4477C18.9881 23.5671 25.1249 31.2517 33.5951 31.4899L50.7113 30.4136Z" fill="#F0C419"/>
<path d="M41.0079 24.6517C33.7238 20.2265 31.2992 11.3135 30.6334 8.02039C30.5751 7.7272 30.6761 7.42502 30.8989 7.22578C31.1218 7.02653 31.4333 6.95989 31.7182 7.05053C39.5717 9.26229 42.9595 18.7092 43.7452 21.3062L41.0079 24.6517Z" fill="#F29C1F"/>
<path d="M47.2881 30.4137L48.9997 20.2657C48.9997 20.2657 52.2455 1.01372 68.2263 -6.91768e-05C69.1368 -0.0456473 70.0418 0.165095 70.8385 0.608207C73.6028 2.112 79.988 6.25166 82.438 13.5898C83.1001 15.5484 82.8293 17.7023 81.703 19.436C78.9657 23.6331 72.6583 31.5221 63.9616 31.4968L47.2881 30.4137Z" fill="#F0C419"/>
<path d="M54.2544 21.3062C55.0401 18.7092 58.4278 9.26229 66.2814 7.05053C66.5662 6.95989 66.8778 7.02653 67.1006 7.22578C67.3235 7.42502 67.4244 7.7272 67.3661 8.02039C66.7004 11.3135 64.2757 20.2265 56.9916 24.6517L54.2544 21.3062Z" fill="#F29C1F"/>
<path d="M47.3099 20.2758H50.6892C54.4219 20.2758 57.4478 23.3017 57.4478 27.0344V30.4137H40.5513V27.0344C40.5513 23.3017 43.5772 20.2758 47.3099 20.2758Z" fill="#F3D55B"/>
</g>
<defs>
<clipPath id="clip0">
<rect width="98" height="98" fill="white"/>
</clipPath>
</defs>
</svg>
