<svg width="80" height="80" viewBox="0 0 80 80" fill="none" xmlns="http://www.w3.org/2000/svg">
<path d="M39.9951 0C20.0071 0.00959578 3.7998 16.2169 3.7998 36.2144V53.2758C3.7998 54.1777 4.22202 55.0221 4.9417 55.5691L20.5061 67.3816V77.1213C20.5061 78.7142 21.7919 80 23.3848 80H25.6974C27.2903 80 28.5761 78.7142 28.5761 77.1213V73.1678C28.5761 72.1602 29.3917 71.3446 30.3993 71.3446C31.4069 71.3446 32.2225 72.1602 32.2225 73.1678V77.1213C32.2225 78.7142 33.5083 80 35.1012 80H35.1972C36.7901 80 38.0759 78.7142 38.0759 77.1213V73.1678C38.0759 72.1602 38.8916 71.3446 39.8991 71.3446H40.091C41.0986 71.3446 41.9142 72.1602 41.9142 73.1678V77.1213C41.9142 78.7142 43.2001 80 44.793 80H44.8889C46.4818 80 47.7677 78.7142 47.7677 77.1213V73.1678C47.7677 72.1602 48.5833 71.3446 49.5909 71.3446C50.5984 71.3446 51.4141 72.1602 51.4141 73.1678V77.1213C51.4141 78.7142 52.6999 80 54.2928 80H56.615C58.2079 80 59.4937 78.7142 59.4937 77.1213V67.372L75.0581 55.5596C75.7777 55.0126 76.1999 54.1682 76.1999 53.2662V36.2049C76.1904 16.2169 59.9831 0.00959578 39.9951 0ZM24.8625 53.554C19.3546 53.554 14.8829 49.0824 14.8829 43.5744C14.8829 38.0665 19.3546 33.5948 24.8625 33.5948C30.3705 33.5948 34.8421 38.0665 34.8421 43.5744C34.8421 49.092 30.3705 53.554 24.8625 53.554ZM42.8354 60.8948H37.1643C35.8497 60.8948 35.0149 59.4842 35.6482 58.3327L38.4885 53.1799C39.1411 51.99 40.8587 51.99 41.5112 53.1799L44.3517 58.3327C44.9754 59.4841 44.1405 60.8948 42.8354 60.8948ZM55.1276 53.554C49.6196 53.554 45.148 49.0824 45.148 43.5744C45.148 38.0665 49.6196 33.5948 55.1276 33.5948C60.6355 33.5948 65.1072 38.0665 65.1072 43.5744C65.1072 49.092 60.6452 53.554 55.1276 53.554Z" fill="white"/>
</svg>
