<svg xmlns="http://www.w3.org/2000/svg" width="80" height="80"><path d="M40 0c1.7 0 3 2 3 4.5v7c0 2.5-1.3 4.5-3 4.5s-3-2-3-4.5v-7C37 2 38.3 0 40 0z" opacity=".077" fill="#fff"/><path d="M58.6 4.6c1.5.8 1.7 3.2.6 5.4l-3.3 6.2c-1.1 2.2-3.3 3.3-4.7 2.6-1.5-.8-1.7-3.2-.6-5.4l3.3-6.2C55 5 57.1 3.8 58.6 4.6z" opacity=".154" fill="#fff"/><path d="M72.9 17.3c.9 1.4.1 3.6-2 5l-5.8 4c-2 1.4-4.4 1.4-5.4.1-.9-1.4-.1-3.6 2-5l5.8-4c2.1-1.5 4.5-1.5 5.4-.1z" opacity=".231" fill="#fff"/><path d="M79.7 35.2c.2 1.6-1.6 3.2-4.1 3.5l-7 .8c-2.5.3-4.6-.8-4.8-2.4-.2-1.6 1.6-3.2 4.1-3.5l7-.8c2.5-.4 4.6.7 4.8 2.4z" opacity=".308" fill="#fff"/><path d="M77.4 54.2c-.6 1.5-2.9 2.1-5.3 1.2l-6.6-2.5c-2.3-.9-3.7-2.8-3.1-4.4.6-1.5 2.9-2.1 5.3-1.2l6.6 2.5c2.3.9 3.7 2.8 3.1 4.4z" opacity=".385" fill="#fff"/><path d="M66.5 69.9c-1.2 1.1-3.6.5-5.2-1.4l-4.7-5.3c-1.6-1.9-2-4.2-.7-5.3 1.2-1.1 3.6-.5 5.2 1.4l4.7 5.3c1.6 1.8 2 4.2.7 5.3z" opacity=".462" fill="#fff"/><path d="M49.6 78.8c-1.6.4-3.4-1.2-4-3.6l-1.7-6.8c-.6-2.4.2-4.7 1.8-5.1 1.6-.4 3.4 1.2 4 3.6l1.7 6.8c.6 2.5-.2 4.7-1.8 5.1z" opacity=".538" fill="#fff"/><path d="M30.4 78.8c-1.6-.4-2.4-2.7-1.8-5.1l1.7-6.8c.6-2.4 2.4-4 4-3.6 1.6.4 2.4 2.7 1.8 5.1l-1.7 6.8c-.6 2.4-2.4 4-4 3.6z" opacity=".615" fill="#fff"/><path d="M13.5 69.9c-1.2-1.1-.9-3.5.7-5.3l4.7-5.3c1.6-1.9 4-2.5 5.2-1.4 1.2 1.1.9 3.5-.7 5.3l-4.7 5.3c-1.6 1.9-4 2.5-5.2 1.4z" opacity=".692" fill="#fff"/><path d="M2.6 54.2c-.6-1.5.8-3.5 3.1-4.4l6.6-2.5c2.3-.9 4.7-.3 5.3 1.2.6 1.5-.8 3.5-3.1 4.4l-6.6 2.5c-2.4.9-4.7.3-5.3-1.2z" opacity=".769" fill="#fff"/><path d="M.3 35.2c.2-1.6 2.4-2.7 4.8-2.4l7 .8c2.5.3 4.3 1.9 4.1 3.5-.2 1.6-2.4 2.7-4.8 2.4l-7-.8C1.9 38.4.1 36.8.3 35.2z" opacity=".846" fill="#fff"/><path d="M7.1 17.3c.9-1.4 3.4-1.3 5.4.1l5.8 4c2 1.4 2.9 3.7 2 5-.9 1.4-3.4 1.3-5.4-.1l-5.8-4c-2.1-1.4-3-3.7-2-5z" opacity=".923" fill="#fff"/><path d="M21.4 4.6c1.5-.8 3.6.4 4.7 2.6l3.3 6.2c1.1 2.2.9 4.6-.6 5.4-1.5.8-3.6-.4-4.7-2.6L20.8 10c-1.1-2.2-.9-4.6.6-5.4z" fill="#fff"/></svg>