<svg width="222" height="181" viewBox="0 0 222 181" fill="none" xmlns="http://www.w3.org/2000/svg">
    <path d="M142.612 164.863C146.514 169.401 151.701 171.545 156.039 172.547C160.547 173.588 164.14 173.397 164.426 173.38C166.667 173.242 168.498 171.221 168.678 168.687C168.724 168.051 169.692 153.012 161.735 143.758C160.151 141.915 158.355 140.468 156.49 139.332C159.247 137.805 161.906 136.023 164.445 133.996C166.157 134.815 168.513 135.768 171.249 136.4C175.229 137.32 180.003 137.557 184.73 135.704C195.663 131.418 201.637 117.232 201.885 116.63C202.895 114.188 202.042 111.325 199.951 110.143C199.574 109.929 192.747 106.137 184.762 106.072C186.186 102.492 187.312 98.8174 188.138 95.0889C192.864 93.9293 201.15 90.9521 206.229 83.7202C213.5 73.3657 211.486 58.5423 211.397 57.9162C211.034 55.3695 209 53.6108 206.719 53.8713C206.202 53.9305 195.303 55.2628 187.8 62.7321C186.843 58.8309 185.547 54.9962 183.907 51.2744C186.653 47.0137 190.97 38.7378 190.318 29.5779C189.393 16.5744 178.867 7.66455 178.419 7.29156C176.635 5.80511 174.115 6.10341 172.571 7.98437C172.183 8.45619 163.091 19.6903 164.016 32.6938C164.834 44.1883 173.152 52.4827 175.381 54.511C194.585 95.2539 161.97 144.09 121.782 134.807L119.824 144.566C125.167 145.801 130.517 146.164 135.753 145.716C136.163 151.09 137.656 159.098 142.612 164.863V164.863Z" fill="#FFCF31"/>
    <path d="M79.3879 164.863C75.4857 169.401 70.2995 171.545 65.9612 172.547C61.4531 173.588 57.8602 173.397 57.5739 173.38C55.3332 173.242 53.5016 171.221 53.3216 168.687C53.2763 168.051 52.3078 153.012 60.2647 143.758C61.8491 141.915 63.6452 140.468 65.5103 139.332C62.7535 137.805 60.0936 136.023 57.5548 133.996C55.8431 134.815 53.4872 135.768 50.7512 136.4C46.7711 137.32 41.997 137.557 37.2705 135.704C26.3369 131.418 20.3633 117.232 20.1147 116.63C19.1046 114.188 19.958 111.325 22.0486 110.143C22.4262 109.929 29.2535 106.137 37.2385 106.072C35.8144 102.492 34.6882 98.8174 33.8624 95.0889C29.1359 93.9293 20.85 90.9521 15.7713 83.7202C8.50026 73.3657 10.5137 58.5423 10.6028 57.9161C10.9658 55.3695 13.0004 53.6108 15.2811 53.8713C15.7984 53.9305 26.6975 55.2628 34.1999 62.7321C35.1572 58.8309 36.4533 54.9962 38.0926 51.2744C35.3471 47.0137 31.0303 38.7378 31.6821 29.5779C32.6075 16.5744 43.1334 7.66455 43.581 7.29156C45.3653 5.80511 47.8847 6.10341 49.4293 7.98437C49.8168 8.45619 58.9092 19.6903 57.9839 32.6938C57.1659 44.1883 48.8477 52.4827 46.6186 54.511C27.4155 95.2539 60.0298 144.09 100.218 134.807L102.176 144.566C96.8328 145.801 91.4832 146.164 86.2471 145.716C85.8369 151.09 84.3438 159.098 79.3879 164.863V164.863Z" fill="#F8EC70"/>
</svg>
