<svg xmlns="http://www.w3.org/2000/svg" width="600" height="300"><path fill="#ff4c4c" d="M0 300V0h600v300z" style="mix-blend-mode:normal;fill-rule:nonzero;stroke:none;stroke-width:.999997;stroke-linecap:butt;stroke-linejoin:miter;stroke-miterlimit:10;stroke-dasharray:none;stroke-dashoffset:0"/><path d="M296.78812 97.84329h-5.1296c-4.1847 0-7.69443-3.61098-7.69443-7.8969 0-2.15984.91118-4.1172 2.53105-5.56834l3.30726-3.23976c3.27351-3.23976 3.27351-8.53811 0-11.77787l-7.52569-7.45819c-1.48489-1.48489-3.67848-2.36232-5.90581-2.36232-2.22734 0-4.38717.87743-5.90581 2.36232l-3.17226 3.17227c-1.51864 1.68737-3.54348 2.59855-5.73707 2.59855-4.31968 0-7.93066-3.50975-7.93066-7.66068V54.849c0-4.5559-3.67848-8.47062-8.26813-8.47062h-10.25924c-4.58966 0-8.23438 3.88096-8.23438 8.47062v5.12962c0 4.15094-3.61098 7.66067-7.93067 7.66067-2.15984 0-4.15093-.91118-5.60207-2.4973l-3.27351-3.23976c-1.48489-1.51864-3.67847-2.36232-5.90581-2.36232-2.22733 0-4.38718.87743-5.90581 2.36232l-7.59319 7.42445c-3.23975 3.23975-3.23975 8.53811 0 11.74412l3.17227 3.17227c1.68737 1.51862 2.63231 3.54348 2.63231 5.70332 0 4.31968-3.50975 7.8969-7.69443 7.8969h-5.12962c-4.6234 0-8.50436 3.61098-8.50436 8.20064v10.25924c0 4.55591 3.88096 8.20064 8.50436 8.20064h5.12962c4.18468 0 7.69443 3.61097 7.69443 7.89691 0 2.15984-.94494 4.18468-2.63231 5.70332l-3.17227 3.13852c-3.23975 3.23976-3.23975 8.53811 0 11.74412l7.5257 7.49194c1.48488 1.51864 3.67848 2.36233 5.90581 2.36233s4.38717-.87744 5.90581-2.36233l3.2735-3.23976c1.41739-1.58612 3.44224-2.4973 5.60208-2.4973 4.31968 0 7.93066 3.50973 7.93066 7.66067v5.12962c0 4.55591 3.64473 8.47062 8.26814 8.47062h10.25922c4.58966 0 8.23439-3.88096 8.23439-8.47062v-5.12962c0-4.15094 3.61098-7.66067 7.93066-7.66067 2.15984 0 4.18468.94492 5.73708 2.59855l3.17225 3.17227c1.51864 1.48488 3.67848 2.36232 5.90581 2.36232 2.22734 0 4.38718-.87744 5.90581-2.36232l7.5257-7.49195c3.23975-3.23976 3.23975-8.53811 0-11.77787l-3.30726-3.23976c-1.61988-1.45114-2.53106-3.44224-2.53106-5.56834 0-4.31968 3.50973-7.8969 7.69443-7.8969h5.12961c4.58965 0 7.86317-3.61098 7.86317-8.20064v-10.29299c.0675-4.58966-3.20602-8.20064-7.79568-8.20064zm-29.59654 13.33026c0 14.88265-12.04784 26.99799-26.99797 26.99799-14.95015 0-26.99799-12.11534-26.99799-26.99799 0-14.88264 12.04784-26.99798 26.99799-26.99798 14.95013 0 26.99797 12.11534 26.99797 26.99798zM106.13583 256.60073h-5.1296c-4.1847 0-7.69443-3.61098-7.69443-7.8969 0-2.15984.91118-4.1172 2.53105-5.56834l3.30726-3.23976c3.27351-3.23976 3.27351-8.53811 0-11.77787l-7.52569-7.45819c-1.48489-1.48489-3.67848-2.36232-5.90581-2.36232-2.22734 0-4.38717.87743-5.90581 2.36232l-3.17226 3.17227c-1.51864 1.68737-3.54348 2.59855-5.73707 2.59855-4.31968 0-7.93066-3.50975-7.93066-7.66068v-5.16337c0-4.5559-3.67848-8.47062-8.26813-8.47062H44.44544c-4.58966 0-8.23438 3.88096-8.23438 8.47062v5.12962c0 4.15094-3.61098 7.66067-7.93067 7.66067-2.15984 0-4.15093-.91118-5.60207-2.4973l-3.27351-3.23976c-1.48489-1.51864-3.67847-2.36232-5.90581-2.36232-2.22733 0-4.3871795.87743-5.9058095 2.36232L0 228.08412c-3.23975 3.23975-3.23975 8.53811 0 11.74412l3.17227 3.17227c1.68737 1.51862 2.63231 3.54348 2.63231 5.70332 0 4.31968-3.50975 7.8969-7.69443 7.8969h-5.12962c-4.6234 0-8.50436 3.61098-8.50436 8.20064v10.25924c0 4.55591 3.88096 8.20064 8.50436 8.20064h5.12962c4.18468 0 7.69443 3.61097 7.69443 7.89691 0 2.15984-.94494 4.18468-2.63231 5.70332L0 300c-3.23975 3.23976-3.23975 8.53811 0 11.74412l7.5257005 7.49194c1.48488 1.51864 3.6784805 2.36233 5.9058095 2.36233 2.22733 0 4.38717-.87744 5.90581-2.36233l3.2735-3.23976c1.41739-1.58612 3.44224-2.4973 5.60208-2.4973 4.31968 0 7.93066 3.50973 7.93066 7.66067v5.12962c0 4.55591 3.64473 8.47062 8.26814 8.47062h10.25922c4.58966 0 8.23439-3.88096 8.23439-8.47062v-5.12962c0-4.15094 3.61098-7.66067 7.93066-7.66067 2.15984 0 4.18468.94492 5.73708 2.59855l3.17225 3.17227c1.51864 1.48488 3.67848 2.36232 5.90581 2.36232 2.22734 0 4.38718-.87744 5.90581-2.36232l7.5257-7.49195c3.23975-3.23976 3.23975-8.53811 0-11.77787l-3.30726-3.23976c-1.61988-1.45114-2.53106-3.44224-2.53106-5.56834 0-4.31968 3.50973-7.8969 7.69443-7.8969h5.12961c4.58965 0 7.86317-3.61098 7.86317-8.20064v-10.29299c.0675-4.58966-3.20602-8.20064-7.79568-8.20064zm-29.59654 13.33026c0 14.88265-12.04784 26.99799-26.99797 26.99799-14.95015 0-26.99799-12.11534-26.99799-26.99799 0-14.88264 12.04784-26.99798 26.99799-26.99798 14.95013 0 26.99797 12.11534 26.99797 26.99798z" style="fill:#ff6868;fill-opacity:1;stroke-width:.337475"/><path fill="#ff6868" d="M441.17268 318.45109V198.49286h38.30116v119.95823zm-54.17718-.56443v-85.71762h38.30118v85.71762zm155.83546.8093V132.83372h38.30115v185.86224zm-50.00001.15723v-86.43926h38.30115v86.43926z" style="mix-blend-mode:normal;fill-rule:nonzero;stroke:none;stroke-width:1.05656;stroke-linecap:butt;stroke-linejoin:miter;stroke-miterlimit:10;stroke-dasharray:none;stroke-dashoffset:0"/><g fill="#fff" style="mix-blend-mode:normal;fill-rule:nonzero;stroke:none;stroke-width:1;stroke-linecap:butt;stroke-linejoin:miter;stroke-miterlimit:10;stroke-dasharray:none;stroke-dashoffset:0"><path d="M213.016025 36.545388h1.41806c1.41807 0 4.05423.163619 10.25374.654494 22.52547 1.745314 34.74269 8.926562 39.30596 23.107258 1.52715 4.763253 2.218 9.490153 2.39981 16.507783.0727 3.1452.16362 4.03604.47269 5.05415.70903 2.34525 2.90886 5.70863 7.14489 11.03547 5.10868 6.3995 10.96277 12.76263 23.34361 25.41616l6.79945 6.96308-11.45363 11.47182-11.47181 11.47181-6.52676-6.36313c-3.58153-3.49063-7.36306-7.16307-8.43569-8.16298-10.94459-10.30827-18.58034-16.27143-23.2527-18.18037-1.09082-.45451-1.49078-.50904-4.81779-.63631-5.83591-.23636-10.07192-.79994-14.3625-1.89076-9.89012-2.54526-18.03493-7.63575-23.96173-14.9988-3.72697-4.63599-7.29033-11.19911-9.59924-17.72586l-.52722-1.54533.63631-1.27262c.34543-.69085.70904-1.27262.79994-1.27262.0909 0 6.89036 3.83604 15.10789 8.54476 8.21753 4.69054 15.10789 8.54478 15.28969 8.54478.19999 0 1.07264-.45451 1.96348-.99993 5.745-3.54517 10.30827-8.47205 13.18076-14.21705 2.21801-4.43601 3.52699-9.87193 3.85424-15.88964l.12726-2.290728-.52722-.363614c-.29089-.199985-7.10852-4.108764-15.14425-8.690221-8.03572-4.599629-14.63521-8.435697-14.68975-8.562948-.0363-.10909.54541-1.454433 1.29081-2.963395z"/><path d="M394.547025 44.181135c.10909 0 2.07256 1.872576 4.36329 4.181487 4.01786 4.017869 4.16331 4.19966 3.92696 4.581457-.32725.527221-19.65299 28.179584-19.83479 28.379554-.0727.0909-2.41799.72722-5.19959 1.41807-2.79979.70903-5.39958 1.36353-5.79954 1.45443-.63631.16363-5.745 5.21776-42.85113 42.30572-23.17997 23.1618-42.14211 42.25118-42.14211 42.39663 0 .16363 1.47262 2.65435 3.29065 5.54503 1.81804 2.90886 3.38155 5.45411 3.49064 5.69046.18181.38179-.0182.63631-2.61797 3.2361-2.54526 2.54525-2.85432 2.79978-3.4361 2.79978-1.36353 0-4.30875.56359-6.14497 1.18172-2.12711.72722-4.30874 1.83621-5.96316 3.0543-6.87218 5.05414-12.27175 14.4534-13.39893 23.27088l-.21816 1.7635-23.9981 24.01627-23.99808 23.99809-.72721-.0727c-7.18125-.89084-13.36258-3.92696-19.03485-9.38107-6.01771-5.76318-9.50835-12.5081-10.45373-20.10749l-.0727-.72722 23.99809-23.99809 24.01626-23.99808 1.7635-.21817c8.69022-1.109 18.18037-6.50857 23.10725-13.18077 1.30899-1.78168 2.52707-4.09058 3.19975-6.12678.63632-1.90894 1.1999-4.83598 1.1999-6.19951 0-.56358.25453-.89083 2.76342-3.39973 1.52715-1.52714 2.85432-2.7816 2.96341-2.7816.10909 0 2.6907 1.54533 5.72682 3.45427 3.03612 1.89076 5.65409 3.45426 5.81772 3.45426.14544 0 19.23483-18.96212 42.39662-42.1421 37.08795-37.10614 42.14209-42.21482 42.30572-42.85113.0909-.39997.72722-2.89068 1.38171-5.54501.6545-2.65433 1.25445-4.96324 1.32717-5.12686.0727-.18181 6.54494-4.817799 14.39886-10.326457 7.85392-5.490474 14.36249-9.999198 14.45339-9.999198z"/><path d="M321.880075 143.082363c.0364 0 3.69063 3.54517 8.09026 7.87211 8.81748 8.63568 11.23548 10.96276 15.1988 14.56247 8.12663 7.34487 13.83527 11.58089 17.61679 13.07168 1.32717.50906 1.59986.54541 5.03595.69086 5.83591.23635 10.09011.79994 14.3625 1.89076 9.94466 2.56343 18.03492 7.61756 23.96172 14.9988 3.74517 4.65418 7.29033 11.1991 9.59923 17.72587l.52723 1.54533-.63631 1.27262c-.34544.69085-.70903 1.27262-.79994 1.27262-.0909 0-6.89035-3.83607-15.10788-8.54478-8.21753-4.69054-15.10789-8.54476-15.30787-8.54476-.18182 0-1.10901.47269-2.0362 1.05445-10.6537 6.70856-16.2169 16.56232-16.94411 30.05216l-.12727 2.29072.52724.36361c.29088.19999 7.0358 4.07239 14.98062 8.59931 7.94481 4.52691 14.58067 8.34479 14.7261 8.47205.23635.21817.0909.59996-1.09082 2.98158l-1.34535 2.72707h-2.19981c-11.43545-.0182-23.30724-1.85439-30.61575-4.76327-7.83574-3.10884-13.58074-8.21753-16.72595-14.88972-2.47254-5.23595-3.72697-11.70816-3.94514-20.43473-.10909-4.25421-.25453-5.0178-1.34535-7.16308-3.36336-6.70855-12.63535-17.25317-34.27-39.06962l-5.0905-5.12685 11.45362-11.45363c6.29041-6.30859 11.47182-11.45363 11.50818-11.45363z"/></g><path d="M525.05767 15.504249h-5.1296c-4.1847 0-7.69443-3.61098-7.69443-7.8969025 0-2.159838.91118-4.1172005 2.53105-5.5683434l3.30726-3.2397516c3.27351-3.239762 3.27351-8.5381137 0-11.7778755l-7.52569-7.45819c-1.48489-1.484885-3.67848-2.362324-5.90581-2.362324-2.22734 0-4.38717.877439-5.90581 2.362324l-3.17226 3.172267c-1.51864 1.687371-3.54348 2.598552-5.73707 2.598552-4.31968 0-7.93066-3.509744-7.93066-7.660676v-5.163371c0-4.555904-3.67848-8.470619-8.26813-8.470619h-10.25924c-4.58966 0-8.23438 3.880962-8.23438 8.470619v5.129618c0 4.150943-3.61098 7.660676-7.93067 7.660676-2.15984 0-4.15093-.911181-5.60207-2.497304l-3.27351-3.239762c-1.48489-1.518638-3.67847-2.362324-5.90581-2.362324-2.22733 0-4.38718.877439-5.90581 2.362324l-7.59319 7.424447c-3.23975 3.2397519-3.23975 8.5381142 0 11.7441233l3.17227 3.1722667c1.68737 1.5186277 2.63231 3.5434855 2.63231 5.7033235 0 4.3196755-3.50975 7.8969025-7.69443 7.8969025h-5.12962c-4.6234 0-8.50436 3.610981-8.50436 8.200638v10.259237c0 4.555915 3.88096 8.200638 8.50436 8.200638h5.12962c4.18468 0 7.69443 3.61098 7.69443 7.896914 0 2.159837-.94494 4.184685-2.63231 5.703323l-3.17227 3.138514c-3.23975 3.239762-3.23975 8.538113 0 11.744122l7.5257 7.491943c1.48488 1.518638 3.67848 2.362324 5.90581 2.362324s4.38717-.877438 5.90581-2.362324l3.2735-3.239762c1.41739-1.586123 3.44224-2.497304 5.60208-2.497304 4.31968 0 7.93066 3.509733 7.93066 7.660675v5.12962c0 4.555907 3.64473 8.47062 8.26814 8.47062h10.25922c4.58966 0 8.23439-3.880961 8.23439-8.47062v-5.12962c0-4.150942 3.61098-7.660675 7.93066-7.660675 2.15984 0 4.18468.944924 5.73708 2.598552l3.17225 3.172268c1.51864 1.484885 3.67848 2.362323 5.90581 2.362323 2.22734 0 4.38718-.877438 5.90581-2.362323l7.5257-7.491944c3.23975-3.239762 3.23975-8.538112 0-11.777874l-3.30726-3.239753c-1.61988-1.451143-2.53106-3.442248-2.53106-5.568343 0-4.319676 3.50973-7.896903 7.69443-7.896903h5.12961c4.58965 0 7.86317-3.610981 7.86317-8.200637V23.704887c.0675-4.589657-3.20602-8.200637-7.79568-8.200638zm-29.59654 13.330256c0 14.882648-12.04784 26.997989-26.99797 26.997989-14.95015 0-26.99799-12.115341-26.99799-26.997989 0-14.882636 12.04784-26.9979772 26.99799-26.9979772 14.95013 0 26.99797 12.1153412 26.99797 26.9979772zM140.5504 50.227221h-5.1296c-4.1847 0-7.69443-3.61098-7.69443-7.896903 0-2.159838.91118-4.117201 2.53105-5.568343l3.30726-3.239752c3.27351-3.239762 3.27351-8.538114 0-11.777876l-7.52569-7.458189c-1.48489-1.484885-3.67848-2.362324-5.90581-2.362324-2.22734 0-4.38717.877439-5.90581 2.362324l-3.17226 3.172267c-1.51864 1.687371-3.54348 2.598551-5.73707 2.598551-4.31968 0-7.930662-3.509743-7.930662-7.660675V7.2329305c0-4.5559037-3.67848-8.4706187-8.268128-8.4706187H78.86001c-4.58966 0-8.23438 3.880962-8.23438 8.4706187v5.1296175c0 4.150943-3.61098 7.660675-7.93067 7.660675-2.15984 0-4.15093-.91118-5.60207-2.497303l-3.27351-3.239762c-1.48489-1.518637-3.67847-2.362324-5.90581-2.362324-2.22733 0-4.38718.877439-5.90581 2.362324l-7.59319 7.424447c-3.23975 3.239751-3.23975 8.538114 0 11.744124l3.17227 3.172266c1.68737 1.518628 2.63231 3.543486 2.63231 5.703324 0 4.319676-3.50975 7.896903-7.69443 7.896903H27.3951c-4.6234 0-8.50436 3.610981-8.50436 8.200638v10.259237c0 4.555915 3.88096 8.200638 8.50436 8.200638h5.12962c4.18468 0 7.69443 3.61098 7.69443 7.896914 0 2.159836-.94494 4.184685-2.63231 5.703322l-3.17227 3.138516c-3.23975 3.23976-3.23975 8.538113 0 11.744123l7.5257 7.49194c1.48488 1.51864 3.67848 2.36233 5.90581 2.36233s4.38717-.87744 5.90581-2.36233l3.2735-3.23976c1.41739-1.58612 3.44224-2.4973 5.60208-2.4973 4.31968 0 7.93066 3.50973 7.93066 7.66067v5.12962c0 4.55591 3.64473 8.47062 8.26814 8.47062h10.25922c4.589658 0 8.234388-3.88096 8.234388-8.47062v-5.12962c0-4.15094 3.610982-7.66067 7.930662-7.66067 2.15984 0 4.18468.94492 5.73708 2.59855l3.17225 3.17227c1.51864 1.48488 3.67848 2.36232 5.90581 2.36232 2.22734 0 4.38718-.87744 5.90581-2.36232l7.5257-7.49195c3.23975-3.23976 3.23975-8.538113 0-11.777873l-3.30726-3.239754c-1.61988-1.451143-2.53106-3.442248-2.53106-5.568343 0-4.319676 3.50973-7.896903 7.69443-7.896903h5.12961c4.58965 0 7.86317-3.61098 7.86317-8.200638v-10.29299c.0675-4.589657-3.20602-8.200638-7.79568-8.200638zm-29.59654 13.330256c0 14.882648-12.047842 26.997989-26.99797 26.997989-14.95015 0-26.99799-12.115341-26.99799-26.997989 0-14.882636 12.04784-26.997978 26.99799-26.997978 14.950128 0 26.99797 12.115342 26.99797 26.997978z" style="fill:#ff6868;fill-opacity:1;stroke-width:.337475"/></svg>