<svg xmlns="http://www.w3.org/2000/svg" width="600" height="300" viewBox="0 0 158.75 79.375"><path fill="red" d="M0 79.375V0h158.75v79.375z" style="mix-blend-mode:normal;fill:#ff4c4c;fill-opacity:1;fill-rule:nonzero;stroke:none;stroke-width:.898027;stroke-linecap:butt;stroke-linejoin:miter;stroke-miterlimit:10;stroke-dasharray:none;stroke-dashoffset:0"/><path fill="#ff4040" d="M.20923618 39.687502c0-43.7220435 35.44371882-79.165766 79.16576582-79.165766 43.722038 0 79.165768 35.4437225 79.165768 79.165766 0 43.722035-35.44373 79.165768-79.165768 79.165768-43.722046 0-79.16576582-35.443733-79.16576582-79.165768z" style="mix-blend-mode:normal;fill:#ff6161;fill-opacity:1;fill-rule:nonzero;stroke:none;stroke-width:.936949;stroke-linecap:butt;stroke-linejoin:miter;stroke-miterlimit:10;stroke-dasharray:none;stroke-dashoffset:0"/><path fill="red" d="M10.001328 39.687502c0-38.3140187 31.059649-69.373671 69.373672-69.373671 38.31402 0 69.37367 31.0596523 69.37367 69.373671 0 38.31401-31.05965 69.373668-69.37367 69.373668S10.001331 78.001512 10.001331 39.687504z" style="mix-blend-mode:normal;fill:#ff4c4c;fill-opacity:1;fill-rule:nonzero;stroke:none;stroke-width:.936949;stroke-linecap:butt;stroke-linejoin:miter;stroke-miterlimit:10;stroke-dasharray:none;stroke-dashoffset:0"/><path fill="#ff4040" d="M19.917383 39.687502c0-32.8375404 26.620087-59.457626 59.457626-59.457626 32.837541 0 59.457621 26.6200856 59.457621 59.457626 0 32.837532-26.62009 59.457627-59.457621 59.457627-32.837539 0-59.457624-26.620095-59.457626-59.457627z" style="mix-blend-mode:normal;fill:#ff6161;fill-opacity:1;fill-rule:nonzero;stroke:none;stroke-width:.936949;stroke-linecap:butt;stroke-linejoin:miter;stroke-miterlimit:10;stroke-dasharray:none;stroke-dashoffset:0"/><path fill="red" d="M29.95738 39.687502c0-27.292601 22.125025-49.4176273 49.417629-49.4176273 27.292601 0 49.417631 22.1250263 49.417631 49.4176273s-22.12503 49.417632-49.417631 49.417632c-27.292599 0-49.417624-22.125031-49.417624-49.417632z" style="mix-blend-mode:normal;fill:#ff4c4c;fill-opacity:1;fill-rule:nonzero;stroke:none;stroke-width:.936949;stroke-linecap:butt;stroke-linejoin:miter;stroke-miterlimit:10;stroke-dasharray:none;stroke-dashoffset:0"/><path fill="#ff4040" d="M39.687495 39.687502C39.687495 17.768699 57.456198 0 79.375 0c21.9188 0 39.68751 17.768699 39.68751 39.687502 0 21.918804-17.76871 39.687505-39.687501 39.687505-21.918809 0-39.687508-17.7687-39.687508-39.687503z" style="mix-blend-mode:normal;fill:#ff6161;fill-opacity:1;fill-rule:nonzero;stroke:none;stroke-width:.936949;stroke-linecap:butt;stroke-linejoin:miter;stroke-miterlimit:10;stroke-dasharray:none;stroke-dashoffset:0"/><path fill="red" d="M49.789468 39.687502c0-16.339636 13.245894-29.585531 29.585532-29.585531 16.339634 0 29.58554 13.245895 29.58554 29.585531 0 16.339638-13.245895 29.585532-29.585531 29.585532-16.339641 0-29.585536-13.245894-29.585536-29.585532z" style="mix-blend-mode:normal;fill:#ff4c4c;fill-opacity:1;fill-rule:nonzero;stroke:none;stroke-width:.936949;stroke-linecap:butt;stroke-linejoin:miter;stroke-miterlimit:10;stroke-dasharray:none;stroke-dashoffset:0"/><path fill="#ff4040" d="M59.51959 39.687502c0-10.965848 8.889571-19.855417 19.85541-19.855417 10.965846 0 19.855417 8.889569 19.855417 19.855417 0 10.965839-8.889571 19.855407-19.855408 19.855407-10.965848 0-19.855416-8.889568-19.855416-19.855407z" style="mix-blend-mode:normal;fill:#ff6161;fill-opacity:1;fill-rule:nonzero;stroke:none;stroke-width:.936949;stroke-linecap:butt;stroke-linejoin:miter;stroke-miterlimit:10;stroke-dasharray:none;stroke-dashoffset:0"/><path fill="red" d="M69.476944 39.687502c0-5.466545 4.431509-9.898053 9.898045-9.898053 5.466538 0 9.898055 4.431508 9.898055 9.898053 0 5.466538-4.431517 9.898045-9.898055 9.898045-5.466536 0-9.898045-4.431507-9.898045-9.898045z" style="mix-blend-mode:normal;fill:#ff4c4c;fill-opacity:1;fill-rule:nonzero;stroke:none;stroke-width:.936949;stroke-linecap:butt;stroke-linejoin:miter;stroke-miterlimit:10;stroke-dasharray:none;stroke-dashoffset:0"/><path fill="#fff" d="M101.95412 12.804002c4.42136 2.390467.64231 7.559484 1.20892 11.281328.43027 2.826279 1.80591 8.659678-4.29586 8.71344-5.638251.04966-5.223352-3.343492-5.158814-7.284732v-3.525721l-9.465849.708089.172107 34.406492 3.973191.21144c2.517666.0787 3.471855 1.118417 3.904361 2.17837 1.685244 4.130194.27045 5.123847-1.893171 7.572686-.226201.270459-2.941911.244273-11.162328.392965-10.759916.194654-10.238279.591721-12.519498-1.533795-1.148184-1.965926-1.035516-3.706018.17908-5.481172 1.56493-1.82186 2.857367-1.884149 4.725953-2.257869l2.779517-.33478.311433-34.81013-6.438828.116781c-2.296799 0-2.880725.15572-2.880725.15572s.911567 7.462933.965433 8.066048c.428213 4.095312-1.043293 5.870465-3.16881 6.306465-4.445668.762996-5.325459-.942074-6.968255-10.191562-1.278664-7.199312-2.672521-9.837471-.36593-12.402707 2.214494-2.462818 9.354079-1.292109 19.643469-1.568331 10.382024-.278714 11.439868-.185825 21.613264-1.610859 0 0 1.244239-.307339 2.720123-.06324 1.604507.265316 2.121207.955135 2.121207.955135z" style="mix-blend-mode:normal;fill-rule:nonzero;stroke:none;stroke-width:.936949;stroke-linecap:butt;stroke-linejoin:miter;stroke-miterlimit:10;stroke-dasharray:none;stroke-dashoffset:0"/></svg>