<svg xmlns="http://www.w3.org/2000/svg" width="600" height="300"><path fill="#0fbd8c" d="M0 0h600v300H0Z" style="stroke-width:.898027"/><path fill="#ffd641" d="M-19.344061 186C-19.344061 9.631143 123.63114-133.34406 300-133.34406c176.36885 0 319.34406 142.975203 319.34406 319.34406 0 176.36885-142.97521 319.34406-319.34406 319.34406-176.36886 0-319.344061-142.97521-319.344061-319.34406Z" style="fill:#0eaa7e;fill-opacity:1;fill-rule:nonzero;stroke-linecap:butt;stroke-linejoin:miter;stroke-miterlimit:10;stroke-dasharray:none;stroke-dashoffset:0" transform="matrix(.93943 0 0 .93943 18.172307 -24.73317)"/><path fill="#ffc800" d="M20.155927 186C20.155927 31.446397 145.44638-93.844074 300-93.844074c154.5536 0 279.84407 125.29046 279.84407 279.844074 0 154.5536-125.29046 279.84407-279.84407 279.84407S20.155937 340.55361 20.155937 186Z" style="fill:#0fbd8c;fill-opacity:1;fill-rule:nonzero;stroke-linecap:butt;stroke-linejoin:miter;stroke-miterlimit:10;stroke-dasharray:none;stroke-dashoffset:0" transform="matrix(.93943 0 0 .93943 18.172307 -24.73317)"/><path fill="#ffd641" d="M60.155932 186c0-132.462224 107.381848-239.844074 239.844078-239.844074 132.46222 0 239.84406 107.38185 239.84406 239.844074 0 132.46222-107.38185 239.84407-239.84406 239.84407-132.46223 0-239.844078-107.38185-239.844078-239.84407Z" style="fill:#0eaa7e;fill-opacity:1;fill-rule:nonzero;stroke-linecap:butt;stroke-linejoin:miter;stroke-miterlimit:10;stroke-dasharray:none;stroke-dashoffset:0" transform="matrix(.93943 0 0 .93943 18.172307 -24.73317)"/><path fill="#ffc800" d="M100.65593 185.99999C100.65593 75.905307 189.9053-13.344074 300-13.344074c110.09469 0 199.34407 89.249381 199.34407 199.344074 0 110.09469-89.24938 199.34407-199.34406 199.34407-110.09469 0-199.34406-89.24938-199.34406-199.34406z" style="fill:#0fbd8c;fill-opacity:1;fill-rule:nonzero;stroke-linecap:butt;stroke-linejoin:miter;stroke-miterlimit:10;stroke-dasharray:none;stroke-dashoffset:0" transform="matrix(.93943 0 0 .93943 18.172307 -24.73317)"/><path fill="#ffd641" d="M139.90593 185.99999c0-88.417506 71.67656-160.094063 160.09407-160.094063S460.09407 97.582494 460.09407 186c0 88.41751-71.67656 160.09407-160.09406 160.09407-88.41752 0-160.09407-71.67656-160.09407-160.09406z" style="fill:#0eaa7e;fill-opacity:1;fill-rule:nonzero;stroke-linecap:butt;stroke-linejoin:miter;stroke-miterlimit:10;stroke-dasharray:none;stroke-dashoffset:0" transform="matrix(.93943 0 0 .93943 18.172307 -24.73317)"/><path fill="#ffc800" d="M180.65593 185.99999c0-65.9119 53.43216-119.344064 119.34408-119.344064 65.9119 0 119.34407 53.432164 119.34407 119.344074 0 65.9119-53.43216 119.34407-119.34406 119.34407s-119.34407-53.43216-119.34407-119.34406z" style="fill:#0fbd8c;fill-opacity:1;fill-rule:nonzero;stroke-linecap:butt;stroke-linejoin:miter;stroke-miterlimit:10;stroke-dasharray:none;stroke-dashoffset:0" transform="matrix(.93943 0 0 .93943 18.172307 -24.73317)"/><path fill="#ffd641" d="M219.90593 185.99999c0-44.23473 35.85933-80.09406 80.09407-80.09406 44.23473 0 80.09407 35.85933 80.09407 80.09407 0 44.23473-35.85933 80.09407-80.09406 80.09407s-80.09406-35.85933-80.09406-80.09406z" style="fill:#0eaa7e;fill-opacity:1;fill-rule:nonzero;stroke-linecap:butt;stroke-linejoin:miter;stroke-miterlimit:10;stroke-dasharray:none;stroke-dashoffset:0" transform="matrix(.93943 0 0 .93943 18.172307 -24.73317)"/><path fill="#ffc800" d="M260.0726 186c0-22.05129 17.87611-39.9274 39.9274-39.9274 22.05129 0 39.9274 17.87611 39.9274 39.9274 0 22.05129-17.87611 39.9274-39.9274 39.9274-22.05129 0-39.9274-17.87611-39.9274-39.9274z" style="fill:#0fbd8c;fill-opacity:1;fill-rule:nonzero;stroke-linecap:butt;stroke-linejoin:miter;stroke-miterlimit:10;stroke-dasharray:none;stroke-dashoffset:0" transform="matrix(.93943 0 0 .93943 18.172307 -24.73317)"/><path fill="#fff" d="M169.4570363 135.41041823c23.03677403 0 26.10859254-12.286654 26.10859254-23.03801407 0-9.21495762-1.53578243-16.89437707-1.53578243-26.10859254 0-9.21421548-1.53578243-18.42967006-1.53578243-26.1085916 0-32.25222486 19.96619557-46.07478812 52.21841572-46.07478812h12.28664461v29.18042138h-6.14324245c-15.35787128 0-19.96620496 9.2149473-19.96620496 24.57328828 0 6.1432697 1.53579182 12.28664367 1.53579182 19.96618524 0 6.14327064 1.53578243 13.82256795 1.53578243 23.03801408 0 26.10859254-10.75074005 35.32404806-29.18042044 39.93116049 18.42968039 4.60746942 29.18042044 13.82254916 29.18042044 39.9311417 0 9.21496702-1.53578243 16.89439586-1.53578243 23.03678343 0 6.14327064-1.53579182 13.82255856-1.53579182 18.429671 0 15.35785249 4.6074788 24.57328922 19.96620496 24.57328922h6.14324245v29.18041104h-12.2866446c-30.71693563 0-50.68189116-12.2866446-50.68189116-46.07477871 0-9.21495763 0-16.89438646 1.53578243-26.10860194 1.53579183-9.21420608 1.53579183-18.4296616 1.53579183-26.10859254 0-9.21495762-3.07169638-23.03800468-26.10860194-23.03800468zm261.0859254 26.10859255c-23.03677403 0-26.10859254 13.82254916-26.10859254 23.03676464 0 9.21495762 1.53578243 16.89437706 1.53578243 26.10859254 1.53579183 9.21495762 1.53579183 18.429671 1.53579183 26.10859254 0 33.78875413-21.5014801 46.07478811-52.21842512 46.07478811h-12.28664461v-26.10859254h6.14326124c15.35785249 0 19.96619557-9.21495762 19.96619557-24.57329861 0-6.14326124 0-12.28664461-1.53579183-18.429671 0-7.6791658-1.53578243-15.35785248-1.53578243-23.03677403 0-26.10859254 10.75074006-35.32403867 29.18041105-39.9311511-18.429671-4.60747881-29.18041105-13.82255856-29.18041105-39.9311511 0-9.21495762 1.53578243-16.89437707 1.53578243-23.03801408 1.53579183-7.6791658 1.53579183-13.82254916 1.53579183-19.96618524 0-15.35785248-6.14327064-23.03800186-19.96619557-24.57329015h-6.14326124V14.07919938h12.2866446c32.25222016 0 52.21842513 13.82256325 52.21842513 46.0747806 0 9.21495668-1.53579183 16.89438551-1.53579183 26.10860099-1.53578243 9.21495762-1.53578243 18.429671-1.53578243 26.10859254 0 10.75073066 3.07168699 23.03800468 26.10859254 23.03800468z"/></svg>