<?xml version="1.0" encoding="UTF-8" standalone="no"?>
<svg
   width="20px"
   height="20px"
   viewBox="0 0 20 20"
   version="1.1"
   id="svg2"
   sodipodi:docname="favorite-inactive.svg"
   inkscape:version="1.3 (0e150ed6c4, 2023-07-21)"
   xml:space="preserve"
   xmlns:inkscape="http://www.inkscape.org/namespaces/inkscape"
   xmlns:sodipodi="http://sodipodi.sourceforge.net/DTD/sodipodi-0.dtd"
   xmlns="http://www.w3.org/2000/svg"
   xmlns:svg="http://www.w3.org/2000/svg"><defs
     id="defs2" /><sodipodi:namedview
     id="namedview2"
     pagecolor="#ffffff"
     bordercolor="#000000"
     borderopacity="0.25"
     inkscape:showpageshadow="2"
     inkscape:pageopacity="0.0"
     inkscape:pagecheckerboard="0"
     inkscape:deskcolor="#d1d1d1"
     inkscape:zoom="14.33659"
     inkscape:cx="7.044911"
     inkscape:cy="10.148857"
     inkscape:window-width="1920"
     inkscape:window-height="1008"
     inkscape:window-x="1366"
     inkscape:window-y="0"
     inkscape:window-maximized="1"
     inkscape:current-layer="svg2" /><path
     d="m 9.9999999,14.933506 -4.1014659,2.4697 Q 5.7221269,17.513461 5.5236689,17.502435 5.3252109,17.49141 5.1708546,17.381155 5.0164984,17.270901 4.9393203,17.094494 4.8621422,16.918087 4.9062439,16.697578 L 5.9867376,12.022789 2.3703914,8.8695114 Q 2.1939843,8.7151551 2.1609079,8.5277225 2.1278316,8.3402899 2.1719334,8.1638828 2.2160351,7.9874757 2.3703914,7.8661957 2.5247476,7.7449158 2.7452565,7.722865 L 7.5303001,7.303898 9.382575,2.8937196 q 0.088204,-0.198458 0.2646107,-0.297687 0.1764071,-0.099229 0.3528142,-0.099229 0.1764071,0 0.3528141,0.099229 0.176407,0.099229 0.264611,0.297687 L 12.4697,7.303898 17.254743,7.722865 q 0.220509,0.022051 0.374866,0.1433307 0.154356,0.12128 0.198458,0.2976871 0.0441,0.1764071 0.01103,0.3638397 -0.03308,0.1874326 -0.209483,0.3417889 l -3.616346,3.1532776 1.080493,4.674789 q 0.0441,0.220509 -0.03308,0.396916 -0.07718,0.176407 -0.231534,0.286661 -0.154357,0.110255 -0.352815,0.12128 -0.198458,0.01103 -0.374865,-0.09923 z"
     id="path1-3"
     style="fill:#8187a1;fill-opacity:1;stroke:#575e75;stroke-width:1.56561;stroke-linejoin:round;stroke-dasharray:none;stroke-opacity:1" /></svg>
