<svg xmlns="http://www.w3.org/2000/svg" viewBox="0 0 36 36"><path fill="#DD2E44" d="M36 32c0 2.209-1.791 4-4 4H4c-2.209 0-4-1.791-4-4V4c0-2.209 1.791-4 4-4h28c2.209 0 4 1.791 4 4v28z"/><path xmlns="http://www.w3.org/2000/svg" fill="#FFFFFF" d="M 20.67 17.989 L 29.879 8.782 C 30.613 8.047 30.613 6.857 29.879 6.122 C 29.143 5.387 27.953 5.387 27.219 6.122 L 18.01 15.329 L 8.803 6.122 C 8.069 5.387 6.876 5.387 6.143 6.122 C 5.407 6.857 5.407 8.047 6.143 8.782 L 15.349 17.989 L 6.121 27.219 C 5.386 27.954 5.386 29.145 6.121 29.879 C 6.489 30.246 6.97 30.43 7.452 30.43 C 7.934 30.43 8.416 30.246 8.783 29.879 L 18.011 20.65 L 27.219 29.858 C 27.586 30.225 28.067 30.408 28.549 30.408 C 29.031 30.408 29.512 30.225 29.879 29.858 C 30.614 29.122 30.614 27.931 29.879 27.197 L 20.67 17.989 Z" style=""></path></svg>