<svg xmlns="http://www.w3.org/2000/svg" xmlns:xlink="http://www.w3.org/1999/xlink" version="1.1" width="92.20000457763672" height="24.44379997253418" viewBox="-0.14890000224113464 -0.007299989461898804 92.20000457763672 24.44379997253418">
  <!-- Exported by Scratch - http://scratch.mit.edu/ -->
  <path id="ID0.5662942314520478" fill="#FFFFFF" stroke="none" stroke-linecap="round" d="M 10.2713 9.0781 L 13.9118 0.4927 L 17.4309 9.1691 L 27.3511 8.9871 L 19.0084 14.1444 L 22.3455 23.3365 L 14.0028 17.3904 L 5.5994 22.9421 L 8.3904 14.0837 L 0.3511 8.9871 L 10.2713 9.0781 Z " stroke-width="0.6067415475845337"/>
  <path id="ID0.5662942314520478" fill="#FFFFFF" stroke="none" stroke-linecap="round" d="M 42.5213 9.6781 L 46.1618 1.0927 L 49.6809 9.7691 L 59.6011 9.5871 L 51.2584 14.7444 L 54.5955 23.9365 L 46.2528 17.9904 L 37.8494 23.5421 L 40.6404 14.6837 L 32.6011 9.5871 L 42.5213 9.6781 Z " stroke-width="0.6067415475845337"/>
  <path id="ID0.5662942314520478" fill="#FFFFFF" stroke="none" stroke-linecap="round" d="M 74.4713 9.6781 L 78.1118 1.0927 L 81.6309 9.7691 L 91.5511 9.5871 L 83.2084 14.7444 L 86.5455 23.9365 L 78.2028 17.9904 L 69.7994 23.5421 L 72.5904 14.6837 L 64.5511 9.5871 L 74.4713 9.6781 Z " stroke-width="0.6067415475845337"/>
</svg>