<svg xmlns="http://www.w3.org/2000/svg" xmlns:xlink="http://www.w3.org/1999/xlink" version="1.1" width="333.43976694285953" height="201.6539087885627" viewBox="-0.15836676925463578 -1.8725135025386324 333.43976694285953 201.6539087885627">
  <!-- Exported by Scratch - http://scratch.mit.edu/ -->
  <g id="ID0.18737157573923469">
    <g id="ID0.9980035391636193">
      <path id="ID0.12633409397676587" fill="none" stroke="#FFFFFF" stroke-width="1" d="M 172.416 125.993 L 172.416 55.392 L 291.26 55.392 L 291.26 125.993 Z "/>
      <path id="ID0.18769281450659037" fill="none" stroke="#FFFFFF" stroke-width="1" d="M 205.657 55.392 L 205.657 39.213 L 257.725 39.213 L 257.725 55.392 Z "/>
      <path id="ID0.02002877462655306" fill="none" stroke="#FFFFFF" stroke-width="1" d="M 154.178 121.286 L 154.178 98.047 L 172.416 98.047 L 172.416 121.286 Z "/>
      <path id="ID0.7831354984082282" fill="none" stroke="#FFFFFF" stroke-width="1" d="M 165.605 67.609 L 165.605 60.941 L 172.272 60.941 L 172.272 67.609 Z "/>
      <path id="ID0.4895828836597502" fill="none" stroke="#FFFFFF" stroke-width="1" d="M 147.184 89.833 L 147.184 55.571 L 165.52 55.571 L 165.52 89.833 Z "/>
      <path id="ID0.7371516618877649" fill="none" stroke="#FFFFFF" stroke-width="1" d="M 254.4 131.8 L 254.4 126.2 L 261.4 126.2 L 261.4 131.8 Z "/>
      <path id="ID0.2596682058647275" fill="none" stroke="#FFFFFF" stroke-width="1" d="M 247.25 198.5 L 247.25 131.75 L 267.5 131.75 L 267.5 198.5 Z "/>
      <path id="ID0.6709986487403512" fill="none" stroke="#FFFFFF" stroke-width="1" d="M 201.75 131.75 L 201.75 126 L 208.5 126 L 208.5 131.75 Z "/>
      <path id="ID0.28821656899526715" fill="none" stroke="#FFFFFF" stroke-width="1" d="M 195.5 198.75 L 195.5 131.75 L 215.25 131.75 L 215.25 198.75 Z "/>
      <path id="ID0.037343078292906284" fill="none" stroke="#FFFFFF" stroke-width="1" d="M 188.75 161 L 188.75 154.25 L 195.5 154.25 L 195.5 161 Z "/>
      <path id="ID0.645186722278595" fill="none" stroke="#FFFFFF" stroke-width="1" d="M 170 175.5 L 170 140.5 L 188.75 140.5 L 188.75 175.5 Z "/>
      <path id="ID0.2757650394923985" fill="none" stroke="#FFFFFF" stroke-width="1" d="M 277.25 132.25 L 277.25 126 L 284.25 126 L 284.25 132.25 Z "/>
      <path id="ID0.8831309922970831" fill="none" stroke="#FFFFFF" stroke-width="1" d="M 275 165.75 L 275 132.25 L 315 132.25 L 315 165.75 Z "/>
      <path id="ID0.5763487312942743" fill="none" stroke="#FFFFFF" stroke-width="1" d="M 291 83.25 L 291 77 L 297.75 77 L 297.75 83.25 Z "/>
      <path id="ID0.829169443808496" fill="none" stroke="#FFFFFF" stroke-width="1" d="M 297.75 124.75 L 297.75 67 L 311.5 67 L 311.5 124.75 Z "/>
      <path id="ID0.8467844119295478" fill="none" stroke="#FFFFFF" stroke-width="1" d="M 311.5 121.25 L 311.5 115.25 L 318 115.25 L 318 121.25 Z "/>
      <path id="ID0.7591425548307598" fill="none" stroke="#FFFFFF" stroke-width="1" d="M 311.5 93.25 L 311.5 86.75 L 318 86.75 L 318 93.25 Z "/>
      <path id="ID0.4960551508702338" fill="none" stroke="#FFFFFF" stroke-width="1" d="M 318.25 124.75 L 318.25 111 L 332 111 L 332 124.75 Z "/>
      <path id="ID0.432200419716537" fill="none" stroke="#FFFFFF" stroke-width="1" d="M 318 97.25 L 318 83.25 L 332.25 83.25 L 332.25 97.25 Z "/>
      <g id="ID0.9283052841201425">
        <path id="ID0.21148668229579926" fill="#414141" stroke="#FFFFFF" stroke-width="2" d="M 189.75 76.25 L 189.75 58.25 L 215.5 58.25 L 215.5 76.25 Z "/>
        <text id="ID0.622657235711813" fill="#FFFFFF" text-anchor="start" font-family="Sans Serif" font-size="22" transform="matrix(0.320673 0 0 0.320673 192.141 57.588)" stroke-width="1" alignment-baseline="text-before-edge" xml:space="preserve"><tspan x="0" style="white-space: pre" dy="1.13em">CAM</tspan><tspan x="0" style="white-space: pre" dy="1.13em">1B</tspan></text>
      </g>
      <g id="ID0.9283052841201425">
        <path id="ID0.21148668229579926" fill="#D7E600" stroke="#FFFFFF" stroke-width="2" d="M 197.45 45 L 197.45 27 L 223.2 27 L 223.2 45 Z "/>
        <text id="ID0.622657235711813" fill="#FFFFFF" text-anchor="start" font-family="Sans Serif" font-size="22" transform="matrix(0.320673 0 0 0.320673 199.791 26.288)" stroke-width="1" alignment-baseline="text-before-edge" xml:space="preserve"><tspan x="0" style="white-space: pre" dy="1.13em">CAM</tspan><tspan x="0" style="white-space: pre" dy="1.13em">1A</tspan></text>
      </g>
      <g id="ID0.9283052841201425">
        <path id="ID0.21148668229579926" fill="#414141" stroke="#FFFFFF" stroke-width="2" d="M 142.45 90.75 L 142.45 72.75 L 168.2 72.75 L 168.2 90.75 Z "/>
        <text id="ID0.622657235711813" fill="#FFFFFF" text-anchor="start" font-family="Sans Serif" font-size="22" transform="matrix(0.320673 0 0 0.320673 144.791 72.088)" stroke-width="1" alignment-baseline="text-before-edge" xml:space="preserve"><tspan x="0" style="white-space: pre" dy="1.13em">CAM</tspan><tspan x="0" style="white-space: pre" dy="1.13em">5</tspan></text>
      </g>
      <g id="ID0.42740519577637315">
        <path id="ID0.6237744158133864" fill="none" stroke="#FFFFFF" stroke-width="2.0627833002814273" d="M 219.6521 167.75 L 243.2784 167.75 L 243.2784 197.75 L 219.6521 197.75 L 219.6521 167.75 Z "/>
        <path id="ID0.8292123470455408" fill="#FFFFFF" stroke="none" d="M 227.375 184.6786 L 234.3393 184.6786 L 234.3393 191.1786 L 227.375 191.1786 L 227.375 184.6786 Z " stroke-width="0.9285714030265808"/>
        <text id="ID0.8139230338856578" fill="#FFFFFF" text-anchor="start" font-family="Sans Serif" font-size="22" transform="matrix(0.315955 0 0 0.315955 223.032 174.502)" stroke-width="1" alignment-baseline="text-before-edge" xml:space="preserve"><tspan x="0" style="white-space: pre" dy="1.13em">YOU</tspan></text>
      </g>
      <g id="ID0.9283052841201425">
        <path id="ID0.21148668229579926" fill="#414141" stroke="#FFFFFF" stroke-width="2" d="M 166.45 113.75 L 166.45 95.75 L 192.2 95.75 L 192.2 113.75 Z "/>
        <text id="ID0.622657235711813" fill="#FFFFFF" text-anchor="start" font-family="Sans Serif" font-size="22" transform="matrix(0.320673 0 0 0.320673 168.791 95.088)" stroke-width="1" alignment-baseline="text-before-edge" xml:space="preserve"><tspan x="0" style="white-space: pre" dy="1.13em">CAM</tspan><tspan x="0" style="white-space: pre" dy="1.13em">1C</tspan></text>
      </g>
      <g id="ID0.9283052841201425">
        <path id="ID0.21148668229579926" fill="#414141" stroke="#FFFFFF" stroke-width="2" d="M 158.45 157.5 L 158.45 139.5 L 184.2 139.5 L 184.2 157.5 Z "/>
        <text id="ID0.622657235711813" fill="#FFFFFF" text-anchor="start" font-family="Sans Serif" font-size="22" transform="matrix(0.320673 0 0 0.320673 160.791 138.838)" stroke-width="1" alignment-baseline="text-before-edge" xml:space="preserve"><tspan x="0" style="white-space: pre" dy="1.13em">CAM</tspan><tspan x="0" style="white-space: pre" dy="1.13em">3</tspan></text>
      </g>
      <g id="ID0.9283052841201425">
        <path id="ID0.21148668229579926" fill="#414141" stroke="#FFFFFF" stroke-width="2" d="M 195.6 173.25 L 195.6 155.25 L 221.35 155.25 L 221.35 173.25 Z "/>
        <text id="ID0.622657235711813" fill="#FFFFFF" text-anchor="start" font-family="Sans Serif" font-size="22" transform="matrix(0.320673 0 0 0.320673 197.941 154.588)" stroke-width="1" alignment-baseline="text-before-edge" xml:space="preserve"><tspan x="0" style="white-space: pre" dy="1.13em">CAM</tspan><tspan x="0" style="white-space: pre" dy="1.13em">2A</tspan></text>
      </g>
      <g id="ID0.9283052841201425">
        <path id="ID0.21148668229579926" fill="#414141" stroke="#FFFFFF" stroke-width="2" d="M 195.75 194.75 L 195.75 176.75 L 221.5 176.75 L 221.5 194.75 Z "/>
        <text id="ID0.622657235711813" fill="#FFFFFF" text-anchor="start" font-family="Sans Serif" font-size="22" transform="matrix(0.320673 0 0 0.320673 198.041 176.088)" stroke-width="1" alignment-baseline="text-before-edge" xml:space="preserve"><tspan x="0" style="white-space: pre" dy="1.13em">CAM</tspan><tspan x="0" style="white-space: pre" dy="1.13em">2B</tspan></text>
      </g>
      <g id="ID0.9283052841201425">
        <path id="ID0.21148668229579926" fill="#414141" stroke="#FFFFFF" stroke-width="2" d="M 241.75 173.25 L 241.75 155.25 L 267.5 155.25 L 267.5 173.25 Z "/>
        <text id="ID0.622657235711813" fill="#FFFFFF" text-anchor="start" font-family="Sans Serif" font-size="22" transform="matrix(0.320673 0 0 0.320673 244.091 154.588)" stroke-width="1" alignment-baseline="text-before-edge" xml:space="preserve"><tspan x="0" style="white-space: pre" dy="1.13em">CAM</tspan><tspan x="0" style="white-space: pre" dy="1.13em">4A</tspan></text>
      </g>
      <g id="ID0.9283052841201425">
        <path id="ID0.21148668229579926" fill="#414141" stroke="#FFFFFF" stroke-width="2" d="M 241.8 195 L 241.8 177 L 267.55 177 L 267.55 195 Z "/>
        <text id="ID0.622657235711813" fill="#FFFFFF" text-anchor="start" font-family="Sans Serif" font-size="22" transform="matrix(0.320673 0 0 0.320673 244.191 176.338)" stroke-width="1" alignment-baseline="text-before-edge" xml:space="preserve"><tspan x="0" style="white-space: pre" dy="1.13em">CAM</tspan><tspan x="0" style="white-space: pre" dy="1.13em">4B</tspan></text>
      </g>
      <g id="ID0.9283052841201425">
        <path id="ID0.21148668229579926" fill="#414141" stroke="#FFFFFF" stroke-width="2" d="M 303.5 153.25 L 303.5 135.25 L 329.25 135.25 L 329.25 153.25 Z "/>
        <text id="ID0.622657235711813" fill="#FFFFFF" text-anchor="start" font-family="Sans Serif" font-size="22" transform="matrix(0.320673 0 0 0.320673 305.841 134.588)" stroke-width="1" alignment-baseline="text-before-edge" xml:space="preserve"><tspan x="0" style="white-space: pre" dy="1.13em">CAM</tspan><tspan x="0" style="white-space: pre" dy="1.13em">6</tspan></text>
      </g>
      <g id="ID0.9283052841201425">
        <path id="ID0.21148668229579926" fill="#414141" stroke="#FFFFFF" stroke-width="2" d="M 302.75 84.75 L 302.75 66.75 L 328.5 66.75 L 328.5 84.75 Z "/>
        <text id="ID0.622657235711813" fill="#FFFFFF" text-anchor="start" font-family="Sans Serif" font-size="22" transform="matrix(0.320673 0 0 0.320673 305.091 66.088)" stroke-width="1" alignment-baseline="text-before-edge" xml:space="preserve"><tspan x="0" style="white-space: pre" dy="1.13em">CAM</tspan><tspan x="0" style="white-space: pre" dy="1.13em">7</tspan></text>
      </g>
    </g>
    <text id="ID0.47508231876417994" fill="#D8E701" text-anchor="start" font-family="Sans Serif" font-size="22" transform="matrix(0.682099 0 0 0.682099 1.8642 23.4537)" stroke-width="1" alignment-baseline="text-before-edge" xml:space="preserve"><tspan x="0" style="white-space: pre" dy="1.13em">Supply Closet (bonnie)</tspan><tspan x="0" style="white-space: pre" dy="1.13em">Washrooms</tspan><tspan x="0" style="white-space: pre" dy="1.13em">Showstage</tspan><tspan x="0" style="white-space: pre" dy="1.13em">East Hall (bonnie)</tspan><tspan x="0" style="white-space: pre" dy="1.13em">E Hall Corner</tspan><tspan x="0" style="white-space: pre" dy="1.13em">Pirate Cove</tspan><tspan x="0" style="white-space: pre" dy="1.13em">West Hall (chica)</tspan><tspan x="0" style="white-space: pre" dy="1.13em">W Hall Corner</tspan><tspan x="0" style="white-space: pre" dy="1.13em">Kitchen</tspan><tspan x="0" style="white-space: pre" dy="1.13em">Backstage (endoskeleton)</tspan></text>
  </g>
  <text id="ID0.09559800615534186" fill="#FFFFFF" text-anchor="start" font-family="Sans Serif" font-size="22" transform="matrix(0.584055 0 0 0.584055 184.418 -1.35217)" stroke-width="1" alignment-baseline="text-before-edge" xml:space="preserve"><tspan x="0" style="white-space: pre" dy="1.13em">Showstage</tspan></text>
</svg>