<svg xmlns="http://www.w3.org/2000/svg" xmlns:xlink="http://www.w3.org/1999/xlink" version="1.1" width="501.02104587596745" height="295.02104587596745" viewBox="-0.510522937983718 -0.510522937983718 501.02104587596745 295.02104587596745">
  <!-- Exported by Scratch - http://scratch.mit.edu/ -->
  <path id="ID0.11059828195720911" fill="#FFFFFF" stroke="none" d="M 0 186 L 500 186 L 500 221 L 0 221 L 0 186 Z " stroke-width="1.021045875967436"/>
  <path id="ID0.8795653940178454" fill="#FFFFFF" stroke="none" d="M 7 250 L 487 250 L 487 263 L 7 263 L 7 250 Z " stroke-width="1"/>
  <path id="ID0.1150482832454145" fill="#FFFFFF" stroke="none" d="M 7 278 L 487 278 L 487 294 L 7 294 L 7 278 Z " stroke-width="1"/>
  <path id="ID0.05614899890497327" fill="#FFFFFF" stroke="none" d="M 7 28 L 487 28 L 487 97 L 7 97 L 7 28 Z " stroke-width="1"/>
  <path id="ID0.17135514225810766" fill="#FFFFFF" stroke="none" d="M 7 0 L 487 0 L 487 10 L 7 10 L 7 0 Z " stroke-width="1"/>
  <path id="ID0.7377334800548851" fill="#FFFFFF" stroke="none" d="M 7 113 L 487 113 L 487 123 L 7 123 L 7 113 Z " stroke-width="1"/>
</svg>