<svg xmlns="http://www.w3.org/2000/svg" xmlns:xlink="http://www.w3.org/1999/xlink" version="1.1" width="33.25" height="32" viewBox="0.75 0.75 33.25 32">
  <!-- Exported by Scratch - http://scratch.mit.edu/ -->
  <g id="ID0.9137795702554286">
    <path id="ID0.43638352444395423" fill="none" stroke="#B2B2B2" stroke-width="2" d="M 17.375 1.75 C 21.686 1.75 25.592 3.431 28.421 6.146 C 31.249 8.862 33 12.612 33 16.75 C 33 20.888 31.249 24.638 28.421 27.354 C 25.592 30.069 21.686 31.75 17.375 31.75 C 13.064 31.75 9.158 30.069 6.329 27.354 C 3.501 24.638 1.75 20.888 1.75 16.75 C 1.75 12.612 3.501 8.862 6.329 6.146 C 9.158 3.431 13.064 1.75 17.375 1.75 Z "/>
    <g id="ID0.20780002605170012">
      <path id="ID0.91565265879035" fill="#B2B2B2" stroke="none" d="M 17.4837 14.4891 C 18.1958 14.4891 18.8409 14.7551 19.3085 15.1855 C 19.7761 15.6151 20.0652 16.209 20.0652 16.8641 C 20.0652 17.5192 19.7761 18.1132 19.3085 18.5427 C 18.8409 18.9731 18.1958 19.2391 17.4837 19.2391 C 16.7716 19.2391 16.1264 18.9731 15.6589 18.5427 C 15.1913 18.1132 14.9022 17.5192 14.9022 16.8641 C 14.9022 16.209 15.1913 15.6151 15.6589 15.1855 C 16.1264 14.7551 16.7716 14.4891 17.4837 14.4891 Z " stroke-width="0.8260869383811951"/>
      <path id="ID0.5784429293125868" fill="none" stroke="#B2B2B2" stroke-width="2" stroke-linecap="round" d="M 17.5 16.25 L 17.5 5.75 "/>
    </g>
  </g>
</svg>