<svg xmlns="http://www.w3.org/2000/svg" xmlns:xlink="http://www.w3.org/1999/xlink" version="1.1" width="343.6897518153573" height="259.13808555559166" viewBox="-0.07153109290127502 -0.37193108179096923 343.6897518153573 259.13808555559166">
  <!-- Exported by Scratch - http://scratch.mit.edu/ -->
  <path id="ID0.30565657233819366" fill="#FF0000" stroke="none" d="M 11.6136 0.442 C 14.6125 0.442 17.3303 1.6315 19.298 3.5553 C 21.2672 5.4773 22.4848 8.1335 22.4848 11.0632 C 22.4848 13.993 21.2672 16.6492 19.298 18.5712 C 17.3303 20.4949 14.6125 21.6845 11.6136 21.6845 C 8.6147 21.6845 5.8969 20.4949 3.9292 18.5712 C 1.96 16.6492 0.7424 13.993 0.7424 11.0632 C 0.7424 8.1335 1.96 5.4773 3.9292 3.5553 C 5.8969 1.6315 8.6147 0.442 11.6136 0.442 Z " stroke-width="1.6278621669197986"/>
  <path id="ID0.9422367755323648" fill="#FFFFFF" stroke="none" d="M 338.8043 253.9522 L 342.8043 253.9522 L 342.8043 257.9522 L 338.8043 257.9522 L 338.8043 253.9522 Z " stroke-width="0.8695651888847351"/>
</svg>