<svg xmlns="http://www.w3.org/2000/svg" xmlns:xlink="http://www.w3.org/1999/xlink" version="1.1" width="481" height="275" viewBox="-0.5 -0.5 481 275">
  <!-- Exported by Scratch - http://scratch.mit.edu/ -->
  <path id="ID0.9566733604297042" fill="#FFFFFF" stroke="none" d="M 0 186 L 480 186 L 480 245 L 0 245 L 0 186 Z " stroke-width="1"/>
  <path id="ID0.5262960717082024" fill="#FFFFFF" stroke="none" d="M 0 52 L 480 52 L 480 59 L 0 59 L 0 52 Z " stroke-width="1"/>
  <path id="ID0.6740197530016303" fill="#FFFFFF" stroke="none" d="M 0 0 L 480 0 L 480 11 L 0 11 L 0 0 Z " stroke-width="1"/>
  <path id="ID0.3498065061867237" fill="#FFFFFF" stroke="none" d="M 0 155 L 480 155 L 480 171 L 0 171 L 0 155 Z " stroke-width="1"/>
  <path id="ID0.20868316013365984" fill="#FFFFFF" stroke="none" d="M 0 268 L 480 268 L 480 274 L 0 274 L 0 268 Z " stroke-width="1"/>
  <path id="ID0.6242342297919095" fill="#FFFFFF" stroke="none" d="M 0 101 L 480 101 L 480 108 L 0 108 L 0 101 Z " stroke-width="1"/>
</svg>