<svg xmlns="http://www.w3.org/2000/svg" xmlns:xlink="http://www.w3.org/1999/xlink" version="1.1" width="191.86278635203925" height="201.6539087885627" viewBox="0.41860839754300216 -1.8725135025386324 191.86278635203925 201.6539087885627">
  <!-- Exported by Scratch - http://scratch.mit.edu/ -->
  <path id="ID0.12633409397676587" fill="none" stroke="#FFFFFF" stroke-width="1" d="M 31.416 125.993 L 31.416 55.392 L 150.26 55.392 L 150.26 125.993 Z "/>
  <path id="ID0.18769281450659037" fill="none" stroke="#FFFFFF" stroke-width="1" d="M 64.657 55.392 L 64.657 39.213 L 116.725 39.213 L 116.725 55.392 Z "/>
  <path id="ID0.02002877462655306" fill="none" stroke="#FFFFFF" stroke-width="1" d="M 13.178 121.286 L 13.178 98.047 L 31.416 98.047 L 31.416 121.286 Z "/>
  <path id="ID0.7831354984082282" fill="none" stroke="#FFFFFF" stroke-width="1" d="M 24.605 67.609 L 24.605 60.941 L 31.272 60.941 L 31.272 67.609 Z "/>
  <path id="ID0.4895828836597502" fill="none" stroke="#FFFFFF" stroke-width="1" d="M 6.184 89.833 L 6.184 55.571 L 24.52 55.571 L 24.52 89.833 Z "/>
  <path id="ID0.7371516618877649" fill="none" stroke="#FFFFFF" stroke-width="1" d="M 113.4 131.8 L 113.4 126.2 L 120.4 126.2 L 120.4 131.8 Z "/>
  <path id="ID0.2596682058647275" fill="none" stroke="#FFFFFF" stroke-width="1" d="M 106.25 198.5 L 106.25 131.75 L 126.5 131.75 L 126.5 198.5 Z "/>
  <path id="ID0.6709986487403512" fill="none" stroke="#FFFFFF" stroke-width="1" d="M 60.75 131.75 L 60.75 126 L 67.5 126 L 67.5 131.75 Z "/>
  <path id="ID0.28821656899526715" fill="none" stroke="#FFFFFF" stroke-width="1" d="M 54.5 198.75 L 54.5 131.75 L 74.25 131.75 L 74.25 198.75 Z "/>
  <path id="ID0.037343078292906284" fill="none" stroke="#FFFFFF" stroke-width="1" d="M 47.75 161 L 47.75 154.25 L 54.5 154.25 L 54.5 161 Z "/>
  <path id="ID0.645186722278595" fill="none" stroke="#FFFFFF" stroke-width="1" d="M 29 175.5 L 29 140.5 L 47.75 140.5 L 47.75 175.5 Z "/>
  <path id="ID0.2757650394923985" fill="none" stroke="#FFFFFF" stroke-width="1" d="M 136.25 132.25 L 136.25 126 L 143.25 126 L 143.25 132.25 Z "/>
  <path id="ID0.8831309922970831" fill="none" stroke="#FFFFFF" stroke-width="1" d="M 134 165.75 L 134 132.25 L 174 132.25 L 174 165.75 Z "/>
  <path id="ID0.5763487312942743" fill="none" stroke="#FFFFFF" stroke-width="1" d="M 150 83.25 L 150 77 L 156.75 77 L 156.75 83.25 Z "/>
  <path id="ID0.829169443808496" fill="none" stroke="#FFFFFF" stroke-width="1" d="M 156.75 124.75 L 156.75 67 L 170.5 67 L 170.5 124.75 Z "/>
  <path id="ID0.8467844119295478" fill="none" stroke="#FFFFFF" stroke-width="1" d="M 170.5 121.25 L 170.5 115.25 L 177 115.25 L 177 121.25 Z "/>
  <path id="ID0.7591425548307598" fill="none" stroke="#FFFFFF" stroke-width="1" d="M 170.5 93.25 L 170.5 86.75 L 177 86.75 L 177 93.25 Z "/>
  <path id="ID0.4960551508702338" fill="none" stroke="#FFFFFF" stroke-width="1" d="M 177.25 124.75 L 177.25 111 L 191 111 L 191 124.75 Z "/>
  <path id="ID0.432200419716537" fill="none" stroke="#FFFFFF" stroke-width="1" d="M 177 97.25 L 177 83.25 L 191.25 83.25 L 191.25 97.25 Z "/>
  <g id="ID0.9283052841201425">
    <path id="ID0.21148668229579926" fill="#D7E600" stroke="#FFFFFF" stroke-width="2" d="M 48.75 76.25 L 48.75 58.25 L 74.5 58.25 L 74.5 76.25 Z "/>
    <text id="ID0.622657235711813" fill="#FFFFFF" text-anchor="start" font-family="Sans Serif" font-size="22" transform="matrix(0.320673 0 0 0.320673 51.1413 57.588)" stroke-width="1" alignment-baseline="text-before-edge" xml:space="preserve"><tspan x="0" style="white-space: pre" dy="1.13em">CAM</tspan><tspan x="0" style="white-space: pre" dy="1.13em">1B</tspan></text>
  </g>
  <g id="ID0.9283052841201425">
    <path id="ID0.21148668229579926" fill="#414141" stroke="#FFFFFF" stroke-width="2" d="M 56.45 45 L 56.45 27 L 82.2 27 L 82.2 45 Z "/>
    <text id="ID0.622657235711813" fill="#FFFFFF" text-anchor="start" font-family="Sans Serif" font-size="22" transform="matrix(0.320673 0 0 0.320673 58.7913 26.288)" stroke-width="1" alignment-baseline="text-before-edge" xml:space="preserve"><tspan x="0" style="white-space: pre" dy="1.13em">CAM</tspan><tspan x="0" style="white-space: pre" dy="1.13em">1A</tspan></text>
  </g>
  <g id="ID0.9283052841201425">
    <path id="ID0.21148668229579926" fill="#414141" stroke="#FFFFFF" stroke-width="2" d="M 1.45 90.75 L 1.45 72.75 L 27.2 72.75 L 27.2 90.75 Z "/>
    <text id="ID0.622657235711813" fill="#FFFFFF" text-anchor="start" font-family="Sans Serif" font-size="22" transform="matrix(0.320673 0 0 0.320673 3.79135 72.088)" stroke-width="1" alignment-baseline="text-before-edge" xml:space="preserve"><tspan x="0" style="white-space: pre" dy="1.13em">CAM</tspan><tspan x="0" style="white-space: pre" dy="1.13em">5</tspan></text>
  </g>
  <path id="ID0.6237744158133864" fill="none" stroke="#FFFFFF" stroke-width="2.0627833002814273" d="M 78.6521 167.75 L 102.2784 167.75 L 102.2784 197.75 L 78.6521 197.75 L 78.6521 167.75 Z "/>
  <text id="ID0.8139230338856578" fill="#FFFFFF" text-anchor="start" font-family="Sans Serif" font-size="22" transform="matrix(0.315955 0 0 0.315955 82.0319 174.502)" stroke-width="1" alignment-baseline="text-before-edge" xml:space="preserve"><tspan x="0" style="white-space: pre" dy="1.13em">YOU</tspan></text>
  <g id="ID0.9283052841201425">
    <path id="ID0.21148668229579926" fill="#414141" stroke="#FFFFFF" stroke-width="2" d="M 25.45 113.75 L 25.45 95.75 L 51.2 95.75 L 51.2 113.75 Z "/>
    <text id="ID0.622657235711813" fill="#FFFFFF" text-anchor="start" font-family="Sans Serif" font-size="22" transform="matrix(0.320673 0 0 0.320673 27.7913 95.088)" stroke-width="1" alignment-baseline="text-before-edge" xml:space="preserve"><tspan x="0" style="white-space: pre" dy="1.13em">CAM</tspan><tspan x="0" style="white-space: pre" dy="1.13em">1C</tspan></text>
  </g>
  <g id="ID0.9283052841201425">
    <path id="ID0.21148668229579926" fill="#414141" stroke="#FFFFFF" stroke-width="2" d="M 17.45 157.5 L 17.45 139.5 L 43.2 139.5 L 43.2 157.5 Z "/>
    <text id="ID0.622657235711813" fill="#FFFFFF" text-anchor="start" font-family="Sans Serif" font-size="22" transform="matrix(0.320673 0 0 0.320673 19.7913 138.838)" stroke-width="1" alignment-baseline="text-before-edge" xml:space="preserve"><tspan x="0" style="white-space: pre" dy="1.13em">CAM</tspan><tspan x="0" style="white-space: pre" dy="1.13em">3</tspan></text>
  </g>
  <g id="ID0.9283052841201425">
    <path id="ID0.21148668229579926" fill="#414141" stroke="#FFFFFF" stroke-width="2" d="M 54.6 173.25 L 54.6 155.25 L 80.35 155.25 L 80.35 173.25 Z "/>
    <text id="ID0.622657235711813" fill="#FFFFFF" text-anchor="start" font-family="Sans Serif" font-size="22" transform="matrix(0.320673 0 0 0.320673 56.9413 154.588)" stroke-width="1" alignment-baseline="text-before-edge" xml:space="preserve"><tspan x="0" style="white-space: pre" dy="1.13em">CAM</tspan><tspan x="0" style="white-space: pre" dy="1.13em">2A</tspan></text>
  </g>
  <g id="ID0.9283052841201425">
    <path id="ID0.21148668229579926" fill="#414141" stroke="#FFFFFF" stroke-width="2" d="M 54.75 194.75 L 54.75 176.75 L 80.5 176.75 L 80.5 194.75 Z "/>
    <text id="ID0.622657235711813" fill="#FFFFFF" text-anchor="start" font-family="Sans Serif" font-size="22" transform="matrix(0.320673 0 0 0.320673 57.0413 176.088)" stroke-width="1" alignment-baseline="text-before-edge" xml:space="preserve"><tspan x="0" style="white-space: pre" dy="1.13em">CAM</tspan><tspan x="0" style="white-space: pre" dy="1.13em">2B</tspan></text>
  </g>
  <g id="ID0.9283052841201425">
    <path id="ID0.21148668229579926" fill="#414141" stroke="#FFFFFF" stroke-width="2" d="M 100.75 173.25 L 100.75 155.25 L 126.5 155.25 L 126.5 173.25 Z "/>
    <text id="ID0.622657235711813" fill="#FFFFFF" text-anchor="start" font-family="Sans Serif" font-size="22" transform="matrix(0.320673 0 0 0.320673 103.091 154.588)" stroke-width="1" alignment-baseline="text-before-edge" xml:space="preserve"><tspan x="0" style="white-space: pre" dy="1.13em">CAM</tspan><tspan x="0" style="white-space: pre" dy="1.13em">4A</tspan></text>
  </g>
  <g id="ID0.9283052841201425">
    <path id="ID0.21148668229579926" fill="#414141" stroke="#FFFFFF" stroke-width="2" d="M 100.8 195 L 100.8 177 L 126.55 177 L 126.55 195 Z "/>
    <text id="ID0.622657235711813" fill="#FFFFFF" text-anchor="start" font-family="Sans Serif" font-size="22" transform="matrix(0.320673 0 0 0.320673 103.191 176.338)" stroke-width="1" alignment-baseline="text-before-edge" xml:space="preserve"><tspan x="0" style="white-space: pre" dy="1.13em">CAM</tspan><tspan x="0" style="white-space: pre" dy="1.13em">4B</tspan></text>
  </g>
  <g id="ID0.9283052841201425">
    <path id="ID0.21148668229579926" fill="#414141" stroke="#FFFFFF" stroke-width="2" d="M 162.5 153.25 L 162.5 135.25 L 188.25 135.25 L 188.25 153.25 Z "/>
    <text id="ID0.622657235711813" fill="#FFFFFF" text-anchor="start" font-family="Sans Serif" font-size="22" transform="matrix(0.320673 0 0 0.320673 164.841 134.588)" stroke-width="1" alignment-baseline="text-before-edge" xml:space="preserve"><tspan x="0" style="white-space: pre" dy="1.13em">CAM</tspan><tspan x="0" style="white-space: pre" dy="1.13em">6</tspan></text>
  </g>
  <g id="ID0.9283052841201425">
    <path id="ID0.21148668229579926" fill="#414141" stroke="#FFFFFF" stroke-width="2" d="M 161.75 84.75 L 161.75 66.75 L 187.5 66.75 L 187.5 84.75 Z "/>
    <text id="ID0.622657235711813" fill="#FFFFFF" text-anchor="start" font-family="Sans Serif" font-size="22" transform="matrix(0.320673 0 0 0.320673 164.091 66.088)" stroke-width="1" alignment-baseline="text-before-edge" xml:space="preserve"><tspan x="0" style="white-space: pre" dy="1.13em">CAM</tspan><tspan x="0" style="white-space: pre" dy="1.13em">7</tspan></text>
  </g>
  <text id="ID0.09559800615534186" fill="#FFFFFF" text-anchor="start" font-family="Sans Serif" font-size="22" transform="matrix(0.584055 0 0 0.584055 43.4181 -1.35217)" stroke-width="1" alignment-baseline="text-before-edge" xml:space="preserve"><tspan x="0" style="white-space: pre" dy="1.13em">Dining Area</tspan></text>
</svg>