<svg width="886" height="1270" viewBox="0 0 886 1270" fill="none" xmlns="http://www.w3.org/2000/svg">
<g opacity="0.8">
<path d="M442.518 641.019L510.501 170.019H374.535L442.518 641.019Z" fill="url(#paint0_linear)"/>
<path d="M442.518 628.019L510.501 1099.02H374.535L442.518 628.019Z" fill="url(#paint1_linear)"/>
<path d="M449.019 634.519L-21.9814 566.536V702.502L449.019 634.519Z" fill="url(#paint2_linear)"/>
<path d="M436.019 634.519L907.019 566.536V702.502L436.019 634.519Z" fill="url(#paint3_linear)"/>
<path d="M445.768 640.148L269.143 198.259L151.393 266.242L445.768 640.148Z" fill="url(#paint4_linear)"/>
<path d="M439.268 628.89L733.643 1002.8L615.893 1070.78L439.268 628.89Z" fill="url(#paint5_linear)"/>
<path d="M448.148 631.269L6.25844 807.894L74.2414 925.644L448.148 631.269Z" fill="url(#paint6_linear)"/>
<path d="M436.89 637.769L810.796 343.394L878.779 461.144L436.89 637.769Z" fill="url(#paint7_linear)"/>
<path d="M448.148 637.769L74.2413 343.394L6.25829 461.144L448.148 637.769Z" fill="url(#paint8_linear)"/>
<path d="M436.889 631.269L878.779 807.894L810.796 925.644L436.889 631.269Z" fill="url(#paint9_linear)"/>
<path d="M445.769 628.89L151.394 1002.8L269.144 1070.78L445.769 628.89Z" fill="url(#paint10_linear)"/>
<path d="M439.269 640.148L615.894 198.258L733.644 266.241L439.269 640.148Z" fill="url(#paint11_linear)"/>
</g>
<defs>
<linearGradient id="paint0_linear" x1="442.519" y1="491.754" x2="442.519" y2="204.931" gradientUnits="userSpaceOnUse">
<stop stop-color="white"/>
<stop offset="1" stop-color="white" stop-opacity="0"/>
</linearGradient>
<linearGradient id="paint1_linear" x1="442.519" y1="777.284" x2="442.519" y2="1064.11" gradientUnits="userSpaceOnUse">
<stop stop-color="white"/>
<stop offset="1" stop-color="white" stop-opacity="0"/>
</linearGradient>
<linearGradient id="paint2_linear" x1="299.754" y1="634.518" x2="12.9307" y2="634.518" gradientUnits="userSpaceOnUse">
<stop stop-color="white"/>
<stop offset="1" stop-color="white" stop-opacity="0"/>
</linearGradient>
<linearGradient id="paint3_linear" x1="585.284" y1="634.518" x2="872.106" y2="634.518" gradientUnits="userSpaceOnUse">
<stop stop-color="white"/>
<stop offset="1" stop-color="white" stop-opacity="0"/>
</linearGradient>
<linearGradient id="paint4_linear" x1="371.136" y1="510.881" x2="227.725" y2="262.485" gradientUnits="userSpaceOnUse">
<stop stop-color="white"/>
<stop offset="1" stop-color="white" stop-opacity="0"/>
</linearGradient>
<linearGradient id="paint5_linear" x1="513.901" y1="758.157" x2="657.313" y2="1006.55" gradientUnits="userSpaceOnUse">
<stop stop-color="white"/>
<stop offset="1" stop-color="white" stop-opacity="0"/>
</linearGradient>
<linearGradient id="paint6_linear" x1="318.88" y1="705.901" x2="70.4845" y2="849.312" gradientUnits="userSpaceOnUse">
<stop stop-color="white"/>
<stop offset="1" stop-color="white" stop-opacity="0"/>
</linearGradient>
<linearGradient id="paint7_linear" x1="566.157" y1="563.136" x2="814.553" y2="419.725" gradientUnits="userSpaceOnUse">
<stop stop-color="white"/>
<stop offset="1" stop-color="white" stop-opacity="0"/>
</linearGradient>
<linearGradient id="paint8_linear" x1="318.881" y1="563.136" x2="70.4848" y2="419.725" gradientUnits="userSpaceOnUse">
<stop stop-color="white"/>
<stop offset="1" stop-color="white" stop-opacity="0"/>
</linearGradient>
<linearGradient id="paint9_linear" x1="566.157" y1="705.901" x2="814.553" y2="849.313" gradientUnits="userSpaceOnUse">
<stop stop-color="white"/>
<stop offset="1" stop-color="white" stop-opacity="0"/>
</linearGradient>
<linearGradient id="paint10_linear" x1="371.136" y1="758.157" x2="227.724" y2="1006.55" gradientUnits="userSpaceOnUse">
<stop stop-color="white"/>
<stop offset="1" stop-color="white" stop-opacity="0"/>
</linearGradient>
<linearGradient id="paint11_linear" x1="513.901" y1="510.88" x2="657.312" y2="262.485" gradientUnits="userSpaceOnUse">
<stop stop-color="white"/>
<stop offset="1" stop-color="white" stop-opacity="0"/>
</linearGradient>
</defs>
</svg>
