<svg version="1" xmlns="http://www.w3.org/2000/svg" width="682.667" height="682.667" viewBox="0 0 512.000000 512.000000"><path d="M243.8.5c-.1.1-3.4.6-7.3.9C169.7 7.8 117.4 42 89.7 97.5c-13.1 26.4-19.4 48.8-20.2 72-1.3 39.4 14.7 70.8 50.1 98.4 7.2 5.7 27.5 16.2 42.2 22.1 9.2 3.6 13.8 7.9 14.8 14 2.6 15.4 7.4 26.6 13.1 30.1 2.8 1.8 4.4 2 9.1 1.5 3.1-.3 5.7-.5 5.7-.6v-21.3c0-24.8 1.2-32.9 6.1-42.5 4.5-8.7 7.8-11.2 15.2-11.9 9.7-.9 15.1 3.3 18.8 14.5 2.1 6.2 2.2 8 1.8 24.7-.3 9.9-.6 22.5-.7 28l-.2 10 3 1.4c4.2 2.1 11.4 1.7 16.4-.8l4.3-2.2-.6-5.7c-.4-3.1-.8-7.3-1.1-9.2-.2-1.9-.7-5.8-1.1-8.5-1-8-1.1-26.2-.2-32.4 1.1-7.4 5-15.1 9-18.1 4.9-3.6 14.1-3.5 19.5.3 6.8 4.7 11.2 15.2 12.9 30.4.9 7.9.9 29.6.1 36.5-.7 5.5.6 6.8 6.7 6.8 4.7 0 7.9-1.3 11-4.7 4.1-4.4 6.2-10.9 10.2-32.1.2-1.2 1.1-2.2 1.9-2.2 3.3 0 31.7-10.9 41-15.7 7.6-4 9-4.8 9.5-5.3.3-.3 1.6-1.1 3-1.8 8.9-4.6 27.3-21.3 35.2-31.9 7.1-9.7 15.9-27.2 17.4-34.6.2-1 .6-2.7.9-3.7.6-1.9 1.2-4.7 2-9 3.5-20.5 1.6-43.4-5.7-67.4-8.3-27.5-22.4-50.5-43.7-71.5-10.2-10-28.8-24.9-32.3-25.8-1-.3-1.8-.9-1.8-1.3 0-.5-6.4-4-14.2-7.8-14.2-7-27.4-12-39.8-14.9-9.2-2.1-9.9-2.2-15.5-2.9-2.7-.3-5.7-.8-6.5-1.1-1.6-.6-42.6-1.4-43.2-.8zM194 81.4c16.6 3.2 33.7 15.1 42.6 29.7 2.9 4.9 8.7 18.4 8.5 19.9-.1.3.2 2.7.6 5.5.8 5.9.8 7.9-.1 16.6-2.3 23.9-20 45.5-44.3 54-7.1 2.5-23.5 3.5-31.5 2-31.2-5.8-54.2-34.1-53.2-65.5.2-4.4.5-9 .7-10.1 3.3-14.4 8.9-24.8 18.7-34.5 9.6-9.6 22.9-16.1 37-18.2 3.6-.6 16.9-.1 21 .6zm160.7 1.7c11.1 3.4 18.1 7.7 26.8 16.4 14 14 20.3 30.3 19.1 49.5-.6 10.7-2.1 16.3-6.7 25.3-9.1 18.2-25.8 30.8-45.7 34.7-8.5 1.7-23.9.7-32.2-2-35.7-11.8-54.1-51.6-39.9-86.5 6.6-16.1 21.1-30.3 37-36.1 12.4-4.5 29.4-5 41.6-1.3z"/><path d="M77.3 273.1c-11 2-19.5 10.8-20.6 21.4-.6 5.8 1.6 13.4 6.2 20.8l4 6.5-8.1 2.6c-16.7 5.4-22.7 12.7-21.5 26.4 1.1 12.2 8.5 22.5 18.3 25.2 6.8 1.9 15.1.6 26.7-4.2 8.5-3.4 11.5-4.2 18-4.4 8.6-.3 8.2-.4 29.7 7.7 8.5 3.2 22 8.1 30 10.9 8 2.8 15.2 5.4 16 5.7.8.4 1.9.5 2.3.4.5-.1.6.3.2.9-.3.5-1.1 1-1.6 1-2 0-39.6 13.3-46.4 16.5-8 3.7-15.7 5.6-24 6.2-10.5.7-16.7-.7-27.8-6.3-16.4-8.3-32.1-3.6-38.7 11.4-2.4 5.3-3.6 14.4-2.6 19.4 1.4 7.7 10.8 14.9 24.9 18.9 2.6.7 4.6 1.6 4.4 1.9-.2.3-2 4.1-4.1 8.4-4.7 9.8-5.3 18.1-1.8 25.9 3 6.8 6.4 9.5 15.5 12.6 18.3 6.1 29.4-.6 37.8-22.9 3.4-9 6.3-13.3 11.1-16.4 2.8-1.8 30.9-12.2 86.6-32.2 7-2.5 15.2-5.4 18.2-6.5 3-1.1 6-2.1 6.5-2.3.6-.1 3.5-1 6.5-2.1 6.8-2.3 16.9-2.6 23.5-.7 5.2 1.5 31.5 10.6 35 12.2 1.1.5 5.8 2.2 10.5 3.9 27.3 9.5 60.5 21.6 66.7 24.3 4 1.7 9 4.6 11.3 6.5 4.3 3.7 8.6 11 9.5 16.3 1.3 7.2 9.5 16.7 17.8 20.6 15.6 7.2 37-4.8 38.2-21.5.4-6.4-1.6-13-6.1-20.4-2-3.2-3.4-6.1-3.1-6.3.3-.3 3.1-1.2 6.3-2.1 15.9-4.1 23.3-12.9 22.1-26.1-1.4-15-10.9-25.7-23.4-26.5-6.9-.5-12.7 1-21.8 5.3-12.9 6.1-17.6 8-20 8-2.5 0-7.3-1.7-46.7-16.3-15.3-5.6-27.8-10.5-27.8-10.8 0-1.3 47.5-18.7 60.4-22.1 14.8-3.9 29.9-2.7 43.4 3.4 3.5 1.5 7.9 2.8 9.8 2.8 6.9 0 17.2-7.2 23-16 3.4-5.1 4.4-16.1 1.9-21.3-3.1-6.6-9.6-11.5-21.3-16.3-3.2-1.3-5.7-2.7-5.6-3.1 0-.4 1.2-3.4 2.7-6.6 3.3-7.1 4.5-17.7 2.8-25.8-.9-4.3-2-6.4-4.9-9.1-4.6-4.4-9.2-5.9-17.7-5.9-16.6 0-25.8 8.1-32.5 28.6-3.8 11.6-6.5 13.5-32.1 22.8-11.7 4.4-22.3 8.3-23.4 8.8-1.1.5-14.4 5.4-29.5 10.9-15.1 5.6-28.4 10.5-29.5 11-1.1.4-6 2.3-11 4-9.7 3.4-15.7 4.2-22 2.8-4.3-.9-4.4-1-49.2-17.2-16.1-5.8-29.5-10.6-29.9-10.6-.3 0-2-.6-3.7-1.4-3.4-1.5-24.6-8.9-28.7-10.1-6.1-1.8-15.3-7-18-10.4-1.7-1.9-3.7-5.6-4.6-8.1-5.3-14.8-13.7-26.3-21.6-29.4-4.9-2-10.8-2.6-16.5-1.5z"/></svg>